<?xml version="1.0"?>
<!DOCTYPE svg PUBLIC "-//W3C//DTD SVG 1.1//EN" "http://www.w3.org/Graphics/SVG/1.1/DTD/svg11.dtd">
<svg xmlns="http://www.w3.org/2000/svg" width="15cm" height="15cm">
	<g fill="#fff">
		<rect x="0" y="0" width="720" height="184"/>
		<g fill="none" stroke="#000" stroke-width="2">
			<polyline points="228.67,18.93 228.67,19.93 226.67,20.93 221.67,27.93 218.67,59.93 215.67,90.93 215.67,117.93 215.67,138.93 215.67,152.93 217.67,164.93 217.67,169.93 217.67,168.93"/>
			<polyline points="188.67,91.93 188.67,90.93 204.67,82.93 226.67,72.93 248.67,61.93 275.67,49.93 278.67,48.93 274.67,50.93 263.67,57.93 250.67,68.93 236.67,80.93 228.67,83.93 224.67,86.93 225.67,86.93 230.67,84.93 251.67,87.93 279.67,97.93 311.67,112.93 332.67,132.93 347.67,155.93 350.67,170.93 344.67,181.93 326.67,185.93 299.67,184.93 277.67,180.93 271.67,177.93 269.67,175.93 268.67,160.93 275.67,137.93 289.67,123.93 303.67,110.93 313.67,101.93 322.67,96.93 326.67,95.93 330.67,93.93 331.67,93.93 332.67,93.93 333.67,94.93 338.67,108.93 339.67,113.93 341.67,116.93 342.67,115.93 348.67,109.93 355.67,93.93 362.67,88.93 362.67,88.93 362.67,90.93 366.67,96.93 367.67,96.93 368.67,96.93 372.67,96.93 376.67,94.93 381.67,93.93 392.67,95.93 400.67,96.93 403.67,97.93 404.67,97.93 411.67,95.93 418.67,90.93 420.67,90.93 421.67,90.93 426.67,92.93 435.67,93.93 442.67,93.93 447.67,92.93 447.67,93.93 452.67,96.93 453.67,96.93 453.67,97.93 454.67,97.93 462.67,99.93 471.67,99.93 474.67,99.93"/>
		</g>
	</g>
</svg>