<?xml version="1.0"?>
<!DOCTYPE svg PUBLIC "-//W3C//DTD SVG 1.1//EN" "http://www.w3.org/Graphics/SVG/1.1/DTD/svg11.dtd">
<svg xmlns="http://www.w3.org/2000/svg" width="15cm" height="15cm">
	<g fill="#fff">
		<rect x="0" y="0" width="720" height="184"/>
		<g fill="none" stroke="#000" stroke-width="2">
			<polyline points="191.67,22.93 192.67,22.93 191.67,22.93 190.67,23.93 189.67,23.93 188.67,24.93 187.67,24.93 186.67,25.93 184.67,26.93 183.67,27.93 180.67,31.93 179.67,34.93 178.67,38.93 177.67,40.93 174.67,45.93 173.67,47.93 173.67,48.93 172.67,50.93 171.67,51.93 170.67,53.93 169.67,56.93 168.67,60.93 166.67,63.93 165.67,64.93 162.67,70.93 161.67,72.93 160.67,73.93 159.67,77.93 158.67,79.93 157.67,82.93 155.67,85.93 152.67,91.93 152.67,94.93 149.67,98.93 148.67,100.93 147.67,102.93 144.67,108.93 143.67,111.93 140.67,115.93 140.67,118.93 139.67,119.93 138.67,120.93 138.67,123.93 136.67,126.93 134.67,129.93 134.67,132.93 128.67,146.93 127.67,148.93 126.67,151.93 125.67,151.93 125.67,152.93 124.67,154.93 123.67,156.93 123.67,158.93 123.67,159.93 122.67,160.93 122.67,161.93 122.67,162.93 122.67,163.93 122.67,165.93 122.67,165.93 122.67,166.93 122.67,167.93 121.67,168.93 121.67,168.93 121.67,169.93 121.67,170.93 121.67,171.93 121.67,172.93 121.67,173.93 121.67,174.93 121.67,175.93 121.67,176.93 120.67,176.93 120.67,176.93"/>
			<polyline points="141.67,91.93 141.67,90.93 141.67,89.93 141.67,88.93 141.67,88.93 141.67,87.93 141.67,86.93 141.67,85.93 142.67,84.93 142.67,83.93 142.67,82.93 143.67,81.93 144.67,81.93 144.67,80.93 145.67,80.93 146.67,79.93 147.67,78.93 148.67,77.93 150.67,75.93 151.67,74.93 153.67,74.93 154.67,73.93 155.67,72.93 158.67,72.93 160.67,70.93 161.67,70.93 162.67,70.93 163.67,70.93 165.67,69.93 166.67,67.93 168.67,67.93 169.67,67.93 170.67,66.93 171.67,65.93 172.67,65.93 172.67,64.93 173.67,64.93 174.67,64.93 175.67,64.93 176.67,64.93 177.67,63.93 178.67,63.93 178.67,64.93 178.67,64.93 178.67,65.93 178.67,67.93 179.67,69.93 180.67,70.93 181.67,71.93 181.67,72.93 181.67,73.93 182.67,75.93 182.67,77.93 183.67,79.93 184.67,79.93 184.67,80.93 184.67,81.93 184.67,82.93 184.67,83.93 184.67,85.93 185.67,86.93 185.67,87.93 185.67,88.93 185.67,88.93 185.67,89.93 185.67,90.93 186.67,93.93 186.67,95.93 186.67,96.93 186.67,97.93 186.67,99.93 186.67,100.93 186.67,101.93 186.67,102.93 186.67,104.93 186.67,104.93 186.67,105.93 185.67,106.93 184.67,107.93 183.67,108.93 183.67,109.93 182.67,110.93 181.67,110.93 180.67,111.93 178.67,112.93 178.67,112.93 177.67,112.93 175.67,113.93 173.67,114.93 172.67,114.93 171.67,114.93 170.67,115.93 170.67,116.93 169.67,116.93 167.67,117.93 166.67,118.93 166.67,119.93 165.67,119.93 163.67,119.93 162.67,119.93 161.67,120.93 161.67,120.93 160.67,120.93 159.67,121.93 158.67,121.93 157.67,122.93 156.67,122.93 155.67,123.93 154.67,123.93 154.67,123.93 153.67,123.93 153.67,124.93 151.67,125.93 150.67,126.93 148.67,126.93 147.67,126.93 147.67,127.93 146.67,128.93 145.67,128.93 145.67,128.93 144.67,128.93 143.67,128.93 142.67,128.93 143.67,128.93 144.67,128.93 147.67,128.93 150.67,127.93 151.67,126.93 152.67,126.93 154.67,125.93 154.67,125.93 155.67,125.93 156.67,124.93 158.67,122.93 159.67,122.93 161.67,122.93 162.67,121.93 162.67,120.93 165.67,120.93 166.67,120.93 167.67,120.93 169.67,120.93 170.67,119.93 170.67,119.93 175.67,119.93 176.67,117.93 178.67,117.93 180.67,116.93 182.67,116.93 188.67,116.93 190.67,116.93 192.67,116.93 197.67,116.93 199.67,116.93 202.67,116.93 203.67,116.93 209.67,116.93 213.67,115.93 217.67,115.93 223.67,115.93 227.67,115.93 232.67,115.93 233.67,115.93 237.67,114.93 239.67,114.93 242.67,114.93 242.67,114.93 244.67,114.93 246.67,114.93 247.67,114.93 249.67,114.93 251.67,114.93 253.67,114.93 256.67,114.93 256.67,113.93 258.67,113.93 259.67,113.93 260.67,112.93 262.67,112.93 263.67,112.93 265.67,112.93 267.67,112.93 268.67,112.93 269.67,112.93 270.67,112.93 272.67,112.93 273.67,111.93 274.67,111.93 274.67,110.93 275.67,110.93 277.67,109.93 278.67,109.93 280.67,109.93 281.67,109.93 282.67,109.93 282.67,108.93 282.67,107.93 283.67,107.93 283.67,106.93 283.67,105.93 283.67,104.93 283.67,104.93 282.67,104.93 282.67,104.93 281.67,104.93 280.67,104.93 279.67,104.93 278.67,104.93 277.67,104.93 276.67,104.93 275.67,104.93 274.67,104.93 274.67,104.93 273.67,104.93 272.67,104.93 271.67,104.93 270.67,104.93 269.67,104.93 269.67,104.93 268.67,104.93 268.67,105.93 267.67,106.93 266.67,106.93 266.67,106.93 265.67,107.93 264.67,107.93 264.67,108.93 263.67,108.93 261.67,108.93 260.67,109.93 259.67,110.93 258.67,111.93 257.67,112.93 256.67,112.93 256.67,112.93 255.67,112.93 254.67,112.93 253.67,113.93 252.67,114.93 252.67,115.93 250.67,115.93 249.67,116.93 247.67,117.93 246.67,118.93 245.67,119.93 244.67,120.93 243.67,120.93 242.67,121.93 242.67,122.93 241.67,125.93 241.67,126.93 241.67,127.93 240.67,128.93 240.67,128.93 240.67,129.93 240.67,130.93 240.67,131.93 240.67,132.93 240.67,133.93 240.67,134.93 240.67,135.93 241.67,135.93 242.67,135.93 242.67,134.93 243.67,133.93 244.67,133.93 247.67,132.93 247.67,131.93 248.67,131.93 249.67,131.93 250.67,130.93 250.67,130.93 252.67,128.93 253.67,128.93 254.67,128.93 255.67,127.93 256.67,127.93 257.67,127.93 258.67,125.93 260.67,124.93 261.67,124.93 261.67,123.93 263.67,122.93 265.67,120.93 266.67,120.93 266.67,119.93 266.67,118.93 267.67,118.93 267.67,117.93 268.67,115.93 269.67,115.93 270.67,115.93 270.67,114.93 269.67,114.93 268.67,114.93 268.67,115.93 267.67,115.93 267.67,116.93 266.67,116.93 266.67,117.93 266.67,117.93 265.67,118.93 265.67,119.93 264.67,120.93 264.67,120.93 264.67,121.93 264.67,122.93 264.67,123.93 264.67,124.93 264.67,125.93 264.67,126.93 264.67,127.93 264.67,128.93 264.67,128.93 264.67,129.93 264.67,128.93 265.67,128.93 266.67,128.93 266.67,128.93 267.67,128.93 268.67,127.93 271.67,126.93 272.67,125.93 273.67,124.93 274.67,124.93 276.67,122.93 277.67,122.93 277.67,121.93 280.67,120.93 282.67,118.93 282.67,116.93 282.67,115.93 283.67,113.93 284.67,112.93 285.67,110.93 286.67,107.93 286.67,106.93 287.67,104.93 288.67,104.93 288.67,100.93 289.67,99.93 289.67,97.93 289.67,96.93 289.67,95.93 290.67,92.93 290.67,91.93 290.67,89.93 290.67,88.93 290.67,88.93 290.67,87.93 290.67,86.93 290.67,86.93 289.67,86.93 288.67,86.93 287.67,86.93 286.67,86.93 285.67,86.93 284.67,87.93 283.67,87.93 283.67,88.93 282.67,88.93 282.67,88.93 281.67,88.93 281.67,88.93 280.67,88.93 280.67,89.93 279.67,89.93 279.67,90.93 279.67,91.93 279.67,92.93 279.67,94.93 280.67,94.93 280.67,96.93 281.67,96.93 282.67,97.93 282.67,98.93 283.67,101.93 284.67,102.93 287.67,104.93 288.67,105.93 289.67,106.93 289.67,107.93 290.67,108.93 292.67,110.93 293.67,110.93 294.67,111.93 295.67,112.93 296.67,112.93 297.67,113.93 298.67,114.93 298.67,114.93 299.67,115.93 300.67,116.93 302.67,117.93 302.67,118.93 304.67,119.93 306.67,120.93 306.67,120.93 306.67,120.93 307.67,120.93 308.67,121.93 308.67,122.93 309.67,122.93 309.67,123.93 310.67,123.93 310.67,125.93 311.67,125.93 311.67,126.93 311.67,127.93 311.67,128.93 311.67,128.93 311.67,129.93 311.67,130.93 311.67,131.93 311.67,132.93 310.67,132.93 310.67,133.93 309.67,134.93 308.67,135.93 307.67,136.93 306.67,136.93 306.67,136.93 305.67,136.93 304.67,136.93 304.67,137.93 303.67,138.93 302.67,138.93 301.67,138.93 301.67,139.93 300.67,139.93 299.67,139.93 298.67,139.93 298.67,139.93 297.67,139.93 297.67,138.93 296.67,138.93 295.67,137.93 294.67,137.93 294.67,136.93 293.67,136.93 293.67,136.93 292.67,136.93 292.67,135.93 291.67,135.93 290.67,135.93 290.67,134.93 290.67,133.93 289.67,132.93 288.67,132.93 288.67,131.93 288.67,130.93 289.67,130.93 290.67,129.93 291.67,129.93 291.67,128.93 292.67,128.93 294.67,128.93 295.67,128.93 296.67,127.93 297.67,126.93 298.67,126.93 298.67,126.93 299.67,125.93 300.67,124.93 301.67,124.93 302.67,123.93 305.67,123.93 306.67,122.93 307.67,121.93 308.67,121.93 309.67,121.93 310.67,120.93 312.67,120.93 313.67,120.93 314.67,120.93 314.67,120.93 316.67,119.93 317.67,119.93 318.67,118.93 319.67,118.93 320.67,118.93 321.67,118.93 322.67,118.93 322.67,118.93 323.67,118.93 324.67,118.93 325.67,117.93 326.67,117.93 327.67,116.93 328.67,116.93 328.67,115.93 329.67,115.93 329.67,114.93 330.67,114.93 330.67,114.93 330.67,113.93 330.67,112.93 330.67,112.93 330.67,111.93 330.67,110.93 331.67,109.93 331.67,108.93 331.67,107.93 332.67,106.93 332.67,105.93 332.67,104.93 332.67,103.93 332.67,102.93 332.67,101.93 332.67,100.93 332.67,98.93 332.67,97.93 332.67,96.93 332.67,96.93 332.67,95.93 332.67,94.93 332.67,93.93 332.67,92.93 332.67,91.93 332.67,90.93 332.67,89.93 332.67,88.93 332.67,88.93 332.67,87.93 332.67,86.93 332.67,85.93 332.67,84.93 332.67,83.93 332.67,84.93 332.67,85.93 332.67,86.93 332.67,87.93 333.67,88.93 333.67,89.93 334.67,91.93 334.67,92.93 334.67,93.93 335.67,94.93 335.67,96.93 335.67,96.93 335.67,98.93 335.67,100.93 335.67,101.93 335.67,102.93 335.67,103.93 335.67,104.93 335.67,105.93 335.67,106.93 335.67,107.93 335.67,111.93 335.67,112.93 335.67,113.93 335.67,114.93 335.67,115.93 335.67,116.93 335.67,118.93 335.67,119.93 335.67,120.93 335.67,120.93 335.67,122.93 335.67,123.93 335.67,125.93 335.67,126.93 335.67,127.93 335.67,128.93 335.67,129.93 335.67,131.93 334.67,131.93 334.67,134.93 333.67,134.93 333.67,135.93 332.67,136.93 331.67,137.93 331.67,139.93 330.67,140.93 330.67,141.93 329.67,143.93 329.67,144.93 328.67,144.93 328.67,144.93 328.67,145.93 327.67,145.93 326.67,146.93 326.67,148.93 326.67,149.93 324.67,149.93 324.67,151.93 323.67,151.93 323.67,152.93 322.67,152.93 322.67,152.93 322.67,152.93 322.67,152.93 322.67,151.93 322.67,149.93 322.67,148.93 322.67,147.93 322.67,145.93 322.67,144.93 322.67,143.93 322.67,142.93 322.67,141.93 322.67,140.93 322.67,136.93 322.67,135.93 322.67,134.93 322.67,133.93 322.67,132.93 322.67,131.93 322.67,130.93 322.67,129.93 322.67,128.93 322.67,127.93 322.67,127.93 322.67,123.93 324.67,121.93 324.67,120.93 325.67,118.93 325.67,117.93 326.67,117.93 326.67,115.93 328.67,113.93 328.67,112.93 328.67,112.93 330.67,112.93 330.67,110.93 331.67,109.93 333.67,107.93 334.67,105.93 336.67,104.93 338.67,104.93 338.67,102.93 339.67,101.93 340.67,100.93 341.67,99.93 342.67,99.93 343.67,98.93 343.67,97.93 346.67,96.93 346.67,96.93 346.67,95.93 348.67,94.93 349.67,93.93 350.67,93.93 351.67,92.93 352.67,91.93 354.67,91.93 354.67,90.93 356.67,89.93 357.67,89.93 359.67,88.93 360.67,88.93 362.67,87.93 363.67,87.93 364.67,86.93 365.67,85.93 367.67,85.93 368.67,84.93 369.67,84.93 370.67,83.93 371.67,82.93 373.67,81.93 374.67,81.93 375.67,81.93 377.67,81.93 378.67,81.93 380.67,80.93 381.67,79.93 382.67,79.93 383.67,79.93 385.67,79.93 386.67,78.93 387.67,78.93 388.67,78.93 391.67,78.93 392.67,77.93 393.67,77.93 395.67,76.93 397.67,76.93 398.67,76.93 399.67,76.93 401.67,76.93 402.67,76.93 404.67,75.93 406.67,75.93 409.67,75.93 410.67,75.93 410.67,75.93 411.67,75.93 412.67,75.93 413.67,75.93 414.67,75.93 415.67,75.93 417.67,75.93 418.67,75.93 418.67,75.93 419.67,75.93 420.67,75.93 421.67,75.93 422.67,75.93 423.67,75.93 424.67,75.93 425.67,75.93 425.67,76.93 425.67,77.93 425.67,78.93 425.67,79.93 425.67,80.93"/>
			<polyline points="386.67,92.93 385.67,92.93 384.67,92.93 383.67,92.93 382.67,92.93 381.67,92.93 380.67,92.93 379.67,92.93 379.67,93.93 378.67,93.93 378.67,94.93 375.67,95.93 374.67,96.93 373.67,96.93 372.67,96.93 371.67,96.93 371.67,97.93 370.67,97.93 370.67,97.93 369.67,98.93 369.67,99.93 367.67,100.93 366.67,100.93 366.67,101.93 365.67,101.93 364.67,102.93 363.67,103.93 362.67,103.93 362.67,104.93 361.67,104.93 360.67,105.93 359.67,106.93 358.67,106.93 358.67,107.93 358.67,108.93 357.67,109.93 356.67,109.93 356.67,111.93 355.67,111.93 355.67,112.93 355.67,112.93 355.67,113.93 355.67,114.93 355.67,115.93 355.67,116.93 355.67,117.93 356.67,117.93 357.67,117.93 358.67,117.93 359.67,117.93 359.67,116.93 360.67,116.93 362.67,116.93 362.67,115.93 363.67,115.93 363.67,114.93 364.67,114.93 365.67,113.93 366.67,113.93 366.67,112.93 367.67,112.93 367.67,112.93 368.67,112.93 369.67,112.93 370.67,111.93 370.67,111.93 370.67,110.93 371.67,110.93 372.67,110.93 372.67,109.93 373.67,109.93 374.67,108.93 375.67,107.93 376.67,107.93 377.67,107.93 377.67,106.93 378.67,106.93 378.67,105.93 379.67,105.93 380.67,105.93 381.67,104.93 382.67,104.93 383.67,103.93 384.67,103.93 385.67,103.93 386.67,103.93 386.67,102.93 386.67,102.93 386.67,101.93 387.67,101.93 387.67,100.93 388.67,99.93 388.67,98.93 389.67,98.93 390.67,97.93 390.67,96.93 391.67,96.93 391.67,96.93 392.67,96.93 392.67,95.93 391.67,95.93 390.67,95.93 389.67,95.93 389.67,96.93 389.67,96.93 389.67,97.93 389.67,98.93 389.67,99.93 389.67,100.93 390.67,100.93 391.67,100.93 392.67,100.93 393.67,100.93 394.67,100.93 394.67,100.93 395.67,100.93 396.67,100.93 397.67,100.93 398.67,100.93 399.67,100.93 399.67,101.93 400.67,101.93 400.67,102.93 401.67,102.93 402.67,102.93 402.67,103.93 402.67,103.93 403.67,103.93 403.67,104.93 404.67,104.93 405.67,104.93 406.67,105.93 407.67,105.93 407.67,106.93 407.67,107.93 408.67,107.93 408.67,108.93 409.67,108.93 409.67,109.93 410.67,109.93 410.67,110.93 411.67,111.93 412.67,112.93 413.67,112.93 414.67,113.93 415.67,113.93 416.67,114.93 416.67,115.93 417.67,115.93 418.67,116.93 418.67,117.93 419.67,118.93 420.67,118.93 421.67,119.93 422.67,119.93 423.67,120.93 424.67,120.93 425.67,120.93 425.67,120.93 426.67,121.93 427.67,121.93 428.67,121.93 429.67,121.93 430.67,122.93 431.67,122.93 432.67,122.93 433.67,123.93 434.67,123.93 435.67,123.93 436.67,123.93 436.67,124.93 437.67,124.93 439.67,124.93 440.67,124.93 441.67,124.93 442.67,124.93 442.67,124.93 443.67,124.93 444.67,124.93 445.67,124.93 446.67,124.93 447.67,124.93 448.67,124.93 449.67,124.93 450.67,124.93 450.67,124.93 451.67,124.93 452.67,124.93 453.67,124.93 454.67,124.93 455.67,124.93 456.67,124.93 457.67,123.93 458.67,123.93 458.67,123.93 458.67,122.93 459.67,122.93 460.67,122.93 461.67,122.93 462.67,122.93 462.67,121.93 463.67,120.93 464.67,120.93 465.67,120.93 466.67,120.93 466.67,120.93 467.67,120.93 468.67,120.93 469.67,120.93 470.67,120.93 471.67,120.93 472.67,120.93 473.67,120.93 474.67,120.93 474.67,120.93 475.67,120.93 476.67,120.93 477.67,120.93 478.67,120.93 479.67,120.93 480.67,120.93 481.67,120.93 482.67,120.93 482.67,120.93 483.67,120.93 484.67,120.93 485.67,120.93 486.67,120.93 487.67,120.93 488.67,120.93 489.67,120.93 490.67,120.93 490.67,120.93 491.67,120.93"/>
		</g>
	</g>
</svg>