<?xml version="1.0"?>
<!DOCTYPE svg PUBLIC "-//W3C//DTD SVG 1.1//EN" "http://www.w3.org/Graphics/SVG/1.1/DTD/svg11.dtd">
<svg xmlns="http://www.w3.org/2000/svg" width="15cm" height="15cm">
	<g fill="#fff">
		<rect x="0" y="0" width="720" height="184"/>
		<g fill="none" stroke="#000" stroke-width="2">
			<polyline points="187.67,115.93 187.67,116.93 189.67,121.93 190.67,127.93 191.67,130.93 194.67,137.93 194.67,138.93 195.67,139.93 196.67,139.93 197.67,137.93 200.67,136.93 207.67,127.93 217.67,115.93 228.67,88.93 232.67,80.93 232.67,77.93 232.67,74.93 232.67,76.93 233.67,80.93 234.67,80.93 234.67,82.93 235.67,83.93 238.67,86.93 240.67,88.93 241.67,88.93 245.67,86.93 248.67,86.93 255.67,82.93 259.67,82.93 265.67,81.93 266.67,80.93 267.67,77.93 268.67,77.93 268.67,79.93 268.67,84.93 270.67,86.93 272.67,94.93 273.67,99.93 274.67,99.93 274.67,98.93 275.67,96.93 277.67,96.93 279.67,86.93 280.67,84.93 281.67,84.93 282.67,85.93 283.67,91.93 290.67,100.93 291.67,107.93 293.67,109.93 294.67,110.93 295.67,110.93 296.67,109.93 296.67,106.93 297.67,105.93 300.67,100.93 304.67,85.93 306.67,74.93 306.67,61.93 306.67,34.93 305.67,24.93 303.67,23.93 302.67,23.93 299.67,24.93 292.67,34.93 279.67,49.93 263.67,66.93 257.67,79.93 255.67,85.93 254.67,89.93 254.67,91.93 254.67,92.93 257.67,97.93 260.67,98.93 270.67,103.93 282.67,103.93 297.67,105.93 307.67,104.93 314.67,104.93 319.67,98.93 320.67,95.93 321.67,94.93 322.67,90.93 322.67,88.93 322.67,85.93 322.67,80.93 320.67,68.93 317.67,64.93 314.67,57.93 312.67,55.93 311.67,57.93 310.67,60.93 310.67,61.93 314.67,64.93 322.67,71.93 336.67,77.93 348.67,81.93 363.67,85.93 374.67,84.93 380.67,81.93 387.67,75.93 393.67,71.93 397.67,63.93 404.67,50.93 410.67,38.93 414.67,30.93 418.67,24.93 420.67,19.93 422.67,16.93 426.67,13.93 429.67,8.93"/>
		</g>
	</g>
</svg>
