<?xml version="1.0"?>
<!DOCTYPE svg PUBLIC "-//W3C//DTD SVG 1.1//EN" "http://www.w3.org/Graphics/SVG/1.1/DTD/svg11.dtd">
<svg xmlns="http://www.w3.org/2000/svg" width="15cm" height="15cm">
	<g fill="#fff">
		<rect x="0" y="0" width="720" height="184"/>
		<g fill="none" stroke="#000" stroke-width="2">
			<polyline points="205.67,18.93 205.67,19.93 204.67,20.93 200.67,32.93 195.67,58.93 192.67,79.93 187.67,98.93 183.67,112.93 180.67,122.93 176.67,128.93 176.67,129.93"/>
			<polyline points="209.67,73.93 208.67,73.93 203.67,75.93 191.67,80.93 178.67,88.93 163.67,91.93 152.67,91.93 141.67,87.93 132.67,79.93 124.67,67.93 122.67,55.93 120.67,44.93 122.67,37.93 128.67,32.93 134.67,30.93 139.67,27.93 141.67,27.93 141.67,28.93 143.67,33.93 154.67,46.93 168.67,51.93 193.67,55.93 228.67,56.93 266.67,49.93 294.67,44.93 314.67,40.93 319.67,40.93 316.67,40.93 314.67,40.93 312.67,40.93 307.67,41.93 301.67,43.93 295.67,47.93 289.67,49.93 281.67,53.93 271.67,58.93 261.67,64.93 248.67,70.93 235.67,77.93 227.67,83.93 224.67,86.93 225.67,86.93 230.67,84.93 236.67,80.93 242.67,77.93 242.67,77.93 237.67,80.93 233.67,82.93 234.67,82.93 236.67,82.93 241.67,80.93 242.67,80.93 245.67,84.93 250.67,88.93 253.67,90.93 255.67,90.93 258.67,90.93 261.67,90.93 265.67,89.93 266.67,89.93 266.67,89.93 268.67,90.93 269.67,90.93 274.67,88.93 274.67,88.93 274.67,90.93 276.67,94.93 276.67,95.93 277.67,95.93 278.67,95.93 279.67,95.93 282.67,93.93 287.67,91.93 292.67,88.93 295.67,87.93 297.67,86.93 297.67,85.93 298.67,85.93 301.67,82.93 306.67,79.93 310.67,70.93 312.67,68.93 313.67,68.93 313.67,69.93 311.67,71.93 311.67,93.93 308.67,113.93 306.67,128.93 306.67,134.93 306.67,132.93 307.67,125.93 309.67,110.93 314.67,91.93 319.67,78.93 324.67,72.93 329.67,70.93 330.67,70.93 328.67,71.93 323.67,74.93 317.67,78.93 313.67,80.93 308.67,82.93 307.67,83.93 311.67,80.93 323.67,73.93 339.67,52.93 351.67,42.93 355.67,40.93 354.67,40.93 352.67,49.93 353.67,66.93 354.67,80.93 357.67,87.93 359.67,87.93 361.67,87.93 369.67,84.93 381.67,78.93 394.67,78.93 404.67,82.93 408.67,88.93 411.67,93.93 414.67,96.93 418.67,96.93 434.67,92.93 450.67,86.93 464.67,80.93 469.67,78.93"/>
		</g>
	</g>
</svg>