<?xml version="1.0"?>
<!DOCTYPE svg PUBLIC "-//W3C//DTD SVG 1.1//EN" "http://www.w3.org/Graphics/SVG/1.1/DTD/svg11.dtd">
<svg xmlns="http://www.w3.org/2000/svg" width="15cm" height="15cm">
	<g fill="#fff">
		<rect x="0" y="0" width="720" height="184"/>
		<g fill="none" stroke="#000" stroke-width="2">
			<polyline points="178.67,166.93 178.67,165.93 178.67,164.93 178.67,163.93 178.67,161.93 178.67,157.93 178.67,155.93 178.67,154.93 178.67,152.93 178.67,150.93 178.67,149.93 178.67,148.93 178.67,146.93 178.67,145.93 179.67,143.93 180.67,141.93 181.67,137.93 182.67,136.93 183.67,134.93 184.67,131.93 185.67,130.93 186.67,128.93 186.67,126.93 190.67,120.93 193.67,117.93 194.67,115.93 195.67,112.93 198.67,110.93 198.67,109.93 201.67,107.93 202.67,105.93 202.67,104.93 205.67,102.93 205.67,101.93 207.67,100.93 208.67,98.93 209.67,98.93 210.67,96.93 210.67,96.93 211.67,96.93 212.67,96.93 213.67,94.93 214.67,93.93 216.67,91.93 217.67,90.93 218.67,89.93 219.67,89.93 219.67,88.93 221.67,88.93 222.67,87.93 224.67,86.93 224.67,85.93 225.67,85.93 226.67,84.93 226.67,83.93 227.67,83.93 228.67,83.93 228.67,82.93 229.67,82.93 230.67,82.93 231.67,82.93 231.67,80.93 232.67,80.93 233.67,80.93 234.67,80.93 234.67,80.93 235.67,80.93 236.67,81.93 237.67,82.93 237.67,84.93 238.67,85.93 239.67,86.93 239.67,87.93 239.67,88.93 240.67,88.93 241.67,88.93 241.67,89.93 242.67,89.93 242.67,90.93 242.67,90.93 242.67,91.93 243.67,91.93 243.67,92.93 243.67,93.93 244.67,93.93 245.67,93.93 246.67,94.93 246.67,95.93 248.67,95.93 248.67,96.93 249.67,96.93 250.67,96.93 250.67,97.93 251.67,97.93 252.67,97.93 253.67,97.93 254.67,98.93 256.67,98.93 258.67,99.93 258.67,99.93 260.67,99.93 263.67,99.93 267.67,100.93 271.67,101.93 272.67,102.93 274.67,102.93 275.67,102.93 276.67,102.93 278.67,102.93 280.67,103.93 281.67,103.93 282.67,103.93 285.67,103.93 286.67,103.93 288.67,103.93 290.67,103.93 290.67,103.93 292.67,103.93 293.67,103.93 296.67,103.93 299.67,103.93 301.67,103.93 303.67,103.93 304.67,103.93 307.67,103.93 312.67,103.93 314.67,102.93 315.67,102.93 317.67,102.93 319.67,101.93 321.67,101.93 323.67,101.93 327.67,101.93 329.67,100.93 330.67,100.93 332.67,100.93 334.67,100.93 338.67,98.93 340.67,98.93 345.67,97.93 348.67,97.93 349.67,97.93 351.67,97.93 355.67,97.93 358.67,96.93 360.67,96.93 362.67,96.93 363.67,96.93 365.67,95.93 366.67,94.93 370.67,94.93 371.67,93.93 376.67,93.93 378.67,93.93 379.67,92.93 381.67,91.93 383.67,91.93 386.67,90.93 390.67,89.93 392.67,89.93 393.67,89.93 394.67,89.93 397.67,88.93 398.67,88.93 399.67,88.93 403.67,86.93 405.67,86.93 406.67,85.93 408.67,84.93 409.67,84.93 410.67,84.93 411.67,84.93 412.67,83.93 414.67,82.93 416.67,82.93 416.67,81.93 418.67,81.93 419.67,81.93 421.67,80.93 422.67,80.93 423.67,79.93 424.67,79.93 425.67,79.93 426.67,79.93 426.67,79.93 427.67,77.93 428.67,77.93 429.67,76.93 430.67,76.93 431.67,76.93 432.67,76.93 432.67,75.93 432.67,74.93 433.67,74.93 433.67,73.93 434.67,73.93 434.67,73.93 434.67,72.93 435.67,72.93 436.67,72.93 436.67,72.93 437.67,72.93 438.67,72.93 438.67,71.93 439.67,71.93 440.67,71.93 440.67,70.93 441.67,70.93 442.67,70.93 442.67,70.93 443.67,70.93 444.67,69.93 444.67,68.93 445.67,67.93 446.67,67.93 447.67,67.93 448.67,67.93 449.67,67.93 450.67,67.93 450.67,67.93 451.67,67.93 452.67,67.93 453.67,67.93 454.67,67.93 455.67,66.93 456.67,66.93 457.67,66.93 458.67,66.93 458.67,66.93 459.67,66.93 461.67,66.93 462.67,66.93 463.67,66.93 464.67,66.93 465.67,66.93 466.67,66.93 467.67,66.93 468.67,66.93 469.67,66.93 470.67,66.93 471.67,66.93 472.67,66.93 473.67,66.93 474.67,66.93 474.67,66.93 476.67,66.93 477.67,66.93 478.67,66.93 478.67,67.93 479.67,67.93 480.67,67.93 481.67,67.93 481.67,68.93 482.67,68.93 482.67,68.93 483.67,68.93 483.67,69.93 484.67,70.93 485.67,71.93 486.67,71.93 487.67,71.93 488.67,72.93 489.67,73.93 490.67,73.93 490.67,74.93 491.67,75.93 491.67,76.93 493.67,77.93 494.67,78.93 494.67,79.93 495.67,80.93 497.67,81.93 497.67,82.93 497.67,83.93 497.67,85.93 498.67,85.93 498.67,87.93 499.67,88.93 499.67,90.93 499.67,93.93 499.67,96.93 499.67,96.93 499.67,98.93 499.67,99.93 499.67,100.93 499.67,101.93 499.67,103.93 499.67,104.93 499.67,106.93 499.67,108.93 499.67,110.93 499.67,111.93 498.67,113.93 498.67,114.93 498.67,116.93 497.67,117.93 496.67,118.93 495.67,120.93 495.67,120.93 493.67,122.93 492.67,123.93 490.67,125.93 489.67,126.93 487.67,128.93 485.67,129.93 482.67,132.93 476.67,135.93 471.67,136.93 469.67,137.93 466.67,139.93 463.67,140.93 459.67,141.93 456.67,142.93 453.67,143.93 451.67,144.93 449.67,144.93 445.67,144.93 442.67,145.93 439.67,145.93 437.67,145.93 434.67,145.93 430.67,146.93 425.67,147.93 418.67,148.93 414.67,148.93 398.67,150.93 395.67,150.93 391.67,150.93 387.67,150.93 385.67,150.93 380.67,150.93 378.67,150.93 374.67,150.93 370.67,150.93 366.67,150.93 362.67,150.93 355.67,150.93 351.67,150.93 346.67,150.93 338.67,150.93 330.67,150.93 317.67,148.93 309.67,147.93 306.67,146.93 296.67,144.93 292.67,144.93 290.67,144.93 287.67,143.93 283.67,142.93 280.67,140.93 275.67,140.93 272.67,139.93 268.67,137.93 260.67,136.93 258.67,135.93 252.67,134.93 249.67,133.93 245.67,130.93 242.67,130.93 235.67,127.93 231.67,126.93 228.67,125.93 222.67,122.93 219.67,121.93 216.67,120.93 210.67,118.93 208.67,117.93 206.67,115.93 203.67,114.93 202.67,114.93 198.67,112.93 196.67,112.93 194.67,111.93 191.67,107.93 188.67,105.93 184.67,103.93 182.67,101.93 179.67,98.93 179.67,97.93 178.67,96.93 178.67,96.93 177.67,96.93 177.67,95.93 177.67,94.93 176.67,93.93 175.67,93.93 174.67,90.93 174.67,88.93 174.67,88.93 174.67,86.93 174.67,85.93 174.67,84.93 174.67,83.93 174.67,82.93 174.67,81.93 174.67,80.93 174.67,80.93 174.67,79.93 174.67,77.93 174.67,76.93 175.67,76.93 176.67,75.93 176.67,73.93 177.67,72.93 178.67,72.93 178.67,71.93 178.67,70.93 180.67,68.93 181.67,68.93 183.67,66.93 183.67,65.93 184.67,65.93 186.67,64.93 186.67,63.93 186.67,62.93 190.67,62.93 192.67,60.93 193.67,60.93 194.67,59.93 196.67,59.93 196.67,58.93 197.67,57.93 198.67,57.93 199.67,57.93 201.67,56.93 202.67,56.93 202.67,56.93 205.67,55.93 206.67,54.93 209.67,54.93 212.67,53.93 216.67,51.93 218.67,50.93 220.67,50.93 221.67,49.93 226.67,49.93 231.67,48.93 234.67,48.93 238.67,48.93 246.67,47.93 252.67,47.93 256.67,46.93 258.67,46.93 262.67,45.93 265.67,45.93 267.67,44.93 269.67,44.93 273.67,43.93 276.67,43.93 278.67,43.93 285.67,43.93 292.67,42.93 297.67,42.93 299.67,42.93 302.67,42.93 305.67,42.93 309.67,41.93 314.67,41.93 316.67,41.93 318.67,41.93 325.67,41.93 331.67,41.93 334.67,41.93 335.67,41.93 338.67,41.93 338.67,41.93 344.67,41.93 351.67,41.93 354.67,41.93 356.67,41.93 357.67,41.93 359.67,41.93 363.67,41.93 368.67,41.93 370.67,41.93 374.67,41.93 376.67,41.93 378.67,41.93 379.67,41.93 383.67,41.93 385.67,41.93 387.67,42.93 390.67,42.93 392.67,43.93 395.67,43.93 400.67,43.93 402.67,44.93 403.67,45.93 405.67,45.93 406.67,46.93 408.67,46.93 410.67,46.93 411.67,46.93 412.67,46.93 413.67,46.93 414.67,46.93 414.67,47.93 415.67,47.93 416.67,47.93 417.67,47.93 417.67,48.93 417.67,48.93 418.67,48.93 419.67,48.93 420.67,48.93 420.67,49.93 420.67,50.93 419.67,50.93 419.67,51.93 418.67,51.93 418.67,51.93 418.67,52.93 417.67,52.93 417.67,53.93 416.67,53.93 415.67,53.93 415.67,54.93 414.67,54.93 413.67,54.93 412.67,55.93 411.67,55.93 410.67,56.93 410.67,56.93 409.67,56.93 408.67,57.93 407.67,57.93 406.67,57.93 404.67,58.93 403.67,58.93 402.67,59.93 402.67,60.93 400.67,60.93 399.67,61.93 397.67,62.93 396.67,62.93 395.67,63.93 394.67,63.93 392.67,64.93 388.67,65.93 385.67,67.93 384.67,68.93 381.67,69.93 380.67,69.93 377.67,72.93 374.67,72.93 372.67,73.93 370.67,75.93 367.67,76.93 364.67,77.93 355.67,81.93 352.67,82.93 346.67,86.93 342.67,87.93 336.67,90.93 330.67,92.93 324.67,95.93 322.67,96.93 313.67,99.93 307.67,102.93 304.67,104.93 294.67,110.93 290.67,111.93 287.67,112.93 280.67,114.93 275.67,116.93 272.67,118.93 269.67,119.93 266.67,120.93 264.67,120.93 263.67,120.93 260.67,121.93 258.67,122.93 257.67,122.93 256.67,122.93 255.67,122.93 254.67,122.93 253.67,122.93 253.67,121.93 254.67,121.93 255.67,120.93 256.67,120.93 257.67,119.93 258.67,119.93 258.67,118.93 259.67,117.93 260.67,116.93 261.67,116.93 262.67,115.93 263.67,115.93 264.67,115.93 265.67,115.93 265.67,113.93 266.67,113.93 266.67,112.93 266.67,112.93 267.67,112.93 268.67,112.93 269.67,112.93 269.67,112.93 269.67,111.93 270.67,111.93 271.67,111.93 272.67,111.93 272.67,110.93 272.67,109.93 274.67,108.93 274.67,108.93 275.67,108.93 276.67,108.93 277.67,107.93 278.67,107.93 279.67,107.93 280.67,107.93 281.67,107.93 282.67,107.93 282.67,106.93 282.67,106.93 283.67,106.93 284.67,106.93 285.67,106.93 286.67,106.93 287.67,106.93 288.67,107.93 289.67,107.93 290.67,107.93 290.67,108.93 290.67,109.93 291.67,110.93 291.67,111.93 292.67,111.93 292.67,112.93 293.67,112.93 294.67,113.93 294.67,114.93 295.67,115.93 295.67,116.93 296.67,117.93 296.67,118.93 296.67,119.93 297.67,119.93 298.67,120.93 298.67,120.93 298.67,121.93 298.67,122.93 299.67,122.93 300.67,122.93 300.67,123.93 301.67,123.93 301.67,124.93 302.67,124.93 302.67,125.93 303.67,125.93 305.67,125.93 306.67,125.93 306.67,125.93 308.67,125.93 309.67,125.93 310.67,125.93 312.67,125.93 314.67,125.93 314.67,125.93 315.67,124.93 316.67,124.93 317.67,124.93 319.67,123.93 320.67,123.93 322.67,123.93 323.67,123.93 324.67,123.93 325.67,122.93 328.67,122.93 329.67,121.93 330.67,120.93 332.67,120.93 334.67,120.93 335.67,120.93 337.67,120.93 339.67,119.93 341.67,118.93 343.67,117.93 346.67,116.93 348.67,116.93 350.67,116.93 351.67,116.93 354.67,114.93 357.67,113.93 360.67,113.93 362.67,112.93 362.67,112.93 365.67,112.93 366.67,112.93 368.67,110.93 370.67,110.93 374.67,108.93 377.67,108.93 379.67,107.93 380.67,107.93 383.67,105.93 385.67,105.93 386.67,105.93 388.67,105.93 391.67,104.93 394.67,104.93 394.67,102.93 396.67,102.93 399.67,101.93 401.67,101.93 402.67,100.93 409.67,98.93 411.67,97.93 414.67,97.93 415.67,97.93 418.67,97.93 420.67,96.93 421.67,96.93 424.67,95.93 426.67,95.93 430.67,94.93 433.67,94.93 436.67,93.93 438.67,93.93 440.67,93.93 442.67,92.93 443.67,92.93 445.67,91.93 447.67,91.93 449.67,91.93 450.67,91.93 452.67,90.93 453.67,90.93 455.67,90.93 459.67,89.93 460.67,89.93 463.67,89.93 466.67,89.93 468.67,89.93 470.67,89.93 471.67,89.93 472.67,89.93 474.67,89.93 476.67,89.93 477.67,90.93 479.67,91.93 480.67,91.93 481.67,91.93 482.67,91.93 482.67,91.93 483.67,91.93 483.67,92.93 484.67,92.93 485.67,92.93 486.67,92.93 487.67,93.93 488.67,93.93 488.67,94.93 489.67,94.93 490.67,94.93 490.67,94.93 491.67,94.93 492.67,94.93 493.67,94.93 494.67,94.93 495.67,94.93 496.67,94.93 497.67,94.93 498.67,94.93 498.67,94.93 500.67,94.93 501.67,94.93 502.67,94.93 504.67,94.93 507.67,93.93 508.67,93.93 509.67,93.93 510.67,93.93 512.67,92.93 513.67,92.93 514.67,92.93 514.67,92.93 516.67,92.93 518.67,92.93 519.67,91.93 520.67,91.93 521.67,91.93 522.67,91.93 522.67,91.93 523.67,91.93 525.67,91.93 526.67,92.93 526.67,93.93"/>
		</g>
	</g>
</svg>