<?xml version="1.0"?>
<!DOCTYPE svg PUBLIC "-//W3C//DTD SVG 1.1//EN" "http://www.w3.org/Graphics/SVG/1.1/DTD/svg11.dtd">
<svg xmlns="http://www.w3.org/2000/svg" width="15cm" height="15cm">
	<g fill="#fff">
		<rect x="0" y="0" width="720" height="184"/>
		<g fill="none" stroke="#000" stroke-width="2">
			<polyline points="266.67,31.93 266.67,32.93 266.67,34.93 266.67,43.93 265.67,56.93 258.67,76.93 250.67,103.93 243.67,125.93 241.67,141.93 238.67,149.93 236.67,152.93 235.67,153.93 233.67,147.93"/>
			<polyline points="214.67,92.93 211.67,94.93 213.67,94.93 218.67,94.93 242.67,92.93 287.67,87.93 338.67,78.93 382.67,72.93 406.67,67.93 412.67,65.93"/>
			<polyline points="306.67,66.93 306.67,65.93 306.67,60.93 309.67,53.93 314.67,46.93 315.67,41.93 316.67,41.93 312.67,48.93 306.67,67.93 294.67,93.93 283.67,121.93 276.67,141.93 275.67,149.93 276.67,150.93 285.67,145.93 305.67,127.93 322.67,103.93 329.67,85.93 331.67,71.93 331.67,66.93 330.67,65.93 325.67,68.93 320.67,75.93 315.67,89.93 314.67,101.93 314.67,109.93 319.67,112.93 326.67,112.93 334.67,106.93 343.67,95.93 347.67,83.93 347.67,77.93 344.67,79.93 338.67,88.93 333.67,103.93 332.67,112.93 333.67,117.93 338.67,117.93 348.67,113.93 361.67,96.93 367.67,83.93 367.67,72.93 366.67,72.93 362.67,74.93 358.67,82.93 355.67,97.93 354.67,105.93 356.67,109.93 359.67,111.93 365.67,107.93 371.67,102.93 379.67,93.93 381.67,89.93 381.67,88.93 380.67,89.93 376.67,95.93 373.67,104.93 373.67,110.93 373.67,112.93 373.67,113.93 377.67,113.93 382.67,113.93 386.67,113.93 390.67,113.93 394.67,112.93 398.67,108.93 406.67,102.93 413.67,94.93 418.67,84.93 421.67,72.93 426.67,61.93 433.67,53.93 433.67,51.93 424.67,55.93 414.67,61.93 408.67,68.93 403.67,87.93 408.67,105.93 420.67,121.93 431.67,132.93 438.67,138.93 440.67,143.93 440.67,147.93 436.67,151.93 434.67,153.93 432.67,153.93 432.67,150.93 434.67,140.93 444.67,122.93 464.67,99.93 498.67,77.93 530.67,66.93 556.67,60.93 568.67,60.93 570.67,60.93 570.67,61.93"/>
		</g>
	</g>
</svg>