<?xml version="1.0"?>
<!DOCTYPE svg PUBLIC "-//W3C//DTD SVG 1.1//EN" "http://www.w3.org/Graphics/SVG/1.1/DTD/svg11.dtd">
<svg xmlns="http://www.w3.org/2000/svg" width="15cm" height="15cm">
	<g fill="#fff">
		<rect x="0" y="0" width="720" height="184"/>
		<g fill="none" stroke="#000" stroke-width="2">
			<polyline points="192,58.93 192,60.93 192,61.93 192,62.93 191,63.93 191,64.93 191,64.93 190,65.93 189,66.93 189,67.93 188,68.93 188,70.93 188,71.93 188,72.93 187,72.93 187,73.93 186,75.93 185,77.93 184,79.93 183,79.93 182,80.93 181,82.93 180,82.93 180,85.93 180,86.93 178,87.93 177,89.93 176,90.93 176,91.93 175,93.93 174,95.93 172,95.93 172,96.93 172,98.93 171,100.93 169,101.93 169,103.93 167,104.93 166,104.93 165,107.93 164,109.93 164,109.93 164,110.93 163,112.93 162,112.93 161,112.93 161,114.93 159,115.93 159,116.93 159,118.93 158,118.93 156,119.93 156,120.93 155,123.93 154,125.93 153,126.93 153,127.93 152,128.93 151,128.93 150,129.93 150,130.93 150,131.93 149,131.93 149,132.93 149,133.93 148,133.93 148,132.93 148,131.93 148,129.93 148,128.93 148,127.93 149,125.93 150,123.93 151,122.93 151,120.93 152,119.93 152,118.93 153,117.93 154,115.93 155,114.93 155,113.93 156,112.93 156,110.93 157,108.93 159,106.93 159,105.93 160,104.93 160,104.93 161,102.93 162,102.93 162,100.93 163,98.93 164,98.93 164,96.93 166,94.93 166,92.93 168,90.93 169,89.93 170,88.93 171,86.93 172,85.93 172,84.93 174,82.93 174,81.93 175,80.93 177,78.93 178,77.93 180,75.93 180,75.93 180,73.93 181,72.93 183,72.93 183,71.93 184,70.93 185,69.93 186,68.93 186,67.93 187,67.93 188,65.93 188,64.93 189,64.93 190,62.93 191,62.93 191,61.93 192,61.93 192,60.93 193,59.93 194,59.93 194,58.93 195,57.93 196,56.93 196,57.93 196,59.93 196,60.93 196,62.93 196,64.93 196,64.93 196,65.93 196,67.93 196,68.93 196,69.93 196,70.93 196,71.93 196,72.93 196,72.93 196,74.93 196,75.93 196,76.93 196,77.93 196,78.93 196,79.93 196,80.93 196,81.93 196,83.93 196,84.93 197,86.93 197,87.93 197,88.93 197,88.93 197,89.93 198,90.93 198,91.93 198,92.93 198,93.93 199,94.93 199,95.93 199,96.93 199,96.93 199,97.93 199,98.93 199,99.93 200,99.93 200,100.93 201,100.93 201,99.93 202,97.93 203,97.93 204,96.93 204,95.93 206,94.93 206,93.93 207,91.93 209,90.93 210,88.93 211,88.93 212,88.93 212,87.93 212,85.93 213,85.93 214,84.93 214,83.93 215,82.93 216,82.93 217,81.93 217,80.93 218,80.93 219,80.93 219,79.93 220,79.93 220,78.93 221,77.93 221,76.93 222,76.93 222,75.93 223,74.93 224,73.93 225,72.93 226,72.93 227,72.93 228,70.93 229,69.93 229,68.93 230,68.93 231,67.93 231,66.93 232,66.93 232,65.93 233,64.93 234,64.93 234,63.93 234,62.93 235,62.93 236,62.93 236,63.93 236,64.93 236,65.93 236,66.93 236,68.93 236,69.93 236,70.93 236,71.93 236,72.93 236,73.93 236,74.93 236,77.93 236,79.93 236,80.93 236,82.93 236,84.93 236,85.93 236,87.93 236,88.93 236,88.93 235,90.93 235,91.93 235,93.93 235,95.93 235,96.93 235,97.93 235,98.93 235,100.93 235,102.93 235,104.93 235,104.93 235,106.93 235,109.93 234,110.93 234,111.93 234,112.93 234,112.93 234,114.93 234,115.93 234,116.93 234,117.93 234,118.93 234,120.93 234,120.93 234,121.93 234,122.93 234,123.93 234,124.93 234,125.93 235,125.93 236,124.93 236,123.93 237,123.93 238,120.93 239,120.93 241,119.93 241,118.93 242,118.93 243,116.93 244,115.93 244,113.93 245,113.93 247,112.93 247,111.93 248,110.93 249,110.93 250,108.93 251,106.93 252,105.93 252,104.93 252,104.93 253,103.93 253,102.93 254,101.93 255,100.93 255,99.93 256,98.93 257,96.93 258,96.93 258,95.93 259,93.93 260,91.93 260,90.93 261,88.93 261,88.93 262,87.93 263,86.93 263,85.93 264,85.93 264,84.93 265,82.93 266,82.93 266,81.93 266,80.93 267,80.93 267,79.93 268,78.93 268,77.93 268,76.93 268,75.93 268,74.93 268,73.93 269,73.93 269,72.93 269,72.93 269,71.93 269,70.93 269,69.93 269,68.93 269,67.93 268,67.93 268,67.93 267,67.93 266,67.93 265,67.93 265,68.93 264,68.93 263,68.93 262,69.93 261,70.93 260,70.93 260,71.93 260,71.93 259,72.93 258,72.93 258,72.93 257,72.93 256,73.93 256,74.93 255,74.93 254,75.93 253,76.93 253,77.93 252,78.93 252,78.93 252,80.93 251,80.93 250,80.93 249,81.93 248,83.93 247,84.93 246,85.93 246,86.93 245,87.93 244,88.93 244,88.93 244,89.93 244,89.93 243,90.93 243,91.93 242,91.93 242,92.93 242,93.93 242,94.93 241,95.93 241,96.93 240,96.93 240,96.93 240,97.93 240,98.93 240,99.93 240,100.93 240,101.93 240,102.93 240,103.93 240,104.93 240,104.93 241,104.93 242,104.93 243,104.93 244,104.93 244,104.93 245,104.93 245,103.93 246,103.93 247,103.93 248,103.93 249,103.93 250,102.93 250,101.93 251,101.93 252,100.93 252,100.93 252,99.93 253,99.93 254,99.93 256,97.93 257,96.93 258,96.93 259,96.93 260,96.93 260,95.93 260,94.93 261,94.93 262,94.93 263,93.93 264,92.93 265,91.93 266,90.93 266,89.93 267,88.93 268,88.93 268,88.93 268,88.93 268,87.93 268,86.93 269,86.93 270,86.93 270,85.93 271,84.93 271,83.93 272,83.93 271,84.93 271,85.93 271,86.93 271,87.93 270,87.93 270,88.93 270,88.93 270,89.93 270,90.93 270,91.93 270,92.93 270,93.93 270,95.93 270,96.93 270,96.93 270,97.93 270,98.93 270,99.93 270,100.93 270,101.93 270,102.93 270,103.93 271,103.93 271,104.93 271,104.93 272,104.93 272,105.93 273,105.93 274,105.93 275,105.93 276,105.93 276,105.93 276,104.93 277,104.93 277,104.93 278,104.93 278,103.93 279,103.93 280,102.93 281,101.93 281,100.93 282,99.93 283,98.93 284,98.93 284,97.93 284,96.93 284,96.93 284,96.93 285,95.93 285,94.93 286,93.93 286,92.93 287,92.93 288,91.93 288,90.93 288,89.93 289,88.93 289,88.93 290,87.93 290,86.93 291,85.93 292,84.93 292,83.93 292,82.93 292,81.93 293,81.93 293,80.93 294,80.93 294,80.93 295,79.93 296,79.93 297,79.93 297,80.93 297,80.93 297,81.93 296,82.93 296,83.93 296,84.93 295,85.93 295,86.93 295,87.93 295,88.93 295,88.93 295,89.93 294,89.93 294,90.93 294,91.93 294,92.93 294,93.93 294,94.93 294,95.93 294,96.93 294,96.93 294,97.93 294,98.93 294,99.93 294,100.93 294,101.93 295,102.93 296,102.93 296,103.93 297,103.93 298,103.93 299,103.93 300,103.93 300,102.93 301,102.93 301,101.93 301,100.93 302,100.93 303,100.93 303,99.93 304,98.93 305,98.93 305,97.93 306,96.93 306,96.93 307,96.93 308,95.93 308,94.93 308,93.93 308,92.93 309,91.93 309,90.93 309,89.93 310,89.93 310,88.93 311,88.93 312,87.93 312,86.93 312,85.93 313,85.93 313,84.93 314,83.93 314,82.93 315,81.93 315,80.93 316,80.93 316,80.93 316,80.93 316,79.93 316,78.93 316,77.93 317,77.93 317,76.93 317,78.93 317,79.93 317,80.93 317,81.93 316,83.93 316,86.93 316,88.93 316,88.93 316,89.93 316,90.93 316,92.93 316,93.93 316,95.93 316,96.93 316,96.93 316,98.93 316,100.93 316,101.93 316,103.93 316,104.93 316,105.93 316,107.93 316,108.93 316,109.93 316,111.93 316,112.93 316,113.93 316,114.93 316,116.93 316,117.93 316,118.93 317,119.93 317,120.93 317,120.93 318,121.93 318,122.93 318,123.93 319,124.93 320,125.93 320,126.93 321,126.93 322,126.93 323,126.93 323,125.93 323,123.93 323,122.93 324,122.93 324,120.93 324,119.93 324,117.93 324,116.93 324,114.93 324,112.93 325,112.93 326,111.93 326,108.93 327,107.93 327,106.93 327,105.93 328,104.93 328,102.93 328,101.93 328,100.93 328,98.93 328,96.93 328,95.93 328,94.93 328,92.93 328,89.93 328,88.93 328,86.93 328,83.93 329,81.93 330,80.93 330,77.93 331,76.93 332,73.93 332,72.93 332,71.93 333,67.93 333,64.93 335,61.93 335,58.93 336,54.93 336,52.93 337,49.93 337,47.93 339,45.93 339,43.93 339,40.93 339,38.93 340,37.93 340,36.93 340,33.93 340,31.93 340,29.93 341,26.93 342,25.93 342,24.93 343,22.93 343,20.93 343,19.93 343,17.93 344,16.93 344,16.93 344,14.93 345,13.93 345,12.93 346,10.93 346,8.93 346,8.93 346,7.93 346,6.93 347,6.93 347,5.93 347,4.93 347,3.93 347,2.93 347,1.93 346,1.93 345,1.93 345,0.93 344,0.93 343,0.93 342,0.93 341,0.93 341,1.93 340,1.93 340,2.93 340,3.93 340,4.93 339,4.93 339,5.93 338,5.93 337,5.93 337,6.93 337,7.93 337,8.93 336,8.93 336,9.93 335,10.93 335,11.93 335,12.93 335,14.93 335,15.93 334,16.93 334,16.93 334,17.93 334,19.93 334,21.93 334,23.93 334,24.93 334,25.93 334,26.93 334,27.93 334,30.93 334,31.93 334,32.93 334,33.93 334,35.93 334,37.93 334,38.93 335,40.93 335,42.93 335,44.93 335,46.93 335,48.93 335,49.93 335,52.93 335,54.93 335,56.93 335,58.93 335,59.93 335,62.93 335,64.93 335,64.93 335,67.93 335,69.93 335,71.93 335,72.93 335,74.93 335,76.93 335,79.93 335,81.93 336,81.93 336,83.93 336,85.93 336,86.93 337,88.93 337,88.93 337,89.93 337,90.93 337,92.93 337,93.93 337,94.93 337,95.93 337,96.93 337,96.93 337,97.93 337,98.93 337,99.93 338,99.93 338,100.93 338,102.93 338,103.93 338,104.93 338,104.93 338,106.93 339,107.93 339,108.93 339,109.93 339,110.93 340,110.93 340,111.93 339,110.93 339,109.93 339,108.93 338,107.93 337,106.93 337,105.93 337,104.93 336,104.93 336,104.93 335,103.93 334,103.93"/>
			<polyline points="315,89.93 316,89.93 316,89.93 317,89.93 318,89.93 318,88.93 319,88.93 320,88.93 320,88.93 321,88.93 322,88.93 323,87.93 324,87.93 324,86.93 324,86.93 325,86.93 325,85.93 326,85.93 327,85.93 328,85.93 329,85.93 329,84.93 330,84.93 331,84.93 332,84.93 332,83.93 333,83.93 334,83.93 335,83.93 336,83.93 337,83.93 337,82.93 338,82.93 338,81.93 339,81.93 340,81.93 340,80.93 341,80.93 342,80.93 343,80.93 344,80.93 344,80.93 343,80.93"/>
		</g>
	</g>
</svg>