<?xml version="1.0"?>
<!DOCTYPE svg PUBLIC "-//W3C//DTD SVG 1.1//EN" "http://www.w3.org/Graphics/SVG/1.1/DTD/svg11.dtd">
<svg xmlns="http://www.w3.org/2000/svg" width="15cm" height="15cm">
	<g fill="#fff">
		<rect x="0" y="0" width="720" height="184"/>
		<g fill="none" stroke="#000" stroke-width="2">
			<polyline points="193.67,27.93 193.67,28.93 191.67,31.93 179.67,48.93 163.67,83.93 150.67,112.93 144.67,132.93 140.67,143.93 139.67,144.93 140.67,144.93"/>
			<polyline points="136.67,82.93 136.67,81.93 140.67,80.93 147.67,76.93 161.67,70.93 175.67,64.93 183.67,59.93 185.67,59.93 182.67,60.93 174.67,66.93 168.67,72.93 154.67,80.93 136.67,88.93 127.67,93.93 126.67,93.93 130.67,92.93 138.67,88.93 148.67,84.93 155.67,80.93 162.67,80.93 181.67,87.93 200.67,102.93 223.67,128.93 233.67,146.93 234.67,160.93 227.67,168.93 218.67,173.93 212.67,176.93 207.67,176.93 208.67,168.93 215.67,158.93 230.67,147.93 241.67,138.93 249.67,130.93 253.67,126.93 254.67,124.93 255.67,125.93 256.67,127.93 258.67,130.93 258.67,132.93 261.67,133.93 264.67,132.93 267.67,129.93 271.67,120.93 271.67,114.93 271.67,112.93 270.67,112.93 268.67,112.93 266.67,114.93 265.67,115.93 265.67,117.93 267.67,119.93 269.67,119.93 273.67,119.93 276.67,116.93 278.67,115.93 277.67,115.93 274.67,119.93 276.67,125.93 280.67,128.93 284.67,129.93 290.67,129.93 300.67,121.93 306.67,112.93 311.67,104.93 314.67,101.93 317.67,101.93 322.67,107.93 329.67,120.93 332.67,133.93 334.67,150.93 332.67,165.93 324.67,174.93 318.67,177.93 318.67,176.93 320.67,163.93 333.67,140.93 355.67,110.93 382.67,87.93 403.67,74.93 423.67,67.93 431.67,64.93 431.67,66.93 423.67,72.93 415.67,77.93"/>
		</g>
	</g>
</svg>