<?xml version="1.0"?>
<!DOCTYPE svg PUBLIC "-//W3C//DTD SVG 1.1//EN" "http://www.w3.org/Graphics/SVG/1.1/DTD/svg11.dtd">
<svg xmlns="http://www.w3.org/2000/svg" width="15cm" height="15cm">
	<g fill="#fff">
		<rect x="0" y="0" width="719" height="183"/>
		<g fill="none" stroke="#000" stroke-width="2">
			<polyline points="217,61.57 217,60.57 220,58.57 223,56.57 228,52.57 230,47.57 232,45.57 232,46.57 225,53.57 223,67.57 219,86.57 216,104.57 213,121.57 212,138.57 212,150.57 211,155.57 210,157.57 210,156.57 211,156.57 211,155.57 213,155.57 217,153.57 221,148.57 221,142.57 223,136.57 225,128.57 227,118.57 229,101.57 229,86.57 229,75.57 229,71.57 229,70.57 225,70.57 217,72.57 207,77.57 197,82.57 193,85.57 192,85.57 203,80.57 220,73.57 238,61.57 252,46.57 258,39.57 258,36.57 256,36.57 250,40.57 239,45.57 225,59.57 222,73.57 222,84.57 233,87.57 256,87.57 286,78.57 308,68.57 320,60.57 325,57.57 326,57.57 325,57.57 320,60.57 313,68.57 307,82.57 304,95.57 303,106.57 304,111.57 307,111.57 313,110.57 318,107.57 326,100.57 335,90.57 339,85.57 338,85.57 331,89.57 325,96.57 322,104.57 322,108.57 322,109.57 323,109.57 328,108.57 333,105.57 337,103.57 338,102.57 335,104.57 334,110.57 334,112.57 335,112.57 338,111.57 340,109.57 340,110.57 341,110.57 342,109.57 349,106.57 355,102.57 358,100.57 356,101.57 350,105.57 347,111.57 347,117.57 347,118.57 347,119.57 353,119.57 361,117.57 376,106.57 394,92.57 406,80.57 412,76.57 412,75.57 401,80.57 397,88.57 394,100.57 394,108.57 396,112.57 409,114.57 428,110.57 463,100.57 500,91.57 537,84.57 562,75.57 573,72.57 573,71.57 574,71.57 575,71.57 580,71.57"/>
		</g>
	</g>
</svg>