<?xml version="1.0"?>
<!DOCTYPE svg PUBLIC "-//W3C//DTD SVG 1.1//EN" "http://www.w3.org/Graphics/SVG/1.1/DTD/svg11.dtd">
<svg xmlns="http://www.w3.org/2000/svg" width="15cm" height="15cm">
	<g fill="#fff">
		<rect x="0" y="0" width="720" height="184"/>
		<g fill="none" stroke="#000" stroke-width="2">
			<polyline points="217.67,32.93 217.67,32.93 216.67,33.93 216.67,34.93 216.67,35.93 215.67,38.93 215.67,40.93 215.67,40.93 215.67,42.93 214.67,44.93 214.67,45.93 214.67,47.93 214.67,48.93 214.67,49.93 214.67,51.93 212.67,52.93 212.67,54.93 212.67,55.93 212.67,56.93 211.67,58.93 211.67,59.93 211.67,60.93 211.67,63.93 211.67,65.93 211.67,68.93 211.67,69.93 210.67,71.93 210.67,72.93 210.67,73.93 210.67,75.93 209.67,76.93 209.67,78.93 209.67,80.93 209.67,81.93 208.67,83.93 208.67,85.93 208.67,88.93 208.67,88.93 208.67,89.93 208.67,91.93 208.67,92.93 207.67,95.93 207.67,96.93 206.67,97.93 206.67,100.93 205.67,102.93 205.67,103.93 204.67,105.93 204.67,106.93 204.67,108.93 204.67,110.93 204.67,112.93 203.67,113.93 203.67,114.93 203.67,116.93 203.67,117.93 203.67,118.93 203.67,120.93 203.67,121.93 203.67,122.93 203.67,124.93 203.67,125.93 203.67,127.93 202.67,128.93 202.67,128.93 202.67,129.93 202.67,130.93 202.67,131.93 202.67,132.93 202.67,133.93 202.67,134.93 202.67,135.93 202.67,136.93"/>
			<polyline points="187.67,51.93 190.67,49.93 191.67,49.93 192.67,49.93 192.67,48.93 194.67,48.93 194.67,47.93 196.67,47.93 197.67,46.93 197.67,45.93 198.67,44.93 200.67,44.93 201.67,44.93 202.67,43.93 202.67,42.93 203.67,42.93 204.67,42.93 204.67,41.93 205.67,41.93 206.67,41.93 207.67,40.93 208.67,40.93 209.67,40.93 210.67,39.93 211.67,39.93 212.67,39.93 213.67,39.93 213.67,38.93 215.67,38.93 216.67,38.93 217.67,37.93 218.67,37.93 218.67,37.93 219.67,37.93 220.67,37.93 221.67,37.93 222.67,37.93 222.67,38.93 223.67,38.93 223.67,39.93 223.67,40.93 224.67,40.93 224.67,40.93 224.67,41.93 224.67,44.93 224.67,45.93 224.67,46.93 224.67,47.93 224.67,48.93 224.67,48.93 224.67,50.93 224.67,51.93 223.67,52.93 223.67,53.93 223.67,54.93 223.67,55.93 223.67,56.93 223.67,56.93 222.67,58.93 222.67,59.93 221.67,60.93 220.67,61.93 220.67,62.93 220.67,63.93 220.67,64.93 219.67,64.93 218.67,65.93 218.67,66.93 218.67,67.93 218.67,68.93 217.67,69.93 216.67,70.93 216.67,71.93 216.67,72.93 215.67,73.93 214.67,74.93 212.67,75.93 212.67,76.93 212.67,77.93 210.67,78.93 210.67,79.93 210.67,80.93 208.67,81.93 206.67,82.93 204.67,84.93 203.67,86.93 202.67,88.93 201.67,88.93 199.67,90.93 198.67,91.93 197.67,92.93 195.67,93.93 194.67,95.93 194.67,96.93 193.67,96.93 191.67,97.93 191.67,98.93 189.67,99.93 186.67,100.93 185.67,102.93 184.67,103.93 184.67,104.93 182.67,104.93 180.67,104.93 180.67,105.93 179.67,106.93 178.67,107.93 177.67,108.93 175.67,109.93 175.67,110.93 174.67,110.93 173.67,110.93 172.67,111.93 171.67,112.93 170.67,112.93 170.67,112.93 170.67,112.93 169.67,113.93 168.67,114.93 167.67,114.93 166.67,115.93 166.67,116.93 165.67,116.93 164.67,116.93 163.67,116.93 163.67,117.93 162.67,117.93 162.67,118.93 162.67,118.93 161.67,118.93 161.67,117.93 162.67,117.93 162.67,117.93 163.67,115.93 164.67,115.93 164.67,114.93 165.67,113.93 165.67,112.93 166.67,112.93 167.67,112.93 168.67,111.93 169.67,110.93 170.67,110.93 170.67,109.93 170.67,109.93 171.67,109.93 171.67,108.93 172.67,108.93 173.67,108.93 173.67,107.93 174.67,107.93 175.67,106.93 176.67,106.93 177.67,106.93 178.67,106.93 178.67,105.93 179.67,104.93 180.67,104.93 180.67,104.93 181.67,104.93 182.67,104.93 183.67,104.93 184.67,104.93 185.67,103.93 186.67,103.93 186.67,103.93 187.67,103.93 189.67,103.93 190.67,103.93 191.67,103.93 193.67,103.93 194.67,103.93 195.67,104.93 197.67,104.93 199.67,104.93 200.67,104.93 202.67,104.93 202.67,104.93 205.67,104.93 207.67,105.93 208.67,106.93 210.67,106.93 211.67,106.93 214.67,108.93 215.67,108.93 217.67,109.93 219.67,109.93 222.67,110.93 223.67,111.93 226.67,111.93 229.67,112.93 231.67,112.93 234.67,112.93 235.67,113.93 238.67,113.93 240.67,114.93 242.67,115.93 244.67,116.93 248.67,117.93 250.67,117.93 251.67,119.93 254.67,119.93 258.67,120.93 259.67,120.93 263.67,121.93 266.67,122.93 268.67,123.93 271.67,124.93 273.67,125.93 275.67,126.93 279.67,126.93 281.67,128.93 282.67,128.93 285.67,129.93 288.67,130.93 290.67,130.93 290.67,131.93 293.67,132.93 296.67,133.93 297.67,134.93 299.67,134.93 302.67,135.93 305.67,136.93 306.67,136.93 308.67,136.93 310.67,137.93 312.67,138.93 313.67,138.93 315.67,139.93 317.67,140.93 319.67,140.93 321.67,141.93 322.67,143.93 323.67,143.93 324.67,143.93 325.67,143.93 327.67,143.93 329.67,144.93 330.67,144.93 331.67,144.93 332.67,144.93 333.67,145.93 334.67,146.93 336.67,146.93 337.67,146.93 338.67,146.93 339.67,146.93 341.67,147.93 340.67,147.93 339.67,147.93 338.67,147.93 338.67,146.93 337.67,146.93 337.67,145.93 336.67,145.93 335.67,145.93 334.67,145.93 333.67,145.93 333.67,144.93"/>
			<polyline points="303.67,82.93 301.67,82.93 300.67,82.93 299.67,82.93 298.67,82.93 298.67,82.93 297.67,82.93 296.67,83.93 295.67,83.93 294.67,83.93 294.67,84.93 293.67,84.93 293.67,85.93 292.67,85.93 291.67,85.93 290.67,85.93 290.67,86.93 289.67,87.93 288.67,88.93 287.67,88.93 286.67,88.93 285.67,88.93 285.67,89.93 284.67,89.93 283.67,90.93 282.67,91.93 282.67,92.93 281.67,93.93 281.67,94.93 280.67,94.93 280.67,95.93 279.67,96.93 279.67,96.93 278.67,97.93 278.67,98.93 277.67,98.93 277.67,99.93 276.67,100.93 276.67,101.93 276.67,102.93 276.67,103.93 275.67,103.93 275.67,104.93 275.67,104.93 274.67,104.93 274.67,105.93 274.67,106.93 274.67,107.93 274.67,108.93 274.67,109.93 275.67,109.93 276.67,109.93 277.67,109.93 278.67,109.93 279.67,109.93 280.67,109.93 281.67,109.93 282.67,108.93 282.67,108.93 283.67,108.93 283.67,107.93 284.67,107.93 284.67,106.93 285.67,106.93 286.67,106.93 287.67,105.93 288.67,105.93 289.67,104.93 289.67,104.93 290.67,104.93 290.67,104.93 291.67,104.93 292.67,103.93 293.67,103.93 293.67,102.93 294.67,102.93 294.67,101.93 295.67,101.93 296.67,101.93 297.67,101.93 298.67,100.93 298.67,99.93 298.67,99.93 299.67,99.93 300.67,99.93 300.67,98.93 301.67,98.93 302.67,98.93 302.67,97.93 303.67,96.93 304.67,96.93 305.67,96.93 306.67,96.93 306.67,95.93 306.67,95.93 306.67,94.93 307.67,94.93 307.67,93.93 308.67,93.93 308.67,92.93 308.67,91.93 308.67,90.93 308.67,89.93 308.67,90.93 308.67,91.93 308.67,92.93 308.67,93.93 308.67,94.93 308.67,95.93 308.67,96.93 308.67,96.93 308.67,97.93 308.67,98.93 309.67,98.93 309.67,99.93 310.67,100.93 310.67,101.93 311.67,101.93 311.67,102.93 311.67,103.93 312.67,103.93 313.67,104.93 313.67,104.93 314.67,104.93 314.67,105.93 314.67,105.93 314.67,106.93 315.67,106.93 316.67,106.93 317.67,106.93 318.67,105.93 319.67,105.93 320.67,105.93 320.67,104.93 321.67,104.93 322.67,104.93 322.67,103.93 322.67,102.93 322.67,101.93 323.67,101.93 323.67,100.93 324.67,99.93 324.67,98.93 325.67,97.93 326.67,96.93 326.67,96.93 326.67,95.93 327.67,94.93 327.67,93.93 328.67,92.93 329.67,91.93 329.67,89.93 330.67,88.93 330.67,88.93 330.67,87.93 330.67,86.93 331.67,85.93 331.67,83.93 331.67,82.93 331.67,80.93 332.67,80.93 333.67,78.93 333.67,77.93 333.67,75.93 333.67,74.93 334.67,73.93 334.67,72.93 334.67,72.93 335.67,71.93 335.67,70.93 336.67,69.93 336.67,68.93 336.67,67.93 336.67,66.93 336.67,65.93 336.67,64.93 336.67,64.93 336.67,63.93 336.67,62.93 336.67,61.93 337.67,61.93 337.67,60.93 337.67,59.93 337.67,58.93 337.67,57.93 338.67,56.93 338.67,56.93 338.67,55.93 338.67,54.93 338.67,53.93 338.67,52.93 338.67,51.93 338.67,50.93 338.67,51.93 338.67,52.93 338.67,53.93 338.67,55.93 338.67,56.93 338.67,56.93 338.67,58.93 338.67,60.93 338.67,63.93 338.67,64.93 338.67,66.93 338.67,67.93 338.67,69.93 338.67,71.93 338.67,72.93 338.67,73.93 338.67,74.93 338.67,75.93 338.67,77.93 338.67,78.93 338.67,80.93 339.67,80.93 339.67,80.93 339.67,81.93 339.67,82.93 340.67,83.93 340.67,84.93 340.67,86.93 340.67,87.93 340.67,88.93 341.67,88.93 341.67,89.93 341.67,90.93 341.67,91.93 342.67,91.93 342.67,92.93 342.67,93.93 343.67,94.93 343.67,95.93 343.67,96.93 343.67,96.93 344.67,97.93 344.67,98.93 345.67,99.93 345.67,100.93 345.67,101.93 345.67,102.93 345.67,103.93 346.67,103.93 346.67,104.93 346.67,104.93 346.67,105.93 347.67,105.93 347.67,106.93 347.67,107.93 348.67,107.93 348.67,108.93 349.67,108.93 349.67,109.93 350.67,109.93 351.67,110.93 352.67,110.93 353.67,110.93 354.67,110.93 354.67,110.93 355.67,110.93 356.67,110.93 357.67,109.93 358.67,108.93 359.67,106.93 360.67,105.93 360.67,104.93 361.67,104.93 362.67,103.93 362.67,102.93 362.67,101.93 363.67,99.93 364.67,98.93 364.67,97.93 365.67,96.93 366.67,96.93 366.67,95.93 367.67,94.93 367.67,93.93 367.67,92.93 368.67,91.93 369.67,90.93 370.67,89.93 370.67,88.93 370.67,88.93 370.67,87.93 370.67,87.93 371.67,86.93 372.67,84.93 372.67,83.93 372.67,82.93 372.67,81.93 373.67,80.93 373.67,80.93 374.67,80.93 374.67,79.93 374.67,78.93 374.67,77.93 374.67,76.93 375.67,76.93 375.67,75.93 375.67,74.93 375.67,73.93 375.67,72.93 375.67,72.93 375.67,71.93 375.67,72.93 375.67,72.93 375.67,73.93 375.67,74.93 374.67,74.93 374.67,76.93 373.67,77.93 373.67,80.93 373.67,82.93 372.67,83.93 372.67,85.93 372.67,86.93 371.67,86.93 371.67,88.93 371.67,88.93 370.67,91.93 370.67,92.93 370.67,93.93 370.67,94.93 370.67,95.93 370.67,96.93 370.67,97.93 370.67,98.93 370.67,100.93 370.67,101.93 370.67,102.93 370.67,103.93 370.67,104.93 370.67,104.93 370.67,105.93 370.67,106.93 370.67,107.93 371.67,107.93 371.67,108.93 372.67,108.93 373.67,108.93 374.67,108.93 375.67,107.93 376.67,107.93 376.67,106.93 377.67,105.93 377.67,104.93 378.67,104.93 378.67,102.93 379.67,102.93 379.67,101.93 380.67,101.93 380.67,100.93 380.67,99.93 381.67,99.93 382.67,98.93 382.67,97.93 382.67,96.93 383.67,96.93 384.67,96.93 385.67,94.93 385.67,93.93 385.67,92.93 386.67,91.93 386.67,90.93 387.67,90.93 387.67,89.93 387.67,88.93 388.67,88.93 388.67,88.93 389.67,88.93 389.67,87.93 390.67,86.93 390.67,85.93 391.67,85.93 392.67,85.93 392.67,84.93 392.67,83.93 393.67,83.93 393.67,82.93 394.67,82.93 394.67,83.93 394.67,84.93 394.67,85.93 394.67,86.93 394.67,88.93 394.67,88.93 394.67,90.93 394.67,92.93 394.67,93.93 394.67,95.93 394.67,97.93 394.67,98.93 394.67,98.93 394.67,100.93 394.67,101.93 395.67,101.93 395.67,103.93 396.67,104.93 396.67,104.93 396.67,105.93 396.67,106.93 396.67,107.93 397.67,107.93 398.67,108.93 398.67,109.93 398.67,110.93 399.67,111.93 399.67,112.93 400.67,112.93 401.67,112.93 401.67,113.93 401.67,114.93 402.67,114.93 402.67,114.93 403.67,115.93 403.67,116.93 404.67,117.93 405.67,117.93 406.67,117.93 406.67,118.93 407.67,118.93 408.67,118.93 409.67,118.93 409.67,119.93 410.67,119.93 410.67,119.93 411.67,120.93 412.67,120.93 413.67,120.93 414.67,120.93 415.67,120.93 416.67,120.93 417.67,120.93 418.67,120.93 420.67,120.93 421.67,120.93 422.67,120.93 423.67,120.93 425.67,120.93 426.67,120.93 426.67,120.93 428.67,120.93 429.67,120.93 431.67,120.93 432.67,120.93 433.67,120.93 434.67,120.93 434.67,120.93 436.67,120.93 437.67,120.93 438.67,120.93 440.67,120.93 441.67,120.93 442.67,119.93 444.67,119.93 446.67,119.93 447.67,118.93 449.67,116.93 450.67,116.93 450.67,116.93 452.67,116.93 453.67,116.93 454.67,115.93 455.67,115.93 457.67,114.93 458.67,113.93 459.67,113.93 460.67,112.93 461.67,112.93 463.67,112.93 464.67,112.93 466.67,111.93 466.67,111.93 467.67,110.93 469.67,110.93 470.67,110.93 471.67,109.93 472.67,108.93 473.67,108.93 474.67,107.93 475.67,107.93 477.67,107.93 478.67,107.93 479.67,106.93 480.67,106.93 481.67,105.93 482.67,105.93 483.67,105.93 484.67,105.93 485.67,104.93 486.67,104.93 487.67,104.93 488.67,104.93 489.67,104.93 488.67,104.93 487.67,104.93 486.67,104.93 485.67,104.93 483.67,104.93"/>
		</g>
	</g>
</svg>