<?xml version="1.0"?>
<!DOCTYPE svg PUBLIC "-//W3C//DTD SVG 1.1//EN" "http://www.w3.org/Graphics/SVG/1.1/DTD/svg11.dtd">
<svg xmlns="http://www.w3.org/2000/svg" width="15cm" height="15cm">
	<g fill="#fff">
		<rect x="0" y="0" width="720" height="184"/>
		<g fill="none" stroke="#000" stroke-width="2">
			<polyline points="220.67,15.93 162.67,89.93 162.67,93.93 160.67,99.93 157.67,106.93 154.67,116.93 153.67,122.93 151.67,128.93 148.67,132.93 147.67,138.93 146.67,142.93 145.67,144.93 145.67,145.93 144.67,147.93 144.67,148.93 143.67,150.93 142.67,150.93 142.67,151.93 142.67,152.93 141.67,153.93 141.67,154.93 141.67,155.93 140.67,156.93 140.67,157.93 139.67,158.93 139.67,159.93 139.67,160.93 139.67,160.93 140.67,159.93 140.67,158.93 140.67,157.93 141.67,155.93 142.67,154.93 143.67,152.93 144.67,151.93 145.67,148.93 170.67,92.93 202.67,24.93 209.67,10.93 210.67,9.93 211.67,6.93 211.67,5.93 211.67,4.93 213.67,4.93 214.67,3.93 214.67,0.93 215.67,0.93 216.67,0.93 216.67,0.93 217.67,0.93 217.67,-0.07 218.67,-0.07 218.67,0.93 218.67,0.93 218.67,1.93 218.67,2.93 218.67,3.93 218.67,4.93 218.67,5.93 218.67,7.93 219.67,8.93 219.67,8.93 221.67,10.93 222.67,11.93 222.67,13.93 223.67,15.93 224.67,16.93 226.67,18.93 234.67,30.93 234.67,31.93 235.67,32.93 236.67,33.93 238.67,35.93 239.67,36.93 241.67,38.93 243.67,40.93 244.67,40.93 245.67,40.93 246.67,41.93 246.67,42.93 248.67,42.93 249.67,44.93 250.67,44.93 251.67,44.93 252.67,45.93 253.67,46.93 254.67,47.93 255.67,47.93 256.67,47.93 257.67,48.93 258.67,48.93 260.67,50.93 261.67,50.93 263.67,50.93 264.67,51.93 264.67,52.93 265.67,52.93 266.67,52.93 270.67,56.93 270.67,57.93 271.67,58.93 271.67,59.93 271.67,60.93 271.67,61.93 271.67,62.93 270.67,62.93 269.67,62.93 268.67,62.93 267.67,62.93 266.67,62.93 266.67,62.93 265.67,62.93 264.67,62.93 263.67,62.93 262.67,61.93 261.67,61.93 260.67,60.93 259.67,60.93 258.67,59.93 258.67,59.93 256.67,58.93 254.67,58.93 253.67,58.93 252.67,57.93 250.67,56.93 248.67,56.93 246.67,55.93 243.67,54.93 241.67,53.93 238.67,52.93 235.67,52.93 234.67,51.93 232.67,51.93 229.67,51.93 227.67,51.93 225.67,50.93 222.67,49.93 218.67,48.93 217.67,48.93 203.67,47.93 201.67,46.93 194.67,46.93 186.67,45.93 183.67,45.93 180.67,45.93 177.67,45.93 172.67,45.93 168.67,45.93 158.67,45.93 152.67,45.93 148.67,45.93 145.67,45.93 141.67,46.93 137.67,47.93 130.67,48.93 124.67,48.93 121.67,48.93 117.67,48.93 113.67,49.93 110.67,50.93 107.67,51.93 104.67,52.93 101.67,52.93 85.67,56.93 81.67,56.93 74.67,57.93 70.67,58.93 67.67,59.93 65.67,59.93 63.67,60.93 60.67,61.93 54.67,62.93 50.67,63.93 48.67,63.93 46.67,64.93 44.67,64.93 43.67,64.93 42.67,64.93 40.67,65.93 39.67,65.93 37.67,65.93 36.67,65.93 34.67,67.93 33.67,68.93 32.67,68.93 32.67,69.93 32.67,70.93 32.67,71.93 33.67,71.93 35.67,71.93 41.67,71.93 46.67,72.93 57.67,73.93 59.67,73.93 69.67,75.93 72.67,76.93 77.67,76.93 89.67,77.93 99.67,80.93 121.67,80.93 127.67,80.93 140.67,82.93 145.67,82.93 153.67,82.93 166.67,82.93 176.67,84.93 182.67,84.93 188.67,85.93 202.67,85.93 217.67,85.93 232.67,85.93 238.67,85.93 246.67,85.93 255.67,85.93 261.67,85.93 269.67,85.93 276.67,85.93 281.67,85.93 290.67,85.93 293.67,85.93 296.67,85.93 298.67,85.93 303.67,85.93 306.67,85.93 306.67,85.93 312.67,85.93 314.67,85.93 317.67,85.93 322.67,84.93 327.67,84.93 329.67,84.93 331.67,82.93 335.67,81.93 336.67,81.93 338.67,81.93 340.67,81.93 341.67,81.93 344.67,80.93 347.67,80.93 348.67,80.93 351.67,80.93 353.67,80.93 356.67,79.93 357.67,79.93 359.67,78.93 361.67,78.93 363.67,78.93 364.67,78.93 366.67,78.93 370.67,78.93 371.67,78.93 373.67,78.93 375.67,78.93 376.67,78.93 378.67,77.93 379.67,77.93 380.67,77.93 381.67,77.93 382.67,77.93 383.67,77.93 384.67,77.93 384.67,76.93 383.67,76.93 382.67,76.93 381.67,76.93 380.67,76.93 379.67,77.93 378.67,77.93 378.67,77.93 365.67,79.93 364.67,79.93 363.67,79.93 362.67,79.93 362.67,80.93 361.67,80.93 360.67,80.93 359.67,80.93 358.67,80.93 357.67,80.93 357.67,80.93 356.67,80.93 355.67,80.93 354.67,81.93 354.67,81.93 353.67,82.93 352.67,82.93 351.67,83.93 350.67,83.93 349.67,83.93 348.67,84.93 347.67,84.93 347.67,85.93 346.67,86.93 346.67,86.93 345.67,86.93 344.67,86.93 343.67,87.93 342.67,87.93 342.67,88.93 341.67,88.93 340.67,88.93 339.67,88.93 322.67,98.93 321.67,98.93 320.67,99.93 319.67,100.93 318.67,100.93 318.67,101.93 317.67,102.93 316.67,102.93 314.67,104.93 314.67,104.93 314.67,105.93 311.67,107.93 311.67,108.93 311.67,109.93 310.67,109.93 309.67,110.93 308.67,110.93 308.67,111.93 308.67,112.93 309.67,112.93 310.67,112.93 311.67,111.93 312.67,111.93 313.67,110.93 314.67,110.93 314.67,109.93 315.67,109.93 317.67,108.93 318.67,107.93 319.67,107.93 320.67,106.93 323.67,104.93 324.67,104.93 326.67,103.93 329.67,101.93 330.67,100.93 332.67,98.93 335.67,98.93 337.67,96.93 338.67,96.93 339.67,95.93 340.67,95.93 341.67,94.93 343.67,93.93 344.67,92.93 345.67,92.93 331.67,98.93 332.67,97.93 333.67,96.93 334.67,96.93 335.67,96.93 336.67,96.93 338.67,95.93 338.67,94.93 339.67,94.93 340.67,94.93 341.67,93.93 342.67,92.93 344.67,91.93 345.67,91.93 346.67,90.93 346.67,90.93 346.67,89.93 347.67,89.93 349.67,88.93 349.67,88.93 350.67,88.93 351.67,87.93 352.67,87.93 352.67,86.93 353.67,86.93 354.67,86.93 354.67,85.93 354.67,86.93 353.67,86.93 352.67,86.93 352.67,87.93 350.67,88.93 349.67,88.93 348.67,88.93 347.67,88.93 347.67,89.93 346.67,90.93 346.67,90.93 345.67,91.93 344.67,91.93 343.67,92.93 342.67,93.93 341.67,93.93 341.67,94.93 340.67,94.93 337.67,97.93 338.67,97.93 338.67,96.93 338.67,96.93 339.67,96.93 340.67,96.93 341.67,95.93 342.67,94.93 343.67,94.93 344.67,94.93 345.67,93.93 346.67,92.93 346.67,92.93 347.67,91.93 349.67,90.93 351.67,89.93 352.67,88.93 353.67,88.93 354.67,88.93 356.67,86.93 366.67,80.93 365.67,80.93 364.67,80.93 363.67,81.93 363.67,82.93 362.67,83.93 361.67,83.93 360.67,84.93 359.67,85.93 357.67,86.93 356.67,86.93 356.67,87.93 355.67,87.93 354.67,88.93 354.67,88.93 353.67,88.93 352.67,89.93 351.67,89.93 351.67,90.93 350.67,91.93 350.67,92.93 351.67,92.93 352.67,92.93 353.67,92.93 354.67,92.93 356.67,90.93 357.67,90.93 358.67,89.93 360.67,88.93 361.67,88.93 362.67,88.93 366.67,86.93 368.67,85.93 370.67,84.93 372.67,82.93 375.67,81.93 378.67,80.93 378.67,79.93 381.67,78.93 382.67,77.93 383.67,76.93 384.67,75.93 386.67,74.93 387.67,72.93 388.67,72.93 390.67,71.93 392.67,69.93 393.67,66.93 393.67,65.93 394.67,63.93 396.67,56.93 399.67,50.93 400.67,48.93 402.67,45.93 403.67,41.93 404.67,40.93 404.67,36.93 404.67,34.93 407.67,26.93 407.67,24.93 407.67,19.93 408.67,17.93 408.67,16.93 409.67,15.93 410.67,12.93 410.67,10.93 410.67,8.93 410.67,6.93 410.67,3.93 410.67,2.93 410.67,-1.07 410.67,-3.07 410.67,-5.07 410.67,-6.07 410.67,-7.07 410.67,-8.07 410.67,-9.07 410.67,-10.07 410.67,-11.07 409.67,-11.07 408.67,-11.07 407.67,-11.07 407.67,-10.07 406.67,-10.07 405.67,-10.07 404.67,-10.07 402.67,-8.07 402.67,-7.07 400.67,-7.07 398.67,-7.07 397.67,-6.07 397.67,-5.07 395.67,-4.07 394.67,-4.07 394.67,-2.07 393.67,-1.07 392.67,-1.07 389.67,0.93 387.67,0.93 385.67,3.93 382.67,7.93 381.67,8.93 378.67,9.93 376.67,13.93 375.67,15.93 372.67,18.93 372.67,21.93 370.67,25.93 370.67,28.93 369.67,34.93 367.67,42.93 367.67,44.93 366.67,48.93 365.67,54.93 365.67,55.93 365.67,61.93 365.67,64.93 365.67,67.93 365.67,68.93 364.67,74.93 364.67,78.93 364.67,83.93 364.67,85.93 364.67,87.93 364.67,90.93 364.67,93.93 364.67,96.93 367.67,99.93 367.67,104.93 367.67,105.93 370.67,108.93 370.67,110.93 371.67,111.93 372.67,113.93 373.67,115.93 375.67,116.93 376.67,118.93 378.67,120.93 380.67,121.93 382.67,123.93 385.67,124.93 387.67,126.93 392.67,127.93 394.67,127.93 399.67,128.93 401.67,128.93 405.67,129.93 406.67,129.93 409.67,129.93 411.67,129.93 412.67,129.93 415.67,129.93 418.67,129.93 424.67,129.93 428.67,129.93 431.67,129.93 434.67,129.93 436.67,129.93 442.67,128.93 444.67,128.93 446.67,128.93 450.67,128.93 453.67,128.93 456.67,128.93 461.67,127.93 464.67,126.93 470.67,124.93 473.67,124.93 477.67,121.93 482.67,120.93 490.67,119.93 496.67,116.93 499.67,115.93 500.67,114.93 503.67,112.93 506.67,112.93 509.67,110.93 513.67,110.93 516.67,107.93 522.67,104.93 526.67,102.93 527.67,100.93 530.67,99.93 531.67,97.93 533.67,97.93 534.67,96.93 536.67,96.93 538.67,93.93 538.67,93.93 541.67,89.93 542.67,89.93 543.67,88.93 544.67,86.93 545.67,85.93 546.67,81.93 546.67,80.93 546.67,80.93 547.67,79.93 547.67,77.93 547.67,76.93 547.67,74.93 546.67,73.93 546.67,72.93 546.67,72.93 545.67,72.93 544.67,72.93 543.67,71.93 542.67,71.93 541.67,71.93 540.67,71.93 539.67,71.93"/>
		</g>
	</g>
</svg>