<?xml version="1.0"?>
<!DOCTYPE svg PUBLIC "-//W3C//DTD SVG 1.1//EN" "http://www.w3.org/Graphics/SVG/1.1/DTD/svg11.dtd">
<svg xmlns="http://www.w3.org/2000/svg" width="15cm" height="15cm">
	<g fill="#fff">
		<rect x="0" y="0" width="720" height="184"/>
		<g fill="none" stroke="#000" stroke-width="2">
			<polyline points="226.67,48.93 226.67,47.93 226.67,46.93 226.67,47.93 220.67,51.93 204.67,59.93 188.67,75.93 172.67,96.93 160.67,112.93 154.67,120.93 153.67,122.93 153.67,123.93 155.67,120.93 168.67,112.93 183.67,91.93 198.67,70.93 210.67,51.93 217.67,42.93 220.67,39.93 220.67,40.93 218.67,48.93 218.67,63.93 221.67,79.93 226.67,89.93 230.67,94.93 233.67,95.93 238.67,92.93 242.67,88.93 244.67,78.93 242.67,71.93 234.67,64.93 225.67,63.93 213.67,63.93 202.67,68.93 194.67,72.93 191.67,75.93 192.67,75.93 198.67,73.93 210.67,68.93 227.67,60.93 237.67,57.93 242.67,55.93 238.67,56.93 234.67,58.93 233.67,60.93 233.67,61.93 233.67,64.93 238.67,78.93 242.67,84.93 247.67,87.93 251.67,87.93 254.67,86.93 258.67,83.93 261.67,80.93 265.67,77.93 267.67,75.93 268.67,75.93 266.67,77.93 262.67,83.93 262.67,89.93 263.67,91.93 265.67,91.93 269.67,90.93 275.67,87.93 284.67,81.93 290.67,77.93 290.67,78.93 290.67,82.93 290.67,88.93 291.67,91.93 296.67,95.93 299.67,96.93 302.67,95.93 306.67,94.93 310.67,91.93 311.67,88.93 310.67,88.93 307.67,91.93 306.67,93.93 306.67,96.93 308.67,96.93 313.67,96.93 318.67,92.93 326.67,86.93 331.67,78.93 334.67,76.93 330.67,78.93 330.67,85.93 330.67,89.93 330.67,91.93 333.67,91.93 340.67,88.93 348.67,78.93 359.67,61.93 365.67,45.93 366.67,38.93 366.67,37.93 363.67,37.93 359.67,40.93 351.67,46.93 346.67,67.93 346.67,87.93 352.67,102.93 362.67,109.93 378.67,112.93 394.67,111.93 403.67,106.93 410.67,103.93 412.67,102.93"/>
		</g>
	</g>
</svg>