<?xml version="1.0"?>
<!DOCTYPE svg PUBLIC "-//W3C//DTD SVG 1.1//EN" "http://www.w3.org/Graphics/SVG/1.1/DTD/svg11.dtd">
<svg xmlns="http://www.w3.org/2000/svg" width="15cm" height="15cm">
	<g fill="#fff">
		<rect x="0" y="0" width="720" height="184"/>
		<g fill="none" stroke="#000" stroke-width="2">
			<polyline points="157,40.93 157,41.93 157,43.93 156,45.93 156,46.93 156,47.93 156,48.93 155,48.93 155,49.93 154,50.93 154,51.93 153,52.93 153,53.93 152,54.93 152,55.93 152,56.93 151,56.93 150,58.93 148,60.93 148,61.93 147,63.93 147,64.93 145,65.93 145,66.93 144,69.93 143,70.93 141,72.93 141,74.93 140,76.93 139,78.93 137,80.93 137,82.93 136,83.93 132,88.93 132,90.93 131,92.93 130,94.93 129,96.93 128,97.93 126,100.93 124,102.93 124,104.93 124,105.93 124,107.93 123,110.93 121,112.93 120,113.93 120,115.93 120,118.93 119,120.93 118,122.93 116,124.93 116,127.93 116,128.93 116,129.93 115,132.93 115,133.93 115,135.93 114,136.93 113,138.93 113,139.93 112,140.93 112,141.93 112,143.93 112,144.93 112,144.93 110,146.93 110,147.93 110,148.93 109,148.93 109,149.93 109,150.93 109,151.93 109,152.93 109,152.93 109,153.93 109,154.93 109,155.93 109,156.93 109,155.93"/>
			<polyline points="105,99.93 105,98.93 104,98.93 104,97.93 103,97.93 103,96.93 103,96.93 102,95.93 102,94.93 102,93.93 102,92.93 101,91.93 101,90.93 101,89.93 100,89.93 100,88.93 100,88.93 100,87.93 100,85.93 100,84.93 99,82.93 99,81.93 99,80.93 99,80.93 99,79.93 99,78.93 98,78.93 98,77.93 98,76.93 98,75.93 98,74.93 98,73.93 98,72.93 98,72.93 98,71.93 98,70.93 98,69.93 98,68.93 98,67.93 99,66.93 100,65.93 100,64.93 100,64.93 100,63.93 100,62.93 102,62.93 102,61.93 103,60.93 104,60.93 105,59.93 105,58.93 106,57.93 107,57.93 108,57.93 108,56.93 108,56.93 109,56.93 110,56.93 110,55.93 111,55.93 113,54.93 114,53.93 115,53.93 116,53.93 116,53.93 118,51.93 119,50.93 121,49.93 122,49.93 123,49.93 124,48.93 124,48.93 125,48.93 126,48.93 127,48.93 128,48.93 129,48.93 130,47.93 131,47.93 132,46.93 132,46.93 133,45.93 134,45.93 135,45.93 137,45.93 139,45.93 140,45.93 140,44.93 141,44.93 143,44.93 144,44.93 145,44.93 146,44.93 147,44.93 148,44.93 149,44.93 150,44.93 151,44.93 152,45.93 152,46.93 153,46.93 154,48.93 154,48.93 155,48.93 155,50.93 155,51.93 156,51.93 156,53.93 156,54.93 156,54.93 156,55.93 157,55.93 157,56.93 157,57.93 157,58.93 157,59.93 157,60.93 158,61.93 158,62.93 158,63.93 158,64.93 158,64.93 158,65.93 159,65.93 159,67.93 159,68.93 159,71.93 159,72.93 159,73.93 159,74.93 159,75.93 159,76.93 159,77.93 159,78.93 159,80.93 159,81.93 159,82.93 159,83.93 159,84.93 159,85.93 159,86.93 159,87.93 159,88.93 159,88.93 159,90.93 158,90.93 158,92.93 158,94.93 157,94.93 157,95.93 157,96.93 156,96.93 156,96.93 156,98.93 155,99.93 154,100.93 154,101.93 153,102.93 152,103.93 152,104.93 151,104.93 150,104.93 149,105.93 149,106.93 148,107.93 147,108.93 146,109.93 145,109.93 144,111.93 143,111.93 142,112.93 141,112.93 141,112.93 140,113.93 139,113.93 139,114.93 137,115.93 136,116.93 134,117.93 133,117.93 133,118.93 132,118.93 132,118.93 131,119.93 130,119.93 129,120.93 128,120.93 127,120.93 125,120.93 124,121.93 124,121.93 123,122.93 122,122.93 120,123.93 119,123.93 118,123.93 117,123.93 116,123.93 116,123.93 115,123.93 114,123.93 113,123.93 112,123.93 111,123.93 109,123.93 108,123.93 108,123.93 107,123.93 106,123.93 105,123.93 105,122.93 106,122.93 107,121.93 108,121.93 108,121.93 109,121.93 110,121.93 111,121.93 112,121.93 112,120.93 113,120.93 114,120.93 115,120.93 116,120.93 116,120.93 116,120.93 117,120.93 118,120.93 119,120.93 121,120.93 123,120.93 124,120.93 125,120.93 126,120.93 128,120.93 129,120.93 131,120.93 132,120.93 133,120.93 134,120.93 136,120.93 138,120.93 140,120.93 141,120.93 143,119.93 144,119.93 147,119.93 148,119.93 149,119.93 151,119.93 153,119.93 155,119.93 156,119.93 159,119.93 163,119.93 164,119.93 165,119.93 168,119.93 169,119.93 172,119.93 172,119.93 174,119.93 176,119.93 178,119.93 180,119.93 181,119.93 183,119.93 184,119.93 186,119.93 188,119.93 189,119.93 190,119.93 192,119.93 194,119.93 195,119.93 196,119.93 197,119.93 198,119.93 200,119.93 201,119.93 203,119.93 204,119.93 204,119.93 205,119.93 206,119.93 207,119.93 208,119.93 209,119.93 210,119.93 211,119.93 212,119.93 212,119.93 213,119.93 214,119.93 215,119.93 216,119.93 216,118.93 216,117.93 216,116.93 216,115.93 216,114.93 216,113.93 216,112.93 216,112.93 216,111.93 216,110.93 216,109.93 216,108.93 215,108.93 214,108.93 213,108.93 212,108.93 212,108.93 211,108.93 210,108.93 209,108.93 208,108.93 208,109.93 207,109.93 206,109.93 206,110.93 205,110.93 204,110.93 204,110.93 204,111.93 203,112.93 202,112.93 201,112.93 200,112.93 200,113.93 199,113.93 199,114.93 198,114.93 197,114.93 197,115.93 197,116.93 196,116.93 196,116.93 196,117.93 195,118.93 195,119.93 194,120.93 193,120.93 193,121.93 193,122.93 192,123.93 192,124.93 192,125.93 191,125.93 191,126.93 191,127.93 191,128.93 191,128.93 191,129.93 191,130.93 191,131.93 191,132.93 192,133.93 192,134.93 193,135.93 194,135.93 194,136.93 195,136.93 196,136.93 196,136.93 197,136.93 198,136.93 199,136.93 200,136.93 201,136.93 202,136.93 203,136.93 204,136.93 204,136.93 205,136.93 205,136.93 206,136.93 206,135.93 207,135.93 207,134.93 208,134.93 209,133.93 209,132.93 210,132.93 211,132.93 212,131.93 212,130.93 212,130.93 212,129.93 213,129.93 213,128.93 213,128.93 214,128.93 214,127.93 214,126.93 215,126.93 216,125.93 216,124.93 216,123.93 216,122.93 216,121.93 217,121.93 217,120.93 218,120.93 218,119.93 218,118.93 218,117.93 218,116.93 218,115.93 219,115.93 219,114.93 219,113.93 219,112.93 219,112.93 219,111.93 220,111.93 220,110.93 220,109.93 220,108.93 220,106.93 220,105.93 220,104.93 220,103.93 220,102.93 220,101.93 220,100.93 219,100.93 219,101.93 219,102.93 219,103.93 218,103.93 218,104.93 218,104.93 218,105.93 217,106.93 217,107.93 217,109.93 216,109.93 216,110.93 216,111.93 216,112.93 216,113.93 216,114.93 215,114.93 215,115.93 215,116.93 215,117.93 215,118.93 215,119.93 215,120.93 215,120.93 214,120.93 214,121.93 214,122.93 214,123.93 214,124.93 214,125.93 214,126.93 214,127.93 214,128.93 214,128.93 214,129.93 215,130.93 216,130.93 216,131.93 216,132.93 217,132.93 218,132.93 218,133.93 219,133.93 220,133.93 220,133.93 221,133.93 222,133.93 223,133.93 223,132.93 224,132.93 225,132.93 225,131.93 225,130.93 226,130.93 227,130.93 227,129.93 227,128.93 228,128.93 228,128.93 229,127.93 229,126.93 229,125.93 229,124.93 230,124.93 230,123.93 230,122.93 230,121.93 231,121.93 231,120.93 231,120.93 231,119.93 231,118.93 231,117.93 231,116.93 231,115.93 231,114.93 231,113.93 231,112.93 231,112.93 231,111.93 231,110.93 231,109.93 231,108.93 230,108.93 230,109.93 230,110.93 230,111.93 230,112.93 230,112.93 230,113.93 230,114.93 229,114.93 229,115.93 229,116.93 229,117.93 229,118.93 229,119.93 229,120.93 229,120.93 229,121.93 229,122.93 229,123.93 229,124.93 229,125.93 229,126.93 229,127.93 229,128.93 230,128.93 230,128.93 231,128.93 231,129.93 232,129.93 232,130.93 233,131.93 234,131.93 235,131.93 236,131.93 236,131.93 237,131.93 238,131.93 239,131.93 240,131.93 240,130.93 241,130.93 242,130.93 242,129.93 242,128.93 242,128.93 243,127.93 243,126.93 244,126.93 244,125.93 244,124.93 244,123.93 244,122.93 244,121.93 244,120.93 244,120.93 244,119.93 244,118.93 244,117.93 244,116.93 244,115.93 244,114.93 244,113.93 244,112.93 245,112.93 245,112.93 245,111.93 245,110.93 245,109.93 245,108.93 245,107.93 245,106.93 245,105.93 245,104.93 246,104.93 246,104.93 246,103.93 246,102.93 246,101.93 246,100.93 246,101.93 246,102.93 246,103.93 246,104.93 246,104.93 246,105.93 246,106.93 246,107.93 246,108.93 246,109.93 247,109.93 247,110.93 247,111.93 247,112.93 247,112.93 247,113.93 248,114.93 248,115.93 248,116.93 249,117.93 249,118.93 249,119.93 249,120.93 250,120.93 250,120.93 250,121.93 250,122.93 250,123.93 251,123.93 251,124.93 251,125.93 252,125.93 252,125.93 253,125.93 253,124.93 253,123.93 254,123.93 254,122.93 255,121.93 255,120.93 255,120.93 255,119.93 256,119.93 256,118.93 256,117.93 257,117.93 257,116.93 257,115.93 257,114.93 257,113.93 258,112.93 258,111.93 258,110.93 258,109.93 258,108.93 259,108.93 259,107.93 259,106.93 259,105.93 260,105.93 260,104.93 260,103.93 260,101.93 260,100.93 260,99.93 260,98.93 260,97.93 260,96.93 260,96.93 260,95.93 260,94.93 261,93.93 261,92.93 261,91.93 262,90.93 262,89.93 262,88.93 262,88.93 262,86.93 262,85.93 262,83.93 263,82.93 263,81.93 264,81.93 264,80.93 265,80.93 265,80.93 266,80.93 267,80.93 267,80.93 267,81.93 267,83.93 268,84.93 268,85.93 268,86.93 268,87.93 268,88.93 269,88.93 269,89.93 269,90.93 270,91.93 270,93.93 272,95.93 272,96.93 272,98.93 273,99.93 274,101.93 275,102.93 275,104.93 275,105.93 276,108.93 276,111.93 276,112.93 278,114.93 278,116.93 280,118.93 280,120.93 281,120.93 281,122.93 282,124.93 282,125.93 283,128.93 283,128.93 284,130.93 284,132.93 284,135.93 284,135.93 285,137.93 285,138.93 286,140.93 287,142.93 288,143.93 289,144.93 289,145.93 289,147.93 289,148.93 289,150.93 291,152.93 291,152.93 291,153.93 292,155.93 292,156.93 292,157.93 292,159.93 293,160.93 293,161.93 293,162.93 294,163.93 294,164.93 294,165.93 295,166.93 295,167.93 295,168.93 295,168.93 295,170.93 295,171.93 295,172.93 295,173.93 294,173.93 294,174.93 293,175.93 292,175.93 292,175.93 291,175.93 290,175.93 290,174.93 290,173.93 289,172.93 289,171.93 288,170.93 287,170.93 287,169.93 287,168.93 286,167.93 286,166.93 286,165.93 285,164.93 285,163.93 285,162.93 285,161.93 285,160.93 285,160.93 284,159.93 284,158.93 284,157.93 284,155.93 284,153.93 284,152.93 284,151.93 284,150.93 284,149.93 284,147.93 284,146.93 284,144.93 284,143.93 284,142.93 284,141.93 284,139.93 284,138.93 284,137.93 284,136.93 284,136.93 284,134.93 284,133.93 284,132.93 285,130.93 286,128.93 287,127.93 287,126.93 287,125.93 287,124.93 288,122.93 289,121.93 289,120.93 290,120.93 290,119.93 290,118.93 291,116.93 292,114.93 292,113.93 293,112.93 293,110.93 294,108.93 295,107.93 296,106.93 296,104.93 296,104.93 297,102.93 299,102.93 299,101.93 299,100.93 299,99.93 300,99.93 300,98.93 301,98.93 301,97.93 302,96.93 303,96.93 304,95.93 306,94.93 307,93.93 307,92.93 308,92.93 308,92.93 309,91.93 311,90.93 312,89.93 313,89.93 315,89.93 315,88.93 315,88.93 317,86.93 320,86.93 322,83.93 326,83.93 327,82.93 328,82.93 329,82.93 329,81.93 331,81.93 332,81.93 332,81.93 333,81.93 333,80.93 333,79.93 331,77.93 331,76.93 328,73.93 324,70.93 324,69.93 324,68.93 324,68.93 323,66.93 323,65.93 323,64.93 320,64.93 318,62.93 318,61.93 317,61.93 316,61.93 316,61.93 314,61.93 313,61.93 311,61.93 310,61.93 310,62.93 310,63.93"/>
		</g>
	</g>
</svg>