<?xml version="1.0"?>
<!DOCTYPE svg PUBLIC "-//W3C//DTD SVG 1.1//EN" "http://www.w3.org/Graphics/SVG/1.1/DTD/svg11.dtd">
<svg xmlns="http://www.w3.org/2000/svg" width="15cm" height="15cm">
	<g fill="#fff">
		<rect x="0" y="0" width="720" height="184"/>
		<g fill="none" stroke="#000" stroke-width="2">
			<polyline points="269.67,40.93 269.67,41.93 269.67,42.93 269.67,43.93 268.67,44.93 268.67,45.93 268.67,46.93 268.67,47.93 268.67,48.93 267.67,48.93 267.67,49.93 266.67,50.93 266.67,52.93 266.67,53.93 266.67,54.93 265.67,56.93 264.67,57.93 263.67,58.93 263.67,59.93 263.67,61.93 263.67,62.93 262.67,63.93 261.67,64.93 260.67,65.93 260.67,67.93 259.67,69.93 259.67,70.93 258.67,72.93 258.67,72.93 257.67,74.93 256.67,76.93 255.67,79.93 254.67,81.93 252.67,83.93 251.67,85.93 250.67,87.93 250.67,88.93 249.67,89.93 249.67,92.93 249.67,93.93 246.67,94.93 246.67,96.93 245.67,98.93 243.67,100.93 242.67,102.93 242.67,104.93 242.67,106.93 240.67,108.93 238.67,109.93 238.67,111.93 236.67,113.93 236.67,114.93 235.67,116.93 234.67,118.93 234.67,119.93 234.67,120.93 231.67,122.93 231.67,125.93 229.67,125.93 228.67,128.93 227.67,129.93 227.67,131.93 226.67,132.93 226.67,134.93 224.67,136.93 224.67,136.93 223.67,138.93 221.67,139.93 221.67,141.93 220.67,141.93 219.67,144.93 218.67,144.93 218.67,145.93 217.67,147.93 216.67,147.93 215.67,149.93 215.67,150.93 214.67,150.93 214.67,152.93 213.67,152.93 212.67,152.93 212.67,153.93 211.67,154.93 210.67,155.93 210.67,155.93 210.67,156.93 209.67,157.93 208.67,157.93 208.67,158.93 208.67,159.93 207.67,160.93 206.67,160.93 206.67,160.93 206.67,161.93 205.67,162.93 204.67,163.93 203.67,164.93 202.67,164.93 202.67,165.93 202.67,165.93 201.67,165.93 201.67,166.93 201.67,167.93 200.67,167.93 199.67,167.93 198.67,167.93 198.67,168.93"/>
			<polyline points="186.67,91.93 186.67,90.93 186.67,90.93 187.67,90.93 188.67,90.93 188.67,89.93 189.67,89.93 190.67,88.93 191.67,88.93 193.67,88.93 194.67,88.93 194.67,87.93 196.67,87.93 196.67,86.93 197.67,85.93 198.67,85.93 199.67,85.93 200.67,85.93 201.67,84.93 202.67,83.93 202.67,83.93 204.67,82.93 207.67,82.93 208.67,80.93 210.67,79.93 212.67,78.93 213.67,77.93 215.67,76.93 217.67,76.93 218.67,75.93 219.67,74.93 222.67,74.93 223.67,74.93 223.67,72.93 224.67,72.93 226.67,72.93 227.67,72.93 230.67,72.93 234.67,72.93 234.67,71.93 237.67,70.93 240.67,70.93 242.67,69.93 244.67,67.93 247.67,67.93 249.67,66.93 250.67,66.93 252.67,66.93 255.67,66.93 257.67,65.93 260.67,65.93 262.67,65.93 264.67,64.93 266.67,64.93 269.67,64.93 270.67,64.93 274.67,64.93 275.67,64.93 278.67,64.93 280.67,64.93 282.67,64.93 283.67,64.93 287.67,64.93 289.67,63.93 291.67,63.93 293.67,63.93 298.67,63.93 300.67,63.93 302.67,63.93 304.67,63.93 306.67,63.93 306.67,63.93 309.67,63.93 311.67,63.93 312.67,63.93 314.67,63.93 314.67,63.93 316.67,63.93 318.67,63.93 319.67,63.93 320.67,63.93 322.67,63.93 322.67,63.93 323.67,63.93 324.67,63.93 325.67,64.93 327.67,64.93 328.67,64.93 329.67,64.93 330.67,64.93 330.67,64.93 331.67,64.93 332.67,64.93 333.67,65.93 334.67,66.93 335.67,66.93 335.67,67.93 336.67,67.93 337.67,68.93 338.67,69.93 338.67,69.93 338.67,70.93 339.67,71.93 340.67,71.93 340.67,72.93 340.67,72.93 340.67,73.93 341.67,74.93 342.67,75.93 343.67,75.93 343.67,76.93 343.67,77.93 343.67,78.93 343.67,79.93 343.67,80.93 343.67,81.93 343.67,82.93 343.67,83.93 343.67,84.93 343.67,85.93 343.67,86.93 343.67,87.93 343.67,88.93 343.67,88.93 342.67,88.93 341.67,89.93 341.67,90.93 341.67,91.93 339.67,91.93 338.67,92.93 338.67,93.93 338.67,94.93 337.67,95.93 336.67,96.93 336.67,96.93 335.67,96.93 333.67,97.93 332.67,98.93 330.67,99.93 330.67,100.93 329.67,100.93 328.67,101.93 325.67,102.93 323.67,103.93 322.67,104.93 322.67,104.93 319.67,104.93 319.67,105.93 316.67,106.93 315.67,107.93 314.67,108.93 312.67,108.93 310.67,108.93 309.67,108.93 307.67,109.93 306.67,111.93 305.67,111.93 303.67,112.93 300.67,112.93 298.67,112.93 297.67,113.93 296.67,113.93 294.67,115.93 291.67,115.93 289.67,115.93 288.67,116.93 286.67,116.93 284.67,117.93 283.67,118.93 282.67,119.93 280.67,119.93 279.67,119.93 276.67,119.93 274.67,119.93 273.67,120.93 270.67,120.93 267.67,120.93 266.67,120.93 265.67,120.93 262.67,120.93 258.67,120.93 258.67,120.93 256.67,121.93 254.67,121.93 253.67,121.93 251.67,122.93 250.67,122.93 249.67,122.93 247.67,122.93 245.67,122.93 243.67,122.93 242.67,122.93 242.67,122.93 241.67,122.93 239.67,122.93 238.67,122.93 236.67,122.93 235.67,121.93 234.67,121.93 234.67,121.93 233.67,121.93 232.67,121.93 231.67,120.93 230.67,120.93 229.67,120.93 228.67,120.93 228.67,119.93 227.67,119.93 226.67,119.93 226.67,118.93 225.67,118.93 224.67,118.93 223.67,117.93 223.67,116.93 222.67,116.93 221.67,115.93 221.67,114.93 220.67,114.93 220.67,113.93 219.67,113.93 218.67,112.93 218.67,112.93 218.67,111.93 218.67,110.93 218.67,110.93 217.67,109.93 217.67,108.93 216.67,107.93 216.67,105.93 216.67,104.93 216.67,104.93 216.67,103.93 216.67,102.93 216.67,101.93 216.67,100.93 216.67,99.93 216.67,98.93 216.67,97.93 216.67,96.93 217.67,96.93 217.67,96.93 218.67,96.93 218.67,95.93 219.67,94.93 220.67,94.93 221.67,94.93 222.67,93.93 223.67,93.93 224.67,92.93 225.67,92.93 226.67,92.93 226.67,92.93 227.67,92.93 227.67,91.93 228.67,91.93 229.67,91.93 230.67,91.93 231.67,91.93 232.67,90.93 233.67,90.93 234.67,90.93 234.67,89.93 234.67,89.93 235.67,89.93 236.67,89.93 237.67,89.93 238.67,89.93 239.67,89.93 240.67,89.93 242.67,89.93 242.67,90.93 243.67,90.93 245.67,91.93 246.67,91.93 247.67,92.93 248.67,92.93 249.67,92.93 249.67,93.93 250.67,93.93 250.67,94.93 251.67,94.93 252.67,95.93 253.67,96.93 254.67,96.93 255.67,96.93 255.67,96.93 257.67,96.93 257.67,97.93 258.67,98.93 259.67,99.93 260.67,100.93 262.67,101.93 264.67,103.93 266.67,104.93 266.67,104.93 267.67,105.93 269.67,106.93 271.67,107.93 272.67,109.93 274.67,109.93 274.67,111.93 275.67,111.93 277.67,112.93 279.67,113.93 280.67,114.93 281.67,114.93 284.67,116.93 285.67,117.93 286.67,118.93 287.67,118.93 288.67,119.93 289.67,119.93 290.67,120.93 291.67,120.93 292.67,120.93 294.67,121.93 296.67,122.93 298.67,122.93 299.67,123.93 300.67,124.93 301.67,124.93 303.67,125.93 304.67,125.93 306.67,126.93 306.67,126.93 307.67,126.93 309.67,126.93 310.67,127.93 312.67,127.93 312.67,128.93 314.67,128.93 314.67,128.93 316.67,128.93 317.67,128.93 319.67,128.93 320.67,128.93 322.67,128.93 322.67,128.93 323.67,128.93 324.67,128.93 325.67,128.93 326.67,128.93 327.67,128.93 328.67,128.93 329.67,128.93 330.67,128.93 330.67,128.93 331.67,128.93 332.67,128.93 333.67,128.93 334.67,128.93 335.67,128.93 336.67,128.93 336.67,127.93 337.67,126.93 338.67,125.93 338.67,125.93 338.67,124.93 338.67,123.93 338.67,122.93 338.67,121.93 338.67,120.93 338.67,120.93 338.67,119.93 338.67,118.93 339.67,118.93 340.67,117.93 340.67,116.93 340.67,115.93 340.67,114.93 340.67,113.93 340.67,112.93 340.67,112.93 340.67,111.93 340.67,110.93 340.67,109.93 340.67,108.93 340.67,109.93 339.67,110.93 339.67,111.93 338.67,112.93 338.67,113.93 338.67,115.93 338.67,116.93 338.67,117.93 338.67,118.93 338.67,119.93 338.67,120.93 338.67,120.93 338.67,121.93 338.67,122.93 338.67,123.93 338.67,124.93 338.67,125.93 338.67,126.93 338.67,127.93 338.67,128.93 338.67,128.93 338.67,129.93 338.67,130.93 338.67,131.93 338.67,132.93 338.67,133.93 338.67,134.93 338.67,135.93 338.67,136.93 338.67,136.93 338.67,137.93 338.67,138.93 339.67,138.93 340.67,138.93 340.67,139.93 340.67,140.93 340.67,141.93 341.67,141.93 342.67,141.93 343.67,141.93 343.67,142.93 344.67,142.93 344.67,143.93 345.67,143.93 346.67,143.93 346.67,143.93 347.67,143.93 348.67,143.93 348.67,142.93 349.67,142.93 350.67,141.93 351.67,141.93 351.67,140.93 351.67,139.93 352.67,138.93 353.67,137.93 354.67,136.93 354.67,136.93 354.67,135.93 354.67,135.93 354.67,134.93 354.67,133.93 355.67,133.93 355.67,132.93 355.67,131.93 355.67,130.93 355.67,129.93 355.67,128.93 355.67,128.93 355.67,127.93 355.67,126.93 355.67,125.93 355.67,124.93 355.67,123.93 355.67,124.93 355.67,125.93 355.67,126.93 355.67,127.93 356.67,128.93 356.67,128.93 357.67,128.93 357.67,129.93 358.67,129.93 359.67,129.93 359.67,128.93 360.67,128.93 361.67,128.93 362.67,128.93 362.67,128.93 362.67,128.93 362.67,127.93 363.67,127.93 364.67,126.93 364.67,125.93 364.67,124.93 364.67,125.93 365.67,125.93 366.67,125.93 367.67,125.93 368.67,125.93 369.67,125.93 370.67,125.93 370.67,125.93 370.67,124.93 371.67,124.93 372.67,124.93 373.67,124.93 374.67,124.93 375.67,124.93 375.67,123.93 375.67,122.93 376.67,122.93 377.67,122.93 378.67,121.93 378.67,120.93 378.67,120.93 379.67,120.93 379.67,120.93 379.67,119.93 379.67,118.93 380.67,118.93 381.67,118.93 381.67,119.93 381.67,120.93 382.67,120.93 382.67,121.93 382.67,122.93 382.67,123.93 382.67,124.93 382.67,125.93 383.67,125.93 384.67,125.93 384.67,126.93 384.67,127.93 385.67,127.93 386.67,127.93 386.67,126.93 387.67,125.93 388.67,124.93 389.67,124.93 390.67,124.93 391.67,123.93 391.67,122.93 392.67,122.93 393.67,121.93 393.67,120.93 394.67,120.93 394.67,120.93 395.67,120.93 395.67,119.93 396.67,119.93 397.67,118.93 398.67,117.93 399.67,117.93 400.67,116.93 400.67,115.93 401.67,115.93 402.67,115.93 402.67,114.93 402.67,113.93 403.67,113.93 404.67,113.93 404.67,112.93 405.67,112.93 406.67,112.93 408.67,111.93 409.67,111.93 410.67,111.93 410.67,111.93 412.67,111.93 412.67,110.93 413.67,110.93 415.67,109.93 417.67,108.93 418.67,108.93 419.67,107.93 420.67,107.93 421.67,107.93 423.67,107.93 424.67,107.93 425.67,107.93 426.67,107.93 427.67,107.93 428.67,107.93 429.67,107.93 430.67,107.93 431.67,107.93 432.67,107.93 433.67,107.93 434.67,107.93 435.67,107.93 436.67,107.93 437.67,107.93 438.67,107.93 439.67,107.93 440.67,107.93 441.67,108.93 442.67,109.93 442.67,109.93 442.67,110.93 444.67,111.93 445.67,112.93 445.67,112.93 446.67,113.93 447.67,113.93 448.67,114.93 448.67,115.93 449.67,117.93 450.67,117.93 450.67,118.93 450.67,119.93 450.67,120.93 451.67,121.93 452.67,122.93 452.67,123.93 452.67,124.93 453.67,125.93 453.67,126.93 454.67,127.93 454.67,128.93 454.67,129.93 455.67,131.93 455.67,132.93 455.67,134.93 455.67,135.93 455.67,136.93 455.67,136.93 455.67,137.93 455.67,138.93 456.67,140.93 456.67,142.93 456.67,143.93 457.67,144.93 457.67,145.93 457.67,146.93 457.67,147.93 457.67,149.93 457.67,150.93 457.67,151.93 457.67,152.93 457.67,154.93 457.67,155.93 457.67,156.93 457.67,157.93 457.67,158.93 457.67,160.93 457.67,161.93 457.67,163.93 456.67,164.93 456.67,166.93 455.67,168.93 454.67,168.93 454.67,169.93 453.67,170.93 452.67,172.93 451.67,174.93 450.67,174.93 450.67,176.93 450.67,176.93 449.67,177.93 449.67,178.93 448.67,179.93 446.67,181.93 446.67,182.93 445.67,182.93 443.67,184.93 443.67,184.93 442.67,184.93 442.67,184.93 441.67,185.93 441.67,187.93 440.67,187.93 438.67,188.93 437.67,189.93 435.67,190.93 434.67,191.93 434.67,191.93 432.67,191.93 432.67,192.93 431.67,192.93 429.67,193.93 428.67,193.93 426.67,194.93 426.67,195.93 426.67,196.93 425.67,196.93 424.67,196.93 423.67,196.93 422.67,196.93 422.67,197.93 422.67,198.93 421.67,198.93 420.67,198.93 419.67,199.93 419.67,198.93 419.67,197.93 419.67,195.93 419.67,194.93 419.67,193.93 419.67,192.93 419.67,190.93 419.67,188.93 419.67,187.93 420.67,185.93 420.67,184.93 421.67,183.93 422.67,182.93 422.67,180.93 423.67,179.93 423.67,176.93 424.67,176.93 425.67,174.93 425.67,173.93 426.67,173.93 426.67,169.93 426.67,168.93 428.67,168.93 429.67,166.93 430.67,163.93 431.67,163.93 432.67,160.93 433.67,159.93 434.67,158.93 434.67,156.93 435.67,153.93 437.67,152.93 439.67,151.93 439.67,148.93 441.67,146.93 442.67,144.93 443.67,144.93 444.67,141.93 445.67,139.93 446.67,137.93 448.67,136.93 449.67,135.93 450.67,133.93 451.67,131.93 452.67,130.93 454.67,128.93 455.67,127.93 457.67,125.93 458.67,124.93 458.67,122.93 460.67,120.93 461.67,119.93 464.67,118.93 466.67,116.93 466.67,115.93 467.67,113.93 468.67,112.93 470.67,112.93 471.67,109.93 473.67,108.93 474.67,106.93 475.67,105.93 477.67,104.93 478.67,104.93 480.67,103.93 481.67,103.93 481.67,101.93 482.67,100.93 484.67,98.93 485.67,97.93 486.67,97.93 488.67,96.93 490.67,96.93 490.67,95.93 491.67,95.93 492.67,94.93 494.67,93.93 495.67,92.93 497.67,91.93 498.67,91.93 498.67,90.93 499.67,90.93 504.67,89.93 506.67,88.93 506.67,88.93 508.67,88.93 508.67,87.93 509.67,87.93 511.67,86.93 512.67,86.93 514.67,86.93 514.67,86.93 516.67,86.93 518.67,85.93 519.67,85.93 520.67,84.93 521.67,84.93 522.67,84.93 522.67,83.93 522.67,83.93 523.67,83.93 524.67,83.93 525.67,83.93 526.67,83.93 527.67,83.93 528.67,83.93 529.67,83.93"/>
		</g>
	</g>
</svg>