<?xml version="1.0"?>
<!DOCTYPE svg PUBLIC "-//W3C//DTD SVG 1.1//EN" "http://www.w3.org/Graphics/SVG/1.1/DTD/svg11.dtd">
<svg xmlns="http://www.w3.org/2000/svg" width="15cm" height="15cm">
	<g fill="#fff">
		<rect x="0" y="0" width="720" height="184"/>
		<g fill="none" stroke="#000" stroke-width="2">
			<polyline points="195.67,138.93 186.67,138.93 186.67,138.93 184.67,138.93 190.67,137.93 201.67,135.93 218.67,129.93 241.67,120.93 262.67,112.93 293.67,103.93 318.67,93.93 343.67,83.93 360.67,74.93 368.67,72.93 369.67,72.93 370.67,72.93 365.67,72.93 354.67,72.93 336.67,80.93 308.67,88.93 281.67,95.93 265.67,102.93 252.67,108.93 243.67,112.93 242.67,115.93 242.67,120.93 242.67,121.93 249.67,125.93 267.67,128.93 304.67,128.93 346.67,128.93 386.67,128.93 442.67,128.93 488.67,128.93 533.67,128.93 549.67,128.93 554.67,128.93 555.67,128.93 552.67,128.93 539.67,128.93 525.67,128.93 507.67,128.93 493.67,126.93 482.67,125.93 473.67,125.93 471.67,124.93 470.67,124.93 469.67,123.93 473.67,121.93 477.67,121.93 484.67,120.93"/>
		</g>
	</g>
</svg>