<?xml version="1.0"?>
<!DOCTYPE svg PUBLIC "-//W3C//DTD SVG 1.1//EN" "http://www.w3.org/Graphics/SVG/1.1/DTD/svg11.dtd">
<svg xmlns="http://www.w3.org/2000/svg" width="15cm" height="15cm">
	<g fill="#fff">
		<rect x="0" y="0" width="720" height="184"/>
		<g fill="none" stroke="#000" stroke-width="2">
			<polyline points="247.67,64.93 247.67,71.93 247.67,81.93 249.67,95.93 251.67,113.93 253.67,126.93 261.67,148.93 265.67,162.93 267.67,177.93 268.67,186.93 269.67,190.93 270.67,192.93"/>
			<polyline points="228.67,136.93 233.67,132.93 244.67,125.93 254.67,118.93 272.67,109.93 288.67,104.93 301.67,102.93 314.67,98.93 322.67,98.93 327.67,96.93 330.67,96.93 331.67,96.93"/>
			<polyline points="314.67,59.93 314.67,64.93 314.67,68.93 315.67,77.93 319.67,89.93 320.67,97.93 322.67,108.93 326.67,120.93 329.67,132.93 330.67,136.93 333.67,144.93 333.67,145.93 334.67,147.93 334.67,148.93 334.67,145.93 334.67,144.93 334.67,143.93 334.67,140.93 332.67,131.93 332.67,115.93 335.67,105.93 338.67,97.93 341.67,89.93 343.67,88.93 345.67,88.93 346.67,88.93 347.67,91.93 349.67,96.93 350.67,103.93 350.67,107.93 350.67,116.93 349.67,122.93 345.67,129.93 341.67,133.93 340.67,134.93 340.67,133.93 340.67,132.93 340.67,129.93 340.67,128.93 342.67,127.93 346.67,124.93 350.67,121.93 354.67,122.93 359.67,122.93 365.67,128.93 368.67,133.93 369.67,134.93 369.67,133.93 371.67,134.93 377.67,136.93 378.67,137.93 379.67,137.93 380.67,137.93 380.67,136.93 381.67,136.93 382.67,136.93 383.67,134.93 384.67,124.93 385.67,112.93 382.67,97.93 378.67,74.93 373.67,64.93 371.67,63.93 370.67,63.93 369.67,64.93 369.67,66.93 369.67,69.93 364.67,80.93 362.67,96.93 361.67,104.93 361.67,111.93 364.67,117.93 374.67,128.93 379.67,130.93 381.67,133.93 384.67,131.93 385.67,126.93 385.67,123.93 385.67,119.93 380.67,96.93 369.67,64.93 356.67,42.93 346.67,20.93 341.67,8.93 338.67,4.93 338.67,4.93 338.67,5.93 338.67,7.93 338.67,11.93 338.67,33.93 341.67,48.93 356.67,78.93 371.67,95.93 381.67,106.93 391.67,114.93 405.67,132.93 414.67,137.93 418.67,139.93 418.67,141.93 419.67,142.93"/>
		</g>
	</g>
</svg>