<?xml version="1.0"?>
<!DOCTYPE svg PUBLIC "-//W3C//DTD SVG 1.1//EN" "http://www.w3.org/Graphics/SVG/1.1/DTD/svg11.dtd">
<svg xmlns="http://www.w3.org/2000/svg" width="15cm" height="15cm">
	<g fill="#fff">
		<rect x="0" y="0" width="720" height="184"/>
		<g fill="none" stroke="#000" stroke-width="2">
			<polyline points="212,102.1 212,96.1 212,88.1 217,74.1 261,-42.9 264,-43.9 272,-41.9 285,-39.9 299,-29.9 327,13.1 332,23.1 341,41.1 352,53.1 361,58.1 373,60.1 404,67.1 444,59.1 451,51.1"/>
			<polyline points="264,78.1 260,72.1 260,68.1 260,67.1 264,72.1 264,77.1 270,82.1 284,92.1 321,116.1 396,177.1 416,184.1 418,184.1 418,182.1 418,180.1 416,173.1 409,148.1 388,113.1 330,39.1 324,36.1 324,40.1 326,44.1 332,55.1 359,81.1 371,87.1 384,87.1 394,84.1 403,77.1 403,76.1 403,74.1 402,71.1 396,61.1 389,60.1 377,58.1 362,68.1 352,72.1 332,94.1 328,100.1 325,102.1 324,104.1 323,104.1 320,108.1 313,113.1 267,138.1 232,144.1 211,144.1 188,137.1 166,113.1 160,92.1 160,84.1 162,74.1 172,70.1 180,72.1 196,79.1 214,88.1 257,150.1 267,156.1 273,163.1 276,163.1 276,161.1 280,160.1 287,157.1 289,156.1 291,156.1"/>
		</g>
	</g>
</svg>