<?xml version="1.0"?>
<!DOCTYPE svg PUBLIC "-//W3C//DTD SVG 1.1//EN" "http://www.w3.org/Graphics/SVG/1.1/DTD/svg11.dtd">
<svg xmlns="http://www.w3.org/2000/svg" width="15cm" height="15cm">
	<g fill="#fff">
		<rect x="0" y="0" width="720" height="184"/>
		<g fill="none" stroke="#000" stroke-width="2">
			<polyline points="99,132.93 99,131.93 99,130.93 99,129.93 100,128.93 100,128.93 101,127.93 102,126.93 103,126.93 104,125.93 106,124.93 106,123.93 108,123.93 108,122.93 109,122.93 110,120.93 111,120.93 114,119.93 115,119.93 116,119.93 118,118.93 120,117.93 122,115.93 124,114.93 125,113.93 127,113.93 130,112.93 131,112.93 134,111.93 136,110.93 139,109.93 141,107.93 144,107.93 147,106.93 148,106.93 152,104.93 154,104.93 156,104.93 159,103.93 163,102.93 164,101.93 170,100.93 172,99.93 177,97.93 184,96.93 187,96.93 190,96.93 193,96.93 196,94.93 200,93.93 204,93.93 208,90.93 212,90.93 214,89.93 215,89.93 220,88.93 223,88.93 228,87.93 232,87.93 235,86.93 240,85.93 249,81.93 252,81.93 256,80.93 260,80.93 264,80.93 268,79.93 271,79.93 275,77.93 277,76.93 281,76.93 284,75.93 288,74.93 292,74.93 296,73.93 299,73.93 302,72.93 306,72.93 308,72.93 312,72.93 314,71.93 316,71.93 320,70.93 323,69.93 324,69.93 326,69.93 328,69.93 331,68.93 332,68.93 333,68.93 335,68.93 338,68.93 340,68.93 340,67.93 341,67.93 342,67.93 344,67.93 345,66.93 346,66.93 347,66.93 348,65.93 347,65.93 346,65.93 345,65.93 343,66.93 342,67.93 341,67.93 340,67.93 338,67.93 337,67.93 334,67.93 332,68.93 331,70.93 330,70.93 326,71.93 324,71.93 323,71.93 320,71.93 318,72.93 316,72.93 314,73.93 310,73.93 308,74.93 306,74.93 303,74.93 300,74.93 299,75.93 296,76.93 292,76.93 290,77.93 289,78.93 286,78.93 283,79.93 280,79.93 278,80.93 276,80.93 274,81.93 273,81.93 269,83.93 268,83.93 265,84.93 263,85.93 261,85.93 259,87.93 257,87.93 255,88.93 253,88.93 252,89.93 251,91.93 249,92.93 246,93.93 245,93.93 244,93.93 242,93.93 241,93.93 239,95.93 237,96.93 236,96.93 236,96.93 234,96.93 233,97.93 232,97.93 231,98.93 230,98.93 229,99.93 228,99.93 228,100.93 229,101.93 229,102.93 230,102.93 231,102.93 232,102.93 233,102.93 235,103.93 236,103.93 236,103.93 238,103.93 239,103.93 241,103.93 244,103.93 244,103.93 247,104.93 249,104.93 250,104.93 252,104.93 254,104.93 255,104.93 258,104.93 260,104.93 261,106.93 263,106.93 266,106.93 267,106.93 269,106.93 271,106.93 273,107.93 276,107.93 277,107.93 278,107.93 281,108.93 284,109.93 285,109.93 286,109.93 288,109.93 290,110.93 292,110.93 293,110.93 294,110.93 297,111.93 298,112.93 300,112.93 302,113.93 304,114.93 305,114.93 306,115.93 307,116.93 308,116.93 309,116.93 310,117.93 311,117.93 312,118.93 313,119.93 314,119.93 315,120.93 315,120.93 316,120.93 316,121.93 316,122.93 316,123.93 316,124.93 316,125.93 316,126.93 316,127.93 316,128.93 315,128.93 314,130.93 313,131.93 312,132.93 311,133.93 310,133.93 309,135.93 308,135.93 308,136.93 306,136.93 304,136.93 302,138.93 301,139.93 300,139.93 298,139.93 296,140.93 294,141.93 292,141.93 290,142.93 288,143.93 285,143.93 283,144.93 282,144.93 279,145.93 277,145.93 276,146.93 275,146.93 271,147.93 269,147.93 268,147.93 265,148.93 263,148.93 260,149.93 258,149.93 255,149.93 254,150.93 252,151.93 248,152.93 245,152.93 242,152.93 241,153.93 239,154.93 236,154.93 234,154.93 233,154.93 232,154.93 230,154.93 228,155.93 228,155.93 227,155.93 226,155.93 225,155.93 222,155.93 221,155.93 220,155.93 220,155.93 219,154.93 218,153.93 216,152.93 216,152.93 215,151.93 215,150.93 215,149.93 214,148.93 213,146.93 213,145.93 212,144.93 212,142.93 212,142.93 212,140.93 212,139.93 212,137.93 212,136.93 212,136.93 212,133.93 212,132.93 212,131.93 212,129.93 212,128.93 212,127.93 212,125.93 212,124.93 212,122.93 212,120.93 212,120.93 212,118.93 212,117.93 212,115.93 212,113.93 212,112.93 212,111.93 212,110.93 212,109.93 213,107.93 213,106.93 214,105.93 214,104.93 215,103.93 216,102.93 217,100.93 219,98.93 219,97.93 220,96.93 221,95.93 223,94.93 223,93.93 225,91.93 225,89.93 227,88.93 228,88.93 230,88.93 232,88.93 233,87.93 234,87.93 236,85.93 238,85.93 241,83.93 251,81.93 253,81.93 255,81.93 261,80.93 264,80.93 268,80.93 270,80.93 274,80.93 277,80.93 281,80.93 284,80.93 287,80.93 294,80.93 299,80.93 302,80.93 307,80.93 309,80.93 313,80.93 318,81.93 323,83.93 325,83.93 329,83.93 333,84.93 338,86.93 343,87.93 348,88.93 352,88.93 356,89.93 361,89.93 365,91.93 370,91.93 375,94.93 380,96.93 388,96.93 395,99.93 397,99.93 403,101.93 409,103.93 415,104.93 420,105.93 422,106.93 428,107.93 432,108.93 438,111.93 444,112.93 450,113.93 455,116.93 461,117.93 466,119.93 471,120.93 477,121.93 488,124.93 492,126.93 496,127.93 502,128.93 508,130.93 513,132.93 517,133.93 522,134.93 527,136.93 531,138.93 536,139.93 540,141.93 546,142.93 550,143.93 553,144.93 557,144.93 561,145.93 564,146.93 568,147.93 571,148.93 574,149.93 578,150.93 581,151.93 585,151.93 588,152.93 589,152.93 592,153.93 596,153.93 596,153.93 599,153.93 602,154.93 604,155.93 605,156.93 608,156.93 610,157.93 611,157.93 612,157.93 614,158.93 616,158.93 617,158.93 618,159.93 619,159.93 620,159.93 620,159.93 621,159.93 622,159.93 623,159.93 623,158.93 623,157.93 622,156.93 622,155.93 621,153.93 621,152.93 620,152.93 620,152.93 620,151.93 619,150.93 619,149.93 618,147.93 617,146.93 616,144.93 616,143.93 614,141.93 613,140.93 612,138.93 612,137.93 611,136.93 610,134.93 610,131.93 608,129.93 607,128.93 606,128.93 606,126.93 604,124.93 604,122.93 604,121.93 603,120.93 601,118.93 601,117.93 600,116.93 600,114.93 599,114.93 598,113.93 598,112.93 598,111.93 597,109.93 596,107.93 596,106.93 596,106.93 595,105.93 595,104.93 595,103.93 595,101.93 595,100.93 594,100.93 594,98.93 593,97.93 593,96.93 593,96.93 592,96.93 592,94.93 592,93.93 591,92.93 590,90.93 590,89.93 589,88.93 589,87.93 588,86.93 588,85.93 588,84.93 588,83.93 588,82.93 587,81.93 586,81.93 586,80.93 586,80.93 586,79.93 585,78.93 585,77.93 584,77.93 583,76.93 583,75.93 583,74.93 582,74.93 581,73.93 581,72.93 581,72.93 580,72.93 580,72.93 579,72.93 579,71.93 578,71.93 578,70.93 577,70.93 576,70.93 575,70.93 574,69.93 572,69.93 572,69.93 571,69.93 570,69.93 569,69.93 567,69.93 564,69.93 564,69.93 561,69.93 559,69.93 558,69.93 556,69.93 554,69.93 552,69.93 550,70.93 548,71.93 544,71.93 541,71.93 539,72.93 536,72.93 533,73.93 532,74.93 528,75.93 525,76.93 523,77.93 521,78.93 517,79.93 516,80.93 512,80.93 509,80.93 506,82.93 502,83.93 500,84.93 495,85.93 492,86.93 484,88.93 480,88.93 476,89.93 472,90.93 468,91.93 464,92.93 460,94.93 457,95.93 453,95.93 450,95.93 445,96.93 442,97.93 437,98.93 432,99.93 428,100.93 422,102.93 420,103.93 416,104.93 410,104.93 404,104.93 400,105.93 392,107.93 386,107.93 381,107.93 378,108.93 373,109.93 369,110.93 364,110.93 357,111.93 356,111.93 352,111.93 348,111.93 343,111.93 338,111.93 333,112.93 329,112.93 324,113.93 319,113.93 315,113.93 310,113.93 306,113.93 301,113.93 291,113.93 286,113.93 282,113.93 278,113.93 273,113.93 267,112.93 261,112.93 255,112.93 250,112.93 244,112.93 240,111.93 234,110.93 228,110.93 221,109.93 217,109.93 212,108.93 206,107.93 200,105.93 195,104.93 191,104.93 187,104.93 180,103.93 176,102.93 171,101.93 166,101.93 163,100.93 160,99.93 156,99.93 152,98.93 148,97.93 145,96.93 140,96.93 135,96.93 129,95.93 126,94.93 123,93.93 119,93.93 115,92.93 111,91.93 108,91.93 105,90.93 102,90.93 99,89.93 95,89.93 92,88.93 90,88.93 87,88.93 84,87.93 80,87.93 78,86.93 76,86.93 73,85.93 71,85.93 70,85.93 67,85.93 64,85.93 63,84.93 60,83.93 58,83.93 57,82.93 54,82.93 52,81.93 52,81.93 49,81.93 47,80.93 44,80.93 42,80.93 41,79.93 40,79.93 38,78.93 37,78.93 36,77.93 36,77.93 34,77.93 32,76.93 31,75.93 30,75.93 30,74.93 29,74.93 28,74.93 28,74.93 28,73.93 28,72.93 28,72.93 28,72.93 29,72.93 31,72.93 32,72.93 34,72.93 34,71.93 35,71.93 37,71.93 37,70.93 39,70.93 40,70.93 42,69.93 44,69.93 44,69.93 46,69.93 47,69.93 50,69.93 52,69.93 52,69.93 55,69.93 57,69.93 59,69.93 61,69.93 64,69.93 65,69.93 68,69.93 72,69.93 74,69.93 76,69.93 79,69.93 82,68.93 84,68.93 87,68.93 90,68.93 92,67.93 96,67.93 100,66.93 103,66.93 107,66.93 109,66.93 113,66.93 117,66.93 120,66.93 124,66.93 127,66.93 133,66.93 136,66.93 140,66.93 144,65.93 148,65.93 151,65.93 154,65.93 157,65.93 162,65.93 164,65.93 167,65.93 170,65.93 173,65.93 177,65.93"/>
		</g>
	</g>
</svg>