<?xml version="1.0"?>
<!DOCTYPE svg PUBLIC "-//W3C//DTD SVG 1.1//EN" "http://www.w3.org/Graphics/SVG/1.1/DTD/svg11.dtd">
<svg xmlns="http://www.w3.org/2000/svg" width="15cm" height="15cm">
	<g fill="#fff">
		<rect x="0" y="0" width="720" height="184"/>
		<g fill="none" stroke="#000" stroke-width="2">
			<polyline points="262.67,24.93 262.67,24.93 262.67,25.93 261.67,25.93 261.67,26.93 260.67,27.93 260.67,28.93 259.67,29.93 259.67,30.93 259.67,31.93 259.67,32.93 259.67,34.93 259.67,35.93 259.67,36.93 259.67,37.93 258.67,38.93 258.67,39.93 258.67,40.93 258.67,40.93 258.67,41.93 258.67,42.93 258.67,44.93 258.67,45.93 258.67,46.93 258.67,47.93 258.67,48.93 258.67,49.93 257.67,51.93 257.67,52.93 257.67,54.93 257.67,55.93 257.67,56.93 257.67,56.93 257.67,57.93 257.67,58.93 257.67,59.93 256.67,60.93 256.67,61.93 256.67,62.93 256.67,63.93 256.67,64.93 256.67,64.93 256.67,65.93 256.67,66.93 256.67,67.93 256.67,69.93 256.67,71.93 255.67,72.93 255.67,73.93 255.67,74.93 255.67,75.93 255.67,76.93 254.67,76.93 254.67,78.93 254.67,79.93 254.67,80.93 254.67,80.93 254.67,81.93 254.67,84.93 254.67,85.93 254.67,86.93 254.67,87.93 254.67,88.93 254.67,88.93 254.67,89.93 254.67,90.93 254.67,91.93 254.67,92.93 254.67,93.93 254.67,94.93 254.67,95.93 254.67,96.93 254.67,96.93 254.67,97.93 254.67,98.93 253.67,99.93 253.67,100.93 253.67,99.93 253.67,98.93 253.67,97.93 253.67,96.93 253.67,96.93 252.67,95.93 252.67,94.93 251.67,93.93 251.67,92.93 251.67,91.93 251.67,90.93 251.67,89.93 250.67,89.93 250.67,88.93 250.67,88.93 250.67,87.93 249.67,87.93 249.67,86.93 248.67,85.93 247.67,85.93 247.67,84.93 246.67,84.93 245.67,83.93 245.67,82.93 244.67,82.93 243.67,82.93 242.67,82.93 242.67,81.93 241.67,81.93 240.67,81.93 238.67,81.93 237.67,81.93 235.67,81.93 234.67,81.93 232.67,81.93 231.67,81.93 229.67,81.93 228.67,81.93 226.67,81.93 225.67,81.93 223.67,81.93 221.67,81.93 218.67,81.93 218.67,81.93 214.67,81.93 212.67,81.93 210.67,81.93 206.67,81.93 203.67,81.93 200.67,81.93 198.67,81.93 194.67,81.93 191.67,81.93 189.67,81.93 186.67,81.93 183.67,81.93 179.67,81.93 177.67,81.93 175.67,81.93 170.67,81.93 167.67,81.93 164.67,81.93 160.67,81.93 156.67,81.93 153.67,81.93 148.67,81.93 145.67,81.93 141.67,81.93 137.67,81.93 132.67,81.93 130.67,81.93 125.67,81.93 120.67,82.93 113.67,82.93 109.67,82.93 105.67,82.93 101.67,82.93 98.67,82.93 93.67,83.93 90.67,83.93 87.67,84.93 83.67,84.93 80.67,84.93 77.67,84.93 74.67,85.93 70.67,85.93 66.67,85.93 64.67,85.93 61.67,86.93 58.67,86.93 56.67,87.93 52.67,87.93 50.67,87.93 46.67,87.93 43.67,87.93 42.67,87.93 39.67,87.93 35.67,87.93 33.67,87.93 31.67,87.93 29.67,87.93 26.67,87.93 24.67,87.93 22.67,87.93 20.67,87.93 18.67,87.93 17.67,87.93 15.67,87.93 14.67,87.93 13.67,87.93 11.67,87.93 10.67,87.93 10.67,86.93 7.67,86.93 6.67,86.93 5.67,86.93 4.67,86.93 3.67,86.93 2.67,86.93 2.67,85.93 2.67,84.93 1.67,83.93 2.67,83.93 2.67,83.93 4.67,83.93 4.67,82.93 5.67,81.93 7.67,80.93 8.67,80.93 9.67,80.93 10.67,80.93 10.67,79.93 11.67,79.93 12.67,79.93 14.67,78.93 16.67,78.93 17.67,77.93 18.67,76.93 20.67,75.93 21.67,75.93 24.67,74.93 25.67,74.93 26.67,74.93 27.67,74.93 30.67,74.93 32.67,74.93 34.67,73.93 36.67,73.93 38.67,73.93 41.67,73.93 43.67,73.93 46.67,73.93 49.67,73.93 53.67,73.93 58.67,73.93 60.67,73.93 64.67,73.93 66.67,73.93 70.67,73.93 74.67,73.93 77.67,73.93 80.67,73.93 84.67,73.93 85.67,73.93 89.67,73.93 92.67,73.93 97.67,73.93 100.67,73.93 104.67,73.93 108.67,73.93 111.67,73.93 115.67,72.93 119.67,72.93 123.67,72.93 128.67,72.93 132.67,72.93 136.67,72.93 140.67,72.93 145.67,72.93 148.67,72.93 153.67,72.93 157.67,72.93 163.67,72.93 168.67,72.93 177.67,72.93 182.67,72.93 186.67,72.93 193.67,71.93 197.67,71.93 202.67,71.93 206.67,71.93 209.67,70.93 213.67,70.93 218.67,70.93 224.67,70.93 228.67,70.93 234.67,69.93 242.67,68.93 247.67,68.93 253.67,68.93 258.67,68.93 263.67,68.93 268.67,68.93 273.67,68.93 276.67,67.93 281.67,67.93 285.67,67.93 290.67,67.93 295.67,66.93 299.67,66.93 306.67,64.93 313.67,64.93 316.67,64.93 321.67,64.93 325.67,64.93 330.67,64.93 335.67,63.93 339.67,62.93 341.67,62.93 346.67,62.93 349.67,62.93 352.67,61.93 355.67,61.93 359.67,60.93 362.67,60.93 364.67,59.93 368.67,59.93 370.67,58.93 374.67,58.93 376.67,58.93 378.67,58.93 381.67,58.93 383.67,58.93 386.67,57.93 388.67,57.93 390.67,57.93 392.67,57.93 394.67,57.93 394.67,57.93 396.67,57.93 397.67,57.93 398.67,56.93 399.67,56.93 400.67,56.93 401.67,56.93 402.67,56.93 402.67,56.93 403.67,56.93 404.67,56.93 404.67,56.93 403.67,56.93 402.67,56.93 402.67,56.93 401.67,56.93 400.67,56.93 399.67,56.93 399.67,56.93 399.67,57.93 398.67,57.93 397.67,57.93 397.67,58.93 396.67,58.93 395.67,58.93 394.67,58.93 394.67,58.93 394.67,59.93 393.67,59.93 393.67,60.93 392.67,60.93 391.67,60.93 390.67,60.93 389.67,61.93 388.67,61.93 387.67,62.93 386.67,62.93 386.67,63.93 385.67,63.93 384.67,63.93 384.67,64.93 383.67,64.93"/>
			<polyline points="245.67,14.93 245.67,13.93 245.67,14.93 245.67,15.93 245.67,16.93 246.67,17.93 246.67,22.93 247.67,23.93 248.67,24.93 249.67,25.93 249.67,27.93 250.67,28.93 250.67,29.93 250.67,30.93 250.67,32.93 250.67,32.93 250.67,33.93 251.67,35.93 251.67,36.93 251.67,38.93 252.67,38.93 252.67,40.93 253.67,41.93 254.67,41.93 254.67,43.93 255.67,45.93 256.67,47.93 257.67,48.93 257.67,50.93 258.67,52.93 258.67,53.93 259.67,55.93 259.67,56.93 260.67,56.93 260.67,57.93 260.67,59.93 261.67,59.93 261.67,61.93 262.67,62.93 263.67,63.93 263.67,64.93 264.67,65.93 264.67,66.93 264.67,68.93 265.67,68.93 265.67,70.93 266.67,72.93 266.67,72.93 266.67,73.93 266.67,74.93 267.67,76.93 267.67,77.93 268.67,78.93 268.67,79.93 269.67,79.93 269.67,80.93 269.67,81.93 270.67,82.93 270.67,83.93 271.67,84.93 271.67,85.93 272.67,87.93 272.67,88.93 273.67,88.93 273.67,89.93 273.67,90.93 274.67,91.93 274.67,92.93 274.67,93.93 274.67,93.93 274.67,94.93 275.67,94.93 276.67,94.93 276.67,93.93 277.67,93.93 278.67,93.93 278.67,92.93 278.67,91.93 279.67,90.93 280.67,90.93 280.67,89.93 280.67,88.93 281.67,88.93 281.67,87.93 282.67,85.93 282.67,84.93 282.67,83.93 282.67,82.93 282.67,81.93 282.67,80.93 282.67,80.93 283.67,79.93 283.67,78.93 283.67,76.93 284.67,75.93 285.67,73.93 285.67,72.93 285.67,71.93 285.67,70.93 285.67,69.93 286.67,68.93 286.67,67.93 287.67,66.93 287.67,65.93 287.67,64.93 287.67,64.93 287.67,63.93 288.67,63.93 288.67,62.93 288.67,60.93 288.67,59.93 289.67,57.93 289.67,56.93 289.67,56.93 289.67,55.93 290.67,55.93 290.67,54.93 290.67,53.93 290.67,52.93 290.67,51.93 290.67,50.93 290.67,50.93 290.67,50.93 289.67,50.93 289.67,51.93 288.67,51.93 288.67,52.93 287.67,52.93 287.67,53.93 287.67,54.93 286.67,54.93 286.67,56.93 286.67,56.93 286.67,57.93 286.67,58.93 286.67,59.93 286.67,60.93 286.67,61.93 286.67,63.93 286.67,64.93 286.67,65.93 286.67,66.93 286.67,68.93 286.67,69.93 286.67,70.93 286.67,71.93 286.67,72.93 286.67,72.93 286.67,73.93 286.67,74.93 286.67,75.93 286.67,76.93 286.67,77.93 286.67,78.93 286.67,79.93 286.67,80.93 287.67,80.93 287.67,81.93 288.67,81.93 288.67,82.93 289.67,82.93 290.67,82.93 290.67,82.93 291.67,81.93 292.67,81.93 292.67,80.93 293.67,80.93 294.67,80.93 295.67,80.93 295.67,80.93 296.67,80.93 296.67,79.93 297.67,79.93 298.67,78.93 298.67,78.93 299.67,78.93 299.67,77.93 300.67,76.93 301.67,76.93 302.67,76.93 302.67,75.93 302.67,76.93 301.67,77.93 301.67,78.93 300.67,78.93 300.67,79.93 300.67,80.93 300.67,80.93 300.67,81.93 300.67,82.93 300.67,83.93 300.67,84.93 300.67,85.93 300.67,86.93 300.67,87.93 300.67,88.93 300.67,88.93 301.67,88.93 302.67,88.93 303.67,88.93 304.67,88.93 305.67,87.93 306.67,87.93 306.67,86.93 306.67,86.93 307.67,85.93 308.67,85.93 308.67,84.93 309.67,83.93 310.67,83.93 310.67,82.93 310.67,81.93 311.67,80.93 312.67,80.93 312.67,80.93 312.67,79.93 313.67,79.93 313.67,78.93 314.67,77.93 314.67,76.93 314.67,75.93 315.67,74.93 316.67,74.93 316.67,73.93 317.67,72.93 317.67,72.93 318.67,72.93 319.67,71.93 320.67,70.93 321.67,70.93 321.67,69.93 322.67,68.93 322.67,68.93 322.67,67.93 323.67,67.93 323.67,68.93 322.67,68.93 322.67,68.93 322.67,69.93 321.67,70.93 321.67,71.93 321.67,72.93 320.67,72.93 320.67,73.93 320.67,74.93 320.67,75.93 320.67,76.93 320.67,77.93 320.67,78.93 320.67,79.93 320.67,78.93 321.67,76.93 322.67,74.93 322.67,73.93 323.67,72.93 324.67,71.93 324.67,67.93 326.67,66.93 327.67,65.93 328.67,64.93 328.67,63.93 329.67,62.93 330.67,60.93 330.67,60.93 330.67,59.93 330.67,58.93 331.67,58.93 331.67,57.93 332.67,56.93 332.67,56.93 333.67,56.93 333.67,55.93 334.67,55.93 335.67,54.93 336.67,53.93 336.67,52.93 337.67,52.93 337.67,51.93 338.67,51.93 338.67,50.93 339.67,49.93 340.67,49.93 341.67,48.93 341.67,48.93 342.67,48.93 343.67,48.93 344.67,47.93 345.67,47.93 346.67,46.93 346.67,46.93 346.67,45.93 347.67,45.93 348.67,45.93 348.67,46.93 347.67,46.93 347.67,47.93 347.67,48.93 347.67,49.93 347.67,50.93 347.67,52.93 347.67,53.93 347.67,54.93 347.67,56.93 347.67,56.93 347.67,57.93 347.67,58.93 347.67,59.93 347.67,60.93 347.67,61.93 347.67,62.93 347.67,64.93 347.67,65.93 347.67,67.93 347.67,69.93 347.67,70.93 347.67,71.93 347.67,72.93 347.67,74.93 347.67,75.93 347.67,76.93 347.67,77.93 347.67,78.93 347.67,80.93 346.67,80.93 346.67,82.93 346.67,83.93 346.67,85.93 346.67,86.93 346.67,88.93 346.67,88.93 346.67,89.93 346.67,90.93 346.67,91.93 346.67,92.93 346.67,93.93 346.67,94.93 345.67,95.93 345.67,96.93 345.67,97.93 345.67,98.93 345.67,99.93 345.67,100.93 344.67,101.93 343.67,102.93 343.67,103.93 342.67,104.93 342.67,106.93 341.67,107.93 340.67,109.93 339.67,109.93 339.67,110.93 339.67,111.93 339.67,112.93 338.67,112.93 338.67,112.93 338.67,112.93 337.67,113.93 336.67,114.93 335.67,114.93 335.67,115.93 334.67,115.93 333.67,115.93 332.67,116.93 331.67,116.93 330.67,116.93 330.67,117.93 329.67,117.93 328.67,117.93 327.67,117.93 326.67,117.93 326.67,118.93 325.67,118.93 324.67,118.93 323.67,118.93 324.67,118.93 325.67,118.93 327.67,117.93 328.67,117.93 329.67,116.93 330.67,116.93 331.67,115.93 332.67,114.93 333.67,114.93 334.67,113.93 336.67,113.93 336.67,112.93 337.67,112.93 338.67,112.93 339.67,111.93 341.67,110.93 342.67,109.93 343.67,109.93 344.67,108.93 345.67,107.93 346.67,107.93 346.67,107.93 347.67,106.93 347.67,105.93 347.67,104.93 349.67,104.93 350.67,104.93 350.67,103.93 351.67,103.93 352.67,102.93 352.67,101.93 353.67,101.93 353.67,100.93 354.67,99.93 354.67,98.93 355.67,98.93 355.67,97.93 356.67,96.93 357.67,96.93 358.67,96.93 359.67,96.93 360.67,95.93 362.67,94.93 362.67,93.93 362.67,93.93 363.67,93.93 365.67,93.93 366.67,92.93 367.67,91.93 368.67,90.93 369.67,90.93 370.67,90.93 370.67,89.93 372.67,88.93 373.67,88.93 374.67,88.93 375.67,88.93 376.67,88.93 377.67,88.93 378.67,87.93 379.67,86.93 381.67,85.93 382.67,85.93 384.67,84.93 385.67,84.93 387.67,84.93 388.67,84.93 390.67,84.93 391.67,84.93 393.67,83.93 394.67,83.93 396.67,83.93 397.67,83.93 400.67,83.93 402.67,83.93 402.67,83.93 404.67,83.93 407.67,83.93 408.67,83.93 410.67,83.93 412.67,83.93 413.67,83.93 415.67,83.93 416.67,83.93 418.67,83.93 418.67,83.93 421.67,83.93 424.67,83.93 425.67,83.93 426.67,83.93 427.67,83.93 429.67,83.93 430.67,83.93 431.67,83.93 433.67,84.93 434.67,85.93 435.67,85.93 438.67,85.93 439.67,86.93 440.67,86.93 441.67,86.93 442.67,87.93 443.67,87.93 444.67,87.93 445.67,87.93 445.67,88.93 446.67,88.93 447.67,88.93 448.67,89.93 449.67,89.93 450.67,89.93 450.67,90.93 451.67,90.93 453.67,90.93 453.67,91.93 453.67,92.93 455.67,92.93 455.67,93.93 456.67,93.93 458.67,93.93 458.67,94.93 458.67,95.93 458.67,96.93 459.67,96.93 460.67,96.93 460.67,97.93 461.67,98.93 461.67,99.93 462.67,100.93 462.67,101.93 462.67,102.93 462.67,103.93 462.67,104.93 462.67,104.93 462.67,105.93 462.67,106.93 462.67,107.93 462.67,108.93"/>
		</g>
	</g>
</svg>