<?xml version="1.0"?>
<!DOCTYPE svg PUBLIC "-//W3C//DTD SVG 1.1//EN" "http://www.w3.org/Graphics/SVG/1.1/DTD/svg11.dtd">
<svg xmlns="http://www.w3.org/2000/svg" width="15cm" height="15cm">
	<g fill="#fff">
		<rect x="0" y="0" width="720" height="184"/>
		<g fill="none" stroke="#000" stroke-width="2">
			<polyline points="230.67,71.93 230.67,72.93 230.67,72.93 231.67,72.93 234.67,69.93 249.67,54.93 254.67,47.93 258.67,41.93 259.67,38.93 258.67,39.93 254.67,44.93 250.67,49.93 247.67,52.93 246.67,55.93 244.67,58.93 244.67,64.93 245.67,65.93 247.67,67.93 250.67,66.93 256.67,64.93 264.67,57.93 266.67,54.93 266.67,55.93 262.67,57.93 255.67,64.93 249.67,73.93 242.67,85.93 241.67,93.93 241.67,99.93 241.67,103.93 241.67,112.93"/>
			<polyline points="261.67,92.93 260.67,93.93 260.67,96.93 260.67,101.93 260.67,112.93 260.67,120.93 261.67,123.93 262.67,124.93 263.67,125.93 269.67,125.93 275.67,121.93 282.67,115.93 290.67,108.93 297.67,100.93 307.67,80.93 309.67,77.93 310.67,74.93 310.67,71.93 310.67,70.93 309.67,68.93 306.67,66.93 305.67,66.93 303.67,64.93 303.67,65.93 303.67,64.93 303.67,74.93 304.67,78.93 306.67,81.93 311.67,86.93"/>
			<polyline points="383.67,80.93 383.67,86.93 382.67,86.93 382.67,88.93"/>
			<polyline points="354.67,88.93 357.67,88.93 361.67,84.93 363.67,80.93 366.67,79.93 368.67,77.93 369.67,72.93 370.67,69.93 370.67,71.93 370.67,72.93 369.67,75.93 368.67,86.93 368.67,104.93 369.67,116.93 376.67,124.93 381.67,124.93 390.67,124.93 403.67,116.93 413.67,97.93 418.67,89.93 420.67,89.93 421.67,87.93 421.67,88.93 422.67,96.93 424.67,104.93 426.67,106.93 433.67,109.93 438.67,109.93 446.67,104.93 459.67,95.93 471.67,86.93 465.67,99.93 456.67,104.93 445.67,110.93 436.67,114.93 425.67,114.93"/>
		</g>
	</g>
</svg>