<?xml version="1.0"?>
<!DOCTYPE svg PUBLIC "-//W3C//DTD SVG 1.1//EN" "http://www.w3.org/Graphics/SVG/1.1/DTD/svg11.dtd">
<svg xmlns="http://www.w3.org/2000/svg" width="15cm" height="15cm">
	<g fill="#fff">
		<rect x="0" y="0" width="720" height="184"/>
		<g fill="none" stroke="#000" stroke-width="2">
			<polyline points="189.67,81.93 188.67,81.93 194.67,78.93 210.67,72.93 219.67,68.93 225.67,65.93 226.67,64.93 218.67,64.93 205.67,68.93 192.67,72.93 188.67,74.93 200.67,72.93 215.67,71.93 224.67,68.93 231.67,66.93 226.67,66.93 211.67,69.93 199.67,74.93 186.67,80.93 179.67,86.93 178.67,90.93 178.67,94.93 188.67,96.93 217.67,99.93 266.67,99.93 332.67,99.93 394.67,91.93 424.67,88.93 430.67,85.93 427.67,85.93 426.67,86.93 426.67,86.93 425.67,86.93 424.67,86.93"/>
			<polyline points="315.67,75.93 312.67,79.93 303.67,88.93 290.67,103.93 276.67,120.93 263.67,136.93 258.67,141.93 258.67,141.93 261.67,139.93 269.67,128.93 271.67,123.93 279.67,114.93 289.67,105.93 295.67,103.93 298.67,102.93 299.67,102.93 299.67,103.93 298.67,104.93 298.67,106.93 298.67,107.93 305.67,107.93 322.67,107.93 343.67,107.93 361.67,107.93 362.67,109.93 362.67,110.93 362.67,112.93 362.67,113.93 362.67,114.93 364.67,114.93 369.67,109.93 375.67,103.93 384.67,99.93 393.67,97.93 399.67,96.93 405.67,96.93 413.67,95.93 432.67,92.93 460.67,88.93 503.67,82.93 535.67,78.93 539.67,78.93 536.67,78.93 522.67,78.93"/>
		</g>
	</g>
</svg>