<?xml version="1.0"?>
<!DOCTYPE svg PUBLIC "-//W3C//DTD SVG 1.1//EN" "http://www.w3.org/Graphics/SVG/1.1/DTD/svg11.dtd">
<svg xmlns="http://www.w3.org/2000/svg" width="15cm" height="15cm">
	<g fill="#fff">
		<rect x="0" y="0" width="720" height="184"/>
		<g fill="none" stroke="#000" stroke-width="2">
			<polyline points="56.67,25.93 57.67,24.93 58.67,24.93 59.67,25.93 60.67,25.93 61.67,26.93 62.67,28.93 64.67,29.93 65.67,32.93 67.67,40.93 69.67,46.93 69.67,49.93 69.67,57.93 70.67,61.93 71.67,64.93 72.67,70.93 72.67,72.93 72.67,77.93 73.67,80.93 73.67,84.93 74.67,87.93 74.67,90.93 74.67,95.93 75.67,97.93 76.67,102.93 77.67,105.93 77.67,107.93 77.67,110.93 79.67,111.93 74.67,107.93"/>
			<polyline points="73.67,45.93 74.67,45.93 74.67,45.93 77.67,45.93 84.67,42.93 86.67,42.93 93.67,38.93 105.67,29.93 118.67,23.93 122.67,21.93 130.67,13.93 146.67,6.93 162.67,1.93 175.67,0.93 180.67,0.93 182.67,0.93 185.67,0.93 186.67,1.93 186.67,2.93 188.67,6.93 190.67,9.93 190.67,15.93 190.67,18.93 190.67,24.93 182.67,32.93 171.67,40.93 155.67,50.93 125.67,65.93 114.67,70.93 92.67,77.93 74.67,84.93 58.67,88.93 45.67,93.93 40.67,94.93 37.67,95.93 36.67,95.93"/>
		</g>
	</g>
</svg>