<?xml version="1.0"?>
<!DOCTYPE svg PUBLIC "-//W3C//DTD SVG 1.1//EN" "http://www.w3.org/Graphics/SVG/1.1/DTD/svg11.dtd">
<svg xmlns="http://www.w3.org/2000/svg" width="15cm" height="15cm">
	<g fill="#fff">
		<rect x="0" y="0" width="720" height="184"/>
		<g fill="none" stroke="#000" stroke-width="2">
			<polyline points="227,30.7 227,29.7 227,28.7 225,28.7 223,28.7 220,28.7 217,30.7 212,33.7 208,38.7 204,44.7 202,50.7 201,52.7 203,52.7 227,41.7 266,44.7 293,44.7 320,49.7 325,59.7 323,64.7 320,72.7 310,80.7 287,95.7 274,96.7 259,100.7 250,103.7 248,103.7 248,101.7 249,95.7 271,61.7 284,52.7 293,47.7 306,50.7 321,53.7 329,65.7 331,70.7 331,72.7 331,71.7 333,70.7 334,69.7 338,69.7 366,82.7 382,98.7 394,110.7 398,114.7 400,114.7 396,107.7 396,90.7 395,73.7 395,63.7 404,49.7 408,46.7 411,45.7 412,45.7 414,45.7 415,47.7 424,59.7 428,65.7 433,69.7"/>
		</g>
	</g>
</svg>