<?xml version="1.0"?>
<!DOCTYPE svg PUBLIC "-//W3C//DTD SVG 1.1//EN" "http://www.w3.org/Graphics/SVG/1.1/DTD/svg11.dtd">
<svg xmlns="http://www.w3.org/2000/svg" width="15cm" height="15cm">
	<g fill="#fff">
		<rect x="0" y="0" width="720" height="184"/>
		<g fill="none" stroke="#000" stroke-width="2">
			<polyline points="197,61.7 197,60.7 197,59.7 197,57.7 196,55.7 195,53.7 195,46.7 194,38.7 194,34.7 193,32.7 192,33.7 183,52.7 181,57.7 180,60.7 179,61.7 179,60.7 179,58.7 179,57.7 179,54.7 178,50.7 178,47.7 177,47.7 177,49.7 177,50.7 177,54.7 182,65.7 186,77.7 191,94.7 196,106.7 196,108.7 196,106.7 196,104.7 196,91.7 198,55.7 202,30.7 208,-12.3 211,-19.3 213,-19.3 215,-17.3 222,-5.3 230,12.7 232,18.7 234,20.7 238,19.7 242,18.7 246,13.7 247,13.7 251,17.7 251,18.7 254,27.7 255,32.7 256,36.7 257,40.7 258,42.7 258,43.7 261,49.7 261,50.7 258,52.7 249,55.7 242,55.7 230,54.7 227,53.7 226,51.7 226,49.7 226,51.7 225,54.7 225,58.7 227,64.7 233,73.7 239,86.7 243,90.7 241,83.7 233,75.7 219,68.7 204,64.7 180,60.7 177,60.7 176,60.7 174,60.7 172,62.7 169,62.7 167,62.7 171,62.7 186,61.7 214,61.7 240,64.7 268,67.7 292,71.7 298,72.7 298,73.7 298,71.7 298,70.7 301,69.7 317,70.7 327,76.7 338,81.7 345,85.7 351,86.7 352,86.7 354,83.7 355,82.7 356,81.7 356,80.7 355,81.7 352,83.7 348,84.7 343,85.7 328,86.7 316,89.7 286,100.7 259,110.7 221,125.7 180,136.7 154,151.7 118,168.7 108,175.7 104,177.7 102,177.7 100,177.7 96,177.7 94,177.7 90,184.7 88,186.7 84,194.7 79,203.7 70,230.7 67,239.7 64,245.7 64,248.7 63,253.7 63,256.7 63,258.7 63,261.7 63,266.7 63,269.7 63,272.7 63,274.7 63,280.7 63,282.7 63,285.7 63,288.7 63,293.7 63,296.7 63,299.7 63,301.7 63,304.7 65,297.7 68,289.7 70,287.7 71,285.7 74,280.7 76,279.7 78,277.7 80,274.7 82,273.7 83,273.7 83,275.7 82,278.7 80,282.7 77,284.7 75,285.7 73,285.7 71,285.7 70,285.7 68,284.7 68,283.7 67,281.7 67,280.7 66,279.7"/>
		</g>
	</g>
</svg>