<?xml version="1.0"?>
<!DOCTYPE svg PUBLIC "-//W3C//DTD SVG 1.1//EN" "http://www.w3.org/Graphics/SVG/1.1/DTD/svg11.dtd">
<svg xmlns="http://www.w3.org/2000/svg" width="15cm" height="15cm">
	<g fill="#fff">
		<rect x="0" y="0" width="720" height="184"/>
		<g fill="none" stroke="#000" stroke-width="2">
			<polyline points="192.67,55.93 192.67,56.93 178.67,76.93 152.67,107.93 130.67,133.93 125.67,140.93 123.67,141.93 123.67,140.93 130.67,133.93 144.67,114.93 166.67,81.93 178.67,60.93 186.67,51.93 189.67,48.93 189.67,53.93 195.67,72.93 206.67,91.93 218.67,108.93 223.67,116.93 222.67,120.93 211.67,124.93 201.67,128.93 191.67,130.93 174.67,124.93 162.67,115.93 157.67,105.93 156.67,94.93 162.67,84.93 172.67,77.93 185.67,68.93 189.67,64.93 189.67,64.93 190.67,66.93 192.67,87.93 202.67,107.93 221.67,121.93 239.67,127.93 252.67,125.93 261.67,118.93 266.67,103.93 266.67,87.93 265.67,72.93 264.67,72.93 263.67,72.93 263.67,78.93 262.67,85.93 262.67,91.93 266.67,98.93 268.67,102.93 270.67,104.93 274.67,104.93 279.67,103.93 287.67,96.93 290.67,92.93 292.67,92.93 291.67,100.93 295.67,110.93 298.67,113.93 298.67,114.93 298.67,114.93 301.67,112.93 306.67,104.93 308.67,99.93 309.67,99.93 309.67,100.93 309.67,103.93 309.67,105.93 310.67,105.93 317.67,103.93 330.67,91.93 343.67,77.93 351.67,71.93 352.67,71.93 353.67,78.93 354.67,101.93 354.67,129.93 349.67,163.93 342.67,188.93 338.67,194.93 337.67,194.93 337.67,176.93 341.67,154.93 350.67,135.93 360.67,120.93 377.67,108.93 393.67,101.93 407.67,96.93 414.67,94.93 416.67,93.93 416.67,94.93 415.67,96.93"/>
		</g>
	</g>
</svg>