<?xml version="1.0"?>
<!DOCTYPE svg PUBLIC "-//W3C//DTD SVG 1.1//EN" "http://www.w3.org/Graphics/SVG/1.1/DTD/svg11.dtd">
<svg xmlns="http://www.w3.org/2000/svg" width="15cm" height="15cm">
	<g fill="#fff">
		<rect x="0" y="0" width="720" height="184"/>
		<g fill="none" stroke="#000" stroke-width="2">
			<polyline points="232,40.93 232,40.93 231,40.93 230,41.93 229,41.93 228,42.93 228,43.93 227,44.93 226,44.93 224,45.93 223,46.93 223,47.93 222,47.93 220,48.93 220,48.93 219,49.93 217,51.93 217,52.93 216,53.93 214,56.93 212,57.93 211,59.93 210,62.93 210,63.93 208,64.93 207,66.93 205,68.93 204,69.93 204,71.93 203,72.93 202,73.93 200,75.93 198,77.93 197,79.93 196,80.93 195,81.93 194,82.93 192,84.93 191,85.93 189,88.93 188,89.93 186,91.93 185,92.93 183,93.93 181,96.93 180,97.93 178,99.93 177,100.93 175,102.93 173,104.93 171,105.93 170,107.93 168,110.93 166,110.93 164,112.93 162,114.93 160,116.93 159,118.93 157,119.93 156,120.93 154,122.93 153,125.93 151,127.93 149,128.93 148,129.93 146,131.93 145,133.93 143,133.93 141,136.93 140,136.93 139,138.93 136,141.93 134,143.93 132,143.93 132,144.93 131,145.93 129,147.93 127,148.93 126,149.93 125,150.93 124,151.93 124,152.93 123,152.93 121,152.93 119,153.93 118,153.93 118,154.93 117,155.93 116,155.93 116,156.93 115,156.93 114,157.93 114,158.93 113,158.93 112,158.93 111,158.93 110,158.93 109,159.93 108,159.93 108,159.93 107,159.93 106,159.93 105,159.93 105,158.93 104,157.93 104,156.93 104,155.93 104,154.93"/>
			<polyline points="132,109.93 132,108.93 132,107.93 132,106.93 132,105.93 132,104.93 132,104.93 132,104.93 132,103.93 132,102.93 132,101.93 132,100.93 132,99.93 132,98.93 132,97.93 132,96.93 132,96.93 132,95.93 132,94.93 132,93.93 132,92.93 132,91.93 132,90.93 132,90.93 132,89.93 132,88.93 133,88.93 134,88.93 134,87.93 134,86.93 135,86.93 136,86.93 136,85.93 137,85.93 137,84.93 138,84.93 139,83.93 140,83.93 140,82.93 141,81.93 143,81.93 144,81.93 145,81.93 146,80.93 147,80.93 148,80.93 148,80.93 149,80.93 150,79.93 151,79.93 153,78.93 155,77.93 156,77.93 158,76.93 160,75.93 162,75.93 163,75.93 165,75.93 167,75.93 168,75.93 170,75.93 172,75.93 173,74.93 176,74.93 178,74.93 180,74.93 182,74.93 183,74.93 186,74.93 188,74.93 190,74.93 192,74.93 196,74.93 198,74.93 201,74.93 203,74.93 204,74.93 207,74.93 210,74.93 211,74.93 213,74.93 216,74.93 217,74.93 220,75.93 222,75.93 224,75.93 226,76.93 228,76.93 231,77.93 232,78.93 235,78.93 237,79.93 238,79.93 241,80.93 244,80.93 244,80.93 247,81.93 249,81.93 252,83.93 252,83.93 254,83.93 256,84.93 257,85.93 259,86.93 260,87.93 261,87.93 263,88.93 265,88.93 265,88.93 267,88.93 268,89.93 268,90.93 270,90.93 271,91.93 272,92.93 274,94.93 275,94.93 275,95.93 276,96.93 276,96.93 277,96.93 278,97.93 278,98.93 279,98.93 280,99.93 280,100.93 281,101.93 282,102.93 282,104.93 282,104.93 282,105.93 283,106.93 283,108.93 283,109.93 284,110.93 284,111.93 284,112.93 284,113.93 284,115.93 284,117.93 284,119.93 284,120.93 284,120.93 284,122.93 284,124.93 284,125.93 284,126.93 284,128.93 284,128.93 283,129.93 283,131.93 283,132.93 282,133.93 282,135.93 282,136.93 282,137.93 282,138.93 282,140.93 282,141.93 281,142.93 280,143.93 280,144.93 280,145.93 280,146.93 279,147.93 279,148.93 278,150.93 278,151.93 277,152.93 276,153.93 276,154.93 276,155.93 276,156.93 276,157.93 275,158.93 275,159.93 275,160.93 274,160.93 273,161.93 273,162.93 272,163.93 272,164.93 270,166.93 269,167.93 269,168.93 268,168.93 267,168.93 266,168.93 265,169.93 265,170.93 264,170.93 263,170.93 262,170.93 262,171.93 261,171.93 260,171.93 260,172.93 258,172.93 257,173.93 255,173.93 253,173.93 252,173.93 251,173.93 250,173.93 248,173.93 247,173.93 245,173.93 244,173.93 244,173.93 242,173.93 241,173.93 239,173.93 237,173.93 236,173.93 235,172.93 232,172.93 230,171.93 228,171.93 227,171.93 224,171.93 222,170.93 220,169.93 219,169.93 216,168.93 213,168.93 211,167.93 209,167.93 206,166.93 203,165.93 201,165.93 199,164.93 196,163.93 192,161.93 190,161.93 187,160.93 184,159.93 183,159.93 180,158.93 178,156.93 175,155.93 174,155.93 172,154.93 170,152.93 168,151.93 167,151.93 165,151.93 163,150.93 162,149.93 159,148.93 156,147.93 156,145.93 153,144.93 150,143.93 148,142.93 147,140.93 144,140.93 142,137.93 140,137.93 139,136.93 135,135.93 134,133.93 132,132.93 130,131.93 128,130.93 127,128.93 125,128.93 123,127.93 122,127.93 120,125.93 119,124.93 117,122.93 116,121.93 116,120.93 115,120.93 114,120.93 113,119.93 112,117.93 111,117.93 110,116.93 109,114.93 108,114.93 108,113.93 108,112.93 107,112.93 106,112.93 106,111.93 105,110.93 105,109.93 104,108.93 103,107.93 103,106.93 103,105.93 103,104.93 103,104.93 103,103.93 103,102.93 103,101.93 103,100.93 103,99.93 104,99.93 104,98.93 104,97.93 105,97.93 106,96.93 107,96.93 107,96.93 108,95.93 108,95.93 109,95.93 110,94.93 111,94.93 112,93.93 114,92.93 115,92.93 116,91.93 117,91.93 117,90.93 119,89.93 120,89.93 121,88.93 122,88.93 124,88.93 124,88.93 125,87.93 126,86.93 128,86.93 129,86.93 130,85.93 132,84.93 132,83.93 133,83.93 134,83.93 135,83.93 136,82.93 137,81.93 138,80.93 140,80.93 140,80.93 142,80.93 144,80.93 148,80.93 148,80.93 151,80.93 153,79.93 155,78.93 156,77.93 158,77.93 159,77.93 161,76.93 163,76.93 164,75.93 165,75.93 168,75.93 171,75.93 173,75.93 176,75.93 177,75.93 180,75.93 181,75.93 182,75.93 185,75.93 187,75.93 188,75.93 190,75.93 192,75.93 194,74.93 196,74.93 198,74.93 201,74.93 203,74.93 205,74.93 208,74.93 209,74.93 212,74.93 214,74.93 216,74.93 218,74.93 220,74.93 222,74.93 224,74.93 228,74.93 229,74.93 232,74.93 235,74.93 236,74.93 238,74.93 241,74.93 243,74.93 244,74.93 247,75.93 249,75.93 251,76.93 252,76.93 256,76.93 259,78.93 260,78.93 262,78.93 264,78.93 265,79.93 266,79.93 268,79.93 268,80.93 270,80.93 271,80.93 272,80.93 274,80.93 275,81.93 276,81.93 276,81.93 277,82.93 278,82.93 279,83.93 280,83.93 281,84.93 282,84.93 284,85.93 284,86.93 285,87.93 286,87.93 286,88.93 287,88.93 287,88.93 288,88.93 289,88.93 289,89.93 290,90.93 291,90.93 292,91.93 292,92.93 292,92.93 292,93.93 292,94.93 293,94.93 294,94.93 295,94.93 296,94.93 297,94.93 298,94.93 299,94.93 300,94.93 300,93.93 300,92.93 301,92.93 301,91.93 302,91.93 303,91.93 304,91.93 305,90.93 306,90.93 306,89.93 307,89.93 308,89.93 308,89.93 309,89.93 309,88.93 310,88.93 310,88.93 310,88.93 311,90.93 311,91.93 312,92.93 312,94.93 313,96.93 313,97.93 314,97.93 314,99.93 315,100.93 315,101.93 316,102.93 316,103.93 316,104.93 316,104.93 316,105.93 316,106.93 316,107.93 317,107.93 317,108.93 317,109.93 317,110.93 317,111.93 318,111.93 318,112.93 319,112.93 319,113.93 320,114.93 320,115.93 320,116.93 321,116.93 321,117.93 322,117.93 322,118.93 323,119.93 323,120.93 324,120.93 324,121.93 324,122.93 324,122.93 324,123.93 325,124.93 326,124.93 326,125.93 327,125.93 328,125.93 329,125.93 329,124.93 330,123.93 331,123.93 332,122.93 332,121.93 333,120.93 334,120.93 334,119.93 335,119.93 335,118.93 335,117.93 336,115.93 336,114.93 337,114.93 338,113.93 338,112.93 338,112.93 339,111.93 340,110.93 340,109.93 340,108.93 341,108.93 341,107.93 342,107.93 342,106.93 342,105.93 343,105.93 343,104.93 344,104.93 345,103.93 346,103.93 346,102.93 347,101.93 348,101.93 348,101.93 348,100.93 349,100.93 350,100.93 350,99.93 349,99.93 348,99.93 348,99.93 347,99.93 347,100.93 347,101.93 346,101.93 345,101.93 345,102.93 345,103.93 345,104.93 345,104.93 345,105.93 345,106.93 345,107.93 345,108.93 345,109.93 345,110.93 345,111.93 345,112.93 345,112.93 345,113.93 346,113.93 346,114.93 346,115.93 346,116.93 346,117.93 346,118.93 347,118.93 348,119.93 348,120.93 348,120.93 348,121.93 348,122.93 349,122.93 349,123.93 350,124.93 350,125.93 350,126.93 351,126.93 351,127.93 352,127.93 353,127.93 354,127.93 355,126.93 356,126.93 356,125.93 357,124.93 357,123.93 358,123.93 359,123.93 359,122.93 360,121.93 361,121.93 362,120.93 362,119.93 362,118.93 364,117.93 364,115.93 364,113.93 365,112.93 366,112.93 367,112.93 367,111.93 368,110.93 369,110.93 369,109.93 370,108.93 371,107.93 372,107.93 372,106.93 372,106.93 373,105.93 373,104.93 374,104.93 375,104.93 376,104.93 376,104.93 377,104.93 378,104.93 377,104.93 377,104.93 377,105.93 377,106.93 377,107.93 377,108.93 377,109.93 377,110.93 377,111.93 377,112.93 377,113.93 377,114.93 377,115.93 377,116.93 377,117.93 377,118.93 378,119.93 378,120.93 378,120.93 379,120.93 379,121.93 380,122.93 380,123.93 380,124.93 380,124.93 380,125.93 381,126.93 381,127.93 382,127.93 382,128.93 383,128.93 383,128.93 384,128.93 385,128.93 386,128.93 387,128.93 388,128.93 388,128.93 389,128.93 390,128.93 391,128.93 392,128.93 393,128.93 394,128.93 395,128.93 396,127.93 396,126.93 397,126.93 398,126.93 399,125.93 400,124.93 401,124.93 402,124.93 403,123.93 404,122.93 404,122.93 405,121.93 406,121.93 407,120.93 408,120.93 409,120.93 410,120.93 411,119.93 412,119.93 412,119.93 412,118.93 413,118.93 415,117.93 416,117.93 418,116.93 418,115.93 419,115.93 420,114.93 420,114.93 421,114.93 422,114.93 422,113.93 424,112.93 425,112.93 426,112.93 426,111.93 427,110.93 427,109.93 428,109.93 428,109.93 429,109.93 429,108.93 429,107.93 430,107.93 431,106.93 431,105.93 432,105.93 433,105.93 434,105.93 435,105.93"/>
			<polyline points="429,64.93 429,64.93 429,63.93 428,63.93 428,63.93 428,62.93 428,61.93 427,61.93 426,61.93 425,61.93 425,60.93 424,60.93 423,60.93 423,61.93 422,61.93 421,62.93 421,63.93 422,63.93 423,63.93 424,63.93 425,63.93 426,63.93 427,63.93 427,62.93 428,62.93 428,61.93 429,61.93 429,60.93 430,60.93 430,59.93 431,59.93 431,58.93 432,58.93 433,58.93 433,57.93 434,56.93 435,56.93 436,56.93 436,56.93 436,56.93 436,55.93 436,55.93 435,55.93 434,55.93 434,56.93 433,56.93 432,56.93 432,56.93 431,56.93 431,57.93 430,57.93 429,57.93 428,57.93 428,58.93 428,58.93 428,59.93 427,59.93 427,60.93 426,60.93 425,60.93 425,61.93 425,62.93 426,62.93 426,63.93 426,64.93"/>
		</g>
	</g>
</svg>