<?xml version="1.0"?>
<!DOCTYPE svg PUBLIC "-//W3C//DTD SVG 1.1//EN" "http://www.w3.org/Graphics/SVG/1.1/DTD/svg11.dtd">
<svg xmlns="http://www.w3.org/2000/svg" width="15cm" height="15cm">
	<g fill="#fff">
		<rect x="0" y="0" width="720" height="184"/>
		<g fill="none" stroke="#000" stroke-width="2">
			<polyline points="206.67,39.93 205.67,39.93 205.67,40.93 204.67,40.93 203.67,40.93 202.67,40.93 202.67,41.93 201.67,42.93 201.67,43.93 200.67,44.93 199.67,44.93 198.67,44.93 198.67,45.93 198.67,46.93 197.67,46.93 196.67,47.93 196.67,48.93 195.67,48.93 194.67,48.93 194.67,49.93 194.67,50.93 193.67,51.93 192.67,52.93 191.67,54.93 189.67,56.93 188.67,57.93 186.67,61.93 184.67,62.93 182.67,64.93 182.67,64.93 180.67,66.93 178.67,68.93 177.67,70.93 175.67,71.93 174.67,72.93 172.67,74.93 171.67,76.93 170.67,77.93 168.67,79.93 167.67,80.93 165.67,82.93 164.67,82.93 163.67,85.93 162.67,87.93 159.67,88.93 158.67,89.93 155.67,91.93 154.67,93.93 153.67,95.93 152.67,96.93 150.67,98.93 148.67,100.93 147.67,102.93 146.67,104.93 145.67,105.93 143.67,107.93 142.67,109.93 140.67,111.93 138.67,113.93 138.67,116.93 137.67,117.93 135.67,118.93 135.67,120.93 134.67,121.93 133.67,123.93 132.67,124.93 131.67,126.93 131.67,127.93 131.67,128.93 130.67,128.93 130.67,128.93 130.67,129.93 130.67,129.93 130.67,130.93 129.67,130.93"/>
			<polyline points="118.67,72.93 118.67,72.93 119.67,72.93 120.67,71.93 121.67,71.93 122.67,71.93 122.67,70.93 123.67,70.93 124.67,70.93 124.67,69.93 125.67,69.93 126.67,69.93 126.67,68.93 127.67,68.93 128.67,68.93 129.67,67.93 130.67,67.93 130.67,67.93 131.67,66.93 132.67,66.93 133.67,65.93 134.67,65.93 136.67,65.93 137.67,65.93 138.67,64.93 139.67,64.93 140.67,64.93 141.67,63.93 142.67,63.93 144.67,63.93 146.67,63.93 146.67,62.93 148.67,62.93 149.67,61.93 150.67,60.93 151.67,60.93 153.67,59.93 154.67,59.93 155.67,59.93 156.67,59.93 158.67,58.93 159.67,57.93 160.67,57.93 161.67,57.93 162.67,56.93 162.67,56.93 164.67,56.93 165.67,56.93 166.67,56.93 167.67,55.93 168.67,55.93 169.67,55.93 170.67,55.93 170.67,55.93 171.67,55.93 171.67,54.93 171.67,55.93 171.67,56.93 170.67,56.93 170.67,56.93 170.67,56.93 170.67,57.93 170.67,58.93 170.67,59.93 169.67,59.93 168.67,60.93 168.67,61.93 168.67,62.93 167.67,63.93 167.67,64.93 167.67,64.93 166.67,64.93 166.67,65.93 166.67,66.93 165.67,66.93 165.67,67.93 165.67,68.93 164.67,69.93 163.67,70.93 163.67,71.93 163.67,72.93 162.67,72.93 162.67,73.93 162.67,74.93 162.67,75.93 161.67,75.93 161.67,76.93 161.67,77.93 160.67,78.93 159.67,79.93 159.67,80.93 158.67,80.93 157.67,81.93 157.67,82.93 156.67,83.93 155.67,83.93 155.67,84.93 154.67,84.93 154.67,85.93 154.67,86.93 154.67,86.93 153.67,86.93 153.67,87.93 152.67,88.93 151.67,88.93 150.67,88.93 149.67,88.93 148.67,89.93 147.67,90.93 146.67,90.93 146.67,90.93 145.67,91.93 144.67,92.93 143.67,93.93 142.67,93.93 141.67,93.93 140.67,93.93 139.67,93.93 139.67,94.93 138.67,94.93 138.67,94.93 137.67,94.93 137.67,95.93 136.67,95.93 135.67,95.93 134.67,96.93 133.67,96.93 133.67,96.93 134.67,96.93 135.67,96.93 137.67,96.93 138.67,96.93 138.67,96.93 140.67,96.93 141.67,96.93 142.67,96.93 143.67,96.93 145.67,96.93 146.67,96.93 148.67,97.93 151.67,97.93 153.67,97.93 154.67,97.93 155.67,97.93 157.67,97.93 158.67,97.93 160.67,98.93 162.67,99.93 163.67,99.93 165.67,99.93 167.67,99.93 169.67,99.93 170.67,99.93 171.67,99.93 173.67,99.93 176.67,99.93 177.67,99.93 178.67,100.93 180.67,100.93 182.67,100.93 184.67,100.93 186.67,100.93 187.67,100.93 189.67,100.93 190.67,100.93 193.67,101.93 195.67,102.93 197.67,103.93 199.67,103.93 201.67,103.93 202.67,103.93 202.67,104.93 205.67,104.93 208.67,105.93 210.67,105.93 211.67,105.93 212.67,106.93 215.67,107.93 217.67,107.93 218.67,108.93 219.67,109.93 222.67,110.93 223.67,111.93 225.67,112.93 226.67,112.93 226.67,112.93 227.67,113.93 228.67,113.93 230.67,115.93 231.67,115.93 232.67,117.93 234.67,117.93 234.67,118.93 236.67,120.93 238.67,121.93 240.67,121.93 240.67,122.93 241.67,123.93 242.67,125.93 243.67,125.93 243.67,126.93 244.67,127.93 245.67,128.93 246.67,128.93 246.67,129.93 247.67,129.93 247.67,131.93 247.67,132.93 248.67,132.93 248.67,133.93 249.67,134.93 249.67,135.93 249.67,136.93 249.67,137.93 249.67,138.93 249.67,139.93 249.67,140.93 249.67,142.93 249.67,143.93 249.67,144.93 249.67,144.93 249.67,145.93 249.67,146.93 248.67,147.93 248.67,148.93 247.67,149.93 246.67,150.93 246.67,151.93 245.67,152.93 244.67,152.93 242.67,154.93 241.67,156.93 239.67,156.93 238.67,157.93 236.67,157.93 236.67,158.93 235.67,158.93 234.67,159.93 233.67,160.93 231.67,160.93 231.67,160.93 230.67,160.93 228.67,160.93 227.67,161.93 226.67,161.93 225.67,162.93 224.67,162.93 223.67,163.93 221.67,164.93 220.67,164.93 219.67,164.93 218.67,164.93 218.67,164.93 217.67,164.93 216.67,164.93 215.67,165.93 213.67,165.93 212.67,165.93 211.67,165.93 210.67,165.93 210.67,165.93 208.67,165.93 207.67,165.93 206.67,165.93 205.67,165.93 204.67,165.93 203.67,165.93 202.67,165.93 201.67,165.93 200.67,165.93 199.67,165.93 199.67,163.93 197.67,162.93 196.67,162.93 195.67,161.93 194.67,161.93 193.67,160.93 193.67,160.93 192.67,160.93 191.67,160.93 190.67,159.93 189.67,158.93 189.67,157.93 188.67,157.93 187.67,157.93 187.67,156.93 187.67,155.93 186.67,154.93 186.67,154.93 185.67,154.93 185.67,153.93 184.67,152.93 183.67,152.93 182.67,152.93 180.67,150.93 180.67,149.93 179.67,149.93 178.67,148.93 178.67,147.93 178.67,147.93 178.67,146.93 178.67,145.93 177.67,144.93 176.67,144.93 176.67,144.93 176.67,143.93 176.67,142.93 176.67,141.93 175.67,140.93 174.67,140.93 174.67,139.93 174.67,138.93 174.67,137.93 174.67,136.93 174.67,136.93 174.67,134.93 175.67,134.93 175.67,133.93 175.67,132.93 175.67,131.93 177.67,131.93 178.67,131.93 178.67,130.93 178.67,129.93 178.67,128.93 179.67,128.93 179.67,128.93 180.67,127.93 182.67,127.93 183.67,126.93 183.67,125.93 184.67,125.93 185.67,124.93 186.67,123.93 186.67,122.93 187.67,121.93 188.67,121.93 190.67,121.93 192.67,120.93 193.67,119.93 193.67,118.93 194.67,118.93 196.67,117.93 197.67,116.93 198.67,115.93 199.67,115.93 200.67,114.93 200.67,113.93 202.67,113.93 203.67,113.93 204.67,112.93 204.67,112.93 206.67,111.93 207.67,111.93 209.67,110.93 210.67,110.93 210.67,109.93 210.67,108.93 211.67,108.93 212.67,108.93 212.67,107.93 214.67,107.93 215.67,107.93 216.67,106.93 218.67,106.93 218.67,106.93 218.67,105.93 220.67,105.93 221.67,104.93 223.67,104.93 224.67,104.93 224.67,105.93 224.67,106.93 224.67,107.93 224.67,108.93 224.67,109.93 224.67,110.93 224.67,111.93 224.67,112.93 224.67,112.93 224.67,113.93 224.67,114.93 224.67,115.93 224.67,116.93 224.67,117.93 224.67,118.93 224.67,119.93 224.67,120.93 224.67,120.93 223.67,120.93 223.67,121.93 223.67,122.93 223.67,123.93 222.67,123.93 222.67,122.93 222.67,121.93 222.67,120.93 222.67,120.93 222.67,119.93 222.67,118.93 222.67,117.93 222.67,116.93 223.67,116.93 223.67,115.93 223.67,114.93 224.67,114.93 224.67,113.93 224.67,112.93 225.67,112.93 225.67,111.93 226.67,111.93 226.67,110.93 226.67,110.93 226.67,109.93 226.67,108.93 227.67,108.93 227.67,107.93 228.67,107.93 229.67,107.93 230.67,107.93 231.67,107.93 232.67,107.93 233.67,107.93 234.67,106.93 234.67,106.93 234.67,105.93 235.67,105.93 236.67,104.93 237.67,104.93 238.67,104.93 239.67,104.93 240.67,104.93 241.67,103.93 242.67,102.93 242.67,102.93 243.67,102.93 244.67,102.93 244.67,101.93 245.67,101.93 246.67,100.93 247.67,100.93 247.67,99.93 248.67,99.93 249.67,99.93 249.67,98.93 250.67,98.93 250.67,98.93 251.67,98.93 252.67,98.93 253.67,98.93 254.67,98.93 255.67,98.93 256.67,98.93 257.67,98.93 258.67,98.93 258.67,98.93 259.67,98.93 260.67,98.93 261.67,98.93 262.67,97.93 262.67,96.93 263.67,96.93 264.67,96.93 264.67,96.93 265.67,96.93 266.67,96.93 266.67,96.93 266.67,97.93 266.67,98.93 266.67,99.93 266.67,99.93 266.67,100.93 266.67,101.93 267.67,101.93 267.67,102.93 267.67,103.93 268.67,103.93 269.67,103.93 270.67,103.93 271.67,104.93 271.67,104.93 272.67,104.93 273.67,104.93 274.67,104.93 274.67,104.93 275.67,104.93 276.67,104.93 277.67,104.93 278.67,104.93 279.67,104.93 280.67,104.93 281.67,103.93 282.67,103.93 282.67,102.93 282.67,102.93 283.67,102.93 284.67,101.93 285.67,101.93 285.67,100.93 286.67,99.93 287.67,99.93 288.67,99.93 288.67,98.93 289.67,97.93 290.67,97.93 290.67,96.93 291.67,96.93 292.67,96.93 292.67,95.93 293.67,95.93 293.67,94.93 294.67,94.93 295.67,94.93 295.67,93.93 296.67,93.93 296.67,92.93 297.67,92.93 296.67,92.93 295.67,92.93 294.67,92.93 294.67,93.93 294.67,94.93 294.67,95.93 294.67,96.93 293.67,96.93 293.67,96.93 293.67,97.93 293.67,98.93 293.67,99.93 293.67,100.93 293.67,101.93 293.67,102.93 293.67,103.93 293.67,104.93 294.67,104.93 295.67,104.93 295.67,105.93 296.67,106.93 297.67,106.93 297.67,107.93 298.67,107.93 298.67,107.93 299.67,107.93 299.67,108.93 300.67,108.93 301.67,109.93 302.67,109.93 303.67,109.93 304.67,109.93 305.67,109.93 306.67,109.93 306.67,109.93 307.67,109.93 308.67,109.93 309.67,109.93 310.67,109.93 311.67,109.93 312.67,109.93 313.67,109.93 314.67,109.93 314.67,109.93 315.67,109.93 316.67,109.93 317.67,109.93 318.67,109.93 319.67,109.93 320.67,109.93 321.67,109.93 322.67,109.93 322.67,110.93 322.67,111.93 322.67,112.93 322.67,112.93 322.67,113.93 322.67,114.93 322.67,114.93 322.67,115.93 321.67,115.93 320.67,116.93 320.67,117.93 319.67,117.93 319.67,118.93 318.67,118.93 318.67,119.93 318.67,120.93 318.67,120.93 318.67,121.93 319.67,122.93 320.67,122.93 321.67,122.93 322.67,122.93 322.67,122.93 323.67,122.93 324.67,122.93 325.67,122.93 326.67,122.93 327.67,122.93 328.67,122.93 329.67,122.93 330.67,122.93 330.67,121.93 330.67,120.93 329.67,120.93 329.67,119.93 330.67,118.93 330.67,117.93 330.67,116.93 330.67,116.93 330.67,115.93 331.67,115.93 332.67,114.93 333.67,114.93 333.67,113.93 334.67,113.93 335.67,112.93 337.67,112.93 338.67,112.93 339.67,112.93 340.67,111.93 341.67,111.93 343.67,111.93 345.67,110.93 346.67,110.93 346.67,109.93 348.67,109.93 349.67,109.93 351.67,107.93 352.67,107.93 354.67,107.93 357.67,107.93 360.67,106.93 361.67,106.93 362.67,105.93 365.67,105.93 367.67,104.93 372.67,104.93 373.67,104.93 376.67,104.93 378.67,104.93 378.67,104.93 381.67,103.93 382.67,103.93 384.67,102.93 386.67,102.93 386.67,101.93 387.67,101.93 389.67,100.93 390.67,100.93 391.67,100.93 393.67,100.93 394.67,99.93 396.67,99.93 397.67,99.93 398.67,99.93 399.67,98.93 400.67,98.93 402.67,98.93 402.67,98.93 404.67,98.93 405.67,98.93 406.67,97.93 407.67,97.93 408.67,97.93 408.67,96.93 409.67,96.93 410.67,96.93 410.67,96.93 411.67,96.93 412.67,96.93 413.67,96.93 414.67,96.93 415.67,96.93 415.67,96.93 414.67,96.93 413.67,96.93 412.67,96.93 411.67,96.93 410.67,96.93 410.67,96.93 409.67,96.93 409.67,96.93 409.67,97.93 408.67,97.93 407.67,97.93 406.67,97.93 405.67,97.93 404.67,97.93 404.67,98.93 403.67,98.93 402.67,98.93 402.67,98.93 402.67,99.93 401.67,99.93 400.67,99.93"/>
			<polyline points="282.67,75.93 282.67,74.93 281.67,74.93 281.67,75.93 280.67,75.93 279.67,75.93 278.67,75.93 277.67,75.93 276.67,75.93 276.67,76.93 275.67,77.93 274.67,77.93 274.67,78.93 273.67,78.93 272.67,78.93 271.67,78.93 271.67,79.93 270.67,79.93 270.67,80.93 269.67,80.93 268.67,80.93 267.67,80.93 267.67,80.93 266.67,80.93 266.67,80.93 266.67,81.93 265.67,81.93 264.67,82.93 263.67,82.93 262.67,82.93 261.67,83.93 260.67,84.93 259.67,84.93 258.67,84.93 258.67,85.93 258.67,85.93 258.67,86.93 257.67,87.93 256.67,87.93 255.67,87.93 254.67,88.93 254.67,88.93 253.67,88.93 252.67,88.93 252.67,89.93 252.67,90.93 251.67,90.93 250.67,91.93 250.67,92.93 250.67,93.93 249.67,93.93 248.67,94.93 248.67,95.93 248.67,96.93 247.67,96.93 247.67,96.93 247.67,97.93 246.67,97.93 246.67,98.93 246.67,99.93 246.67,100.93 246.67,101.93 246.67,102.93 246.67,103.93 246.67,104.93 246.67,104.93 246.67,105.93 246.67,106.93 247.67,106.93 247.67,107.93 248.67,108.93 249.67,108.93 250.67,109.93 250.67,110.93 250.67,110.93 251.67,110.93 251.67,111.93 253.67,111.93 254.67,112.93 255.67,112.93 256.67,112.93 257.67,112.93 258.67,112.93 258.67,112.93 259.67,112.93 260.67,112.93 261.67,112.93 262.67,112.93 264.67,112.93 265.67,112.93 266.67,112.93 266.67,112.93 268.67,112.93 269.67,112.93 270.67,112.93 271.67,112.93 272.67,112.93 273.67,112.93 274.67,112.93 274.67,112.93 275.67,112.93 276.67,112.93 277.67,112.93 278.67,112.93 279.67,112.93 280.67,112.93 281.67,112.93 282.67,112.93 282.67,111.93 282.67,110.93 283.67,110.93 284.67,110.93 285.67,110.93 286.67,109.93 287.67,108.93 288.67,107.93 289.67,107.93 290.67,107.93 290.67,106.93 291.67,105.93 292.67,105.93 292.67,104.93 293.67,104.93 293.67,104.93 294.67,103.93 294.67,102.93 295.67,102.93 295.67,101.93 295.67,100.93 295.67,99.93 295.67,98.93 296.67,97.93 296.67,96.93 296.67,96.93 296.67,95.93 296.67,94.93 296.67,93.93 296.67,92.93 296.67,90.93 296.67,89.93 296.67,88.93 296.67,88.93 296.67,87.93 295.67,86.93 295.67,85.93 295.67,84.93 294.67,84.93 294.67,82.93 293.67,81.93 292.67,80.93 292.67,79.93 291.67,79.93 291.67,78.93 291.67,77.93 290.67,77.93 290.67,76.93 290.67,75.93 289.67,74.93 289.67,73.93 288.67,72.93 287.67,72.93 287.67,71.93 287.67,70.93 286.67,70.93 285.67,70.93 284.67,70.93 283.67,69.93 282.67,69.93 282.67,69.93 281.67,69.93 280.67,69.93 279.67,69.93 278.67,69.93 277.67,69.93 276.67,69.93 275.67,69.93 274.67,69.93 273.67,69.93 271.67,69.93 270.67,69.93 268.67,69.93 267.67,70.93 266.67,70.93 264.67,70.93 263.67,70.93 261.67,70.93 260.67,70.93 260.67,71.93 258.67,71.93 258.67,72.93 258.67,72.93 256.67,72.93 254.67,72.93 253.67,72.93 252.67,73.93 251.67,73.93 250.67,73.93 250.67,74.93 250.67,74.93 249.67,74.93 248.67,75.93 246.67,75.93 245.67,75.93 244.67,76.93 244.67,77.93"/>
		</g>
	</g>
</svg>