<?xml version="1.0"?>
<!DOCTYPE svg PUBLIC "-//W3C//DTD SVG 1.1//EN" "http://www.w3.org/Graphics/SVG/1.1/DTD/svg11.dtd">
<svg xmlns="http://www.w3.org/2000/svg" width="15cm" height="15cm">
	<g fill="#fff">
		<rect x="0" y="0" width="720" height="184"/>
		<g fill="none" stroke="#000" stroke-width="2">
			<polyline points="239,29.7 239,31.7 239,37.7 239,51.7 239,61.7 239,72.7 238,100.7 233,120.7 230,129.7 229,143.7 228,148.7 226,150.7 226,147.7 226,135.7 226,124.7 228,112.7 232,97.7 235,81.7 238,74.7 243,66.7 250,65.7 254,64.7 258,64.7 263,65.7 268,70.7 273,79.7 280,93.7 284,107.7 287,115.7 290,121.7 291,124.7 292,126.7 292,125.7 292,123.7 291,119.7 282,112.7 273,98.7 265,91.7 258,85.7 251,85.7 246,85.7 242,85.7 239,87.7 237,88.7 237,90.7 237,95.7 237,97.7 237,98.7 241,100.7 250,100.7 262,100.7 270,89.7 280,84.7 284,80.7 285,76.7 287,70.7 287,67.7 287,66.7 286,66.7 286,70.7 289,79.7 295,87.7 301,99.7 307,104.7 310,105.7 313,104.7 314,104.7 316,100.7 317,91.7 318,88.7 317,82.7 319,82.7 330,87.7 340,99.7 354,116.7 362,124.7 367,124.7 368,124.7 369,125.7 372,123.7 374,119.7 377,113.7 381,101.7 386,92.7 392,86.7 400,82.7 421,81.7 434,85.7 448,88.7 459,96.7 465,96.7 470,98.7 470,100.7 470,102.7 471,100.7"/>
		</g>
	</g>
</svg>