<?xml version="1.0"?>
<!DOCTYPE svg PUBLIC "-//W3C//DTD SVG 1.1//EN" "http://www.w3.org/Graphics/SVG/1.1/DTD/svg11.dtd">
<svg xmlns="http://www.w3.org/2000/svg" width="15cm" height="15cm">
	<g fill="#fff">
		<rect x="0" y="0" width="720" height="184"/>
		<g fill="none" stroke="#000" stroke-width="2">
			<polyline points="171,50.7 171,51.7 171,53.7 171,58.7 173,72.7 178,99.7 180,109.7 184,118.7 187,125.7 189,123.7 193,120.7 197,111.7 199,84.7 198,70.7 198,62.7 198,60.7 198,66.7 199,75.7 202,101.7 209,115.7 237,147.7 245,153.7 248,154.7 249,146.7 249,133.7 249,118.7 235,77.7 233,65.7 230,56.7 229,54.7 229,55.7 229,61.7 235,72.7 243,92.7 254,104.7 272,116.7 279,119.7 288,119.7 295,112.7 296,105.7 291,90.7 280,59.7 277,56.7 273,55.7 271,58.7 271,62.7 271,64.7 280,81.7 293,93.7 304,106.7 326,118.7 328,118.7 331,112.7 321,103.7 310,90.7 298,86.7 288,74.7 288,72.7 289,75.7 299,89.7 325,123.7 341,129.7 345,138.7 349,139.7 350,133.7 350,129.7 350,123.7 343,105.7 340,94.7 328,81.7 327,81.7 327,83.7 327,85.7 331,96.7 336,101.7 343,107.7 358,111.7 363,109.7 369,105.7 374,100.7 375,98.7 375,93.7 375,85.7 375,86.7 397,77.7 413,66.7 425,65.7 439,63.7 441,62.7 444,60.7 442,60.7 439,60.7"/>
		</g>
	</g>
</svg>