<?xml version="1.0"?>
<!DOCTYPE svg PUBLIC "-//W3C//DTD SVG 1.1//EN" "http://www.w3.org/Graphics/SVG/1.1/DTD/svg11.dtd">
<svg xmlns="http://www.w3.org/2000/svg" width="15cm" height="15cm">
	<g fill="#fff">
		<rect x="0" y="0" width="720" height="184"/>
		<g fill="none" stroke="#000" stroke-width="2">
			<polyline points="239.67,20.93 238.67,20.93 238.67,22.93 238.67,23.93 238.67,24.93 237.67,24.93 237.67,25.93 236.67,26.93 236.67,27.93 236.67,29.93 235.67,31.93 234.67,32.93 234.67,33.93 234.67,34.93 234.67,36.93 233.67,38.93 231.67,39.93 230.67,40.93 230.67,41.93 229.67,42.93 228.67,44.93 228.67,45.93 228.67,46.93 227.67,48.93 226.67,49.93 226.67,49.93 225.67,51.93 225.67,53.93 224.67,55.93 223.67,56.93 222.67,57.93 221.67,58.93 219.67,61.93 219.67,63.93 218.67,64.93 217.67,65.93 216.67,68.93 215.67,70.93 213.67,72.93 213.67,73.93 212.67,75.93 210.67,77.93 210.67,78.93 209.67,80.93 208.67,82.93 208.67,84.93 206.67,85.93 206.67,88.93 206.67,88.93 205.67,89.93 204.67,91.93 203.67,93.93 203.67,95.93 202.67,96.93 202.67,97.93 202.67,98.93 201.67,100.93 200.67,101.93 200.67,103.93 200.67,104.93 200.67,104.93 199.67,104.93 199.67,105.93 198.67,106.93 199.67,105.93 200.67,104.93 201.67,104.93 201.67,104.93 202.67,104.93 202.67,103.93 202.67,102.93 202.67,101.93 203.67,101.93 203.67,100.93 203.67,99.93 204.67,99.93 204.67,98.93 206.67,97.93 206.67,96.93 207.67,96.93 209.67,95.93 210.67,93.93 210.67,91.93 211.67,90.93 212.67,89.93 213.67,88.93 214.67,86.93 215.67,85.93 217.67,84.93 217.67,82.93 218.67,81.93 218.67,80.93 219.67,78.93 220.67,77.93 221.67,75.93 223.67,73.93 223.67,72.93 224.67,72.93 226.67,70.93 226.67,68.93 226.67,67.93 228.67,65.93 228.67,64.93 230.67,64.93 231.67,62.93 232.67,60.93 232.67,58.93 233.67,58.93 234.67,56.93 234.67,56.93 234.67,55.93 236.67,54.93 236.67,53.93 237.67,52.93 238.67,51.93 238.67,50.93 239.67,48.93 240.67,48.93 241.67,47.93 241.67,45.93 242.67,44.93 243.67,43.93 243.67,42.93 244.67,41.93 244.67,40.93 245.67,40.93 246.67,39.93 247.67,38.93 247.67,37.93 248.67,36.93 249.67,35.93 249.67,34.93 249.67,33.93 250.67,32.93 251.67,32.93 251.67,32.93 251.67,31.93 251.67,30.93 251.67,31.93 251.67,32.93 251.67,33.93 251.67,34.93 251.67,35.93 251.67,36.93 252.67,37.93 252.67,38.93 252.67,39.93 252.67,40.93 252.67,40.93 253.67,41.93 253.67,42.93 253.67,43.93 253.67,44.93 253.67,46.93 254.67,47.93 254.67,48.93 254.67,49.93 254.67,51.93 254.67,52.93 254.67,53.93 255.67,55.93 255.67,56.93 255.67,56.93 255.67,57.93 255.67,58.93 255.67,59.93 255.67,60.93 256.67,61.93 256.67,62.93 257.67,64.93 257.67,64.93 257.67,65.93 257.67,67.93 258.67,68.93 258.67,69.93 258.67,70.93 258.67,71.93 258.67,72.93 258.67,72.93 258.67,74.93 258.67,75.93 259.67,76.93 259.67,77.93 260.67,78.93 260.67,79.93 260.67,80.93 260.67,80.93 261.67,81.93 261.67,82.93 261.67,83.93 262.67,83.93 262.67,84.93 263.67,85.93 263.67,86.93 263.67,87.93 263.67,88.93 263.67,88.93 263.67,89.93 264.67,90.93 265.67,91.93 265.67,92.93 265.67,94.93 266.67,95.93 266.67,96.93 266.67,96.93 266.67,96.93 266.67,97.93 266.67,98.93 266.67,99.93 266.67,100.93 267.67,101.93 268.67,101.93 268.67,102.93 268.67,103.93 267.67,103.93 267.67,102.93 266.67,101.93 266.67,101.93 265.67,100.93 264.67,99.93 263.67,98.93 262.67,98.93 262.67,97.93 261.67,97.93 260.67,96.93 259.67,96.93 258.67,96.93 258.67,95.93 257.67,95.93 256.67,94.93 255.67,93.93 254.67,93.93 253.67,92.93 252.67,91.93 251.67,90.93 250.67,90.93 250.67,90.93 249.67,90.93 248.67,89.93 247.67,88.93 246.67,88.93 245.67,88.93 244.67,88.93 243.67,88.93 242.67,87.93 241.67,87.93 239.67,86.93 238.67,85.93 237.67,85.93 235.67,85.93 234.67,84.93 233.67,84.93 232.67,84.93 230.67,84.93 229.67,83.93 227.67,83.93 226.67,83.93 225.67,83.93 224.67,82.93 222.67,82.93 220.67,81.93 218.67,81.93 218.67,81.93 216.67,81.93 213.67,80.93 212.67,80.93 210.67,80.93 210.67,80.93 208.67,80.93 207.67,80.93 205.67,80.93 203.67,80.93 202.67,80.93 202.67,80.93 200.67,80.93 199.67,80.93 198.67,80.93 196.67,79.93 195.67,79.93 194.67,78.93 193.67,78.93 192.67,78.93 191.67,78.93 190.67,77.93 189.67,77.93 187.67,77.93 186.67,77.93 186.67,77.93 185.67,77.93 185.67,76.93 185.67,75.93 186.67,74.93 186.67,74.93 187.67,74.93 188.67,73.93 189.67,72.93 190.67,72.93 191.67,72.93 192.67,72.93 193.67,72.93 194.67,71.93 194.67,70.93 194.67,70.93 195.67,70.93 195.67,69.93 196.67,69.93 197.67,68.93 198.67,68.93 199.67,67.93 201.67,66.93 202.67,65.93 203.67,65.93 203.67,64.93 205.67,64.93 207.67,63.93 208.67,62.93 210.67,61.93 211.67,61.93 211.67,60.93 212.67,59.93 214.67,59.93 215.67,58.93 217.67,58.93 217.67,57.93 218.67,57.93 219.67,57.93 220.67,57.93 221.67,56.93 223.67,56.93 223.67,56.93 224.67,56.93 226.67,55.93 226.67,55.93 227.67,55.93 228.67,55.93 228.67,54.93 229.67,54.93 230.67,54.93 231.67,54.93 232.67,52.93 233.67,52.93 234.67,52.93 234.67,52.93 235.67,52.93 237.67,51.93 238.67,51.93 239.67,51.93 240.67,51.93 241.67,51.93 242.67,51.93 242.67,51.93 243.67,51.93 244.67,51.93 245.67,51.93 246.67,51.93 247.67,51.93 247.67,52.93 248.67,52.93 249.67,52.93 250.67,52.93 250.67,52.93 251.67,54.93 251.67,55.93 252.67,55.93 253.67,56.93 254.67,56.93 254.67,57.93 254.67,58.93 254.67,59.93 255.67,59.93 255.67,60.93 255.67,61.93 256.67,62.93 256.67,63.93 256.67,64.93 256.67,64.93 256.67,65.93 256.67,66.93 257.67,66.93 257.67,67.93 257.67,68.93 257.67,70.93 257.67,71.93 257.67,72.93 257.67,73.93 257.67,74.93 257.67,76.93 257.67,78.93 257.67,79.93 257.67,80.93 257.67,80.93 256.67,80.93 256.67,81.93 255.67,83.93 254.67,84.93 254.67,85.93 253.67,86.93 252.67,86.93 252.67,88.93 252.67,88.93 251.67,88.93 250.67,89.93 250.67,91.93 249.67,92.93 248.67,93.93 248.67,94.93 247.67,95.93 245.67,96.93 243.67,97.93 242.67,97.93 242.67,98.93 242.67,99.93 241.67,99.93 240.67,100.93 240.67,101.93 239.67,101.93 238.67,102.93 238.67,103.93 237.67,103.93 237.67,104.93 235.67,104.93 235.67,104.93 234.67,104.93 234.67,105.93 234.67,105.93 233.67,106.93 232.67,106.93 231.67,106.93 230.67,106.93 230.67,107.93 230.67,108.93 229.67,108.93 228.67,108.93 227.67,108.93 227.67,109.93 227.67,108.93 228.67,108.93 229.67,107.93 230.67,107.93 232.67,107.93 233.67,106.93 234.67,105.93 234.67,104.93 235.67,104.93 236.67,104.93 236.67,104.93 238.67,104.93 239.67,103.93 240.67,102.93 242.67,102.93 242.67,101.93 242.67,100.93 243.67,100.93 245.67,99.93 246.67,98.93 248.67,97.93 250.67,97.93 250.67,96.93 250.67,96.93 252.67,96.93 252.67,95.93 254.67,95.93 255.67,94.93 256.67,93.93 257.67,92.93 258.67,92.93 258.67,91.93 260.67,91.93 261.67,90.93 262.67,89.93 263.67,88.93 264.67,88.93 265.67,87.93 266.67,86.93 266.67,86.93 268.67,85.93 269.67,85.93 270.67,84.93 270.67,83.93 272.67,83.93 273.67,83.93 273.67,82.93 274.67,82.93 275.67,81.93 275.67,80.93 276.67,80.93 277.67,80.93 277.67,80.93 278.67,80.93 279.67,80.93 279.67,79.93 280.67,79.93 281.67,79.93 282.67,79.93 282.67,79.93 282.67,78.93 282.67,78.93 282.67,79.93 281.67,80.93 280.67,80.93 280.67,81.93 280.67,82.93 279.67,82.93 279.67,83.93 279.67,84.93 278.67,84.93 278.67,85.93 278.67,87.93 277.67,88.93 277.67,88.93 276.67,89.93 276.67,90.93 276.67,91.93 275.67,92.93 275.67,93.93 275.67,94.93 275.67,95.93 275.67,96.93 275.67,96.93 274.67,96.93 274.67,97.93 274.67,98.93 274.67,100.93 274.67,101.93 274.67,102.93 274.67,103.93 274.67,104.93 274.67,104.93 274.67,105.93 274.67,106.93 274.67,107.93 274.67,108.93 274.67,109.93 274.67,110.93 275.67,110.93 276.67,110.93 277.67,110.93 278.67,110.93 279.67,110.93 279.67,109.93 280.67,109.93 281.67,109.93 282.67,107.93 283.67,107.93 283.67,106.93 284.67,106.93 285.67,105.93 286.67,105.93 287.67,104.93 288.67,104.93 288.67,104.93 289.67,103.93 290.67,102.93 290.67,102.93 290.67,101.93 292.67,100.93 293.67,99.93 295.67,98.93 295.67,97.93 295.67,96.93 296.67,96.93 297.67,96.93 298.67,96.93 299.67,96.93 300.67,96.93 300.67,95.93 301.67,95.93 302.67,95.93 303.67,95.93 303.67,94.93 304.67,94.93 305.67,94.93 305.67,95.93 305.67,96.93 305.67,96.93 305.67,97.93 305.67,98.93 305.67,99.93 305.67,100.93 305.67,101.93 305.67,102.93 305.67,103.93 305.67,104.93 305.67,104.93 305.67,105.93 305.67,106.93 305.67,107.93 306.67,107.93 306.67,106.93 306.67,105.93 306.67,104.93 307.67,104.93 307.67,103.93 307.67,102.93 307.67,101.93 307.67,100.93 307.67,99.93 307.67,98.93 307.67,97.93 308.67,96.93 308.67,95.93 309.67,94.93 309.67,93.93 309.67,92.93 309.67,91.93 310.67,91.93 310.67,90.93 311.67,89.93 311.67,88.93 311.67,88.93 312.67,88.93 313.67,87.93 314.67,87.93 314.67,86.93 314.67,86.93 315.67,86.93 316.67,86.93 317.67,86.93 318.67,86.93 317.67,86.93 316.67,86.93 316.67,87.93 316.67,88.93 316.67,88.93 316.67,89.93 317.67,89.93 318.67,89.93 318.67,90.93 319.67,90.93 320.67,90.93 320.67,91.93 321.67,91.93 322.67,91.93 322.67,91.93 323.67,92.93 324.67,92.93 325.67,92.93 326.67,92.93 327.67,92.93 328.67,92.93 329.67,92.93 330.67,92.93 331.67,92.93 332.67,92.93 334.67,92.93 335.67,92.93 336.67,91.93 337.67,90.93 338.67,90.93 338.67,90.93 338.67,89.93 339.67,89.93 341.67,88.93 341.67,88.93 342.67,88.93 343.67,88.93 343.67,87.93 344.67,86.93 345.67,85.93 346.67,85.93 346.67,84.93 346.67,83.93 347.67,83.93 347.67,82.93 349.67,80.93 349.67,80.93 350.67,79.93 350.67,78.93 352.67,76.93 353.67,75.93 353.67,73.93 353.67,72.93 354.67,72.93 354.67,71.93 354.67,70.93 355.67,70.93 355.67,69.93 355.67,67.93 355.67,66.93 355.67,64.93 355.67,64.93 355.67,63.93 355.67,62.93 355.67,61.93 355.67,60.93 355.67,59.93 355.67,58.93 355.67,57.93 355.67,56.93 355.67,56.93 355.67,55.93 355.67,54.93 355.67,53.93 354.67,52.93 354.67,52.93 354.67,51.93 354.67,50.93 354.67,49.93 352.67,49.93 352.67,48.93 351.67,48.93 350.67,48.93 350.67,48.93 349.67,47.93 348.67,47.93 347.67,47.93 346.67,47.93 346.67,47.93 345.67,47.93 344.67,47.93 344.67,48.93 343.67,48.93 342.67,48.93 342.67,48.93 341.67,48.93 341.67,49.93 340.67,49.93 340.67,50.93 339.67,50.93 339.67,51.93 339.67,52.93 339.67,53.93 338.67,54.93 338.67,55.93 338.67,56.93 338.67,58.93 338.67,59.93 338.67,61.93 338.67,62.93 338.67,63.93 338.67,64.93 338.67,66.93 338.67,67.93 338.67,69.93 338.67,70.93 338.67,72.93 338.67,72.93 338.67,73.93 338.67,74.93 338.67,75.93 338.67,76.93 338.67,77.93 338.67,78.93 338.67,79.93 338.67,80.93 338.67,80.93 338.67,81.93 339.67,82.93 339.67,83.93 339.67,84.93 340.67,85.93 340.67,86.93 341.67,87.93 342.67,88.93 342.67,88.93 343.67,89.93 344.67,89.93 344.67,90.93 345.67,90.93 346.67,90.93 346.67,90.93 347.67,90.93 348.67,90.93 349.67,90.93 350.67,90.93 351.67,90.93 352.67,90.93 353.67,90.93 354.67,90.93 355.67,90.93 357.67,89.93 358.67,88.93 359.67,88.93 360.67,88.93 361.67,87.93 362.67,87.93 362.67,86.93 363.67,86.93 365.67,85.93 367.67,84.93 369.67,83.93 369.67,82.93 369.67,81.93 370.67,81.93 371.67,80.93 372.67,80.93 374.67,79.93 375.67,78.93 376.67,77.93 377.67,76.93 378.67,75.93 378.67,74.93 379.67,74.93 380.67,73.93 380.67,72.93 381.67,72.93 382.67,71.93 383.67,71.93 384.67,69.93 385.67,68.93 386.67,68.93 386.67,67.93 386.67,66.93 387.67,65.93 388.67,64.93 389.67,64.93 390.67,64.93 390.67,63.93 391.67,62.93 391.67,61.93 392.67,60.93 393.67,59.93 394.67,59.93 394.67,58.93 394.67,57.93 394.67,56.93 395.67,56.93 395.67,56.93 396.67,55.93 397.67,53.93 398.67,52.93 399.67,52.93 399.67,51.93 399.67,50.93 400.67,50.93 401.67,49.93 401.67,50.93 400.67,50.93 400.67,51.93 399.67,52.93 399.67,53.93 399.67,54.93 399.67,55.93 399.67,56.93 398.67,56.93 398.67,57.93 398.67,58.93 398.67,59.93 398.67,60.93 398.67,62.93 397.67,63.93 397.67,64.93 397.67,66.93 397.67,67.93 397.67,69.93 396.67,70.93 396.67,71.93 396.67,72.93 396.67,73.93 396.67,77.93 396.67,78.93 396.67,79.93 396.67,80.93 396.67,80.93 396.67,82.93 396.67,83.93 396.67,85.93 396.67,87.93 396.67,88.93 396.67,88.93 396.67,89.93 396.67,91.93 396.67,92.93 396.67,93.93 397.67,95.93 397.67,96.93 397.67,96.93 398.67,97.93 398.67,99.93 399.67,100.93 399.67,101.93 399.67,102.93 400.67,103.93 401.67,104.93 401.67,104.93 402.67,105.93 402.67,106.93 402.67,107.93 403.67,108.93 404.67,109.93 404.67,110.93 405.67,111.93 406.67,112.93 406.67,113.93 407.67,113.93 407.67,114.93 408.67,115.93 409.67,115.93 410.67,116.93 410.67,117.93 410.67,117.93 411.67,118.93 411.67,119.93 412.67,120.93 413.67,120.93 414.67,120.93 414.67,120.93 436.67,120.93"/>
		</g>
	</g>
</svg>