<?xml version="1.0"?>
<!DOCTYPE svg PUBLIC "-//W3C//DTD SVG 1.1//EN" "http://www.w3.org/Graphics/SVG/1.1/DTD/svg11.dtd">
<svg xmlns="http://www.w3.org/2000/svg" width="15cm" height="15cm">
	<g fill="#fff">
		<rect x="0" y="0" width="720" height="184"/>
		<g fill="none" stroke="#000" stroke-width="2">
			<polyline points="253.67,9.93 253.67,10.93 253.67,11.93 253.67,12.93 253.67,13.93 253.67,14.93 253.67,15.93 253.67,16.93 253.67,16.93 253.67,17.93 252.67,18.93 252.67,19.93 252.67,20.93 251.67,21.93 251.67,22.93 251.67,24.93 250.67,25.93 250.67,26.93 250.67,27.93 249.67,29.93 248.67,30.93 248.67,31.93 248.67,32.93 247.67,34.93 246.67,35.93 246.67,37.93 245.67,40.93 244.67,41.93 243.67,43.93 242.67,45.93 242.67,48.93 241.67,50.93 240.67,53.93 239.67,55.93 237.67,60.93 236.67,62.93 234.67,65.93 234.67,68.93 234.67,71.93 232.67,74.93 231.67,77.93 230.67,79.93 228.67,82.93 227.67,85.93 226.67,88.93 226.67,88.93 226.67,91.93 225.67,95.93 224.67,98.93 223.67,102.93 222.67,104.93 221.67,106.93 220.67,110.93 219.67,112.93 218.67,116.93 216.67,119.93 215.67,122.93 214.67,125.93 212.67,129.93 211.67,131.93 210.67,134.93 210.67,136.93 208.67,140.93 207.67,144.93 206.67,144.93 203.67,149.93 203.67,151.93 202.67,153.93 202.67,156.93 202.67,158.93 200.67,160.93 199.67,162.93 197.67,163.93 197.67,165.93 196.67,166.93 196.67,168.93 195.67,168.93 194.67,171.93 194.67,172.93 194.67,174.93 193.67,176.93 193.67,176.93 193.67,177.93 193.67,178.93 193.67,179.93 192.67,179.93 192.67,180.93 192.67,181.93 192.67,180.93 192.67,179.93 192.67,177.93 192.67,176.93 192.67,176.93 192.67,175.93 192.67,174.93"/>
			<polyline points="181.67,124.93 180.67,121.93 179.67,120.93 179.67,120.93 179.67,119.93 179.67,118.93 179.67,117.93 179.67,116.93 179.67,115.93 179.67,114.93 179.67,113.93 179.67,112.93 179.67,112.93 179.67,111.93 179.67,110.93 179.67,109.93 179.67,108.93 179.67,107.93 179.67,106.93 179.67,105.93 179.67,104.93 180.67,104.93 181.67,103.93 181.67,102.93 181.67,101.93 181.67,100.93 181.67,99.93 182.67,99.93 182.67,98.93 183.67,97.93 184.67,96.93 184.67,96.93 185.67,95.93 186.67,95.93 186.67,94.93 186.67,92.93 187.67,92.93 188.67,91.93 188.67,90.93 190.67,89.93 191.67,88.93 191.67,88.93 192.67,87.93 194.67,87.93 194.67,85.93 196.67,84.93 198.67,83.93 200.67,81.93 201.67,81.93 202.67,80.93 204.67,78.93 206.67,77.93 208.67,76.93 210.67,74.93 211.67,74.93 212.67,74.93 214.67,72.93 216.67,71.93 218.67,70.93 221.67,68.93 222.67,67.93 225.67,66.93 227.67,65.93 230.67,64.93 231.67,63.93 234.67,61.93 235.67,60.93 237.67,58.93 241.67,57.93 242.67,56.93 244.67,56.93 247.67,54.93 250.67,53.93 250.67,52.93 253.67,51.93 256.67,49.93 258.67,48.93 260.67,48.93 262.67,47.93 265.67,46.93 266.67,44.93 268.67,44.93 271.67,42.93 273.67,42.93 275.67,41.93 276.67,40.93 279.67,40.93 282.67,39.93 282.67,39.93 285.67,38.93 287.67,37.93 290.67,36.93 290.67,36.93 292.67,35.93 293.67,35.93 295.67,35.93 297.67,34.93 298.67,33.93 300.67,32.93 301.67,32.93 302.67,32.93 303.67,32.93 305.67,32.93 306.67,32.93 306.67,32.93 308.67,32.93 308.67,32.93 309.67,32.93 310.67,32.93 311.67,32.93 312.67,32.93 313.67,32.93 314.67,32.93 314.67,32.93 315.67,32.93 316.67,32.93 316.67,33.93 317.67,33.93 317.67,34.93 317.67,35.93 317.67,36.93 317.67,37.93 317.67,39.93 317.67,40.93 316.67,41.93 315.67,42.93 315.67,43.93 315.67,44.93 315.67,46.93 314.67,46.93 314.67,47.93 313.67,48.93 313.67,49.93 311.67,50.93 310.67,51.93 309.67,53.93 308.67,55.93 306.67,56.93 306.67,57.93 306.67,58.93 304.67,60.93 303.67,62.93 303.67,63.93 301.67,64.93 300.67,65.93 299.67,67.93 298.67,68.93 297.67,70.93 296.67,71.93 294.67,72.93 293.67,72.93 292.67,74.93 291.67,76.93 290.67,78.93 289.67,80.93 286.67,81.93 285.67,82.93 284.67,83.93 283.67,85.93 282.67,86.93 281.67,88.93 279.67,89.93 279.67,90.93 277.67,91.93 276.67,93.93 275.67,94.93 274.67,96.93 272.67,96.93 270.67,98.93 270.67,99.93 268.67,101.93 267.67,102.93 266.67,103.93 265.67,104.93 265.67,104.93 263.67,105.93 262.67,107.93 261.67,107.93 259.67,108.93 258.67,110.93 258.67,111.93 257.67,111.93 257.67,112.93 256.67,112.93 254.67,114.93 253.67,114.93 252.67,115.93 251.67,116.93 250.67,116.93 250.67,117.93 249.67,117.93 248.67,118.93 247.67,119.93 246.67,119.93 245.67,120.93 244.67,120.93 243.67,120.93 242.67,120.93 242.67,121.93 241.67,121.93 241.67,122.93 240.67,122.93 239.67,122.93 238.67,122.93 238.67,123.93 237.67,123.93 236.67,123.93 235.67,124.93 235.67,125.93 234.67,125.93 234.67,125.93 233.67,125.93 233.67,124.93 232.67,124.93 231.67,123.93 231.67,122.93 231.67,121.93 231.67,120.93 230.67,120.93 230.67,120.93 229.67,120.93 229.67,119.93 229.67,118.93 229.67,117.93 229.67,116.93 229.67,115.93 230.67,115.93 230.67,114.93 231.67,114.93 232.67,114.93 232.67,113.93 233.67,113.93 234.67,113.93 234.67,112.93 235.67,112.93 236.67,112.93 237.67,111.93 238.67,111.93 240.67,110.93 241.67,110.93 242.67,109.93 242.67,109.93 242.67,108.93 244.67,108.93 245.67,107.93 246.67,107.93 247.67,107.93 248.67,107.93 249.67,106.93 250.67,106.93 250.67,106.93 251.67,106.93 251.67,105.93 253.67,105.93 254.67,104.93 256.67,104.93 257.67,104.93 258.67,104.93 260.67,104.93 260.67,104.93 261.67,104.93 262.67,104.93 263.67,104.93 264.67,104.93 265.67,104.93 266.67,104.93 266.67,104.93 267.67,104.93 268.67,104.93 269.67,104.93 270.67,103.93 272.67,103.93 273.67,103.93 274.67,103.93 274.67,103.93 275.67,103.93 276.67,103.93 277.67,103.93 278.67,103.93 278.67,102.93 279.67,102.93 280.67,102.93 281.67,102.93 282.67,102.93 282.67,103.93 282.67,103.93 282.67,104.93 282.67,104.93 282.67,105.93 282.67,106.93 282.67,107.93 283.67,108.93 283.67,109.93 284.67,109.93 285.67,110.93 286.67,111.93 286.67,112.93 287.67,112.93 288.67,112.93 289.67,112.93 290.67,112.93 290.67,112.93 291.67,112.93 292.67,112.93 292.67,111.93 293.67,111.93 294.67,111.93 295.67,110.93 296.67,109.93 297.67,108.93 298.67,108.93 298.67,108.93 298.67,107.93 299.67,107.93 299.67,106.93 300.67,106.93 301.67,106.93 302.67,106.93 302.67,105.93 303.67,105.93 303.67,104.93 303.67,104.93 302.67,104.93 301.67,104.93 301.67,104.93 300.67,104.93 299.67,105.93 298.67,106.93 298.67,106.93 298.67,107.93 297.67,107.93 297.67,108.93 297.67,109.93 297.67,110.93 297.67,111.93 296.67,111.93 296.67,112.93 296.67,112.93 296.67,113.93 296.67,114.93 296.67,115.93 296.67,116.93 296.67,117.93 296.67,118.93 296.67,119.93 296.67,120.93 296.67,120.93 296.67,121.93 297.67,122.93 298.67,123.93 298.67,124.93 298.67,125.93 298.67,126.93 299.67,126.93 299.67,127.93 300.67,127.93 300.67,128.93 300.67,128.93 301.67,128.93 301.67,129.93 302.67,129.93 303.67,129.93 303.67,130.93 304.67,130.93 305.67,130.93 306.67,130.93 306.67,130.93 307.67,130.93 308.67,130.93 309.67,130.93 309.67,129.93 310.67,129.93 310.67,128.93 311.67,128.93 311.67,128.93 312.67,128.93 312.67,127.93 313.67,126.93 314.67,126.93 314.67,125.93 314.67,124.93 314.67,124.93 314.67,123.93 315.67,123.93 315.67,122.93 315.67,121.93 316.67,121.93 316.67,120.93 317.67,120.93 318.67,119.93 318.67,118.93 319.67,117.93 319.67,116.93 319.67,115.93 319.67,114.93 318.67,114.93 318.67,115.93 317.67,115.93 316.67,115.93 315.67,116.93 314.67,116.93 314.67,116.93 313.67,117.93 313.67,118.93 312.67,118.93 311.67,118.93 310.67,118.93 310.67,119.93 310.67,120.93 310.67,120.93 310.67,121.93 309.67,121.93 309.67,122.93 308.67,123.93 308.67,124.93 307.67,125.93 307.67,126.93 307.67,127.93 307.67,128.93 307.67,128.93 307.67,129.93 307.67,130.93 307.67,131.93 308.67,131.93 309.67,131.93 310.67,131.93 311.67,131.93 312.67,131.93 312.67,130.93 313.67,130.93 314.67,130.93 314.67,129.93 314.67,129.93 315.67,128.93 316.67,128.93 317.67,128.93 318.67,128.93 318.67,127.93 319.67,126.93 320.67,126.93 320.67,125.93 321.67,125.93 322.67,124.93 322.67,123.93 323.67,122.93 324.67,122.93 324.67,121.93 325.67,121.93 326.67,120.93 327.67,120.93 327.67,119.93 328.67,119.93 328.67,118.93 329.67,117.93 329.67,116.93 330.67,115.93 330.67,114.93 330.67,114.93 331.67,113.93 331.67,112.93 331.67,112.93 331.67,111.93 331.67,110.93 331.67,109.93 331.67,108.93 331.67,107.93 331.67,106.93 330.67,106.93 330.67,105.93 330.67,105.93 330.67,104.93 329.67,104.93 328.67,104.93 328.67,104.93 329.67,104.93 328.67,104.93 328.67,105.93 328.67,106.93 328.67,107.93 328.67,108.93 328.67,109.93 328.67,110.93 327.67,111.93 327.67,112.93 327.67,112.93 327.67,113.93 327.67,114.93 327.67,115.93 327.67,116.93 327.67,117.93 327.67,118.93 327.67,119.93 327.67,120.93 327.67,120.93 327.67,121.93 327.67,122.93 327.67,123.93 327.67,124.93 327.67,125.93 328.67,125.93 329.67,125.93 330.67,125.93 330.67,124.93 331.67,124.93 331.67,123.93 332.67,123.93 333.67,123.93 333.67,122.93 334.67,122.93 334.67,121.93 335.67,121.93 336.67,120.93 337.67,120.93 337.67,120.93 338.67,120.93 338.67,119.93 338.67,119.93 339.67,119.93 339.67,118.93 340.67,117.93 341.67,117.93 341.67,116.93 342.67,116.93 342.67,115.93 343.67,114.93 344.67,114.93 344.67,113.93 345.67,113.93 346.67,112.93 346.67,112.93 346.67,113.93 346.67,114.93 346.67,115.93 346.67,116.93 346.67,117.93 346.67,118.93 346.67,119.93 346.67,120.93 346.67,120.93 346.67,121.93 346.67,122.93 346.67,122.93 347.67,122.93 348.67,121.93 350.67,120.93 350.67,120.93 351.67,120.93 352.67,119.93 353.67,118.93 354.67,117.93 354.67,117.93 355.67,117.93 355.67,116.93 356.67,115.93 358.67,114.93 359.67,114.93 360.67,113.93 361.67,113.93 362.67,113.93 362.67,112.93 362.67,112.93 363.67,112.93 364.67,112.93 365.67,112.93 366.67,112.93 367.67,112.93 367.67,113.93 367.67,114.93 367.67,115.93 367.67,116.93 367.67,117.93 367.67,118.93 368.67,118.93 368.67,119.93 368.67,120.93 368.67,120.93 368.67,121.93 368.67,122.93 368.67,123.93 368.67,124.93 368.67,125.93 369.67,125.93 370.67,125.93 370.67,125.93 370.67,124.93 371.67,123.93 372.67,123.93 373.67,121.93 374.67,121.93 375.67,120.93 376.67,120.93 377.67,119.93 377.67,118.93 378.67,117.93 379.67,117.93 379.67,116.93 380.67,115.93 380.67,114.93 381.67,114.93 381.67,113.93 382.67,112.93 383.67,112.93 384.67,112.93 384.67,111.93 385.67,111.93 386.67,110.93 386.67,109.93 386.67,108.93 386.67,108.93 387.67,108.93 388.67,107.93 388.67,106.93 389.67,105.93 390.67,104.93 390.67,104.93 391.67,104.93 391.67,103.93 392.67,102.93 392.67,101.93 393.67,101.93 394.67,100.93 394.67,99.93 395.67,98.93 395.67,97.93 396.67,97.93 397.67,97.93 397.67,98.93 397.67,99.93 397.67,100.93 397.67,101.93 397.67,104.93 397.67,104.93 397.67,105.93 397.67,106.93 397.67,107.93 397.67,109.93 397.67,110.93 397.67,111.93 397.67,112.93 397.67,112.93 397.67,113.93 397.67,114.93 398.67,115.93 398.67,116.93 399.67,116.93 399.67,117.93 399.67,118.93 400.67,118.93 400.67,119.93 401.67,119.93 401.67,120.93 402.67,120.93 402.67,120.93 402.67,121.93 403.67,121.93 403.67,122.93 403.67,123.93 404.67,123.93 405.67,123.93 405.67,124.93 405.67,125.93 406.67,125.93 407.67,125.93 408.67,125.93 409.67,125.93 410.67,125.93 410.67,124.93 411.67,124.93 412.67,122.93 412.67,121.93 413.67,120.93 414.67,120.93 414.67,119.93 414.67,118.93 415.67,117.93 416.67,116.93 416.67,115.93 417.67,115.93 417.67,114.93 417.67,113.93 417.67,112.93 418.67,112.93 418.67,112.93 418.67,111.93 419.67,110.93 419.67,109.93 420.67,108.93 420.67,107.93 421.67,106.93 421.67,105.93 422.67,105.93 423.67,104.93 423.67,104.93 424.67,103.93 424.67,102.93 426.67,102.93 426.67,101.93 426.67,99.93 427.67,99.93 428.67,98.93 429.67,97.93 430.67,96.93 432.67,96.93 432.67,96.93 433.67,95.93 433.67,94.93 434.67,94.93 434.67,94.93 435.67,93.93 436.67,93.93 436.67,92.93 437.67,92.93 438.67,91.93 439.67,91.93 439.67,92.93 439.67,93.93 439.67,96.93 439.67,96.93 439.67,97.93 440.67,97.93 440.67,99.93 440.67,100.93 441.67,100.93 441.67,102.93 442.67,103.93 442.67,104.93 442.67,105.93 442.67,105.93 443.67,107.93 443.67,108.93 443.67,109.93 443.67,110.93 443.67,111.93 445.67,112.93 445.67,114.93 445.67,115.93 446.67,116.93 446.67,118.93 447.67,120.93 448.67,120.93 448.67,122.93 448.67,123.93 449.67,125.93 449.67,127.93 449.67,128.93 450.67,128.93 450.67,130.93 450.67,133.93 451.67,134.93 451.67,136.93 453.67,138.93 453.67,139.93 453.67,140.93 453.67,142.93 453.67,143.93 453.67,145.93 453.67,146.93 455.67,149.93 455.67,150.93 455.67,152.93 455.67,153.93 455.67,155.93 455.67,156.93 455.67,158.93 455.67,159.93 455.67,161.93 455.67,162.93 455.67,164.93 455.67,165.93 455.67,167.93 455.67,168.93 455.67,169.93 455.67,171.93 455.67,172.93 455.67,174.93 455.67,176.93 455.67,177.93 455.67,178.93 455.67,179.93 455.67,181.93 454.67,182.93 454.67,183.93 454.67,184.93 453.67,184.93 453.67,185.93 453.67,186.93 452.67,187.93 452.67,188.93 451.67,189.93 450.67,189.93 450.67,191.93 450.67,192.93 450.67,192.93 449.67,192.93 448.67,192.93 448.67,194.93 446.67,194.93 445.67,194.93 444.67,195.93 443.67,196.93 442.67,197.93 441.67,198.93 440.67,198.93 439.67,198.93 438.67,198.93 437.67,200.93 435.67,200.93 434.67,200.93 434.67,200.93 433.67,200.93 433.67,201.93 432.67,201.93 431.67,202.93 430.67,203.93 429.67,203.93 428.67,203.93 427.67,203.93 426.67,203.93 426.67,202.93 426.67,201.93 426.67,200.93 426.67,200.93 426.67,198.93 426.67,197.93 426.67,195.93 425.67,194.93 425.67,192.93 425.67,191.93 425.67,189.93 425.67,188.93 425.67,186.93 425.67,184.93 425.67,184.93 425.67,182.93 425.67,181.93 425.67,179.93 426.67,178.93 426.67,177.93 426.67,176.93 426.67,175.93 426.67,174.93 427.67,173.93 428.67,172.93 429.67,172.93 429.67,171.93 431.67,170.93 432.67,169.93 433.67,168.93 434.67,167.93 435.67,167.93 435.67,166.93 435.67,165.93 437.67,164.93 438.67,164.93 438.67,163.93 439.67,162.93 440.67,162.93 440.67,161.93 440.67,160.93 442.67,159.93 443.67,159.93 444.67,158.93 444.67,157.93 446.67,156.93 447.67,156.93 447.67,153.93 449.67,152.93 450.67,152.93 450.67,152.93 451.67,150.93 454.67,148.93 455.67,147.93 457.67,146.93 457.67,144.93 458.67,144.93 459.67,144.93 461.67,142.93 462.67,141.93 464.67,140.93 464.67,139.93 465.67,139.93 466.67,138.93 467.67,136.93 468.67,136.93 470.67,136.93 470.67,135.93 471.67,134.93 473.67,133.93 474.67,132.93 475.67,131.93 476.67,131.93 476.67,130.93 477.67,130.93 478.67,129.93 478.67,128.93 480.67,128.93 481.67,128.93 482.67,127.93 482.67,126.93 483.67,126.93 484.67,125.93 485.67,124.93 485.67,123.93 486.67,123.93 487.67,123.93 488.67,122.93 489.67,122.93 490.67,121.93 490.67,120.93 491.67,120.93 492.67,120.93 493.67,120.93 494.67,119.93 495.67,119.93 496.67,119.93 496.67,118.93 497.67,118.93 498.67,117.93 498.67,116.93 501.67,115.93 502.67,115.93 502.67,114.93 503.67,114.93 503.67,113.93 504.67,113.93 504.67,112.93 505.67,112.93 506.67,112.93 506.67,112.93 507.67,112.93 508.67,112.93 508.67,113.93 508.67,114.93 508.67,115.93 508.67,116.93 508.67,117.93"/>
		</g>
	</g>
</svg>