<?xml version="1.0"?>
<!DOCTYPE svg PUBLIC "-//W3C//DTD SVG 1.1//EN" "http://www.w3.org/Graphics/SVG/1.1/DTD/svg11.dtd">
<svg xmlns="http://www.w3.org/2000/svg" width="15cm" height="15cm">
	<g fill="#fff">
		<rect x="0" y="0" width="720" height="184"/>
		<g fill="none" stroke="#000" stroke-width="2">
			<polyline points="162.67,112.93 162.67,112.93 162.67,110.93 168.67,99.93 176.67,89.93 183.67,82.93 187.67,77.93 194.67,62.93 200.67,54.93 201.67,47.93 201.67,44.93 202.67,36.93 202.67,27.93 202.67,17.93 202.67,16.93 201.67,13.93 200.67,13.93 198.67,13.93 195.67,17.93 187.67,35.93 180.67,42.93 173.67,50.93 162.67,73.93 156.67,97.93 154.67,106.93 154.67,110.93 154.67,112.93 161.67,113.93 168.67,114.93 178.67,112.93 188.67,105.93 204.67,99.93 219.67,89.93 228.67,85.93 234.67,80.93 240.67,72.93 242.67,72.93 242.67,75.93 241.67,75.93 240.67,77.93 234.67,80.93 231.67,81.93 227.67,84.93 222.67,87.93 217.67,91.93 213.67,96.93 213.67,99.93 213.67,97.93 213.67,95.93 217.67,89.93 223.67,80.93 224.67,79.93 225.67,76.93 226.67,76.93 226.67,78.93 226.67,82.93 226.67,88.93 226.67,90.93 227.67,90.93 227.67,91.93 228.67,91.93 229.67,91.93 230.67,91.93 230.67,90.93 231.67,89.93 232.67,89.93 234.67,91.93 236.67,95.93 237.67,97.93 239.67,99.93 241.67,98.93 242.67,96.93 243.67,92.93 244.67,90.93 245.67,90.93 246.67,91.93 248.67,93.93 249.67,94.93 251.67,92.93 252.67,92.93 253.67,93.93 255.67,96.93 255.67,99.93 256.67,99.93 257.67,96.93 258.67,96.93 259.67,94.93 263.67,90.93 265.67,87.93 266.67,85.93 265.67,86.93 263.67,93.93 261.67,98.93 261.67,103.93 263.67,101.93 266.67,94.93 271.67,86.93 272.67,84.93 273.67,83.93 273.67,81.93 273.67,82.93 273.67,88.93 275.67,96.93 279.67,104.93 282.67,110.93 284.67,112.93 287.67,113.93 292.67,111.93 300.67,109.93 306.67,107.93 311.67,103.93 315.67,96.93 316.67,96.93 316.67,93.93 312.67,89.93 306.67,86.93"/>
		</g>
	</g>
</svg>