<?xml version="1.0"?>
<!DOCTYPE svg PUBLIC "-//W3C//DTD SVG 1.1//EN" "http://www.w3.org/Graphics/SVG/1.1/DTD/svg11.dtd">
<svg xmlns="http://www.w3.org/2000/svg" width="15cm" height="15cm">
	<g fill="#fff">
		<rect x="0" y="0" width="720" height="184"/>
		<g fill="none" stroke="#000" stroke-width="2">
			<polyline points="225.67,47.93 224.67,47.93 223.67,47.93 223.67,48.93 222.67,48.93 221.67,48.93 221.67,48.93 222.67,48.93 223.67,48.93 224.67,48.93 225.67,48.93 226.67,48.93 226.67,48.93 226.67,48.93 227.67,47.93 228.67,47.93 229.67,47.93 229.67,46.93 230.67,46.93 231.67,46.93 232.67,46.93 232.67,45.93 233.67,45.93 233.67,44.93 234.67,44.93 234.67,44.93 235.67,44.93 236.67,43.93 237.67,43.93 237.67,42.93 238.67,42.93 238.67,41.93 239.67,41.93 240.67,41.93 241.67,41.93 242.67,40.93 242.67,40.93 242.67,40.93 243.67,40.93 244.67,40.93 244.67,39.93 244.67,38.93 243.67,38.93 242.67,38.93 242.67,38.93 241.67,38.93 241.67,39.93 240.67,39.93 239.67,39.93 238.67,39.93 238.67,40.93 237.67,40.93 236.67,40.93 235.67,40.93 234.67,40.93 234.67,40.93 234.67,41.93 233.67,41.93 233.67,42.93 232.67,42.93 232.67,43.93 231.67,43.93 230.67,43.93 229.67,43.93 229.67,44.93 228.67,44.93 227.67,45.93 226.67,45.93 226.67,45.93 226.67,46.93 225.67,46.93 224.67,47.93 223.67,47.93 223.67,48.93 222.67,48.93 221.67,48.93 221.67,48.93 220.67,48.93 219.67,49.93 218.67,49.93 218.67,49.93 217.67,49.93 217.67,50.93 217.67,51.93 216.67,51.93 215.67,52.93 214.67,52.93 213.67,53.93 212.67,53.93 212.67,54.93 211.67,54.93 210.67,54.93 210.67,55.93 209.67,55.93 209.67,56.93 208.67,56.93 207.67,56.93 207.67,56.93 208.67,56.93 209.67,56.93 210.67,56.93 210.67,56.93 211.67,56.93 212.67,56.93 213.67,55.93 214.67,55.93 215.67,55.93 216.67,55.93 216.67,54.93 217.67,54.93 218.67,54.93 218.67,53.93 218.67,53.93 219.67,53.93 220.67,53.93 220.67,52.93 221.67,52.93 222.67,52.93 222.67,51.93 223.67,51.93 224.67,50.93 225.67,50.93 226.67,50.93 226.67,49.93 227.67,48.93 228.67,48.93 229.67,48.93 231.67,48.93 232.67,48.93 232.67,47.93 233.67,47.93 234.67,46.93 234.67,46.93 235.67,46.93 235.67,45.93 236.67,44.93 237.67,44.93 238.67,43.93 239.67,43.93 240.67,43.93 240.67,42.93 241.67,41.93 242.67,41.93 242.67,41.93 243.67,40.93 244.67,40.93 243.67,40.93 242.67,40.93 242.67,40.93 241.67,40.93 240.67,40.93 240.67,41.93 239.67,41.93 239.67,42.93 238.67,42.93 237.67,42.93 236.67,42.93 235.67,43.93 234.67,44.93 233.67,45.93 231.67,46.93 230.67,46.93 229.67,47.93 228.67,48.93 227.67,48.93 226.67,48.93 226.67,48.93 226.67,48.93 224.67,49.93 223.67,50.93 220.67,51.93 219.67,52.93 218.67,53.93 217.67,55.93 216.67,55.93 215.67,55.93 214.67,55.93 213.67,56.93 212.67,56.93 210.67,57.93 210.67,57.93 209.67,58.93 208.67,58.93 207.67,60.93 205.67,61.93 203.67,61.93 202.67,63.93 200.67,64.93 200.67,64.93 198.67,64.93 197.67,65.93 196.67,67.93 195.67,67.93 194.67,68.93 193.67,70.93 192.67,71.93 190.67,71.93 190.67,72.93 189.67,73.93 187.67,74.93 186.67,75.93 186.67,76.93 185.67,78.93 184.67,78.93 184.67,79.93 184.67,80.93 183.67,80.93 182.67,81.93 182.67,82.93 181.67,82.93 180.67,84.93 179.67,84.93 179.67,85.93 178.67,85.93 178.67,86.93 178.67,87.93 178.67,88.93 178.67,88.93 179.67,88.93 180.67,88.93 181.67,88.93 183.67,88.93 184.67,88.93 185.67,88.93 186.67,88.93 186.67,88.93 187.67,88.93 187.67,87.93 188.67,87.93 189.67,87.93 189.67,86.93 190.67,86.93 191.67,86.93 192.67,86.93 193.67,86.93 194.67,85.93 195.67,84.93 196.67,84.93 197.67,84.93 198.67,84.93 199.67,83.93 200.67,82.93 202.67,82.93 202.67,81.93 203.67,81.93 204.67,81.93 205.67,81.93 206.67,80.93 207.67,80.93 208.67,80.93 210.67,80.93 210.67,80.93 211.67,79.93 212.67,78.93 212.67,77.93 213.67,77.93 214.67,77.93 215.67,77.93 216.67,77.93 217.67,76.93 218.67,74.93 218.67,74.93 219.67,74.93 220.67,74.93 221.67,73.93 222.67,73.93 223.67,73.93 223.67,72.93 224.67,72.93 225.67,72.93 226.67,72.93 226.67,71.93 226.67,70.93 226.67,71.93 226.67,71.93 225.67,71.93 224.67,71.93 223.67,71.93 222.67,71.93 222.67,72.93 221.67,72.93 220.67,73.93 219.67,73.93 218.67,73.93 218.67,74.93 217.67,74.93 217.67,75.93 216.67,76.93 215.67,76.93 214.67,76.93 213.67,76.93 211.67,77.93 211.67,78.93 210.67,79.93 210.67,79.93 209.67,79.93 207.67,80.93 206.67,80.93 205.67,80.93 205.67,81.93 203.67,82.93 202.67,82.93 201.67,83.93 201.67,84.93 200.67,84.93 198.67,85.93 198.67,86.93 197.67,87.93 195.67,88.93 194.67,89.93 194.67,91.93 194.67,91.93 193.67,94.93 192.67,95.93 191.67,96.93 190.67,97.93 190.67,99.93 189.67,101.93 188.67,102.93 188.67,104.93 187.67,105.93 186.67,107.93 186.67,109.93 186.67,111.93 186.67,112.93 186.67,114.93 184.67,115.93 184.67,118.93 184.67,119.93 184.67,120.93 184.67,122.93 184.67,123.93 184.67,125.93 184.67,127.93 184.67,128.93 184.67,129.93 184.67,130.93 184.67,133.93 184.67,134.93 184.67,135.93 184.67,136.93 184.67,137.93 184.67,139.93 184.67,140.93 184.67,141.93 184.67,142.93 184.67,144.93 184.67,145.93 184.67,146.93 185.67,147.93 185.67,148.93 186.67,149.93 186.67,150.93 186.67,151.93 187.67,151.93 188.67,151.93 188.67,152.93 189.67,152.93 190.67,153.93 191.67,153.93 192.67,153.93 193.67,153.93 194.67,153.93 194.67,153.93 195.67,153.93 196.67,153.93 197.67,153.93 198.67,153.93 199.67,153.93 200.67,153.93 201.67,153.93 202.67,153.93 202.67,152.93 203.67,152.93 205.67,152.93 207.67,152.93 208.67,152.93 208.67,151.93 210.67,150.93 211.67,149.93 211.67,148.93 213.67,148.93 215.67,148.93 216.67,147.93 217.67,146.93 218.67,145.93 219.67,145.93 221.67,144.93 221.67,144.93 222.67,144.93 223.67,143.93 224.67,143.93 225.67,142.93 226.67,141.93 226.67,140.93 228.67,140.93 229.67,140.93 231.67,138.93 232.67,138.93 233.67,137.93 234.67,136.93 235.67,136.93 236.67,136.93 238.67,135.93 239.67,134.93 240.67,133.93 242.67,132.93 242.67,132.93 243.67,132.93 244.67,131.93 245.67,130.93 246.67,129.93 247.67,129.93 249.67,129.93 250.67,128.93 250.67,127.93 250.67,127.93 252.67,125.93 252.67,124.93 253.67,124.93 254.67,124.93 254.67,123.93 255.67,121.93 256.67,121.93 257.67,121.93 258.67,120.93 258.67,120.93 258.67,119.93 259.67,119.93 260.67,118.93 261.67,118.93 261.67,117.93 260.67,117.93 259.67,117.93 259.67,118.93 258.67,118.93 258.67,118.93 258.67,119.93 257.67,119.93 256.67,119.93 257.67,119.93 258.67,119.93 258.67,118.93 259.67,118.93 260.67,117.93 261.67,117.93 261.67,116.93 262.67,116.93 262.67,115.93 263.67,115.93 264.67,114.93 265.67,114.93 266.67,114.93 266.67,113.93 266.67,112.93 266.67,112.93 266.67,112.93 267.67,111.93 267.67,110.93 267.67,109.93 267.67,108.93 268.67,108.93 268.67,107.93 269.67,107.93 269.67,106.93 270.67,106.93 270.67,105.93 270.67,104.93 270.67,104.93 271.67,104.93 271.67,103.93 272.67,103.93 272.67,102.93 271.67,102.93 271.67,103.93 270.67,103.93 269.67,103.93 268.67,103.93 268.67,104.93 267.67,104.93 266.67,105.93 266.67,105.93 266.67,106.93 265.67,106.93 265.67,107.93 264.67,107.93 263.67,107.93 263.67,108.93 262.67,108.93 262.67,109.93 262.67,110.93 262.67,111.93 262.67,112.93 262.67,112.93 262.67,113.93 262.67,114.93 262.67,115.93 262.67,116.93 262.67,117.93 262.67,118.93 262.67,119.93 263.67,119.93 264.67,119.93 265.67,119.93 266.67,119.93 266.67,119.93 267.67,119.93 268.67,119.93 269.67,119.93 270.67,119.93 270.67,118.93 271.67,118.93 271.67,117.93 272.67,117.93 273.67,117.93 274.67,117.93 274.67,116.93 274.67,115.93 274.67,115.93 275.67,114.93 276.67,114.93 277.67,114.93 277.67,113.93 278.67,113.93 278.67,112.93 279.67,112.93 280.67,112.93 281.67,112.93 282.67,112.93 282.67,111.93 282.67,111.93 282.67,110.93 283.67,110.93 284.67,110.93 283.67,110.93 283.67,111.93 282.67,111.93 282.67,112.93 282.67,112.93 282.67,112.93 281.67,113.93 281.67,114.93 281.67,115.93 281.67,116.93 281.67,117.93 282.67,118.93 282.67,118.93 282.67,119.93 283.67,119.93 284.67,119.93 284.67,120.93 285.67,120.93 286.67,120.93 287.67,120.93 287.67,119.93 288.67,119.93 289.67,119.93 290.67,119.93 290.67,118.93 290.67,117.93 291.67,117.93 292.67,116.93 293.67,116.93 294.67,115.93 294.67,114.93 295.67,114.93 296.67,114.93 296.67,113.93 297.67,112.93 298.67,112.93 298.67,112.93 298.67,112.93 298.67,113.93 297.67,113.93 297.67,114.93 297.67,115.93 297.67,116.93 297.67,117.93 298.67,117.93 298.67,116.93 299.67,116.93 300.67,115.93 300.67,114.93 301.67,114.93 302.67,114.93 302.67,113.93 303.67,113.93 304.67,113.93 305.67,112.93 306.67,112.93 306.67,112.93 306.67,111.93 306.67,110.93 307.67,110.93 308.67,110.93 308.67,109.93 309.67,109.93 309.67,108.93 310.67,107.93 311.67,107.93 311.67,106.93 311.67,105.93 312.67,104.93 313.67,104.93 314.67,104.93 314.67,103.93 314.67,102.93 314.67,102.93 314.67,101.93 315.67,100.93 315.67,99.93 316.67,98.93 316.67,97.93 317.67,97.93 317.67,96.93 318.67,96.93 318.67,95.93 319.67,94.93 319.67,93.93 320.67,93.93 320.67,92.93 320.67,91.93 321.67,90.93 321.67,89.93 321.67,88.93 322.67,88.93 322.67,88.93 322.67,87.93 323.67,86.93 323.67,85.93 324.67,84.93 324.67,83.93 325.67,83.93 326.67,82.93 327.67,81.93 328.67,81.93 329.67,81.93 329.67,80.93 329.67,80.93 330.67,80.93 330.67,80.93 331.67,80.93 331.67,79.93 332.67,79.93 333.67,79.93 332.67,79.93 331.67,79.93 330.67,79.93 330.67,79.93 330.67,80.93 330.67,80.93 329.67,80.93 328.67,80.93 327.67,80.93 327.67,81.93 326.67,81.93 325.67,81.93 325.67,82.93 324.67,82.93 323.67,83.93 322.67,84.93 322.67,84.93 321.67,85.93 320.67,85.93 319.67,86.93 319.67,87.93 318.67,87.93 317.67,88.93 316.67,88.93 316.67,89.93 315.67,90.93 314.67,91.93 314.67,93.93 314.67,94.93 313.67,95.93 312.67,96.93 312.67,97.93 311.67,99.93 311.67,101.93 310.67,102.93 310.67,103.93 310.67,104.93 309.67,105.93 309.67,106.93 308.67,108.93 308.67,109.93 308.67,110.93 308.67,112.93 307.67,112.93 307.67,113.93 307.67,114.93 307.67,115.93 307.67,116.93 307.67,117.93 307.67,119.93 307.67,120.93 308.67,120.93 308.67,121.93 308.67,122.93 309.67,122.93 310.67,123.93 311.67,123.93 312.67,123.93 313.67,123.93 314.67,124.93 314.67,124.93 316.67,125.93 317.67,125.93 320.67,125.93 321.67,125.93 322.67,125.93 323.67,125.93 325.67,125.93 327.67,125.93 329.67,124.93 330.67,124.93 331.67,123.93 331.67,122.93 334.67,122.93 334.67,121.93 336.67,121.93 337.67,121.93 338.67,120.93 339.67,120.93 340.67,120.93 342.67,119.93 344.67,118.93 346.67,118.93 347.67,116.93 349.67,116.93 352.67,116.93 352.67,115.93 354.67,114.93 355.67,114.93 358.67,113.93 360.67,112.93 361.67,112.93 363.67,112.93 365.67,111.93 368.67,110.93 370.67,109.93 371.67,108.93 374.67,107.93 377.67,106.93 378.67,106.93 380.67,104.93 383.67,104.93 386.67,104.93 387.67,104.93 390.67,103.93 392.67,102.93 395.67,101.93 396.67,100.93 399.67,99.93 402.67,98.93 402.67,98.93 405.67,96.93 408.67,96.93 410.67,95.93 410.67,94.93 412.67,93.93 415.67,92.93 416.67,92.93 417.67,91.93 418.67,90.93 419.67,89.93 420.67,89.93 421.67,88.93 422.67,88.93 423.67,87.93 424.67,87.93 425.67,86.93 426.67,85.93 427.67,84.93 427.67,83.93 428.67,83.93 429.67,82.93 429.67,81.93 430.67,81.93 430.67,80.93 431.67,80.93 431.67,80.93 430.67,80.93 428.67,80.93 427.67,80.93 426.67,80.93 426.67,80.93 425.67,81.93 424.67,82.93 423.67,82.93 422.67,83.93"/>
		</g>
	</g>
</svg>