<?xml version="1.0"?>
<!DOCTYPE svg PUBLIC "-//W3C//DTD SVG 1.1//EN" "http://www.w3.org/Graphics/SVG/1.1/DTD/svg11.dtd">
<svg xmlns="http://www.w3.org/2000/svg" width="15cm" height="15cm">
	<g fill="#fff">
		<rect x="0" y="0" width="719" height="183"/>
		<g fill="none" stroke="#000" stroke-width="2">
			<polyline points="208,12.57 207,12.57 207,13.57 202,15.57 195,21.57 181,48.57 165,83.57 155,105.57 149,116.57 149,118.57 148,118.57 147,118.57 145,118.57 141,119.57 139,118.57 134,109.57 131,89.57 136,72.57 153,56.57 176,44.57 191,37.57 196,36.57 197,40.57 201,57.57 192,91.57 175,133.57 163,159.57 152,169.57 133,175.57 104,169.57 80,158.57 70,144.57 66,128.57 73,111.57 88,103.57 106,93.57 118,87.57 128,83.57 130,80.57 131,80.57 144,95.57 160,108.57 172,118.57 180,123.57 189,125.57 191,125.57 195,123.57 202,120.57 212,109.57 220,105.57 226,103.57 225,104.57 227,118.57 232,124.57 234,127.57"/>
			<polyline points="262,125.57 265,123.57 268,123.57 269,123.57 271,122.57 276,119.57 280,116.57 282,116.57 280,117.57 276,120.57"/>
			<polyline points="276,122.57 278,124.57 280,124.57 284,124.57 290,124.57 297,122.57 303,119.57 309,116.57 313,114.57 312,114.57 310,115.57 309,115.57"/>
		</g>
	</g>
</svg>