<?xml version="1.0"?>
<!DOCTYPE svg PUBLIC "-//W3C//DTD SVG 1.1//EN" "http://www.w3.org/Graphics/SVG/1.1/DTD/svg11.dtd">
<svg xmlns="http://www.w3.org/2000/svg" width="15cm" height="15cm">
	<g fill="#fff">
		<rect x="0" y="0" width="720" height="184"/>
		<g fill="none" stroke="#000" stroke-width="2">
			<polyline points="188.67,33.93 188.67,34.93 179.67,43.93 165.67,65.93 144.67,89.93 123.67,105.93 112.67,112.93 104.67,115.93 99.67,116.93 99.67,115.93 102.67,101.93 109.67,75.93 126.67,54.93 155.67,34.93 178.67,22.93 190.67,16.93 190.67,17.93 195.67,40.93 195.67,60.93 188.67,80.93 176.67,92.93 157.67,101.93 142.67,107.93 130.67,108.93 126.67,106.93 126.67,104.93 130.67,92.93 139.67,86.93 151.67,79.93 167.67,71.93 177.67,67.93 186.67,71.93 208.67,92.93 219.67,104.93 234.67,114.93 242.67,119.93 248.67,119.93 256.67,115.93 263.67,104.93 267.67,91.93 269.67,83.93 271.67,83.93 272.67,83.93 277.67,81.93 284.67,78.93 291.67,74.93 293.67,72.93 293.67,73.93 296.67,88.93 301.67,99.93 306.67,105.93 307.67,107.93 308.67,107.93 314.67,104.93 323.67,100.93 334.67,87.93 343.67,80.93 345.67,79.93 345.67,80.93 346.67,81.93 346.67,86.93 346.67,87.93 347.67,87.93 352.67,79.93 355.67,56.93 362.67,44.93 365.67,42.93 367.67,41.93 370.67,57.93 372.67,77.93 380.67,105.93 390.67,135.93 400.67,154.93 405.67,159.93 412.67,157.93 420.67,137.93 430.67,102.93 445.67,73.93 458.67,60.93 466.67,59.93 471.67,67.93 478.67,103.93 478.67,141.93 466.67,186.93 454.67,210.93 438.67,223.93 430.67,226.93 428.67,226.93 428.67,225.93 418.67,198.93 418.67,170.93 433.67,146.93 451.67,130.93 477.67,110.93 501.67,96.93 526.67,82.93 546.67,75.93 555.67,72.93 557.67,71.93 555.67,72.93 551.67,75.93 550.67,75.93"/>
		</g>
	</g>
</svg>