<?xml version="1.0"?>
<!DOCTYPE svg PUBLIC "-//W3C//DTD SVG 1.1//EN" "http://www.w3.org/Graphics/SVG/1.1/DTD/svg11.dtd">
<svg xmlns="http://www.w3.org/2000/svg" width="15cm" height="15cm">
	<g fill="#fff">
		<rect x="0" y="0" width="720" height="184"/>
		<g fill="none" stroke="#000" stroke-width="2">
			<polyline points="236.67,41.93 236.67,42.93 225.67,51.93 210.67,85.93 195.67,116.93 186.67,133.93 182.67,137.93 181.67,137.93 182.67,133.93 189.67,101.93 200.67,77.93 204.67,70.93"/>
			<polyline points="224.67,47.93 228.67,42.93 234.67,35.93 235.67,35.93 235.67,36.93 250.67,60.93 274.67,91.93 298.67,113.93 318.67,123.93 323.67,124.93 324.67,124.93 322.67,117.93 314.67,106.93 301.67,99.93 282.67,94.93 264.67,94.93 236.67,95.93 218.67,101.93 210.67,105.93 210.67,105.93 210.67,106.93 219.67,103.93 235.67,96.93 258.67,84.93 284.67,72.93 309.67,59.93 319.67,54.93 319.67,52.93 314.67,53.93 307.67,57.93 301.67,64.93 303.67,77.93 306.67,82.93 310.67,86.93 313.67,86.93 317.67,86.93 324.67,84.93 334.67,80.93 341.67,75.93 344.67,75.93 343.67,75.93 342.67,81.93 348.67,92.93 353.67,96.93 355.67,97.93 357.67,97.93 362.67,96.93 374.67,92.93 386.67,86.93 394.67,80.93 400.67,79.93 404.67,79.93 407.67,84.93 411.67,89.93 413.67,94.93 418.67,98.93 422.67,99.93 429.67,99.93 438.67,95.93 450.67,80.93 459.67,62.93 465.67,45.93 466.67,36.93 459.67,31.93 455.67,29.93 453.67,29.93 449.67,30.93 439.67,36.93 429.67,52.93 427.67,79.93 435.67,96.93 446.67,107.93 458.67,112.93 476.67,111.93 499.67,104.93 521.67,97.93 530.67,88.93 531.67,80.93 531.67,79.93"/>
		</g>
	</g>
</svg>