<?xml version="1.0"?>
<!DOCTYPE svg PUBLIC "-//W3C//DTD SVG 1.1//EN" "http://www.w3.org/Graphics/SVG/1.1/DTD/svg11.dtd">
<svg xmlns="http://www.w3.org/2000/svg" width="15cm" height="15cm">
	<g fill="#fff">
		<rect x="0" y="0" width="720" height="184"/>
		<g fill="none" stroke="#000" stroke-width="2">
			<polyline points="212.67,21.93 212.67,20.93 212.67,21.93 212.67,22.93 212.67,23.93 212.67,24.93 212.67,25.93 212.67,26.93 212.67,27.93 212.67,29.93 212.67,30.93 212.67,31.93 212.67,32.93 212.67,33.93 212.67,36.93 211.67,37.93 210.67,39.93 210.67,41.93 209.67,45.93 207.67,48.93 207.67,50.93 206.67,50.93 205.67,54.93 203.67,56.93 203.67,59.93 202.67,61.93 201.67,64.93 199.67,68.93 197.67,71.93 197.67,73.93 196.67,76.93 195.67,76.93 194.67,80.93 194.67,81.93 193.67,85.93 192.67,87.93 191.67,88.93 189.67,92.93 187.67,96.93 186.67,100.93 185.67,105.93 184.67,108.93 182.67,109.93 182.67,110.93 181.67,113.93 179.67,116.93 178.67,119.93 178.67,121.93 177.67,123.93 177.67,125.93 176.67,126.93 174.67,128.93 174.67,130.93 172.67,132.93 172.67,134.93 171.67,136.93 170.67,136.93 170.67,139.93 170.67,140.93 169.67,142.93 168.67,143.93 166.67,144.93 166.67,145.93 166.67,147.93 165.67,148.93 164.67,149.93 164.67,150.93 164.67,151.93 164.67,152.93 163.67,153.93 162.67,156.93 162.67,157.93 161.67,158.93 161.67,159.93 160.67,160.93 160.67,160.93 159.67,160.93 159.67,161.93 158.67,161.93 158.67,162.93 157.67,162.93 156.67,162.93 156.67,161.93 155.67,161.93 155.67,160.93 155.67,160.93 155.67,159.93 155.67,158.93 155.67,157.93 155.67,156.93 155.67,155.93 155.67,154.93"/>
			<polyline points="166.67,106.93 166.67,102.93 166.67,101.93 166.67,100.93 166.67,99.93 166.67,98.93 166.67,97.93 166.67,96.93 166.67,96.93 166.67,95.93 166.67,94.93 166.67,93.93 166.67,92.93 167.67,91.93 168.67,89.93 168.67,88.93 168.67,88.93 170.67,85.93 170.67,84.93 171.67,82.93 175.67,80.93 176.67,78.93 177.67,78.93 178.67,77.93 178.67,76.93 179.67,75.93 180.67,75.93 181.67,74.93 182.67,74.93 182.67,73.93 184.67,72.93 187.67,70.93 189.67,69.93 190.67,69.93 191.67,68.93 193.67,68.93 194.67,66.93 194.67,65.93 195.67,65.93 196.67,65.93 197.67,64.93 199.67,64.93 199.67,63.93 200.67,63.93 202.67,63.93 204.67,63.93 205.67,62.93 206.67,62.93 207.67,61.93 208.67,60.93 210.67,60.93 210.67,60.93 212.67,60.93 213.67,60.93 216.67,60.93 217.67,60.93 218.67,60.93 218.67,60.93 219.67,60.93 220.67,60.93 221.67,60.93 222.67,60.93 224.67,60.93 225.67,60.93 226.67,60.93 226.67,61.93 226.67,61.93 227.67,62.93 228.67,62.93 229.67,63.93 230.67,64.93 231.67,64.93 232.67,65.93 232.67,66.93 233.67,67.93 234.67,67.93 234.67,68.93 234.67,70.93 235.67,70.93 235.67,71.93 236.67,72.93 237.67,72.93 237.67,73.93 237.67,74.93 238.67,74.93 238.67,75.93 238.67,76.93 239.67,77.93 239.67,78.93 239.67,80.93 240.67,80.93 240.67,81.93 241.67,83.93 241.67,85.93 242.67,86.93 242.67,87.93 242.67,88.93 242.67,89.93 242.67,90.93 242.67,92.93 242.67,93.93 242.67,95.93 242.67,96.93 242.67,97.93 242.67,98.93 242.67,99.93 242.67,101.93 242.67,102.93 242.67,104.93 242.67,104.93 242.67,105.93 242.67,106.93 242.67,107.93 242.67,108.93 242.67,109.93 241.67,110.93 240.67,112.93 240.67,112.93 239.67,112.93 239.67,113.93 239.67,114.93 238.67,114.93 237.67,115.93 236.67,117.93 235.67,118.93 234.67,120.93 233.67,120.93 231.67,121.93 231.67,122.93 229.67,122.93 228.67,123.93 227.67,124.93 226.67,125.93 226.67,125.93 225.67,125.93 223.67,127.93 223.67,128.93 222.67,128.93 220.67,128.93 219.67,128.93 218.67,129.93 218.67,130.93 217.67,130.93 216.67,131.93 215.67,131.93 212.67,132.93 211.67,133.93 210.67,133.93 209.67,135.93 208.67,135.93 206.67,135.93 205.67,135.93 205.67,136.93 204.67,136.93 203.67,136.93 202.67,136.93 202.67,137.93 201.67,137.93 200.67,137.93 199.67,137.93 198.67,138.93 197.67,138.93 196.67,138.93 195.67,138.93 194.67,138.93 194.67,138.93 193.67,137.93 192.67,137.93 192.67,136.93 192.67,136.93 192.67,135.93 192.67,134.93 192.67,133.93 192.67,132.93 192.67,131.93 192.67,130.93 192.67,129.93 192.67,128.93 192.67,128.93 193.67,127.93 193.67,126.93 194.67,126.93 194.67,125.93 195.67,125.93 196.67,124.93 197.67,124.93 197.67,123.93 198.67,123.93 199.67,122.93 200.67,122.93 200.67,122.93 201.67,122.93 202.67,122.93 202.67,122.93 203.67,122.93 204.67,122.93 205.67,122.93 206.67,122.93 207.67,122.93 208.67,122.93 209.67,122.93 210.67,122.93 210.67,123.93 211.67,123.93 212.67,124.93 213.67,124.93 215.67,124.93 215.67,125.93 216.67,125.93 217.67,126.93 218.67,127.93 220.67,128.93 221.67,128.93 222.67,128.93 223.67,128.93 224.67,128.93 225.67,129.93 226.67,129.93 226.67,130.93 227.67,130.93 228.67,130.93 229.67,130.93 229.67,131.93 231.67,131.93 234.67,132.93 235.67,133.93 236.67,133.93 237.67,133.93 239.67,134.93 241.67,135.93 242.67,135.93 242.67,136.93 243.67,136.93 244.67,136.93 245.67,136.93 246.67,136.93 247.67,136.93 248.67,136.93 249.67,136.93 250.67,136.93 251.67,137.93 252.67,137.93 254.67,138.93 255.67,138.93 256.67,138.93 257.67,138.93 258.67,138.93 258.67,138.93 259.67,138.93 260.67,138.93 262.67,138.93 264.67,138.93 265.67,138.93 266.67,138.93 267.67,138.93 269.67,138.93 270.67,138.93 271.67,138.93 272.67,138.93 273.67,138.93 274.67,138.93 274.67,138.93 275.67,137.93 275.67,136.93 276.67,136.93 277.67,136.93 278.67,136.93 279.67,136.93 280.67,136.93 280.67,136.93 281.67,135.93 281.67,134.93 282.67,134.93 282.67,134.93 283.67,133.93 283.67,132.93 283.67,131.93 283.67,130.93 283.67,129.93 283.67,128.93 283.67,128.93 283.67,127.93 283.67,126.93 283.67,125.93 283.67,124.93 283.67,123.93 283.67,122.93 283.67,121.93 283.67,120.93 283.67,120.93 282.67,120.93 282.67,119.93 282.67,118.93 282.67,117.93 282.67,117.93 282.67,115.93 282.67,114.93 281.67,113.93 280.67,112.93 280.67,112.93 279.67,112.93 278.67,112.93 277.67,112.93 275.67,112.93 274.67,112.93 274.67,112.93 273.67,112.93 273.67,112.93 272.67,112.93 272.67,113.93 271.67,113.93 270.67,113.93 269.67,113.93 269.67,114.93 267.67,115.93 267.67,116.93 266.67,117.93 266.67,118.93 265.67,118.93 265.67,119.93 263.67,120.93 262.67,121.93 262.67,122.93 260.67,123.93 260.67,124.93 258.67,127.93 258.67,128.93 258.67,128.93 258.67,129.93 258.67,130.93 257.67,130.93 257.67,131.93 257.67,132.93 257.67,133.93 256.67,133.93 256.67,134.93 256.67,135.93 256.67,136.93 256.67,136.93 256.67,137.93 256.67,138.93 256.67,139.93 256.67,140.93 256.67,141.93 257.67,141.93 258.67,142.93 258.67,142.93 259.67,142.93 259.67,143.93 260.67,143.93 261.67,144.93 262.67,144.93 263.67,144.93 264.67,144.93 265.67,144.93 266.67,144.93 266.67,144.93 266.67,143.93 267.67,143.93 268.67,143.93 269.67,143.93 270.67,143.93 271.67,143.93 272.67,143.93 273.67,143.93 273.67,142.93 274.67,141.93 274.67,141.93 274.67,140.93 275.67,140.93 276.67,140.93 277.67,140.93 277.67,139.93 278.67,139.93 279.67,139.93 279.67,138.93 280.67,138.93 281.67,138.93 282.67,137.93 282.67,136.93 282.67,136.93 283.67,136.93 283.67,135.93 284.67,134.93 285.67,134.93 285.67,133.93 286.67,132.93 286.67,131.93 287.67,129.93 288.67,129.93 288.67,128.93 288.67,128.93 289.67,128.93 289.67,127.93 290.67,126.93 290.67,125.93 290.67,124.93 290.67,122.93 290.67,121.93 291.67,121.93 291.67,120.93 291.67,120.93 291.67,119.93 291.67,118.93 292.67,117.93 292.67,116.93 293.67,114.93 293.67,113.93 294.67,112.93 294.67,111.93 294.67,108.93 295.67,108.93 295.67,107.93 295.67,105.93 296.67,105.93 296.67,104.93 296.67,104.93 296.67,103.93 296.67,102.93 295.67,102.93 295.67,103.93 295.67,104.93 294.67,105.93 293.67,106.93 293.67,107.93 292.67,108.93 292.67,109.93 292.67,110.93 292.67,111.93 292.67,112.93 292.67,112.93 292.67,114.93 292.67,115.93 291.67,117.93 291.67,118.93 291.67,119.93 291.67,120.93 291.67,120.93 291.67,122.93 290.67,122.93 290.67,123.93 290.67,125.93 290.67,126.93 290.67,127.93 290.67,128.93 290.67,128.93 290.67,129.93 290.67,131.93 290.67,132.93 290.67,134.93 290.67,135.93 291.67,136.93 291.67,136.93 291.67,137.93 291.67,138.93 291.67,139.93 291.67,140.93 291.67,141.93 291.67,142.93 291.67,143.93 292.67,143.93 292.67,144.93 292.67,144.93 292.67,144.93 292.67,145.93 293.67,145.93 294.67,145.93 295.67,145.93 296.67,145.93 297.67,145.93 298.67,145.93 298.67,144.93 298.67,144.93 299.67,143.93 300.67,143.93 300.67,142.93 301.67,142.93 301.67,141.93 302.67,138.93 303.67,137.93 304.67,136.93 304.67,136.93 304.67,135.93 304.67,134.93 304.67,133.93 305.67,133.93 305.67,131.93 305.67,130.93 306.67,128.93 306.67,128.93 306.67,127.93 306.67,126.93 306.67,126.93 306.67,124.93 306.67,123.93 307.67,123.93 307.67,121.93 307.67,120.93 307.67,119.93 307.67,117.93 307.67,115.93 307.67,113.93 307.67,112.93 307.67,111.93 307.67,110.93 307.67,109.93 308.67,108.93 308.67,107.93 308.67,106.93 308.67,105.93 308.67,104.93 308.67,104.93 308.67,103.93 308.67,102.93 308.67,101.93 308.67,99.93 308.67,98.93 308.67,96.93 308.67,94.93 308.67,92.93 308.67,91.93 308.67,90.93 308.67,89.93 308.67,88.93 308.67,88.93 308.67,87.93 308.67,86.93 308.67,85.93 308.67,84.93 308.67,83.93 308.67,82.93 308.67,83.93 308.67,85.93 308.67,86.93 308.67,87.93 308.67,88.93 308.67,89.93 308.67,90.93 308.67,91.93 308.67,92.93 308.67,93.93 309.67,95.93 309.67,96.93 310.67,97.93 310.67,98.93 310.67,100.93 310.67,101.93 310.67,103.93 311.67,104.93 311.67,105.93 311.67,106.93 311.67,108.93 311.67,110.93 311.67,111.93 311.67,112.93 311.67,113.93 311.67,114.93 311.67,116.93 312.67,117.93 312.67,118.93 312.67,119.93 312.67,120.93 313.67,120.93 313.67,121.93 313.67,123.93 313.67,124.93 313.67,125.93 313.67,126.93 313.67,128.93 313.67,128.93 313.67,129.93 314.67,129.93 314.67,129.93 315.67,129.93 316.67,129.93 317.67,129.93 318.67,129.93 319.67,128.93 321.67,127.93 322.67,126.93 322.67,125.93 322.67,125.93 323.67,124.93 323.67,123.93 323.67,122.93 323.67,121.93 323.67,120.93 324.67,120.93 324.67,120.93 325.67,118.93 325.67,117.93 325.67,116.93 325.67,115.93 326.67,113.93 327.67,112.93 327.67,112.93 328.67,111.93 328.67,109.93 328.67,108.93 328.67,106.93 328.67,105.93 328.67,104.93 328.67,104.93 329.67,104.93 329.67,103.93 329.67,102.93 330.67,102.93 330.67,101.93 330.67,100.93 330.67,99.93 330.67,98.93 330.67,97.93 330.67,97.93 330.67,96.93 330.67,96.93 330.67,95.93 330.67,94.93 330.67,93.93 330.67,92.93 330.67,91.93 330.67,92.93 330.67,93.93 330.67,94.93 330.67,95.93 330.67,95.93 330.67,96.93 330.67,96.93 330.67,97.93 330.67,98.93 330.67,99.93 330.67,100.93 330.67,101.93 330.67,102.93 330.67,103.93 330.67,104.93 330.67,104.93 330.67,105.93 330.67,106.93 330.67,107.93 330.67,108.93 330.67,109.93 330.67,110.93 330.67,111.93 330.67,112.93 330.67,112.93 330.67,113.93 330.67,114.93 330.67,115.93 330.67,117.93 330.67,118.93 330.67,119.93 330.67,120.93 330.67,120.93 330.67,121.93 330.67,122.93 330.67,123.93 330.67,124.93 330.67,125.93 330.67,126.93 330.67,127.93 330.67,128.93 330.67,128.93 330.67,128.93 330.67,129.93 330.67,130.93 330.67,131.93 330.67,132.93 330.67,133.93 330.67,134.93 330.67,135.93 330.67,135.93 331.67,135.93 332.67,135.93 333.67,135.93 333.67,134.93 334.67,134.93 334.67,133.93 334.67,133.93 335.67,133.93 336.67,132.93 336.67,131.93 336.67,130.93 337.67,130.93 337.67,129.93 338.67,128.93 338.67,128.93 338.67,128.93 338.67,127.93 338.67,126.93 338.67,125.93 338.67,124.93 338.67,123.93 338.67,122.93 339.67,121.93 339.67,120.93 340.67,120.93 340.67,119.93 340.67,118.93 340.67,117.93 340.67,116.93 340.67,115.93 340.67,114.93 340.67,113.93 340.67,112.93 340.67,112.93 341.67,112.93 341.67,111.93 341.67,110.93 341.67,109.93 341.67,110.93 341.67,111.93 341.67,112.93 341.67,112.93 341.67,113.93 341.67,114.93 340.67,114.93 340.67,115.93 340.67,116.93 340.67,117.93 340.67,118.93 340.67,119.93 340.67,120.93 340.67,121.93 340.67,122.93 340.67,123.93 340.67,124.93 340.67,125.93 340.67,126.93 340.67,127.93 340.67,128.93 340.67,128.93 340.67,129.93 340.67,130.93 340.67,131.93 340.67,132.93 340.67,133.93 340.67,134.93 340.67,135.93 341.67,135.93 342.67,135.93 343.67,135.93 344.67,135.93 345.67,135.93 346.67,135.93 346.67,135.93 347.67,135.93 348.67,135.93 349.67,134.93 349.67,133.93 350.67,133.93 351.67,132.93 352.67,131.93 352.67,130.93 353.67,129.93 354.67,128.93 354.67,128.93 354.67,127.93 354.67,127.93 354.67,126.93 355.67,125.93 355.67,124.93 356.67,123.93 356.67,122.93 356.67,121.93 357.67,120.93 357.67,120.93 358.67,118.93 358.67,117.93 358.67,116.93 358.67,115.93 358.67,114.93 358.67,113.93 358.67,112.93 358.67,111.93 358.67,110.93 358.67,107.93 359.67,107.93 360.67,107.93 360.67,106.93 360.67,104.93 361.67,104.93 361.67,102.93 361.67,101.93 361.67,100.93 361.67,99.93 361.67,98.93 361.67,97.93 361.67,96.93 361.67,96.93 361.67,95.93 361.67,96.93 361.67,96.93 361.67,97.93 361.67,98.93 361.67,99.93 361.67,100.93 362.67,102.93 362.67,102.93 362.67,103.93 362.67,104.93 362.67,104.93 362.67,105.93 362.67,106.93 362.67,107.93 362.67,108.93 362.67,109.93 362.67,110.93 362.67,111.93 362.67,112.93 362.67,112.93 362.67,113.93 362.67,114.93 362.67,116.93 362.67,117.93 362.67,118.93 362.67,119.93 362.67,120.93 363.67,120.93 363.67,121.93 363.67,122.93 363.67,124.93 363.67,125.93 363.67,126.93 363.67,127.93 363.67,128.93 363.67,129.93 363.67,130.93 363.67,131.93 363.67,132.93 363.67,133.93 363.67,134.93 363.67,135.93 363.67,136.93 363.67,137.93 363.67,139.93 363.67,140.93 363.67,142.93 363.67,143.93 363.67,144.93 363.67,145.93 363.67,146.93 363.67,147.93 363.67,148.93 363.67,149.93 364.67,150.93 364.67,151.93 364.67,152.93 364.67,152.93 364.67,153.93 364.67,155.93 364.67,156.93 364.67,157.93 364.67,158.93 364.67,159.93 364.67,160.93 364.67,160.93 364.67,161.93 364.67,162.93 364.67,163.93 364.67,164.93 364.67,165.93 363.67,165.93 362.67,164.93 362.67,163.93 362.67,162.93 362.67,161.93 362.67,160.93 362.67,160.93 362.67,159.93 362.67,158.93 362.67,157.93 362.67,156.93 362.67,156.93 362.67,154.93 362.67,153.93 362.67,152.93 362.67,151.93 362.67,150.93 363.67,149.93 363.67,148.93 363.67,147.93 363.67,146.93 363.67,145.93 364.67,144.93 364.67,144.93 365.67,144.93 365.67,142.93 365.67,141.93 367.67,137.93 370.67,135.93 370.67,133.93 370.67,132.93 370.67,131.93 372.67,129.93 372.67,128.93 373.67,128.93 374.67,128.93 375.67,127.93 375.67,126.93 380.67,120.93 381.67,119.93 382.67,119.93 382.67,118.93 383.67,118.93 388.67,114.93 389.67,114.93 390.67,114.93 390.67,113.93 391.67,113.93 392.67,113.93 392.67,112.93 393.67,112.93 394.67,112.93 394.67,112.93 395.67,111.93 396.67,110.93 397.67,110.93 397.67,109.93 398.67,109.93 399.67,109.93 399.67,108.93 399.67,107.93 400.67,107.93 400.67,106.93 401.67,106.93 401.67,105.93 401.67,104.93 401.67,104.93 400.67,104.93 399.67,103.93 398.67,103.93 398.67,102.93 397.67,102.93 397.67,101.93 396.67,101.93 395.67,101.93 394.67,101.93 394.67,101.93 393.67,101.93 393.67,102.93 393.67,103.93 392.67,104.93 392.67,104.93"/>
		</g>
	</g>
</svg>