<?xml version="1.0"?>
<!DOCTYPE svg PUBLIC "-//W3C//DTD SVG 1.1//EN" "http://www.w3.org/Graphics/SVG/1.1/DTD/svg11.dtd">
<svg xmlns="http://www.w3.org/2000/svg" width="15cm" height="15cm">
	<g fill="#fff">
		<rect x="0" y="0" width="720" height="184"/>
		<g fill="none" stroke="#000" stroke-width="2">
			<polyline points="210.67,41.93 210.67,42.93 210.67,45.93 212.67,53.93 212.67,63.93 211.67,81.93 201.67,110.93 193.67,129.93 184.67,146.93 179.67,151.93 175.67,154.93 174.67,154.93"/>
			<polyline points="168.67,104.93 168.67,103.93 173.67,92.93 188.67,81.93 205.67,72.93 222.67,64.93 234.67,63.93 238.67,64.93 242.67,71.93 243.67,78.93 244.67,87.93 240.67,98.93 231.67,109.93 221.67,117.93 215.67,120.93 209.67,120.93 206.67,119.93 206.67,118.93 207.67,119.93 216.67,124.93 226.67,128.93 238.67,129.93 249.67,129.93 258.67,129.93 262.67,129.93 264.67,129.93 264.67,128.93 265.67,123.93 265.67,117.93 265.67,112.93 265.67,105.93 265.67,101.93 264.67,101.93 261.67,102.93 257.67,108.93 255.67,117.93 255.67,121.93 256.67,127.93 260.67,130.93 266.67,133.93 273.67,133.93 278.67,131.93 284.67,123.93 287.67,114.93 287.67,107.93 283.67,102.93 281.67,100.93 280.67,100.93 279.67,100.93 279.67,101.93 281.67,104.93 284.67,106.93 289.67,109.93 292.67,114.93 296.67,121.93 297.67,131.93 297.67,143.93 297.67,151.93 294.67,154.93 290.67,155.93 286.67,155.93 285.67,152.93 283.67,151.93 283.67,148.93 284.67,146.93 288.67,144.93 294.67,139.93 306.67,134.93 317.67,128.93 329.67,120.93 340.67,112.93 346.67,102.93 347.67,92.93 347.67,88.93 345.67,86.93 341.67,88.93 340.67,96.93 340.67,114.93 340.67,136.93 342.67,149.93 344.67,154.93 346.67,154.93 348.67,152.93 353.67,143.93 360.67,124.93 363.67,112.93 364.67,104.93 363.67,104.93 356.67,110.93 347.67,119.93 341.67,128.93 338.67,135.93 338.67,137.93 339.67,137.93 359.67,136.93 375.67,130.93 398.67,127.93 410.67,128.93 411.67,135.93 410.67,143.93 409.67,146.93 410.67,146.93 410.67,145.93 413.67,131.93 416.67,117.93 418.67,107.93 424.67,105.93 429.67,111.93 432.67,128.93 432.67,141.93 431.67,153.93 426.67,164.93 418.67,173.93 405.67,177.93 392.67,180.93 382.67,180.93 378.67,179.93 378.67,178.93 378.67,175.93 378.67,170.93 383.67,163.93 396.67,156.93 410.67,149.93 426.67,143.93 454.67,140.93 480.67,138.93 498.67,134.93 503.67,131.93 504.67,130.93 501.67,130.93 497.67,131.93 490.67,134.93 485.67,135.93"/>
		</g>
	</g>
</svg>