<?xml version="1.0"?>
<!DOCTYPE svg PUBLIC "-//W3C//DTD SVG 1.1//EN" "http://www.w3.org/Graphics/SVG/1.1/DTD/svg11.dtd">
<svg xmlns="http://www.w3.org/2000/svg" width="15cm" height="15cm">
	<g fill="#fff">
		<rect x="0" y="0" width="720" height="184"/>
		<g fill="none" stroke="#000" stroke-width="2">
			<polyline points="249.67,51.93 249.67,52.93 248.67,52.93 247.67,53.93 246.67,53.93 245.67,54.93 245.67,55.93 244.67,55.93 243.67,55.93 242.67,56.93 242.67,56.93 241.67,56.93 241.67,57.93 240.67,57.93 239.67,57.93 238.67,58.93 238.67,60.93 237.67,60.93 235.67,61.93 235.67,63.93 234.67,63.93 234.67,64.93 232.67,67.93 231.67,70.93 231.67,72.93 229.67,73.93 229.67,74.93 227.67,76.93 226.67,78.93 225.67,80.93 225.67,81.93 224.67,83.93 224.67,85.93 223.67,87.93 223.67,88.93 221.67,89.93 220.67,90.93 220.67,92.93 220.67,93.93 220.67,94.93 219.67,95.93 218.67,96.93 218.67,96.93 218.67,98.93 218.67,99.93 218.67,100.93 217.67,101.93 217.67,102.93 216.67,103.93 216.67,104.93 216.67,104.93 216.67,105.93 216.67,106.93 216.67,107.93 216.67,108.93"/>
			<polyline points="216.67,108.93 216.67,109.93 215.67,109.93 215.67,110.93 214.67,110.93 213.67,110.93 213.67,111.93 212.67,111.93 211.67,111.93 210.67,112.93 210.67,112.93 209.67,113.93 208.67,113.93 207.67,114.93 207.67,115.93 206.67,115.93 205.67,115.93 204.67,115.93 203.67,116.93 203.67,117.93 202.67,117.93 202.67,118.93 202.67,118.93 202.67,119.93 202.67,120.93 201.67,120.93 201.67,120.93 201.67,121.93 200.67,121.93 200.67,122.93 200.67,123.93 200.67,124.93 199.67,124.93 199.67,125.93 198.67,126.93 198.67,127.93 198.67,128.93 198.67,128.93 197.67,128.93 197.67,129.93"/>
			<polyline points="194.67,134.93 194.67,136.93 194.67,135.93 194.67,134.93 194.67,135.93 194.67,136.93 194.67,136.93 194.67,137.93 192.67,140.93"/>
			<polyline points="122.67,101.93 122.67,101.93 122.67,100.93 124.67,100.93 125.67,99.93 126.67,98.93 127.67,98.93 128.67,98.93 129.67,98.93 130.67,98.93 130.67,97.93 130.67,97.93 131.67,96.93 132.67,96.93 133.67,96.93 134.67,96.93 135.67,96.93 136.67,95.93 137.67,94.93 138.67,94.93 138.67,94.93 139.67,93.93 141.67,92.93 142.67,92.93 142.67,91.93 144.67,91.93 146.67,90.93 147.67,90.93 148.67,88.93 149.67,88.93 151.67,88.93 152.67,87.93 153.67,87.93 154.67,87.93 155.67,87.93 157.67,86.93 158.67,85.93 160.67,83.93 162.67,83.93 164.67,81.93 167.67,80.93 169.67,80.93 170.67,80.93 172.67,79.93 173.67,79.93 176.67,77.93 178.67,77.93 180.67,77.93 181.67,76.93 184.67,75.93 186.67,74.93 189.67,73.93 190.67,73.93 193.67,72.93 195.67,71.93 196.67,70.93 198.67,70.93 201.67,70.93 202.67,69.93 205.67,68.93 208.67,68.93 210.67,67.93 212.67,67.93 215.67,66.93 218.67,65.93 220.67,64.93 221.67,64.93 226.67,62.93 226.67,62.93 229.67,61.93 232.67,60.93 234.67,60.93 236.67,59.93 239.67,58.93 240.67,58.93 242.67,57.93 245.67,56.93 247.67,56.93 249.67,56.93 250.67,56.93 251.67,55.93 255.67,55.93 258.67,55.93 260.67,54.93 261.67,54.93 263.67,54.93 265.67,53.93 266.67,51.93 268.67,51.93 270.67,51.93 271.67,51.93 273.67,51.93 274.67,51.93 275.67,51.93 278.67,49.93 279.67,49.93 281.67,49.93 282.67,49.93 283.67,49.93 285.67,49.93 286.67,49.93 288.67,49.93 290.67,48.93 291.67,48.93 294.67,48.93 296.67,48.93 298.67,48.93 299.67,48.93 300.67,48.93 302.67,48.93 304.67,48.93 305.67,48.93 307.67,48.93 310.67,48.93 312.67,48.93 313.67,48.93 314.67,48.93 315.67,48.93 316.67,48.93 318.67,48.93 319.67,48.93 320.67,48.93 322.67,48.93 322.67,48.93 324.67,48.93 324.67,47.93 326.67,47.93 327.67,47.93 328.67,46.93 329.67,46.93 330.67,46.93 330.67,46.93 331.67,46.93 331.67,45.93 332.67,45.93 331.67,45.93 330.67,46.93 330.67,47.93 329.67,47.93 328.67,47.93 328.67,48.93 327.67,48.93 326.67,48.93 325.67,48.93 323.67,49.93 322.67,49.93 322.67,50.93 321.67,50.93 320.67,51.93 319.67,51.93 318.67,52.93 317.67,53.93 316.67,53.93 316.67,54.93 315.67,54.93 314.67,54.93 314.67,55.93 313.67,55.93 312.67,55.93 312.67,56.93 311.67,56.93 310.67,56.93 309.67,56.93 308.67,57.93 307.67,57.93 306.67,57.93 306.67,58.93 305.67,58.93 305.67,59.93 304.67,59.93 303.67,60.93 302.67,60.93 301.67,61.93 300.67,61.93 300.67,62.93 299.67,63.93 298.67,63.93 298.67,63.93 297.67,63.93 296.67,64.93 295.67,64.93 295.67,64.93 294.67,65.93 292.67,65.93 290.67,66.93 290.67,67.93 289.67,68.93 288.67,68.93 287.67,68.93 286.67,69.93 285.67,70.93 284.67,70.93 283.67,70.93 282.67,71.93 281.67,72.93 280.67,72.93 278.67,73.93 277.67,73.93 276.67,74.93 274.67,74.93 274.67,75.93 272.67,77.93 271.67,77.93 269.67,78.93 269.67,79.93 267.67,79.93 266.67,79.93 265.67,80.93 264.67,80.93 262.67,82.93 261.67,82.93 260.67,82.93 260.67,83.93 259.67,84.93 258.67,84.93 258.67,85.93 257.67,85.93 256.67,87.93 254.67,88.93 253.67,88.93 253.67,89.93 252.67,90.93 251.67,91.93 251.67,92.93 250.67,94.93 250.67,95.93 250.67,96.93 250.67,97.93 250.67,99.93 250.67,100.93 250.67,102.93 250.67,102.93 250.67,103.93 251.67,103.93 251.67,104.93 252.67,104.93 252.67,104.93 253.67,105.93 254.67,105.93 254.67,106.93 255.67,106.93 255.67,107.93 256.67,107.93 257.67,107.93 258.67,107.93 258.67,107.93 259.67,107.93 261.67,107.93 262.67,107.93 264.67,107.93 265.67,107.93 266.67,107.93 266.67,107.93 267.67,107.93 270.67,107.93 272.67,107.93 273.67,107.93 274.67,107.93 275.67,106.93 276.67,105.93 278.67,105.93 279.67,105.93 281.67,105.93 281.67,104.93 282.67,104.93 283.67,104.93 283.67,103.93 285.67,102.93 286.67,102.93 287.67,101.93 288.67,101.93 289.67,101.93 289.67,100.93 290.67,99.93 291.67,99.93 292.67,98.93 293.67,98.93 294.67,98.93 294.67,97.93 295.67,97.93 296.67,96.93 297.67,96.93 298.67,96.93 299.67,95.93 300.67,95.93 301.67,95.93 302.67,94.93 304.67,93.93 305.67,92.93 306.67,91.93 306.67,91.93 307.67,91.93 307.67,90.93 308.67,90.93 309.67,89.93 310.67,89.93 311.67,89.93 311.67,88.93 312.67,88.93"/>
			<polyline points="300.67,93.93 299.67,93.93 298.67,94.93 298.67,95.93 298.67,95.93 297.67,95.93 296.67,95.93 295.67,96.93 293.67,96.93 293.67,97.93 291.67,97.93 291.67,98.93 290.67,98.93 290.67,99.93 289.67,99.93 289.67,100.93 288.67,100.93 287.67,100.93 287.67,101.93 286.67,101.93 285.67,102.93 284.67,102.93 283.67,102.93 282.67,103.93 282.67,104.93 281.67,104.93 280.67,104.93 279.67,104.93 279.67,105.93 278.67,105.93 278.67,106.93 277.67,106.93 276.67,106.93 275.67,106.93 275.67,107.93 274.67,108.93 274.67,109.93 273.67,109.93 273.67,110.93 272.67,110.93 271.67,111.93 272.67,111.93 273.67,111.93 274.67,111.93 274.67,110.93 274.67,110.93 275.67,110.93 276.67,110.93 277.67,109.93 278.67,109.93 279.67,108.93 279.67,107.93 280.67,107.93 281.67,107.93 282.67,107.93 282.67,106.93 282.67,106.93 283.67,106.93 283.67,105.93 284.67,105.93 285.67,105.93 286.67,105.93 286.67,104.93 287.67,104.93 288.67,104.93 289.67,103.93 290.67,103.93 290.67,103.93 291.67,103.93 291.67,102.93 292.67,102.93 292.67,101.93 293.67,101.93 294.67,101.93 295.67,101.93 296.67,101.93"/>
			<polyline points="297.67,99.93 296.67,99.93 295.67,99.93 295.67,100.93 295.67,101.93 294.67,101.93 293.67,101.93 293.67,102.93 293.67,103.93 294.67,103.93 295.67,103.93 296.67,103.93 297.67,103.93 298.67,103.93 298.67,102.93 298.67,102.93 298.67,101.93 299.67,101.93 300.67,101.93 301.67,101.93 302.67,100.93 303.67,100.93 303.67,99.93 304.67,98.93 305.67,98.93 306.67,98.93 306.67,98.93 306.67,97.93 307.67,97.93 308.67,97.93 309.67,97.93 310.67,97.93 310.67,96.93 309.67,96.93 308.67,96.93 308.67,97.93 308.67,98.93 308.67,99.93 309.67,100.93 310.67,100.93 311.67,100.93 312.67,100.93 313.67,100.93 314.67,100.93 314.67,100.93 315.67,100.93 316.67,100.93 317.67,100.93 318.67,100.93 319.67,100.93 320.67,100.93 321.67,100.93 322.67,100.93 322.67,100.93 323.67,100.93 324.67,100.93 325.67,100.93 326.67,99.93 327.67,99.93 327.67,98.93 328.67,98.93 329.67,98.93 330.67,98.93 330.67,97.93 330.67,97.93 331.67,96.93 332.67,96.93 333.67,96.93 334.67,96.93 335.67,96.93 336.67,95.93 336.67,94.93 337.67,94.93 338.67,94.93 338.67,94.93 338.67,93.93 339.67,92.93 340.67,92.93 340.67,91.93 341.67,91.93 342.67,91.93 342.67,90.93 343.67,90.93 342.67,90.93 342.67,91.93 341.67,91.93 340.67,91.93 339.67,92.93 339.67,93.93 338.67,93.93 338.67,94.93 338.67,95.93 337.67,95.93 337.67,96.93 337.67,96.93 337.67,97.93 337.67,99.93 337.67,100.93 337.67,101.93 337.67,102.93 337.67,103.93 337.67,104.93 337.67,104.93 337.67,105.93 337.67,106.93 336.67,107.93 336.67,108.93 336.67,109.93 335.67,109.93 335.67,110.93 335.67,111.93 335.67,112.93 335.67,112.93 335.67,113.93 334.67,113.93 334.67,114.93 334.67,115.93 333.67,116.93 333.67,117.93 333.67,118.93 332.67,118.93 332.67,119.93 332.67,120.93 332.67,120.93 332.67,121.93 332.67,122.93 332.67,123.93 332.67,124.93 332.67,125.93 332.67,126.93 332.67,127.93 332.67,128.93 333.67,128.93 333.67,128.93 333.67,128.93 333.67,127.93 334.67,126.93 335.67,126.93 336.67,126.93 337.67,126.93 338.67,125.93 338.67,124.93 338.67,124.93 339.67,124.93 339.67,123.93 340.67,123.93 341.67,123.93 342.67,122.93 343.67,121.93 344.67,121.93 345.67,121.93 345.67,120.93 346.67,120.93 346.67,120.93 347.67,120.93 348.67,119.93 349.67,119.93 350.67,118.93 351.67,118.93 351.67,117.93 352.67,117.93 353.67,117.93 354.67,117.93 354.67,116.93 354.67,115.93 355.67,115.93 355.67,114.93 356.67,114.93 357.67,113.93 358.67,113.93 358.67,112.93 359.67,112.93 360.67,112.93 360.67,111.93 362.67,110.93 362.67,110.93 363.67,108.93 364.67,107.93 365.67,107.93 366.67,107.93 367.67,106.93 367.67,105.93 368.67,105.93 369.67,105.93 370.67,104.93 370.67,104.93 370.67,103.93 371.67,103.93 372.67,102.93 372.67,101.93 373.67,101.93 374.67,101.93 375.67,101.93 375.67,100.93 376.67,99.93 376.67,98.93 377.67,98.93 378.67,98.93 378.67,98.93 378.67,97.93 378.67,96.93 378.67,96.93 377.67,96.93 377.67,97.93 376.67,97.93 375.67,97.93 374.67,97.93 373.67,98.93 373.67,99.93 372.67,99.93 372.67,100.93 371.67,100.93 370.67,100.93 370.67,100.93 370.67,101.93 369.67,102.93 368.67,102.93 367.67,103.93 366.67,103.93 366.67,104.93 366.67,104.93 365.67,104.93 364.67,104.93 363.67,105.93 362.67,105.93 362.67,106.93 361.67,107.93 361.67,108.93 360.67,108.93 360.67,109.93 359.67,109.93 358.67,110.93 357.67,110.93 357.67,111.93 357.67,112.93 357.67,112.93 357.67,113.93 357.67,114.93 358.67,113.93 359.67,113.93 360.67,113.93 361.67,113.93 361.67,112.93 362.67,112.93 362.67,112.93 363.67,112.93 363.67,111.93 364.67,111.93 365.67,111.93 365.67,110.93 366.67,110.93 367.67,110.93 367.67,109.93 368.67,108.93 369.67,108.93 370.67,108.93 370.67,107.93 370.67,107.93 371.67,107.93 371.67,106.93 372.67,105.93 373.67,105.93 374.67,105.93 375.67,104.93 376.67,104.93 377.67,103.93 378.67,103.93 378.67,103.93 378.67,102.93 379.67,102.93 380.67,101.93 381.67,100.93 382.67,100.93 383.67,99.93 383.67,100.93 382.67,100.93 382.67,101.93 381.67,101.93 381.67,102.93 380.67,103.93 380.67,104.93 380.67,104.93 380.67,105.93 380.67,106.93 380.67,107.93 380.67,108.93 380.67,109.93 380.67,110.93 380.67,111.93 381.67,111.93 381.67,112.93 382.67,112.93 382.67,112.93 383.67,112.93 384.67,112.93 385.67,112.93 386.67,112.93 386.67,112.93 387.67,112.93 388.67,112.93 389.67,112.93 390.67,112.93 391.67,112.93 392.67,112.93 393.67,112.93 394.67,112.93 395.67,112.93 396.67,111.93 398.67,110.93 399.67,109.93 400.67,109.93 401.67,109.93 402.67,108.93 402.67,107.93 403.67,106.93 405.67,106.93 407.67,105.93 409.67,104.93 410.67,103.93 411.67,103.93 412.67,103.93 413.67,102.93 414.67,101.93 415.67,100.93 417.67,100.93 418.67,100.93 418.67,99.93 420.67,98.93 421.67,96.93 422.67,96.93 424.67,96.93 425.67,96.93 426.67,95.93 427.67,95.93 427.67,94.93 429.67,94.93 431.67,93.93 432.67,91.93 434.67,91.93 434.67,90.93 436.67,89.93 437.67,89.93 439.67,89.93 439.67,88.93 440.67,88.93 442.67,88.93 442.67,87.93 442.67,87.93 444.67,87.93 445.67,87.93 445.67,86.93 445.67,85.93 446.67,85.93 447.67,85.93 448.67,84.93 449.67,84.93 450.67,84.93 450.67,84.93 450.67,83.93 451.67,83.93 450.67,83.93 450.67,83.93 449.67,83.93 448.67,84.93 447.67,85.93 446.67,85.93 445.67,86.93 444.67,86.93 443.67,86.93 443.67,87.93 442.67,87.93 442.67,88.93 440.67,88.93 439.67,88.93 439.67,89.93 438.67,89.93 437.67,90.93 436.67,90.93 435.67,90.93 434.67,90.93 434.67,91.93 434.67,92.93 434.67,93.93 433.67,93.93 432.67,93.93 432.67,94.93 431.67,94.93 430.67,94.93 431.67,94.93 430.67,94.93"/>
		</g>
	</g>
</svg>