<?xml version="1.0"?>
<!DOCTYPE svg PUBLIC "-//W3C//DTD SVG 1.1//EN" "http://www.w3.org/Graphics/SVG/1.1/DTD/svg11.dtd">
<svg xmlns="http://www.w3.org/2000/svg" width="15cm" height="15cm">
	<g fill="#fff">
		<rect x="0" y="0" width="720" height="184"/>
		<g fill="none" stroke="#000" stroke-width="2">
			<polyline points="253,30.7 253,31.7 253,32.7 252,32.7 251,33.7 251,34.7 250,34.7 250,35.7 249,35.7 248,36.7 247,37.7 247,38.7 246,39.7 245,40.7 245,41.7 244,42.7 243,43.7 242,44.7 242,45.7 241,45.7 241,46.7 241,47.7 240,48.7 239,48.7 238,50.7 238,51.7 237,51.7 236,53.7 235,54.7 234,55.7 234,56.7 234,57.7 233,57.7 232,59.7 230,61.7 230,62.7 229,63.7 228,64.7 227,65.7 227,67.7 225,69.7 225,70.7 223,70.7 221,73.7 220,75.7 220,76.7 218,78.7 217,80.7 217,82.7 212,85.7 212,86.7 211,88.7 210,89.7 209,91.7 207,92.7 205,95.7 205,96.7 203,97.7 202,99.7 202,101.7 199,103.7 197,105.7 196,107.7 195,108.7 194,110.7 193,111.7 192,112.7 191,113.7 190,114.7 190,117.7 189,118.7 187,118.7 187,120.7 185,122.7 183,122.7 183,123.7 181,125.7 180,125.7 180,127.7 179,128.7 178,128.7 177,129.7 177,130.7 176,130.7 175,132.7 175,133.7 174,133.7 173,134.7 172,136.7 171,136.7 171,137.7 171,138.7 170,138.7 170,139.7 170,138.7 170,137.7 170,136.7 170,135.7 170,134.7 170,133.7"/>
			<polyline points="102,64.7 102,63.7 103,63.7 104,63.7 105,63.7 106,63.7 107,63.7 108,63.7 110,62.7 110,61.7 111,61.7 112,60.7 114,60.7 115,60.7 116,60.7 117,60.7 118,59.7 118,58.7 120,57.7 122,57.7 124,57.7 124,56.7 126,56.7 127,56.7 129,55.7 130,54.7 132,54.7 135,53.7 137,53.7 138,53.7 140,53.7 142,52.7 145,51.7 148,51.7 149,51.7 152,50.7 155,49.7 158,49.7 160,49.7 164,49.7 167,48.7 168,48.7 171,48.7 175,48.7 178,48.7 182,47.7 185,46.7 189,45.7 193,45.7 195,44.7 203,44.7 207,44.7 211,43.7 214,43.7 218,43.7 222,42.7 226,42.7 230,41.7 233,41.7 236,41.7 240,41.7 244,40.7 247,40.7 251,40.7 255,40.7 259,39.7 262,39.7 266,39.7 270,38.7 274,38.7 276,38.7 280,38.7 283,38.7 286,38.7 289,38.7 292,38.7 296,38.7 298,38.7 300,38.7 302,38.7 305,38.7 307,38.7 308,38.7 311,38.7 313,38.7 314,38.7 316,38.7 317,38.7 318,38.7 320,38.7 321,38.7 322,38.7 323,38.7 324,38.7 325,38.7 326,38.7 326,39.7 326,40.7 324,40.7 323,42.7 321,43.7 320,43.7 320,44.7 318,44.7 317,45.7 316,46.7 314,46.7 313,46.7 311,46.7 310,48.7 308,48.7 308,49.7 307,49.7 305,49.7 304,50.7 302,50.7 302,51.7 301,52.7 299,52.7 298,53.7 296,53.7 295,54.7 294,55.7 292,55.7 290,56.7 288,56.7 286,57.7 285,58.7 284,58.7 282,59.7 280,60.7 278,60.7 277,60.7 275,61.7 273,62.7 272,63.7 269,63.7 267,63.7 266,64.7 264,65.7 261,66.7 259,66.7 258,66.7 255,67.7 253,67.7 251,67.7 248,69.7 245,69.7 243,70.7"/>
			<polyline points="218,86.7 220,86.7 222,85.7 224,85.7 227,85.7 229,83.7 231,83.7 232,82.7 234,82.7 235,82.7 236,82.7 237,82.7 238,81.7 240,81.7 241,80.7 243,79.7 244,79.7 245,79.7 246,79.7 247,79.7 248,79.7 249,79.7 250,78.7 251,78.7 252,77.7 253,77.7 254,77.7 255,77.7 256,76.7 257,76.7 258,76.7 259,75.7 260,75.7 261,75.7 262,75.7 262,74.7 263,74.7 264,74.7 265,74.7 266,74.7 267,74.7 267,73.7 268,73.7 268,72.7 269,72.7 269,73.7 268,73.7 268,74.7 268,75.7 267,76.7 266,77.7 266,78.7 265,78.7 265,79.7 264,79.7 263,80.7 263,81.7 263,82.7 262,83.7 261,83.7 261,84.7 261,85.7 260,86.7 259,87.7 258,88.7 257,89.7 257,91.7 256,91.7 256,92.7 255,93.7 254,94.7 253,95.7 253,96.7 252,96.7 251,97.7 251,98.7 250,99.7 250,100.7 249,101.7 248,102.7 248,103.7 248,104.7 248,105.7 247,105.7 247,106.7 247,107.7 247,108.7 247,109.7 248,109.7 249,109.7 250,109.7 250,108.7 252,108.7 253,107.7 254,107.7 255,107.7 255,106.7 256,106.7 257,105.7 258,105.7 259,104.7 260,104.7 262,104.7 263,103.7 264,102.7 265,102.7 266,101.7 267,101.7 268,100.7 269,100.7 270,100.7 270,99.7 272,99.7 273,99.7 273,98.7 275,98.7 276,98.7 276,97.7 277,97.7 278,97.7 279,97.7 279,98.7 279,99.7 279,100.7 279,101.7 279,102.7 279,103.7 280,103.7 281,103.7 281,104.7 281,105.7 282,105.7 283,105.7 284,105.7 285,105.7 286,105.7 287,105.7 288,105.7 289,105.7 290,105.7 291,105.7 292,105.7 293,105.7 294,105.7 295,105.7 296,105.7 297,105.7 298,105.7 298,104.7 299,104.7 300,104.7 301,104.7 302,104.7 303,104.7 303,103.7 304,103.7 305,103.7 306,103.7 307,103.7 308,103.7 309,103.7 309,104.7 309,105.7 310,105.7 310,106.7 310,107.7 310,108.7 311,108.7 311,109.7 311,110.7 311,111.7 311,112.7 311,113.7 311,114.7 312,115.7 313,115.7 313,116.7 313,117.7 314,117.7 314,118.7 315,118.7 316,118.7 316,119.7 316,120.7 317,120.7 317,121.7 318,121.7 319,121.7 320,121.7 321,121.7 322,121.7 323,121.7 324,121.7 325,121.7 326,121.7 327,121.7 328,121.7 329,121.7 330,121.7 330,120.7 330,119.7 331,119.7 332,119.7 333,119.7 334,118.7 335,118.7 335,117.7 336,117.7 337,117.7 338,117.7 339,117.7 340,117.7 340,116.7 341,116.7 341,115.7 342,115.7 343,114.7 344,114.7 345,114.7 345,113.7 346,112.7 347,112.7 348,112.7 349,111.7 350,111.7 351,110.7 351,109.7 352,109.7 353,109.7 354,108.7 355,107.7 357,106.7 358,106.7 358,105.7 359,105.7 360,104.7 361,104.7 362,103.7 362,102.7 364,101.7 365,101.7 366,101.7 367,100.7 368,99.7 369,99.7 370,98.7 371,98.7 372,98.7 373,98.7 374,98.7 374,97.7 375,97.7 375,96.7 376,96.7 377,96.7 378,96.7 378,95.7 379,95.7 380,95.7 381,95.7 382,95.7 383,95.7 384,95.7 385,95.7 386,95.7 387,95.7 388,95.7 389,96.7 390,96.7 391,97.7 392,97.7 393,97.7 394,98.7 395,99.7 396,100.7 397,100.7 399,100.7 400,100.7 401,100.7 403,101.7 403,102.7 405,103.7 406,103.7 407,103.7 408,103.7 409,103.7 410,104.7 411,104.7 412,105.7 413,105.7 414,106.7 415,107.7 416,107.7 417,107.7 418,107.7 418,108.7 419,108.7 420,108.7 421,108.7 422,108.7 423,108.7 424,107.7 424,106.7 426,106.7 427,106.7 428,106.7 429,106.7 430,105.7 430,104.7 432,104.7 433,103.7 433,102.7 433,101.7 434,101.7 435,101.7 435,100.7 436,100.7 437,100.7 438,99.7 438,98.7 439,98.7 440,98.7 441,98.7 442,98.7 443,98.7"/>
		</g>
	</g>
</svg>