<?xml version="1.0"?>
<!DOCTYPE svg PUBLIC "-//W3C//DTD SVG 1.1//EN" "http://www.w3.org/Graphics/SVG/1.1/DTD/svg11.dtd">
<svg xmlns="http://www.w3.org/2000/svg" width="15cm" height="15cm">
	<g fill="#fff">
		<rect x="0" y="0" width="720" height="184"/>
		<g fill="none" stroke="#000" stroke-width="2">
			<polyline points="125,61.93 126,61.93 127,59.93 128,59.93 129,59.93 130,59.93 131,58.93 132,58.93 132,57.93 133,57.93 133,56.93 134,56.93 135,56.93 136,56.93 137,56.93 138,56.93 139,55.93 140,55.93 140,55.93 141,54.93 142,54.93 142,53.93 143,53.93 144,53.93 145,53.93 146,52.93 147,52.93 148,52.93 148,52.93 149,52.93 150,52.93 151,53.93 152,54.93 155,55.93 156,56.93 156,57.93 157,57.93 159,57.93 159,58.93 161,59.93 161,61.93 162,61.93 162,62.93 164,64.93 165,64.93 167,65.93 167,66.93 168,67.93 170,68.93 170,70.93 171,71.93 172,72.93 173,72.93 173,73.93 175,75.93 176,77.93 177,79.93 179,80.93 180,81.93 180,82.93 180,83.93 182,85.93 183,85.93 183,87.93 184,88.93 185,88.93 185,90.93 186,91.93 187,93.93 188,96.93 189,97.93 190,99.93 191,101.93 192,103.93 193,104.93 193,105.93 195,106.93 195,108.93 196,109.93 196,111.93 197,114.93 197,115.93 199,117.93 200,120.93 200,122.93 200,123.93 201,124.93 202,126.93 202,127.93 203,129.93 204,131.93 204,132.93 204,133.93 204,135.93 206,136.93 206,136.93 206,138.93 206,139.93 206,140.93 207,140.93 208,141.93 208,142.93 209,144.93 209,144.93 209,145.93 210,146.93 210,147.93 211,148.93 211,149.93 211,150.93 211,151.93 212,151.93 212,152.93 212,152.93 212,151.93 212,150.93 212,149.93 212,148.93 212,147.93 212,146.93 212,145.93 212,144.93 212,144.93 212,143.93 212,141.93 212,140.93 212,138.93 212,136.93 212,136.93 212,135.93 212,134.93 212,133.93 212,132.93 212,130.93 212,129.93 212,128.93 212,127.93 212,126.93 212,125.93 212,124.93 212,123.93 212,122.93 212,121.93 212,120.93 212,120.93 212,119.93 212,118.93 212,117.93 212,116.93 212,115.93 212,114.93 212,113.93 212,112.93 212,112.93 212,111.93 212,110.93 212,109.93 212,108.93 212,106.93 212,105.93 212,104.93 212,104.93 212,103.93 212,100.93 212,99.93 212,97.93 212,96.93 213,95.93 213,93.93 213,91.93 213,90.93 213,88.93 213,88.93 213,86.93 214,83.93 215,79.93 215,78.93 215,74.93 215,72.93 215,70.93 215,66.93 215,64.93 215,62.93 215,61.93 216,59.93 216,56.93 216,55.93 216,53.93 216,50.93 216,49.93 216,48.93 216,47.93 217,47.93 217,44.93 217,43.93 217,41.93 218,40.93 218,40.93 218,39.93 218,38.93 218,36.93 219,35.93 219,33.93 219,32.93 219,32.93 219,31.93 219,30.93 219,29.93 219,28.93 219,27.93 219,26.93 218,26.93 218,27.93 217,27.93 217,28.93 216,28.93 215,28.93 215,29.93 215,30.93 214,30.93 214,31.93 214,32.93 213,32.93 213,32.93 212,33.93 212,33.93 212,34.93 211,34.93 210,34.93 210,35.93 209,35.93 209,36.93 208,36.93 207,36.93 206,37.93 206,38.93 206,40.93 206,41.93 206,47.93 206,49.93 208,52.93 208,55.93 208,57.93 208,58.93 209,61.93 210,63.93 211,64.93 211,65.93 212,68.93 212,71.93 212,73.93 212,75.93 212,76.93 212,78.93 212,80.93 212,83.93 212,84.93 213,87.93 214,88.93 214,89.93 214,91.93 214,94.93 215,96.93 215,98.93 215,100.93 215,101.93 215,103.93 216,104.93 216,107.93 218,109.93 218,111.93 218,113.93 218,114.93 218,116.93 219,120.93 220,121.93 220,123.93 220,124.93 220,125.93 220,126.93 220,128.93 220,129.93 220,130.93 221,131.93 221,133.93 221,134.93 222,135.93 222,136.93 222,137.93 222,139.93 222,140.93 222,141.93 222,142.93 223,143.93 223,144.93 224,144.93 224,144.93 224,145.93 225,145.93 226,145.93 227,145.93 228,144.93 228,144.93 229,143.93 230,143.93 231,142.93 232,141.93 233,141.93 234,140.93 235,139.93 235,138.93 235,137.93 235,136.93 236,136.93 236,134.93 237,133.93 237,132.93 238,130.93 238,128.93 238,127.93 239,126.93 240,125.93 241,124.93 241,123.93 241,122.93 241,121.93 242,121.93 243,120.93 243,120.93 244,119.93 244,118.93 244,117.93 244,116.93 244,115.93 245,114.93 245,113.93 246,112.93 246,110.93 247,109.93 248,108.93 248,106.93 249,106.93 249,104.93 249,104.93 250,103.93 250,102.93 251,101.93 252,100.93 252,99.93 252,98.93 252,98.93 252,97.93 252,96.93 252,97.93 252,98.93 252,98.93 251,98.93 251,99.93 250,99.93 250,100.93 249,100.93 249,101.93 248,101.93 248,102.93 247,102.93 247,103.93 247,104.93 246,104.93 246,104.93 246,105.93 246,107.93 246,108.93 246,111.93 246,112.93 246,113.93 246,114.93 246,116.93 246,118.93 247,121.93 248,122.93 249,124.93 249,125.93 249,126.93 250,127.93 250,128.93 250,128.93 250,129.93 250,130.93 250,131.93 251,132.93 252,133.93 252,134.93 252,135.93 252,135.93 252,136.93 253,136.93 254,136.93 254,137.93 255,138.93 256,138.93 256,139.93 257,140.93 258,140.93 259,140.93 260,140.93 260,140.93 261,140.93 262,139.93 263,139.93 263,138.93 264,138.93 264,137.93 265,137.93 265,136.93 266,136.93 267,136.93 267,135.93 268,135.93 268,134.93 268,133.93 268,132.93 268,131.93 268,130.93 268,129.93 268,128.93 269,128.93 269,127.93 269,125.93 269,124.93 269,122.93 270,122.93 270,121.93 270,120.93 271,120.93 271,119.93 272,118.93 272,117.93 272,115.93 272,114.93 272,112.93 273,112.93 273,112.93 273,111.93 273,110.93 273,109.93 273,108.93 274,108.93 274,107.93 275,105.93 275,104.93 275,104.93 275,103.93 275,102.93 275,101.93 275,100.93 276,99.93 276,98.93 276,97.93 276,96.93 276,97.93 275,97.93 274,98.93 273,98.93 272,98.93 272,99.93 271,100.93 270,101.93 269,101.93 269,102.93 268,102.93 268,103.93 268,104.93 268,104.93 268,106.93 268,107.93 268,109.93 268,110.93 268,114.93 268,116.93 268,117.93 268,118.93 269,118.93 269,120.93 269,120.93 270,120.93 270,121.93 270,122.93 270,123.93 271,124.93 271,125.93 272,125.93 272,126.93 273,126.93 273,127.93 274,127.93 275,128.93 275,128.93 276,128.93 276,128.93 277,128.93 278,128.93 279,128.93 280,128.93 281,128.93 282,128.93 282,128.93 283,128.93 283,127.93 284,127.93 284,127.93 285,127.93 285,126.93 286,126.93 288,124.93 289,124.93 290,124.93 291,123.93 291,122.93 292,121.93 292,121.93 293,121.93 294,121.93 294,120.93 295,120.93 296,120.93 296,119.93 297,119.93 298,119.93 298,118.93 299,118.93 299,117.93 299,116.93 300,115.93 300,115.93 300,114.93 300,113.93 300,112.93 300,112.93 300,110.93 300,108.93 300,107.93 301,107.93 301,106.93 301,105.93 301,104.93 301,104.93 301,104.93 300,104.93 300,105.93 300,105.93 300,106.93 299,106.93 298,106.93 297,107.93 297,108.93 297,109.93 296,109.93 295,109.93 295,110.93 295,111.93 294,111.93 294,112.93 295,114.93 295,116.93 296,118.93 297,119.93 298,120.93 299,121.93 300,122.93 300,123.93 301,124.93 302,125.93 302,126.93 302,127.93 303,127.93 304,128.93 305,128.93 305,128.93 307,129.93 308,129.93 308,130.93 309,131.93 310,131.93 311,132.93 312,132.93 313,132.93 314,132.93 315,132.93 316,132.93 316,132.93 317,132.93 318,132.93 319,132.93 320,132.93 321,132.93 321,131.93 322,131.93 322,130.93 323,130.93 324,130.93 324,129.93 324,128.93 325,128.93 326,128.93 326,127.93 327,127.93 327,125.93 327,124.93 327,123.93 327,121.93 327,120.93 328,120.93 328,118.93 328,116.93 328,114.93 329,113.93 329,112.93 329,111.93 329,109.93 329,108.93 329,107.93 329,105.93 329,104.93 329,103.93 329,102.93 329,100.93 329,99.93 329,98.93 330,97.93 330,96.93 330,96.93 331,95.93 331,94.93 331,93.93 331,92.93 331,91.93 331,90.93 331,89.93 331,88.93 331,88.93 331,87.93 331,86.93 331,87.93 331,88.93 331,88.93 331,89.93 331,90.93 331,91.93 331,93.93 332,95.93 332,96.93 332,97.93 332,99.93 332,101.93 332,104.93 333,104.93 333,105.93 334,106.93 334,107.93 335,109.93 335,110.93 335,111.93 335,112.93 336,112.93 336,113.93 336,115.93 337,116.93 338,118.93 338,120.93 338,120.93 339,121.93 340,123.93 340,124.93 340,126.93 341,128.93 341,131.93 342,133.93 344,135.93 344,136.93 344,137.93 345,140.93 346,142.93 346,144.93 347,144.93 347,146.93 348,148.93 348,151.93 348,152.93 349,152.93 349,154.93 349,157.93 349,158.93 350,160.93 350,160.93 350,161.93 350,163.93 350,165.93 350,167.93 350,168.93 350,169.93 350,171.93 350,173.93 350,175.93 350,176.93 350,178.93 350,179.93 350,181.93 350,183.93 350,184.93 350,185.93 350,186.93 350,187.93 350,188.93 349,190.93 349,191.93 349,192.93 349,192.93 348,193.93 348,195.93 348,197.93 348,198.93 348,199.93 348,200.93 347,200.93 347,201.93 347,202.93 347,203.93 347,204.93 346,204.93 346,205.93 346,206.93 345,206.93 345,207.93 344,207.93 344,206.93 344,205.93 343,204.93 343,203.93 343,201.93 342,200.93 342,200.93 342,198.93 341,197.93 341,196.93 341,195.93 341,193.93 340,192.93 340,190.93 339,188.93 339,187.93 339,186.93 339,185.93 339,184.93 339,182.93 339,180.93 338,178.93 338,176.93 338,176.93 338,174.93 337,172.93 336,171.93 336,168.93 335,167.93 335,163.93 335,162.93 335,160.93 334,159.93 334,158.93 334,155.93 334,153.93 334,152.93 334,151.93 333,148.93 333,147.93 333,145.93 333,144.93 333,142.93 333,140.93 333,138.93 333,136.93 333,135.93 333,133.93 333,132.93 333,130.93 333,129.93 333,127.93 334,126.93 334,125.93 335,123.93 335,122.93 335,121.93 336,120.93 336,120.93 337,119.93 337,117.93 338,117.93 338,116.93 339,114.93 340,114.93 340,113.93 340,112.93 342,112.93 343,111.93 344,111.93 346,110.93 347,108.93 348,108.93 349,107.93 350,107.93 351,106.93 352,106.93 353,105.93 354,105.93 355,104.93 356,104.93 356,104.93 357,104.93 358,104.93 359,103.93 359,102.93 360,102.93 362,102.93 363,102.93 364,102.93 364,101.93 364,100.93 365,100.93 366,99.93 367,99.93 368,99.93 369,99.93 369,98.93 370,97.93 371,97.93 372,96.93 372,96.93 373,96.93 374,96.93 375,96.93 376,94.93 377,94.93 378,94.93 379,94.93 380,94.93 380,93.93 381,93.93 381,91.93 382,91.93 383,91.93 383,90.93 384,90.93 385,90.93 386,89.93 387,89.93 388,88.93 388,88.93 388,88.93 389,88.93 390,88.93 391,88.93 391,88.93 390,88.93 389,88.93 389,89.93 388,89.93 388,90.93 388,90.93 388,91.93 387,92.93 386,93.93"/>
		</g>
	</g>
</svg>