<?xml version="1.0"?>
<!DOCTYPE svg PUBLIC "-//W3C//DTD SVG 1.1//EN" "http://www.w3.org/Graphics/SVG/1.1/DTD/svg11.dtd">
<svg xmlns="http://www.w3.org/2000/svg" width="15cm" height="15cm">
	<g fill="#fff">
		<rect x="0" y="0" width="720" height="184"/>
		<g fill="none" stroke="#000" stroke-width="2">
			<polyline points="171.67,4.93 171.67,5.93 171.67,6.93 170.67,9.93 170.67,10.93 170.67,11.93 169.67,12.93 169.67,13.93 168.67,14.93 168.67,15.93 167.67,16.93 166.67,16.93 165.67,17.93 165.67,18.93 165.67,19.93 163.67,21.93 162.67,23.93 162.67,24.93 162.67,24.93 162.67,26.93 160.67,28.93 159.67,28.93 158.67,30.93 158.67,31.93 157.67,32.93 156.67,33.93 155.67,34.93 154.67,34.93 154.67,36.93 154.67,38.93 153.67,39.93 151.67,40.93 151.67,41.93 150.67,42.93 149.67,44.93 148.67,46.93 147.67,47.93 146.67,48.93 146.67,50.93 145.67,50.93 144.67,53.93 143.67,55.93 142.67,56.93 142.67,57.93 140.67,59.93 140.67,60.93 138.67,62.93 138.67,63.93 138.67,64.93 137.67,66.93 135.67,69.93 134.67,70.93 133.67,71.93 132.67,72.93 130.67,73.93 130.67,74.93 128.67,78.93 127.67,79.93 126.67,80.93 124.67,82.93 124.67,83.93 122.67,85.93 122.67,87.93 120.67,88.93 119.67,89.93 117.67,90.93 116.67,93.93 115.67,94.93 114.67,94.93 113.67,96.93 112.67,98.93 111.67,99.93 109.67,102.93 107.67,103.93 107.67,104.93 106.67,105.93 106.67,107.93 105.67,108.93 103.67,109.93 102.67,111.93 101.67,112.93 100.67,114.93 98.67,116.93 98.67,118.93 97.67,119.93 97.67,120.93 96.67,121.93 96.67,122.93 95.67,123.93 95.67,124.93 95.67,125.93 94.67,125.93 94.67,126.93 93.67,127.93 93.67,128.93 93.67,128.93 92.67,128.93 92.67,129.93 92.67,130.93 91.67,130.93 91.67,131.93 93.67,133.93 93.67,134.93 94.67,134.93 95.67,134.93 95.67,133.93 94.67,132.93 93.67,131.93 94.67,131.93 96.67,131.93 95.67,130.93 95.67,129.93 94.67,129.93 94.67,128.93 94.67,128.93 94.67,127.93 94.67,126.93 94.67,125.93 94.67,124.93 94.67,123.93"/>
			<polyline points="93.67,54.93 93.67,53.93 94.67,53.93 95.67,53.93 95.67,52.93 96.67,52.93 96.67,51.93 97.67,51.93 98.67,50.93 98.67,50.93 99.67,50.93 100.67,50.93 101.67,49.93 102.67,49.93 102.67,48.93 103.67,48.93 104.67,48.93 106.67,48.93 106.67,48.93 106.67,48.93 108.67,48.93 109.67,48.93 109.67,47.93 111.67,46.93 113.67,46.93 114.67,46.93 114.67,46.93 115.67,46.93 117.67,46.93 117.67,45.93 119.67,45.93 119.67,44.93 121.67,43.93 122.67,43.93 123.67,43.93 125.67,43.93 127.67,43.93 129.67,42.93 130.67,42.93 130.67,42.93 132.67,42.93 133.67,41.93 136.67,40.93 137.67,40.93 138.67,40.93 140.67,40.93 143.67,40.93 146.67,40.93 146.67,40.93 148.67,40.93 149.67,40.93 151.67,40.93 152.67,40.93 153.67,40.93 154.67,40.93 154.67,40.93 155.67,40.93 156.67,40.93 157.67,40.93 159.67,40.93 160.67,40.93 162.67,40.93 162.67,40.93 163.67,40.93 164.67,40.93 164.67,40.93 164.67,41.93 164.67,42.93 164.67,43.93 165.67,43.93 165.67,44.93 166.67,44.93 166.67,45.93 167.67,45.93 167.67,46.93 167.67,47.93 167.67,48.93 166.67,48.93 166.67,49.93 166.67,50.93 166.67,51.93 166.67,52.93 166.67,53.93 166.67,54.93 165.67,55.93 165.67,56.93 165.67,56.93 164.67,57.93 163.67,57.93 163.67,58.93 163.67,59.93 163.67,60.93 162.67,60.93 161.67,61.93 160.67,63.93 159.67,64.93 158.67,64.93 158.67,64.93 157.67,65.93 156.67,65.93 155.67,65.93 155.67,66.93 154.67,67.93 154.67,68.93 153.67,68.93 152.67,69.93 151.67,70.93 150.67,71.93 149.67,71.93 149.67,72.93 148.67,72.93 147.67,72.93 146.67,73.93 146.67,73.93 146.67,74.93 145.67,74.93 144.67,75.93 142.67,76.93 141.67,77.93 139.67,78.93 138.67,78.93 138.67,79.93 138.67,80.93 138.67,80.93 136.67,80.93 135.67,80.93 134.67,80.93 134.67,81.93 134.67,82.93 133.67,82.93 133.67,83.93 132.67,83.93 131.67,83.93 130.67,83.93 131.67,83.93 133.67,83.93 134.67,83.93 136.67,83.93 137.67,83.93 138.67,83.93 138.67,83.93 139.67,84.93 140.67,84.93 141.67,85.93 142.67,85.93 143.67,86.93 144.67,86.93 145.67,86.93 146.67,86.93 147.67,86.93 148.67,86.93 149.67,86.93 150.67,86.93 151.67,86.93 152.67,86.93 153.67,86.93 154.67,86.93 155.67,86.93 156.67,87.93 158.67,87.93 159.67,88.93 161.67,88.93 162.67,88.93 162.67,88.93 163.67,88.93 164.67,88.93 165.67,88.93 166.67,88.93 167.67,88.93 169.67,88.93 170.67,88.93 170.67,88.93 171.67,88.93 172.67,88.93 173.67,88.93 174.67,88.93 175.67,88.93 176.67,88.93 177.67,88.93 178.67,88.93 179.67,88.93 180.67,88.93 182.67,88.93 183.67,88.93 185.67,88.93 185.67,89.93 186.67,90.93 187.67,90.93 188.67,90.93 189.67,91.93 190.67,92.93 192.67,92.93 193.67,92.93 193.67,93.93 194.67,94.93 194.67,95.93 195.67,95.93 195.67,96.93 195.67,97.93 196.67,97.93 196.67,98.93 196.67,99.93 196.67,100.93 196.67,101.93 196.67,102.93 196.67,103.93 196.67,104.93 196.67,105.93 195.67,106.93 194.67,106.93 194.67,107.93 194.67,109.93 193.67,109.93 192.67,111.93 191.67,112.93 190.67,112.93 189.67,113.93 189.67,114.93 188.67,114.93 187.67,115.93 186.67,116.93 186.67,116.93 184.67,117.93 184.67,118.93 183.67,119.93 182.67,119.93 182.67,120.93 180.67,121.93 179.67,121.93 178.67,121.93 178.67,122.93 176.67,124.93 176.67,125.93 174.67,125.93 173.67,125.93 173.67,126.93 171.67,127.93 170.67,127.93 170.67,127.93 169.67,127.93 168.67,127.93 168.67,128.93 166.67,128.93 166.67,128.93 165.67,129.93 164.67,129.93 163.67,129.93 162.67,129.93 162.67,129.93 160.67,129.93 159.67,129.93 159.67,130.93 158.67,130.93 157.67,130.93 156.67,130.93 155.67,130.93 154.67,130.93 154.67,130.93 153.67,130.93 152.67,130.93 151.67,130.93 150.67,130.93 149.67,130.93 148.67,129.93 148.67,128.93 147.67,128.93 146.67,128.93 146.67,127.93 146.67,126.93 146.67,126.93 146.67,125.93 146.67,124.93 146.67,123.93 146.67,122.93 146.67,121.93 146.67,120.93 146.67,120.93 146.67,119.93 146.67,118.93 146.67,117.93 146.67,116.93 146.67,115.93 146.67,114.93 146.67,113.93 146.67,112.93 147.67,112.93 147.67,111.93 147.67,110.93 148.67,109.93 148.67,108.93 149.67,106.93 150.67,106.93 151.67,104.93 153.67,103.93 154.67,103.93 154.67,102.93 154.67,101.93 156.67,100.93 156.67,98.93 158.67,96.93 160.67,96.93 162.67,96.93 162.67,94.93 163.67,92.93 165.67,92.93 165.67,91.93 167.67,90.93 169.67,89.93 170.67,88.93 171.67,87.93 173.67,86.93 175.67,85.93 177.67,83.93 178.67,82.93 179.67,80.93 180.67,80.93 182.67,79.93 184.67,79.93 185.67,78.93 186.67,77.93 186.67,76.93 189.67,75.93 189.67,74.93 190.67,72.93 192.67,72.93 193.67,72.93 194.67,70.93 195.67,69.93 196.67,69.93 197.67,68.93 198.67,67.93 199.67,66.93 201.67,65.93 201.67,64.93 202.67,64.93 204.67,64.93 205.67,63.93 206.67,62.93 207.67,61.93 208.67,61.93 208.67,60.93 210.67,60.93 210.67,58.93 211.67,58.93 212.67,57.93 213.67,57.93 213.67,56.93 214.67,56.93 215.67,56.93 215.67,55.93 215.67,54.93 216.67,54.93 216.67,55.93 216.67,56.93 216.67,56.93 216.67,57.93 216.67,58.93 216.67,59.93 215.67,59.93 215.67,60.93 215.67,61.93 214.67,61.93 214.67,62.93 214.67,63.93 213.67,63.93 212.67,63.93 212.67,64.93 211.67,64.93"/>
			<polyline points="217.67,96.93 216.67,96.93 215.67,96.93 214.67,96.93 213.67,96.93 212.67,96.93 211.67,96.93 211.67,97.93 210.67,97.93 210.67,98.93 210.67,99.93 209.67,100.93 208.67,101.93 207.67,102.93 207.67,103.93 207.67,104.93 206.67,104.93 206.67,104.93 206.67,105.93 205.67,106.93 205.67,107.93 205.67,108.93 204.67,108.93 204.67,110.93 203.67,111.93 203.67,112.93 203.67,112.93 203.67,113.93 203.67,114.93 203.67,115.93 203.67,116.93 203.67,117.93 203.67,118.93 204.67,118.93 204.67,119.93 205.67,119.93 205.67,120.93 206.67,120.93 207.67,120.93 208.67,120.93 209.67,120.93 210.67,120.93 210.67,120.93 211.67,120.93 212.67,120.93 213.67,120.93 214.67,120.93 215.67,120.93 216.67,119.93 217.67,119.93 218.67,119.93 218.67,119.93 218.67,118.93 219.67,118.93 219.67,117.93 220.67,117.93 221.67,116.93 221.67,115.93 222.67,115.93 222.67,114.93 223.67,114.93 224.67,114.93 224.67,113.93 225.67,112.93 226.67,112.93 226.67,111.93 226.67,111.93 226.67,110.93 227.67,110.93 227.67,109.93 228.67,109.93 228.67,108.93 228.67,107.93 229.67,107.93 229.67,106.93 230.67,106.93 230.67,105.93 230.67,104.93 231.67,104.93 231.67,104.93 232.67,103.93 233.67,103.93 233.67,102.93 233.67,101.93 234.67,101.93 234.67,102.93 233.67,102.93 232.67,103.93 232.67,104.93 231.67,104.93 231.67,104.93 231.67,105.93 231.67,106.93 230.67,106.93 229.67,107.93 229.67,108.93 229.67,109.93 229.67,110.93 229.67,111.93 229.67,112.93 229.67,112.93 229.67,113.93 228.67,113.93 228.67,114.93 228.67,115.93 228.67,116.93 228.67,117.93 228.67,118.93 228.67,119.93 228.67,120.93 228.67,120.93 229.67,120.93 230.67,120.93 230.67,121.93 231.67,121.93 232.67,121.93 233.67,121.93 234.67,121.93 234.67,121.93 235.67,120.93 236.67,120.93 237.67,120.93 237.67,120.93 238.67,120.93 239.67,120.93 239.67,119.93 240.67,119.93 241.67,119.93 241.67,118.93 242.67,117.93 242.67,117.93 242.67,116.93 243.67,116.93 244.67,115.93 245.67,115.93 245.67,114.93 246.67,114.93 246.67,113.93 247.67,113.93 248.67,112.93 249.67,112.93 250.67,112.93 250.67,112.93 250.67,111.93 251.67,111.93 252.67,111.93 252.67,110.93 253.67,110.93 254.67,110.93 255.67,110.93 256.67,109.93 257.67,109.93 257.67,108.93 258.67,108.93 258.67,108.93 259.67,108.93 260.67,108.93 261.67,108.93 262.67,108.93 263.67,108.93 264.67,108.93 265.67,108.93 265.67,109.93 265.67,110.93 265.67,111.93 264.67,111.93 264.67,112.93 264.67,112.93 264.67,113.93 264.67,114.93 264.67,115.93 263.67,115.93 263.67,116.93 262.67,116.93 262.67,117.93 262.67,118.93 262.67,119.93 262.67,120.93 262.67,120.93 262.67,121.93 262.67,122.93 263.67,122.93 263.67,123.93 264.67,123.93 265.67,123.93 266.67,123.93 266.67,123.93 267.67,123.93 268.67,122.93 269.67,121.93 270.67,121.93 270.67,120.93 271.67,120.93 271.67,120.93 272.67,120.93 272.67,119.93 273.67,119.93 273.67,118.93 274.67,118.93 274.67,117.93 274.67,116.93 274.67,116.93 274.67,115.93 275.67,114.93 276.67,114.93 277.67,112.93 278.67,112.93 279.67,112.93 280.67,112.93 281.67,111.93 282.67,110.93 282.67,109.93 283.67,109.93 284.67,109.93 285.67,109.93 286.67,108.93 286.67,107.93 287.67,107.93 288.67,107.93 289.67,106.93 290.67,106.93 290.67,105.93 290.67,104.93 291.67,104.93 292.67,104.93 293.67,104.93 294.67,104.93 295.67,104.93 296.67,103.93 297.67,103.93 298.67,102.93 298.67,102.93 299.67,102.93 300.67,101.93 301.67,100.93 302.67,100.93 303.67,100.93 304.67,100.93 305.67,100.93 306.67,99.93 306.67,99.93 307.67,98.93 308.67,97.93 309.67,97.93 310.67,97.93 311.67,97.93 312.67,97.93 313.67,97.93 314.67,97.93 314.67,97.93 315.67,96.93 316.67,96.93 317.67,96.93 318.67,95.93 318.67,94.93 319.67,93.93 320.67,93.93 321.67,92.93 322.67,91.93 322.67,91.93 323.67,90.93 324.67,90.93 324.67,89.93 325.67,89.93 325.67,88.93 326.67,88.93 327.67,88.93 328.67,88.93 329.67,88.93 329.67,87.93 330.67,87.93 330.67,87.93 331.67,86.93 332.67,86.93 333.67,85.93 333.67,84.93 334.67,84.93 335.67,84.93 336.67,84.93 336.67,83.93 337.67,82.93 338.67,82.93 338.67,81.93 338.67,80.93 338.67,80.93"/>
			<polyline points="334.67,47.93 333.67,47.93 332.67,47.93 331.67,48.93 330.67,48.93 330.67,48.93 330.67,49.93 330.67,50.93 329.67,50.93 329.67,51.93 329.67,52.93 329.67,53.93 329.67,54.93 329.67,55.93 329.67,56.93 329.67,56.93 329.67,57.93 329.67,58.93 330.67,59.93 330.67,59.93 330.67,60.93 331.67,61.93 332.67,61.93 332.67,62.93 333.67,62.93 334.67,62.93 335.67,62.93 336.67,62.93 337.67,62.93 338.67,62.93 338.67,62.93 339.67,62.93 340.67,62.93 340.67,61.93 340.67,60.93 341.67,60.93 342.67,60.93 342.67,59.93 342.67,58.93 342.67,57.93 343.67,57.93 343.67,56.93 343.67,56.93 343.67,55.93 343.67,54.93 343.67,53.93 342.67,52.93 341.67,52.93 340.67,52.93 339.67,52.93 339.67,51.93 338.67,51.93 338.67,50.93 338.67,50.93 337.67,50.93 336.67,50.93 335.67,50.93 334.67,50.93 333.67,50.93 332.67,50.93 332.67,51.93 331.67,51.93 330.67,51.93 330.67,52.93 330.67,52.93 330.67,53.93 329.67,54.93 329.67,55.93 328.67,56.93 328.67,56.93 328.67,57.93 327.67,57.93 327.67,58.93 326.67,58.93"/>
		</g>
	</g>
</svg>