<?xml version="1.0"?>
<!DOCTYPE svg PUBLIC "-//W3C//DTD SVG 1.1//EN" "http://www.w3.org/Graphics/SVG/1.1/DTD/svg11.dtd">
<svg xmlns="http://www.w3.org/2000/svg" width="15cm" height="15cm">
	<g fill="#fff">
		<rect x="0" y="0" width="720" height="184"/>
		<g fill="none" stroke="#000" stroke-width="2">
			<polyline points="215,59.26 215,60.26 215,61.26 215,62.26 214,62.26 214,63.26 213,64.26 213,65.26 213,66.26 212,67.26 212,69.26 212,70.26 212,71.26 212,71.26 212,73.26 211,74.26 211,75.26 211,76.26 211,77.26 211,78.26 211,79.26 211,80.26 211,81.26 210,82.26 209,83.26 209,84.26 209,85.26 208,86.26 208,86.26 207,88.26 206,90.26 206,92.26 204,92.26 204,93.26 204,94.26 204,95.26 204,97.26 202,98.26 201,100.26 200,101.26 199,102.26 199,104.26 198,104.26 197,106.26 196,108.26 195,110.26 194,112.26 192,113.26 191,114.26 190,116.26 189,118.26 188,119.26 187,120.26 185,122.26 184,123.26 183,124.26 182,126.26 180,127.26 179,130.26 178,131.26 177,132.26 175,134.26 173,134.26 172,136.26 171,138.26 169,139.26 168,141.26 164,143.26 163,145.26 161,147.26 160,147.26 158,149.26 156,150.26 155,151.26 155,153.26 153,154.26 151,155.26 149,157.26 148,158.26 147,159.26 146,160.26 144,161.26 142,163.26 142,165.26 140,166.26 139,166.26 137,167.26 137,169.26 135,171.26 134,171.26 133,171.26 133,172.26 132,173.26 131,174.26 130,174.26 128,174.26 128,175.26 127,176.26 126,176.26 125,176.26 124,177.26 124,178.26 123,178.26 122,178.26 122,177.26 122,176.26 122,175.26 122,174.26"/>
			<polyline points="158,71.26 160,71.26 160,70.26 161,70.26 162,70.26 163,70.26 164,69.26 164,69.26 165,69.26 166,68.26 168,68.26 169,68.26 171,68.26 172,68.26 172,67.26 173,67.26 175,66.26 177,66.26 178,66.26 179,65.26 180,65.26 181,65.26 182,65.26 183,65.26 184,65.26 186,65.26 187,65.26 188,65.26 188,65.26 189,65.26 191,65.26 193,65.26 195,65.26 196,65.26 196,65.26 197,65.26 198,66.26 199,66.26 200,67.26 201,67.26 203,67.26 204,67.26 204,68.26 205,68.26 206,69.26 206,70.26 208,70.26 208,70.26 209,70.26 211,71.26 211,72.26 212,72.26 212,73.26 213,74.26 214,76.26 215,77.26 216,77.26 216,78.26 216,78.26 217,78.26 217,79.26 218,80.26 218,81.26 219,81.26 220,82.26 220,83.26 220,84.26 220,84.26 220,85.26 220,86.26 220,86.26 221,87.26 221,88.26 221,89.26 222,90.26 222,92.26 222,93.26 222,94.26 222,95.26 222,96.26 222,98.26 222,99.26 222,101.26 222,102.26 220,105.26 220,106.26 220,107.26 219,109.26 218,110.26 217,112.26 216,112.26 215,114.26 215,115.26 214,117.26 212,118.26 212,119.26 210,121.26 209,123.26 206,125.26 205,125.26 204,126.26 204,128.26 202,129.26 200,131.26 199,132.26 198,134.26 196,135.26 195,136.26 194,138.26 192,138.26 190,140.26 188,142.26 188,142.26 187,143.26 185,145.26 182,145.26 182,147.26 180,148.26 170,154.26 169,154.26 168,155.26 167,155.26 165,155.26 164,156.26 164,156.26 163,156.26 162,157.26 161,158.26 159,158.26 158,158.26 156,158.26 156,158.26 155,158.26 153,158.26 148,158.26 143,158.26 140,158.26 137,158.26 136,158.26 133,158.26 131,158.26 130,158.26 127,158.26 124,158.26 123,158.26 121,157.26 118,157.26 116,157.26 116,156.26 114,156.26 113,156.26 111,155.26 109,155.26 108,153.26 105,153.26 104,152.26 103,152.26 101,152.26 101,151.26 99,150.26 98,150.26 96,149.26 95,149.26 95,148.26 93,147.26 92,146.26 90,146.26 89,144.26 88,143.26 87,142.26 86,142.26 86,141.26 84,141.26 84,139.26 83,138.26 82,137.26 81,136.26 81,135.26 81,134.26 80,134.26 80,134.26 80,133.26 79,133.26 79,132.26 79,131.26 79,130.26 79,129.26 79,128.26 79,127.26 79,126.26 79,126.26 79,125.26 80,124.26 81,123.26 81,122.26 82,121.26 83,120.26 84,119.26 84,118.26 84,118.26 85,117.26 86,117.26 86,116.26 87,115.26 88,115.26 89,114.26 90,113.26 91,112.26 92,112.26 92,111.26 94,110.26 95,110.26 96,110.26 97,109.26 99,109.26 100,108.26 100,106.26 102,105.26 103,104.26 104,104.26 106,103.26 107,102.26 108,102.26 108,102.26 110,102.26 111,102.26 113,101.26 115,100.26 116,99.26 118,99.26 119,98.26 121,98.26 123,98.26 124,97.26 127,97.26 129,97.26 131,97.26 133,97.26 134,95.26 137,95.26 138,95.26 140,95.26 141,95.26 144,94.26 145,94.26 147,94.26 148,94.26 149,94.26 151,94.26 152,94.26 155,94.26 156,94.26 157,94.26 158,94.26 160,94.26 161,94.26 162,94.26 164,94.26 164,94.26 166,94.26 167,94.26 169,94.26 170,94.26 171,95.26 172,95.26 172,95.26 173,96.26 175,96.26 176,97.26 177,97.26 178,98.26 179,99.26 180,99.26 180,100.26 181,101.26 182,102.26 184,102.26 186,103.26 187,104.26 188,104.26 188,105.26 190,107.26 192,108.26 192,109.26 194,109.26 196,110.26 196,111.26 198,112.26 199,113.26 200,114.26 200,115.26 201,115.26 202,116.26 203,117.26 204,118.26 204,118.26 205,119.26 206,120.26 207,120.26 207,122.26 208,123.26 210,124.26 211,125.26 211,126.26 212,126.26 213,127.26 213,128.26 214,129.26 216,131.26 217,133.26 218,133.26 218,134.26 220,134.26 220,135.26 220,136.26 220,137.26 222,138.26 222,139.26 223,141.26 224,141.26 225,141.26 225,142.26 226,143.26 227,143.26 228,144.26 228,146.26 229,146.26 229,147.26 230,148.26 231,148.26 232,149.26 233,150.26 234,150.26 234,150.26 235,150.26 236,150.26 236,150.26 237,150.26 238,150.26 239,150.26 240,150.26 241,150.26 242,150.26 243,150.26 243,150.26 244,149.26 244,149.26 245,149.26 245,148.26 245,147.26 246,147.26 247,147.26 247,146.26 247,144.26 248,144.26 248,143.26 249,143.26 250,142.26 250,142.26 250,141.26 251,141.26 251,140.26 252,139.26 252,138.26 252,137.26 253,137.26 253,135.26 253,134.26 254,134.26 254,133.26 255,132.26 255,131.26 255,130.26 256,129.26 256,128.26 256,127.26 257,127.26 257,126.26 257,126.26 257,125.26 257,124.26 258,123.26 258,121.26 258,120.26 259,120.26 259,119.26 259,118.26 259,118.26 259,117.26 259,116.26 259,115.26 259,114.26 259,113.26 259,112.26 259,113.26 258,114.26 258,115.26 258,116.26 258,117.26 257,118.26 256,118.26 256,119.26 255,120.26 255,122.26 255,123.26 255,125.26 255,126.26 255,126.26 255,127.26 255,128.26 255,130.26 255,131.26 255,133.26 255,134.26 255,134.26 255,135.26 255,136.26 255,137.26 255,138.26 255,139.26 256,140.26 256,141.26 256,142.26 257,142.26 258,142.26 259,142.26 260,142.26 260,142.26 261,142.26 261,141.26 261,140.26 263,140.26 264,138.26 264,137.26 265,137.26 266,135.26 266,134.26 267,134.26 267,134.26 267,133.26 267,132.26 268,132.26 269,131.26 269,130.26 269,129.26 269,128.26 269,127.26 271,126.26 272,126.26 272,126.26 272,124.26 272,123.26 272,122.26 272,121.26 272,120.26 273,120.26 273,119.26 273,118.26 273,118.26 273,117.26 273,116.26 273,115.26 274,115.26 274,114.26 274,113.26 274,112.26 274,113.26 274,114.26 274,115.26 274,116.26 274,117.26 273,117.26 273,118.26 273,118.26 273,119.26 273,120.26 273,121.26 273,122.26 272,122.26 272,123.26 272,124.26 272,125.26 272,126.26 272,126.26 272,127.26 273,127.26 274,127.26 274,128.26 275,128.26 276,128.26 276,128.26 277,128.26 278,128.26 279,128.26 280,127.26 281,126.26 281,126.26 282,126.26 282,125.26 283,124.26 283,123.26 284,122.26 284,121.26 284,120.26 285,119.26 285,118.26 285,118.26 286,118.26 286,117.26 287,116.26 287,115.26 288,114.26 288,113.26 288,112.26 289,111.26 290,111.26 290,110.26 290,110.26 290,109.26 291,109.26 291,108.26 291,107.26 291,106.26 291,105.26 291,104.26 291,103.26 291,102.26 292,102.26 292,102.26 292,101.26 292,100.26 291,100.26 290,100.26 290,101.26 289,101.26 289,102.26 288,102.26 287,102.26 286,102.26 286,103.26 285,103.26 284,103.26 284,104.26 284,104.26 284,105.26 284,106.26 284,107.26 284,108.26 284,109.26 284,110.26 284,110.26 284,111.26 284,112.26 284,112.26 284,113.26 285,113.26 286,113.26 287,113.26 288,113.26 289,113.26 290,113.26 291,113.26 291,112.26 292,112.26 292,112.26 292,111.26 293,111.26 294,111.26 295,111.26 295,112.26 295,113.26 295,114.26 294,114.26 293,113.26 292,113.26 292,112.26 292,111.26 292,111.26 292,111.26 293,112.26 294,112.26 294,113.26 295,114.26 296,113.26 296,112.26 297,112.26 297,111.26 297,110.26 298,110.26 299,110.26 299,110.26 300,109.26 300,109.26 300,108.26 300,107.26 301,106.26 302,106.26 303,105.26 303,104.26 304,103.26 305,102.26 306,102.26 307,101.26 307,100.26 308,100.26 308,99.26 308,98.26 308,97.26 308,96.26 308,95.26 308,94.26 309,94.26 309,94.26 309,93.26 309,92.26 309,91.26 309,90.26 309,89.26 310,88.26 310,87.26 310,86.26 310,86.26 310,85.26 310,84.26 311,83.26 311,82.26 311,81.26 311,80.26 311,79.26 312,78.26 312,77.26 312,76.26 313,75.26 314,74.26 314,73.26 314,72.26 314,70.26 315,70.26 315,70.26 316,68.26 316,67.26 316,66.26 317,65.26 317,64.26 317,63.26 318,62.26 318,62.26 319,62.26 319,61.26 319,60.26 320,60.26 320,59.26 320,60.26 320,61.26 320,62.26 320,63.26 320,65.26 320,66.26 320,67.26 320,68.26 320,69.26 320,70.26 320,71.26 320,73.26 320,74.26 320,76.26 320,77.26 320,78.26 320,78.26 320,79.26 320,80.26 320,81.26 319,83.26 319,84.26 319,85.26 319,86.26 319,86.26 319,88.26 319,89.26 319,90.26 319,91.26 318,92.26 318,94.26 318,94.26 318,95.26 318,97.26 317,98.26 317,99.26 317,101.26 317,102.26 317,103.26 317,104.26 317,107.26 317,109.26 317,110.26 316,111.26 316,113.26 316,114.26 316,116.26 316,118.26 316,118.26 315,120.26 315,122.26 315,123.26 315,125.26 314,126.26 314,128.26 314,129.26 314,131.26 314,132.26 314,134.26 314,134.26 314,135.26 314,137.26 314,138.26 313,140.26 313,141.26 313,142.26 312,142.26 312,143.26 312,144.26 312,145.26 312,146.26 312,147.26 312,148.26 312,149.26 312,148.26 312,146.26 312,145.26 312,143.26 312,142.26 311,142.26 311,142.26 311,141.26 310,140.26 309,139.26 309,138.26 309,137.26 309,136.26 309,135.26 309,134.26 309,134.26 309,133.26 309,132.26 309,131.26 309,129.26 309,128.26 309,126.26 309,126.26 309,125.26 309,124.26 309,123.26 309,122.26 309,121.26 309,120.26 309,119.26 309,118.26 309,118.26 309,117.26 309,116.26 309,115.26 309,114.26 309,113.26 309,112.26 309,111.26 309,110.26 309,110.26 310,109.26 310,108.26 310,107.26 311,106.26 312,105.26 313,104.26 313,103.26 314,103.26 315,103.26 316,102.26 316,102.26 317,102.26 318,102.26 319,102.26 320,102.26 321,102.26 322,102.26 322,101.26 323,101.26 324,101.26 324,101.26 325,101.26 326,101.26 326,102.26 326,102.26 326,103.26 326,104.26 326,105.26 326,106.26 325,106.26 325,107.26 325,108.26 325,109.26 324,109.26 324,110.26 324,110.26 324,110.26 324,111.26 323,111.26 323,112.26 323,113.26 324,113.26 324,113.26 325,112.26 326,112.26 326,111.26 327,110.26 328,110.26 329,110.26 329,110.26 329,109.26 330,108.26 331,108.26 331,107.26 332,107.26 332,106.26 332,106.26 333,106.26 333,105.26 334,104.26 335,103.26 336,103.26 337,103.26 338,103.26 339,103.26 340,103.26 340,102.26 340,102.26 341,102.26 341,102.26 341,102.26 341,103.26 341,104.26 341,105.26 340,105.26 340,106.26 340,107.26 340,108.26 340,109.26 340,110.26 340,110.26 339,110.26 340,109.26 340,108.26 340,107.26 340,106.26 340,106.26 341,104.26 341,103.26 341,102.26 341,102.26 342,101.26 342,100.26 342,99.26 342,98.26 342,97.26 342,96.26 342,95.26 343,94.26 343,94.26 344,93.26 344,92.26 344,91.26 344,90.26 344,89.26 344,88.26 344,87.26 345,86.26 345,86.26 346,85.26 346,84.26 346,83.26 347,83.26 347,82.26 347,81.26 347,80.26 347,79.26 348,79.26 348,78.26 348,78.26 349,78.26 349,79.26 349,80.26 349,81.26 349,82.26 349,83.26 349,84.26 349,85.26 349,86.26 349,86.26 349,87.26 349,88.26 349,89.26 349,90.26 349,91.26 349,92.26 349,93.26 349,94.26 349,94.26 349,95.26 349,96.26 349,97.26 349,98.26 349,99.26 349,100.26 349,101.26 349,102.26 349,102.26 349,103.26 349,104.26 349,105.26 349,106.26 350,106.26 351,106.26 351,105.26 352,105.26 352,104.26 353,104.26 354,104.26 354,103.26 355,103.26 355,102.26 356,102.26 356,102.26 357,102.26 358,102.26 359,102.26 360,101.26 362,100.26 363,100.26 363,99.26 364,99.26 366,98.26 367,98.26 369,97.26 372,97.26 373,97.26 376,97.26 379,97.26 381,97.26 384,97.26 387,96.26 389,96.26 392,96.26 396,96.26 398,96.26 401,96.26 405,96.26 409,96.26 412,96.26 415,96.26 419,95.26 422,95.26 426,95.26 430,95.26 435,95.26 439,95.26 447,95.26 451,95.26 455,95.26 458,95.26 461,95.26 465,95.26 468,95.26 472,95.26 476,95.26 479,95.26 483,95.26 485,95.26 489,95.26 492,95.26 493,95.26 496,95.26 500,95.26 501,95.26 505,95.26 508,95.26 509,95.26 512,95.26 514,95.26 515,95.26 517,95.26 518,95.26 520,95.26 521,95.26 522,95.26 523,95.26 524,95.26 524,94.26 523,94.26 522,94.26 521,94.26 520,94.26 518,94.26 517,94.26 516,94.26 514,94.26 513,94.26 511,94.26 509,94.26 508,94.26 507,94.26 505,94.26 504,94.26 502,94.26 501,94.26 500,94.26 499,94.26 498,94.26 496,94.26 495,94.26 493,94.26 492,94.26 491,94.26 490,94.26 489,94.26 487,94.26 486,94.26 484,94.26 483,94.26 482,94.26 481,94.26 479,94.26 478,94.26 476,94.26 476,94.26 475,94.26 473,94.26 472,94.26 470,94.26 469,94.26 468,94.26 468,94.26 467,94.26 466,94.26 465,94.26 464,94.26 463,94.26 462,94.26 461,94.26 461,94.26 462,94.26 462,93.26 463,92.26 465,91.26 465,90.26 465,89.26 467,88.26 468,88.26 468,87.26 468,86.26 469,86.26 470,85.26 471,84.26 471,83.26 472,82.26 474,80.26 474,78.26 476,78.26 476,76.26 477,75.26 477,74.26 478,72.26 479,72.26 480,70.26 480,69.26 480,68.26 481,68.26 482,66.26 482,65.26 483,65.26 483,63.26 484,62.26 484,61.26 484,59.26 484,58.26 484,56.26 484,54.26 484,54.26 484,52.26 484,51.26 484,50.26 484,49.26 484,48.26 484,47.26 484,46.26 484,46.26 484,45.26 484,44.26 484,44.26 483,44.26 482,44.26 481,45.26 479,45.26 479,46.26 478,46.26 477,46.26 476,47.26 476,47.26 476,48.26 475,48.26 474,49.26 474,50.26 473,51.26 472,52.26 471,53.26 470,54.26 469,54.26 468,55.26 468,56.26 467,57.26 467,59.26 466,60.26 465,61.26 464,62.26 464,62.26 463,63.26 462,64.26 462,66.26 461,67.26 460,68.26 460,69.26 460,70.26 459,70.26 458,72.26 457,73.26 457,74.26 456,76.26 456,77.26 455,78.26 454,80.26 453,83.26 452,84.26 452,86.26 452,86.26 452,87.26 452,89.26 452,90.26 452,91.26 452,92.26 451,93.26 451,94.26 451,95.26 451,96.26 451,97.26 451,98.26 451,99.26 451,101.26 451,102.26 451,103.26 451,105.26 451,106.26 451,108.26 451,109.26 452,110.26 452,110.26 453,111.26 453,112.26 454,112.26 455,113.26 456,114.26 457,115.26 458,115.26 459,116.26 460,116.26 460,117.26 461,117.26 463,117.26 465,117.26 466,117.26 467,117.26 468,117.26 469,117.26 470,117.26 472,117.26 475,117.26 476,117.26 477,117.26 479,117.26 480,116.26 482,116.26 483,115.26 484,115.26 486,113.26 488,113.26 489,111.26 491,111.26 493,110.26 495,110.26 497,110.26 499,110.26 500,110.26 503,110.26 506,109.26 508,108.26 509,107.26 512,106.26 515,106.26 517,104.26 519,103.26 522,102.26 524,102.26 527,102.26 527,101.26 530,100.26 533,99.26 535,98.26 538,97.26 540,97.26 543,95.26 546,94.26 548,94.26 550,94.26 553,92.26 555,91.26 556,90.26 560,90.26 563,89.26 564,89.26 566,88.26 568,87.26 570,87.26 572,86.26 573,86.26 574,85.26 576,85.26 578,83.26 580,82.26 582,81.26 583,81.26 584,80.26 585,80.26 586,79.26 587,79.26 587,78.26 588,78.26 588,78.26 588,78.26"/>
		</g>
	</g>
</svg>