<?xml version="1.0"?>
<!DOCTYPE svg PUBLIC "-//W3C//DTD SVG 1.1//EN" "http://www.w3.org/Graphics/SVG/1.1/DTD/svg11.dtd">
<svg xmlns="http://www.w3.org/2000/svg" width="15cm" height="15cm">
	<g fill="#fff">
		<rect x="0" y="0" width="720" height="184"/>
		<g fill="none" stroke="#000" stroke-width="2">
			<polyline points="214,35.93 214,36.93 213,36.93 212,36.93 212,37.93 211,38.93 210,39.93 209,39.93 208,40.93 207,40.93 206,41.93 206,42.93 205,43.93 204,45.93 204,46.93 204,48.93 204,48.93 203,50.93 202,52.93 202,53.93 200,56.93 200,56.93 200,58.93 200,59.93 199,61.93 198,62.93 197,64.93 196,65.93 196,67.93 196,68.93 195,70.93 194,72.93 192,73.93 191,75.93 191,77.93 189,79.93 189,80.93 189,80.93 188,83.93 187,85.93 185,86.93 184,88.93 184,90.93 183,92.93 181,94.93 180,96.93 179,97.93 177,100.93 176,101.93 176,104.93 173,105.93 172,107.93 171,109.93 169,111.93 167,112.93 167,114.93 165,117.93 164,118.93 162,120.93 160,122.93 158,124.93 156,127.93 156,127.93 154,129.93 152,130.93 151,132.93 149,134.93 147,136.93 145,138.93 143,139.93 142,141.93 140,143.93 139,144.93 137,147.93 134,148.93 133,151.93 132,152.93 130,153.93 128,155.93 127,156.93 126,158.93 124,159.93 123,160.93 121,162.93 120,162.93 119,164.93 117,166.93 116,167.93 116,168.93 114,168.93 114,169.93 112,171.93 110,173.93 109,174.93 108,175.93 108,176.93 106,176.93 105,177.93 104,177.93 103,178.93 102,180.93 100,181.93 100,181.93 99,183.93 98,184.93 97,184.93 97,184.93 96,184.93 95,185.93 94,185.93 94,186.93 93,186.93 93,185.93 93,184.93 93,184.93 93,183.93 93,182.93 93,181.93 93,179.93 93,178.93 93,177.93 93,176.93 93,176.93 93,175.93"/>
			<polyline points="131,96.93 132,96.93 132,96.93 133,96.93 133,95.93 135,94.93 136,94.93 137,94.93 138,94.93 140,94.93 140,94.93 142,94.93 143,94.93 144,93.93 146,93.93 147,92.93 148,92.93 148,91.93 150,91.93 152,90.93 152,89.93 153,89.93 155,88.93 156,88.93 157,88.93 158,88.93 160,87.93 161,86.93 162,85.93 163,85.93 164,84.93 164,84.93 165,84.93 166,83.93 167,83.93 168,82.93 169,82.93 171,80.93 172,80.93 172,80.93 173,80.93 174,80.93 175,80.93 175,79.93 176,79.93 177,79.93 179,79.93 180,79.93 180,79.93 181,78.93 183,78.93 184,77.93 185,77.93 187,76.93 188,76.93 188,76.93 189,76.93 190,76.93 191,76.93 192,76.93 193,75.93 194,75.93 195,75.93 196,75.93 196,75.93 197,75.93 198,75.93 199,75.93 201,75.93 202,75.93 203,75.93 204,75.93 205,75.93 206,75.93 207,75.93 208,76.93 209,77.93 211,77.93 212,77.93 213,77.93 214,78.93 215,79.93 216,79.93 217,79.93 219,80.93 220,80.93 220,80.93 220,81.93 221,81.93 222,81.93 223,81.93 223,82.93 224,82.93 225,83.93 225,84.93 226,84.93 228,85.93 228,87.93 229,88.93 230,88.93 230,88.93 230,89.93 231,89.93 231,90.93 232,91.93 233,91.93 233,92.93 233,93.93 233,94.93 234,94.93 234,95.93 234,96.93 235,96.93 235,96.93 235,97.93 235,98.93 236,99.93 236,100.93 236,101.93 236,102.93 236,103.93 236,104.93 236,104.93 236,105.93 236,106.93 236,107.93 236,108.93 236,110.93 236,111.93 236,112.93 235,112.93 235,114.93 234,115.93 233,115.93 233,117.93 232,118.93 231,118.93 230,120.93 229,120.93 228,120.93 228,122.93 226,123.93 225,124.93 224,125.93 223,126.93 222,127.93 220,127.93 219,128.93 217,129.93 215,130.93 214,131.93 212,133.93 211,133.93 209,133.93 208,135.93 205,136.93 204,136.93 202,136.93 200,138.93 198,139.93 196,139.93 195,140.93 192,140.93 189,141.93 188,141.93 186,143.93 184,143.93 182,144.93 180,144.93 177,144.93 175,146.93 173,146.93 172,147.93 169,147.93 166,148.93 165,148.93 163,149.93 161,150.93 159,150.93 156,150.93 155,151.93 153,152.93 151,152.93 148,152.93 147,152.93 146,153.93 143,153.93 141,153.93 139,153.93 138,153.93 136,153.93 133,153.93 132,153.93 131,155.93 129,155.93 128,155.93 126,155.93 124,155.93 124,155.93 121,155.93 120,155.93 118,155.93 117,155.93 116,155.93 115,155.93 114,155.93 113,155.93 112,155.93 111,155.93 110,155.93 109,155.93 108,154.93 108,153.93 107,153.93 106,153.93 105,152.93 104,152.93 103,152.93 103,152.93 102,152.93 101,151.93 100,151.93 100,150.93 100,150.93 100,149.93 100,148.93 98,147.93 98,146.93 98,145.93 98,144.93 97,144.93 97,144.93 97,143.93 97,142.93 96,141.93 96,140.93 96,139.93 96,138.93 96,137.93 96,136.93 96,135.93 97,135.93 97,134.93 98,134.93 98,133.93 99,132.93 99,131.93 100,131.93 100,130.93 100,130.93 101,129.93 102,129.93 102,128.93 103,128.93 104,128.93 105,128.93 106,128.93 108,127.93 108,126.93 108,126.93 109,126.93 110,125.93 111,124.93 112,124.93 113,123.93 115,123.93 116,123.93 116,123.93 116,122.93 118,122.93 119,121.93 121,121.93 122,121.93 123,121.93 124,121.93 125,121.93 127,121.93 129,121.93 130,121.93 132,121.93 133,121.93 135,121.93 138,121.93 139,121.93 140,121.93 141,121.93 143,121.93 147,121.93 148,121.93 149,121.93 152,121.93 155,122.93 156,122.93 158,122.93 161,123.93 164,123.93 165,124.93 169,125.93 171,126.93 173,127.93 176,127.93 179,128.93 181,128.93 185,129.93 188,130.93 190,130.93 193,130.93 196,131.93 199,132.93 202,133.93 204,134.93 208,134.93 211,135.93 214,136.93 216,137.93 220,138.93 222,139.93 225,140.93 228,141.93 231,142.93 234,143.93 237,144.93 241,144.93 244,145.93 248,146.93 251,146.93 254,146.93 258,148.93 261,148.93 264,149.93 268,150.93 269,150.93 273,151.93 276,152.93 278,152.93 281,152.93 284,153.93 286,154.93 290,155.93 292,155.93 295,155.93 298,156.93 300,157.93 302,158.93 307,158.93 309,158.93 313,159.93 315,159.93 316,159.93 319,160.93 323,160.93 324,160.93 326,160.93 329,160.93 330,161.93 332,161.93 335,161.93 337,162.93 339,162.93 340,163.93 342,163.93 344,164.93 346,164.93 347,164.93 348,164.93 350,165.93 352,165.93 353,165.93 355,165.93 356,165.93 357,165.93 358,165.93 359,165.93 361,165.93 362,165.93 363,165.93 362,165.93 362,164.93"/>
			<polyline points="353,135.93 353,134.93 352,134.93 352,135.93 351,135.93 350,135.93 349,135.93 348,135.93 348,136.93 348,136.93 348,136.93 347,136.93 346,136.93 345,137.93 344,137.93 344,138.93 343,138.93 342,139.93 341,139.93 340,140.93 340,140.93 340,141.93 339,141.93 338,141.93 337,141.93 337,142.93 336,142.93 335,143.93 334,143.93 333,144.93 332,144.93 332,144.93 331,144.93 331,145.93 330,145.93 329,145.93 328,145.93 328,146.93 327,146.93 326,146.93 326,147.93 325,147.93 324,147.93 324,148.93 324,148.93 324,149.93 323,149.93 322,149.93 321,150.93 320,150.93 320,151.93 320,152.93 319,152.93 318,152.93 317,152.93 317,152.93 317,153.93 317,154.93 317,155.93 317,156.93 317,157.93 317,158.93 317,159.93 317,160.93 318,160.93 319,160.93 320,160.93 321,160.93 322,160.93 323,159.93 324,159.93 324,158.93 324,158.93 325,157.93 326,157.93 327,157.93 328,156.93 329,155.93 330,155.93 331,155.93 332,154.93 332,154.93 332,153.93 333,152.93 334,152.93 335,152.93 336,152.93 337,152.93 337,151.93 338,151.93 340,150.93 340,150.93 341,149.93 342,149.93 343,148.93 344,148.93 345,148.93 346,147.93 347,146.93 348,146.93 349,145.93 350,144.93 351,144.93 352,144.93 353,144.93 353,143.93 354,143.93 354,142.93 355,142.93 356,142.93 356,141.93 356,141.93 357,141.93 357,140.93 357,139.93 358,139.93 359,139.93 360,139.93 359,139.93 358,139.93 358,140.93 357,140.93 356,140.93 356,141.93 356,141.93 356,142.93 355,142.93 354,143.93 353,143.93 352,143.93 352,144.93 352,144.93 351,144.93 351,145.93 351,146.93 351,147.93 351,148.93 351,149.93 351,150.93 351,151.93 351,152.93 352,152.93 352,152.93 353,152.93 353,153.93 354,154.93 355,154.93 355,155.93 356,155.93 356,156.93 356,156.93 357,156.93 358,156.93 359,156.93 360,156.93 361,155.93 362,155.93 363,155.93 363,154.93 364,154.93 364,154.93 364,153.93 365,153.93 365,152.93 366,152.93 367,152.93 367,152.93 368,152.93 369,151.93 369,150.93 370,150.93 371,150.93 371,149.93 372,149.93 372,148.93 372,148.93 373,147.93 373,146.93 373,145.93 374,145.93 374,144.93 374,144.93 375,144.93 375,142.93 375,141.93 375,140.93 375,139.93 376,138.93 376,137.93 377,136.93 378,136.93 378,135.93 378,134.93 378,133.93 378,132.93 378,131.93 378,130.93 379,130.93 379,129.93 379,128.93 379,128.93 379,128.93 379,129.93 378,129.93 377,129.93 377,130.93 376,131.93 376,132.93 376,133.93 376,134.93 376,135.93 376,136.93 376,136.93 376,137.93 376,138.93 376,139.93 376,140.93 376,141.93 376,142.93 376,143.93 376,144.93 376,144.93 376,145.93 376,146.93 376,147.93 376,148.93 376,149.93 376,150.93 376,151.93 376,152.93 376,152.93 376,153.93 376,154.93 376,155.93 377,155.93 377,156.93 378,156.93 378,157.93 379,157.93 380,157.93 380,156.93 380,156.93 381,155.93 382,155.93 382,154.93 383,154.93 384,154.93 384,153.93 385,153.93 385,152.93 386,152.93 386,152.93 387,151.93 388,150.93 388,148.93 388,147.93 389,146.93 389,144.93 390,144.93 391,143.93 391,142.93 391,141.93 392,140.93 392,138.93 393,137.93 393,136.93 394,136.93 394,135.93 395,134.93 395,133.93 395,132.93 395,131.93 395,130.93 396,130.93 396,129.93 396,128.93 396,128.93 396,128.93 396,127.93 396,126.93 396,125.93 396,124.93 397,124.93 397,123.93 397,122.93 398,121.93 398,120.93 398,120.93 398,119.93 399,119.93 399,118.93 399,117.93 398,117.93 398,118.93 398,119.93 398,120.93 398,120.93 398,121.93 398,122.93 398,123.93 398,124.93 398,125.93 398,126.93 397,127.93 397,128.93 397,128.93 397,129.93 397,130.93 397,131.93 397,132.93 397,134.93 397,135.93 397,136.93 397,136.93 397,137.93 397,138.93 397,139.93 397,140.93 397,141.93 397,142.93 397,143.93 397,144.93 397,144.93 397,145.93 397,146.93 397,147.93 398,147.93 398,148.93 398,149.93 399,149.93 400,149.93 401,149.93 402,149.93 403,149.93 403,148.93 404,148.93 404,148.93 405,148.93 405,147.93 406,147.93 406,146.93 407,146.93 407,145.93 408,145.93 409,145.93 410,144.93 411,144.93 412,144.93 412,144.93 412,143.93 413,143.93 414,142.93 415,142.93 416,141.93 416,140.93 417,140.93 418,140.93 419,140.93 420,140.93 420,139.93 420,139.93 420,138.93 421,137.93 422,137.93 423,137.93 424,138.93 425,138.93 425,139.93 426,139.93 427,139.93 427,138.93 428,137.93 428,136.93 428,135.93 428,134.93 429,133.93 429,131.93 429,130.93 430,129.93 430,128.93 430,128.93 431,126.93 432,125.93 432,123.93 432,122.93 432,121.93 432,120.93 432,120.93 433,119.93 434,119.93 434,118.93 435,117.93 435,116.93 436,115.93 436,114.93 436,114.93 436,113.93 436,112.93 437,112.93 438,112.93 438,112.93 438,111.93 439,111.93 440,111.93 440,110.93 441,110.93 441,109.93 442,109.93 443,109.93 443,108.93 444,108.93 444,108.93 444,109.93 444,110.93 445,110.93 445,111.93 445,112.93 445,112.93 445,114.93 445,115.93 445,116.93 445,118.93 445,119.93 445,120.93 445,120.93 446,120.93 446,121.93 446,123.93 446,124.93 446,126.93 447,126.93 447,127.93 447,128.93 448,129.93 448,130.93 448,131.93 448,132.93 448,133.93 448,134.93 448,136.93 448,136.93 448,137.93 448,138.93 448,140.93 449,140.93 449,142.93 450,144.93 450,144.93 451,146.93 451,147.93 451,148.93 451,150.93 451,151.93 451,152.93 451,153.93 451,155.93 452,157.93 452,158.93 452,159.93 452,160.93 452,161.93 452,164.93 452,165.93 452,167.93 452,168.93 452,168.93 452,170.93 452,172.93 452,173.93 452,174.93 452,175.93 452,176.93 452,176.93 452,177.93 452,178.93 452,179.93 452,181.93 451,182.93 451,183.93 450,184.93 450,184.93 450,185.93 450,187.93 450,188.93 450,189.93 449,190.93 448,191.93 448,192.93 448,192.93 447,192.93 447,193.93 446,194.93 445,195.93 445,196.93 444,196.93 444,197.93 443,197.93 442,198.93 441,198.93 441,199.93 440,199.93 439,199.93 438,199.93 437,199.93 436,199.93 436,199.93 435,199.93 434,199.93 433,199.93 433,198.93 432,198.93 431,197.93 430,196.93 430,195.93 430,194.93 429,194.93 429,193.93 428,192.93 428,192.93 428,191.93 428,190.93 428,189.93 428,188.93 427,186.93 427,185.93 426,184.93 426,184.93 426,183.93 425,182.93 425,180.93 425,179.93 424,178.93 424,176.93 424,175.93 424,174.93 424,172.93 424,171.93 424,169.93 424,168.93 424,167.93 424,166.93 424,164.93 424,163.93 424,161.93 424,160.93 424,159.93 424,158.93 424,157.93 424,156.93 424,155.93 424,154.93 425,154.93 425,152.93 426,152.93 426,152.93 427,151.93 427,150.93 427,149.93 428,148.93 428,148.93 428,147.93 428,145.93 429,145.93 430,144.93 431,144.93 431,143.93 433,143.93 433,142.93 434,142.93 434,140.93 436,140.93 436,139.93 436,139.93 437,138.93 437,137.93 439,137.93 440,137.93 440,136.93 442,136.93 444,134.93 445,133.93 447,133.93 447,132.93 449,131.93 451,130.93 452,130.93 453,129.93 455,128.93 456,128.93 459,128.93 460,128.93 461,127.93 464,127.93 465,125.93 468,124.93 471,123.93 473,123.93 475,122.93 477,122.93 480,121.93 482,120.93 484,120.93 486,120.93 488,118.93 490,118.93 492,118.93 495,117.93 496,117.93 499,116.93 502,115.93 505,115.93 507,113.93 509,113.93 512,113.93 516,112.93 517,112.93 521,111.93 523,111.93 525,110.93 528,109.93 531,108.93 532,108.93 534,107.93 537,106.93 540,105.93 542,105.93 544,104.93 547,104.93 549,104.93 552,103.93 554,102.93 556,102.93 559,102.93 561,102.93 564,101.93 566,100.93 569,100.93 571,99.93 574,99.93 577,99.93 579,98.93 581,97.93 584,97.93 586,96.93 588,96.93 589,96.93 592,96.93 593,95.93 595,95.93 596,95.93 598,95.93 599,95.93 601,95.93 604,94.93 605,94.93 606,94.93 607,93.93 608,93.93 609,93.93 610,93.93 611,92.93 612,92.93 612,92.93 613,92.93 614,92.93 615,92.93 615,93.93"/>
		</g>
	</g>
</svg>