<?xml version="1.0"?>
<!DOCTYPE svg PUBLIC "-//W3C//DTD SVG 1.1//EN" "http://www.w3.org/Graphics/SVG/1.1/DTD/svg11.dtd">
<svg xmlns="http://www.w3.org/2000/svg" width="15cm" height="15cm">
	<g fill="#fff">
		<rect x="0" y="0" width="720" height="184"/>
		<g fill="none" stroke="#000" stroke-width="2">
			<polyline points="158.67,35.93 158.67,36.93 156.67,36.93 150.67,39.93 135.67,47.93 108.67,61.93 79.67,84.93 43.67,112.93 26.67,126.93 19.67,133.93 21.67,133.93 31.67,127.93 40.67,117.93 56.67,101.93 72.67,83.93 87.67,71.93 103.67,58.93 116.67,50.93 118.67,48.93 119.67,48.93 118.67,52.93 115.67,66.93 114.67,82.93 115.67,94.93 120.67,101.93 122.67,104.93 127.67,104.93 130.67,100.93 138.67,92.93 151.67,80.93 161.67,70.93 166.67,62.93 170.67,57.93 170.67,57.93 164.67,61.93 158.67,75.93 152.67,92.93 149.67,104.93 151.67,114.93 155.67,119.93 162.67,119.93 168.67,117.93 176.67,108.93 187.67,96.93 197.67,85.93 207.67,76.93 215.67,72.93 212.67,72.93 207.67,81.93 202.67,92.93 200.67,103.93 199.67,111.93 199.67,113.93 199.67,114.93 200.67,113.93 204.67,107.93 210.67,100.93 215.67,92.93 220.67,86.93 223.67,84.93 222.67,85.93 218.67,91.93 218.67,96.93 218.67,100.93 218.67,102.93 220.67,101.93 224.67,99.93 227.67,94.93 230.67,88.93 234.67,83.93 236.67,79.93 239.67,75.93 241.67,75.93 240.67,75.93 240.67,74.93 240.67,73.93 240.67,72.93 239.67,72.93 238.67,72.93 238.67,73.93 238.67,74.93 238.67,80.93 238.67,87.93 237.67,98.93 237.67,109.93 233.67,123.93 225.67,138.93 212.67,152.93 196.67,161.93 194.67,163.93 195.67,157.93 203.67,146.93 215.67,135.93 226.67,124.93 239.67,118.93 253.67,112.93 266.67,113.93 279.67,120.93 291.67,129.93 300.67,134.93 308.67,136.93 312.67,136.93 317.67,131.93 323.67,121.93 325.67,112.93 326.67,104.93 324.67,98.93 322.67,94.93 318.67,95.93 313.67,97.93 309.67,104.93 306.67,109.93 306.67,111.93 308.67,113.93 317.67,112.93 332.67,109.93 356.67,103.93 400.67,101.93 448.67,100.93 488.67,101.93 513.67,103.93 518.67,103.93 518.67,102.93 517.67,102.93"/>
		</g>
	</g>
</svg>