<?xml version="1.0"?>
<!DOCTYPE svg PUBLIC "-//W3C//DTD SVG 1.1//EN" "http://www.w3.org/Graphics/SVG/1.1/DTD/svg11.dtd">
<svg xmlns="http://www.w3.org/2000/svg" width="15cm" height="15cm">
	<g fill="#fff">
		<rect x="0" y="0" width="720" height="184"/>
		<g fill="none" stroke="#000" stroke-width="2">
			<polyline points="206.67,41.93 205.67,41.93 205.67,42.93 204.67,43.93 203.67,44.93 202.67,45.93 202.67,47.93 201.67,48.93 200.67,48.93 200.67,50.93 199.67,51.93 198.67,52.93 197.67,54.93 195.67,56.93 195.67,56.93 194.67,57.93 193.67,59.93 192.67,61.93 190.67,62.93 189.67,64.93 187.67,65.93 186.67,67.93 186.67,68.93 184.67,71.93 184.67,72.93 183.67,73.93 181.67,75.93 179.67,77.93 178.67,79.93 178.67,80.93 175.67,81.93 175.67,84.93 173.67,86.93 171.67,88.93 170.67,89.93 169.67,92.93 168.67,95.93 167.67,96.93 165.67,97.93 164.67,100.93 163.67,102.93 162.67,104.93 161.67,105.93 160.67,108.93 158.67,110.93 157.67,112.93 155.67,113.93 154.67,115.93 154.67,118.93 153.67,120.93 153.67,121.93 152.67,121.93 151.67,124.93 149.67,126.93 148.67,128.93 148.67,129.93 147.67,131.93 146.67,132.93 146.67,135.93 145.67,136.93 143.67,138.93 142.67,139.93 141.67,141.93 140.67,144.93 139.67,145.93 138.67,146.93 138.67,148.93 138.67,150.93 137.67,151.93 136.67,152.93 136.67,153.93 136.67,154.93 135.67,156.93 134.67,157.93 134.67,158.93 133.67,159.93 133.67,160.93 132.67,160.93 132.67,162.93 130.67,163.93 130.67,165.93 130.67,166.93 129.67,166.93 129.67,168.93 128.67,168.93 128.67,169.93 128.67,170.93 127.67,170.93 127.67,171.93 126.67,171.93"/>
			<polyline points="130.67,95.93 130.67,96.93 130.67,96.93 130.67,96.93 131.67,96.93 131.67,97.93 131.67,98.93 132.67,98.93 133.67,99.93 133.67,100.93 134.67,101.93 135.67,101.93 135.67,102.93 136.67,102.93 137.67,103.93 138.67,103.93 138.67,104.93 139.67,104.93 140.67,104.93 142.67,105.93 143.67,106.93 145.67,107.93 146.67,108.93 147.67,108.93 148.67,108.93 149.67,108.93 151.67,108.93 153.67,109.93 154.67,109.93 154.67,109.93 156.67,112.93 158.67,112.93 159.67,112.93 161.67,112.93 163.67,112.93 166.67,112.93 167.67,112.93 169.67,112.93 172.67,112.93 173.67,112.93 175.67,112.93 177.67,112.93 178.67,112.93 180.67,112.93 181.67,112.93 182.67,112.93 185.67,112.93 186.67,112.93 189.67,112.93 191.67,112.93 193.67,112.93 195.67,112.93 198.67,112.93 200.67,112.93 202.67,112.93 203.67,112.93 206.67,112.93 210.67,112.93 211.67,112.93 213.67,112.93 216.67,112.93 218.67,112.93 220.67,112.93 224.67,112.93 226.67,112.93 228.67,112.93 230.67,112.93 233.67,112.93 236.67,112.93 241.67,112.93 242.67,112.93 245.67,111.93 248.67,111.93 250.67,110.93 252.67,109.93 255.67,109.93 258.67,108.93 259.67,108.93 261.67,107.93 263.67,107.93 265.67,106.93 267.67,106.93 268.67,106.93 270.67,105.93 272.67,105.93 274.67,104.93 275.67,104.93 278.67,104.93 280.67,103.93 281.67,103.93 283.67,103.93 284.67,101.93 286.67,100.93 287.67,100.93 290.67,100.93 291.67,99.93 292.67,98.93 294.67,96.93 297.67,96.93 298.67,96.93 298.67,96.93 300.67,95.93 303.67,94.93 303.67,93.93 304.67,92.93 306.67,92.93 306.67,91.93 308.67,91.93 309.67,89.93 309.67,88.93 310.67,88.93 311.67,88.93 312.67,88.93 312.67,87.93 313.67,86.93 314.67,86.93 314.67,85.93 314.67,84.93 314.67,83.93 315.67,82.93 316.67,81.93 316.67,80.93 317.67,80.93 318.67,79.93 318.67,78.93 318.67,77.93 319.67,76.93 319.67,75.93 319.67,74.93 320.67,74.93 320.67,73.93 320.67,72.93 320.67,72.93 321.67,72.93 321.67,70.93 321.67,69.93 321.67,68.93 321.67,67.93 321.67,66.93 321.67,64.93 322.67,64.93 322.67,63.93 322.67,62.93 322.67,61.93 322.67,60.93 322.67,59.93 323.67,59.93 323.67,58.93 323.67,57.93 322.67,57.93 322.67,57.93 321.67,58.93 320.67,58.93 319.67,58.93 319.67,59.93 318.67,59.93 317.67,59.93 316.67,59.93 315.67,60.93 315.67,61.93 314.67,61.93 314.67,61.93 314.67,62.93 313.67,62.93 312.67,63.93 311.67,64.93 310.67,64.93 308.67,65.93 307.67,67.93 306.67,67.93 306.67,69.93 305.67,71.93 305.67,72.93 304.67,74.93 303.67,76.93 301.67,77.93 300.67,79.93 298.67,80.93 298.67,81.93 298.67,83.93 297.67,86.93 296.67,88.93 294.67,89.93 292.67,90.93 291.67,93.93 290.67,96.93 290.67,96.93 289.67,99.93 287.67,103.93 285.67,104.93 284.67,107.93 282.67,110.93 282.67,110.93 282.67,113.93 280.67,114.93 279.67,116.93 278.67,119.93 276.67,120.93 275.67,123.93 274.67,124.93 274.67,126.93 272.67,128.93 272.67,129.93 270.67,130.93 268.67,133.93 267.67,135.93 266.67,136.93 266.67,137.93 264.67,139.93 264.67,141.93 262.67,144.93 261.67,144.93 261.67,145.93 260.67,146.93 258.67,149.93 257.67,150.93 257.67,152.93 256.67,152.93 254.67,154.93 254.67,155.93 254.67,156.93 252.67,158.93 252.67,159.93 251.67,160.93 250.67,161.93 250.67,161.93 249.67,162.93 249.67,163.93 249.67,164.93 248.67,165.93 248.67,166.93 247.67,167.93 246.67,167.93 246.67,168.93 246.67,168.93 246.67,169.93 245.67,169.93 245.67,170.93 245.67,171.93 246.67,171.93 247.67,170.93 248.67,170.93 249.67,169.93 250.67,169.93 250.67,168.93 250.67,168.93 252.67,168.93 252.67,168.93 254.67,168.93 255.67,168.93 255.67,167.93 256.67,166.93 258.67,166.93 258.67,166.93 259.67,164.93 261.67,164.93 262.67,163.93 264.67,162.93 266.67,161.93 266.67,160.93 269.67,160.93 271.67,160.93 272.67,158.93 273.67,157.93 275.67,156.93 277.67,154.93 279.67,154.93 280.67,153.93 283.67,152.93 286.67,151.93 288.67,149.93 290.67,148.93 290.67,146.93 293.67,146.93 296.67,144.93 298.67,143.93 300.67,142.93 302.67,141.93 304.67,139.93 306.67,138.93 307.67,137.93 309.67,136.93 311.67,135.93 314.67,134.93 314.67,132.93 318.67,131.93 318.67,130.93 321.67,128.93 322.67,128.93 323.67,127.93 325.67,126.93 327.67,124.93 330.67,123.93 330.67,122.93 332.67,120.93 334.67,120.93 335.67,119.93 336.67,119.93 338.67,118.93 338.67,117.93 339.67,116.93 340.67,116.93 341.67,115.93 342.67,114.93 342.67,113.93 343.67,113.93 344.67,112.93 345.67,112.93 346.67,112.93 346.67,112.93 347.67,111.93 348.67,111.93 348.67,110.93 349.67,110.93 350.67,110.93 350.67,109.93 350.67,111.93 350.67,112.93 349.67,112.93 349.67,112.93 349.67,113.93 349.67,114.93 349.67,115.93 349.67,116.93 349.67,117.93 349.67,118.93 349.67,119.93 349.67,120.93 349.67,120.93 349.67,121.93 349.67,122.93 349.67,123.93 349.67,124.93 349.67,125.93 349.67,126.93 349.67,127.93 349.67,128.93 349.67,128.93 349.67,129.93 349.67,130.93 349.67,131.93 349.67,132.93 349.67,133.93 350.67,133.93 350.67,134.93 350.67,135.93 351.67,135.93 352.67,135.93 352.67,134.93 353.67,134.93 353.67,133.93 353.67,132.93 353.67,131.93 354.67,131.93 354.67,130.93 354.67,129.93 355.67,129.93 355.67,128.93 355.67,128.93 355.67,127.93 356.67,127.93 357.67,126.93 357.67,125.93 357.67,124.93 358.67,123.93 359.67,122.93 359.67,121.93 359.67,120.93 360.67,120.93 360.67,120.93 360.67,119.93 361.67,119.93 361.67,118.93 361.67,117.93 362.67,116.93 362.67,115.93 362.67,114.93 362.67,113.93 362.67,112.93 362.67,112.93 362.67,112.93 363.67,112.93 363.67,112.93 363.67,113.93 363.67,114.93 363.67,115.93 364.67,115.93 364.67,116.93 364.67,117.93 364.67,118.93 365.67,118.93 366.67,118.93 367.67,118.93 368.67,118.93 369.67,117.93 370.67,117.93 370.67,116.93 371.67,116.93 372.67,116.93 372.67,115.93 373.67,115.93 373.67,114.93 374.67,114.93 375.67,114.93 376.67,114.93 377.67,113.93 378.67,113.93 378.67,112.93 379.67,112.93 379.67,112.93 380.67,112.93 381.67,112.93 382.67,112.93 383.67,112.93 384.67,111.93 385.67,111.93 385.67,110.93 386.67,110.93 386.67,110.93 387.67,110.93 388.67,110.93 388.67,109.93 389.67,109.93 390.67,109.93 391.67,109.93 392.67,108.93 393.67,108.93 394.67,108.93 395.67,108.93 395.67,107.93 396.67,107.93 397.67,107.93 398.67,106.93 400.67,106.93 401.67,105.93 402.67,105.93 402.67,105.93 403.67,105.93 404.67,105.93 405.67,105.93 405.67,106.93 405.67,107.93 405.67,108.93 405.67,109.93 404.67,110.93 403.67,111.93 402.67,112.93 402.67,112.93 402.67,113.93 401.67,113.93 401.67,114.93 401.67,115.93 400.67,115.93 400.67,116.93 399.67,117.93 399.67,118.93 398.67,118.93 398.67,119.93 398.67,120.93 398.67,120.93 398.67,121.93 398.67,122.93 398.67,123.93 398.67,124.93 397.67,124.93 397.67,125.93 397.67,126.93 397.67,127.93 398.67,127.93 399.67,127.93 399.67,126.93 401.67,125.93 402.67,124.93 402.67,123.93 402.67,123.93 402.67,122.93 403.67,121.93 403.67,120.93 404.67,120.93 405.67,119.93 406.67,119.93 406.67,118.93 407.67,117.93 408.67,116.93 408.67,115.93 409.67,114.93 410.67,113.93 410.67,112.93 411.67,112.93 411.67,111.93 412.67,110.93 413.67,109.93 413.67,108.93 414.67,108.93 415.67,108.93 415.67,107.93 415.67,106.93 416.67,105.93 417.67,105.93 417.67,104.93 417.67,104.93 418.67,104.93 418.67,103.93 419.67,103.93 419.67,102.93 420.67,101.93 421.67,101.93 421.67,100.93 422.67,100.93 423.67,99.93 424.67,99.93 424.67,98.93 425.67,97.93 426.67,97.93 426.67,96.93 427.67,96.93 427.67,96.93 428.67,96.93 428.67,95.93 429.67,95.93 430.67,95.93 431.67,95.93 431.67,94.93 432.67,94.93 433.67,94.93 433.67,93.93 434.67,93.93 434.67,93.93 434.67,92.93 435.67,92.93 436.67,92.93 436.67,91.93 436.67,92.93 436.67,93.93 436.67,94.93 436.67,95.93 436.67,96.93 436.67,96.93 436.67,97.93 436.67,98.93 436.67,99.93 436.67,100.93 436.67,101.93 436.67,102.93 436.67,103.93 436.67,104.93 436.67,104.93 436.67,105.93 436.67,106.93 436.67,107.93 436.67,108.93 436.67,109.93 436.67,110.93 436.67,111.93 437.67,112.93 437.67,112.93 437.67,113.93 438.67,113.93 439.67,114.93 439.67,115.93 439.67,116.93 440.67,116.93 441.67,117.93 441.67,118.93 442.67,118.93 442.67,118.93 443.67,118.93 444.67,118.93 445.67,118.93 446.67,118.93 447.67,118.93 448.67,118.93 448.67,117.93 449.67,117.93 449.67,116.93 450.67,116.93 450.67,115.93 451.67,114.93 452.67,114.93 452.67,113.93 453.67,112.93 454.67,112.93 454.67,112.93 454.67,110.93 455.67,110.93 456.67,109.93 457.67,108.93 457.67,107.93 458.67,106.93 458.67,105.93 458.67,104.93 459.67,103.93 459.67,102.93 460.67,102.93 461.67,100.93 461.67,99.93 462.67,97.93 462.67,96.93 463.67,96.93 464.67,96.93 465.67,94.93 465.67,93.93 465.67,91.93 465.67,90.93 466.67,90.93 466.67,89.93 466.67,88.93 467.67,88.93 467.67,86.93 467.67,84.93 468.67,84.93 468.67,83.93 468.67,82.93 468.67,81.93 469.67,81.93 469.67,80.93 469.67,80.93 470.67,79.93 470.67,78.93 470.67,77.93 470.67,76.93 471.67,76.93 471.67,75.93 471.67,74.93 471.67,73.93 471.67,72.93 471.67,72.93 471.67,71.93 471.67,70.93 470.67,70.93 469.67,70.93 468.67,70.93 468.67,71.93 467.67,72.93 466.67,72.93 466.67,72.93 466.67,73.93 466.67,74.93 465.67,74.93 465.67,75.93 465.67,76.93 464.67,76.93 464.67,77.93 464.67,78.93 464.67,79.93 464.67,80.93 464.67,80.93 464.67,81.93 464.67,82.93 464.67,83.93 464.67,84.93 464.67,85.93 464.67,86.93 463.67,86.93 463.67,87.93 463.67,88.93 463.67,88.93 463.67,89.93 463.67,90.93 463.67,91.93 463.67,92.93 464.67,92.93 465.67,92.93 466.67,92.93 466.67,92.93 467.67,92.93 468.67,92.93 469.67,92.93 470.67,92.93 471.67,92.93 472.67,92.93 473.67,92.93 474.67,92.93 474.67,91.93 474.67,91.93 475.67,91.93 475.67,90.93 476.67,90.93 477.67,90.93 478.67,90.93 479.67,90.93 480.67,90.93 480.67,89.93 481.67,88.93 482.67,88.93 482.67,88.93 482.67,88.93 483.67,88.93 484.67,88.93 485.67,88.93 486.67,88.93 487.67,88.93 488.67,88.93 489.67,88.93 490.67,88.93 490.67,88.93 491.67,88.93 492.67,88.93 494.67,88.93 495.67,88.93 496.67,88.93 497.67,88.93 498.67,89.93 498.67,89.93 499.67,89.93 500.67,89.93 501.67,89.93 502.67,89.93 503.67,89.93 504.67,89.93 506.67,89.93 506.67,89.93 507.67,89.93 509.67,89.93 511.67,89.93 512.67,89.93 514.67,89.93 515.67,89.93 517.67,89.93 518.67,89.93 519.67,89.93 520.67,89.93 522.67,89.93 523.67,89.93 525.67,88.93 526.67,88.93 527.67,88.93 529.67,88.93 530.67,88.93 530.67,88.93 532.67,88.93 532.67,87.93 533.67,87.93 534.67,87.93 535.67,87.93 536.67,87.93 537.67,87.93 538.67,87.93 538.67,87.93 540.67,87.93 540.67,86.93 541.67,85.93 543.67,85.93 544.67,85.93 545.67,85.93 546.67,85.93 546.67,85.93 547.67,84.93 548.67,83.93 549.67,82.93 550.67,82.93 551.67,82.93 552.67,82.93 552.67,81.93 552.67,80.93 552.67,80.93 553.67,80.93 554.67,80.93 554.67,79.93 554.67,78.93 554.67,77.93 554.67,76.93 554.67,76.93 555.67,76.93 556.67,76.93 557.67,76.93 557.67,75.93 558.67,75.93 558.67,74.93 559.67,74.93 560.67,74.93 561.67,74.93 562.67,74.93 562.67,73.93 563.67,73.93 564.67,72.93 565.67,72.93 567.67,72.93 568.67,72.93 569.67,71.93 570.67,71.93 571.67,71.93 572.67,69.93 573.67,69.93 574.67,69.93 576.67,68.93 577.67,68.93 578.67,68.93 579.67,68.93 580.67,68.93 581.67,67.93 582.67,67.93 583.67,66.93 584.67,65.93 586.67,65.93 586.67,64.93 588.67,64.93 590.67,64.93 592.67,64.93 593.67,64.93 594.67,64.93 595.67,64.93 595.67,63.93 597.67,63.93 598.67,63.93 599.67,63.93 600.67,63.93 601.67,62.93 602.67,62.93 602.67,62.93 603.67,62.93 603.67,60.93 605.67,60.93 606.67,59.93 608.67,59.93 609.67,59.93 610.67,59.93 610.67,59.93 612.67,58.93 613.67,58.93 613.67,57.93 614.67,57.93 615.67,57.93 616.67,56.93 617.67,56.93 618.67,56.93 618.67,56.93 619.67,56.93 620.67,56.93 621.67,56.93 622.67,56.93 623.67,56.93 624.67,56.93 625.67,56.93 626.67,56.93 626.67,56.93 627.67,56.93 628.67,56.93 629.67,56.93 630.67,56.93 631.67,56.93 632.67,56.93 633.67,56.93 634.67,56.93 634.67,56.93 635.67,56.93 636.67,56.93 637.67,56.93 638.67,56.93 639.67,56.93 640.67,56.93 641.67,56.93 642.67,56.93 642.67,56.93 643.67,57.93 644.67,57.93 645.67,57.93 646.67,57.93 647.67,57.93 648.67,57.93 649.67,57.93"/>
		</g>
	</g>
</svg>