<?xml version="1.0"?>
<!DOCTYPE svg PUBLIC "-//W3C//DTD SVG 1.1//EN" "http://www.w3.org/Graphics/SVG/1.1/DTD/svg11.dtd">
<svg xmlns="http://www.w3.org/2000/svg" width="15cm" height="15cm">
	<g fill="#fff">
		<rect x="0" y="0" width="720" height="184"/>
		<g fill="none" stroke="#000" stroke-width="2">
			<polyline points="236.67,47.93 236.67,48.93 236.67,50.93 236.67,51.93 236.67,53.93 236.67,54.93 236.67,55.93 236.67,56.93 236.67,56.93 236.67,57.93 236.67,58.93 236.67,59.93 235.67,60.93 234.67,62.93 234.67,63.93 234.67,64.93 234.67,64.93 234.67,65.93 234.67,66.93 234.67,67.93 233.67,68.93 233.67,70.93 233.67,72.93 233.67,73.93 232.67,73.93 231.67,75.93 231.67,76.93 230.67,78.93 229.67,80.93 229.67,80.93 229.67,82.93 229.67,84.93 228.67,86.93 227.67,87.93 226.67,88.93 226.67,90.93 226.67,92.93 226.67,95.93 224.67,96.93 224.67,97.93 224.67,98.93 224.67,100.93 223.67,101.93 223.67,103.93 223.67,104.93 221.67,106.93 221.67,107.93 221.67,110.93 221.67,111.93 220.67,112.93 219.67,113.93 219.67,115.93 218.67,117.93 218.67,118.93 218.67,120.93 218.67,121.93 218.67,123.93 218.67,124.93 218.67,126.93 218.67,127.93 217.67,127.93 216.67,128.93 216.67,130.93 215.67,130.93 215.67,132.93 215.67,133.93 215.67,134.93 215.67,135.93 215.67,136.93 214.67,136.93 214.67,137.93 213.67,137.93 212.67,138.93 212.67,139.93 212.67,140.93 212.67,141.93 212.67,142.93 212.67,143.93 211.67,143.93 210.67,143.93 210.67,144.93 210.67,144.93"/>
			<polyline points="213.67,64.93 215.67,63.93 218.67,62.93 219.67,61.93 222.67,61.93 225.67,60.93 226.67,59.93 228.67,58.93 231.67,58.93 233.67,58.93 235.67,57.93 238.67,56.93 241.67,56.93 242.67,55.93 244.67,54.93 248.67,54.93 251.67,53.93 253.67,53.93 257.67,52.93 259.67,51.93 261.67,50.93 263.67,50.93 266.67,50.93 268.67,50.93 270.67,50.93 273.67,50.93 275.67,49.93 276.67,49.93 277.67,49.93 280.67,49.93 282.67,49.93 285.67,49.93 287.67,49.93 290.67,49.93 292.67,49.93 293.67,49.93 296.67,49.93 298.67,49.93 300.67,49.93 303.67,49.93 305.67,49.93 306.67,49.93 307.67,49.93 310.67,49.93 312.67,49.93 314.67,49.93 315.67,49.93 317.67,49.93 322.67,50.93 323.67,51.93 325.67,51.93 326.67,51.93 329.67,53.93 330.67,54.93 330.67,55.93 332.67,55.93 333.67,55.93 334.67,56.93 336.67,56.93 337.67,57.93 337.67,58.93 338.67,58.93 339.67,59.93 339.67,60.93 340.67,61.93 342.67,61.93 343.67,63.93 345.67,64.93 345.67,64.93 346.67,64.93 346.67,66.93 346.67,67.93 347.67,68.93 348.67,70.93 349.67,71.93 349.67,72.93 350.67,72.93 350.67,73.93 350.67,74.93 351.67,75.93 351.67,76.93 353.67,79.93 353.67,80.93 353.67,80.93 353.67,81.93 353.67,83.93 353.67,84.93 353.67,85.93 353.67,86.93 353.67,87.93 353.67,88.93 354.67,89.93 354.67,90.93 354.67,93.93 354.67,95.93 354.67,96.93 354.67,96.93 354.67,98.93 354.67,99.93 354.67,101.93 354.67,104.93 354.67,104.93 353.67,105.93 351.67,107.93 351.67,108.93 351.67,110.93 351.67,111.93 349.67,112.93 349.67,114.93 348.67,115.93 347.67,117.93 346.67,119.93 346.67,120.93 344.67,121.93 343.67,124.93 342.67,124.93 341.67,126.93 339.67,128.93 338.67,128.93 338.67,130.93 336.67,132.93 334.67,133.93 332.67,134.93 330.67,136.93 330.67,137.93 328.67,140.93 326.67,141.93 323.67,142.93 322.67,144.93 321.67,144.93 319.67,146.93 317.67,148.93 315.67,149.93 313.67,150.93 311.67,152.93 308.67,153.93 307.67,154.93 305.67,155.93 303.67,157.93 300.67,158.93 298.67,158.93 295.67,159.93 292.67,160.93 290.67,160.93 288.67,161.93 285.67,162.93 283.67,163.93 281.67,163.93 279.67,165.93 277.67,165.93 274.67,166.93 273.67,167.93 271.67,167.93 268.67,167.93 267.67,167.93 265.67,167.93 262.67,167.93 261.67,167.93 258.67,167.93 256.67,167.93 255.67,167.93 252.67,167.93 250.67,167.93 249.67,167.93 246.67,167.93 242.67,167.93 242.67,167.93 240.67,167.93 237.67,167.93 234.67,167.93 232.67,167.93 230.67,167.93 226.67,166.93 224.67,165.93 223.67,165.93 220.67,164.93 218.67,164.93 218.67,162.93 214.67,161.93 210.67,160.93 208.67,160.93 206.67,160.93 204.67,159.93 202.67,159.93 200.67,158.93 199.67,157.93 196.67,156.93 194.67,155.93 193.67,154.93 189.67,152.93 187.67,152.93 186.67,151.93 183.67,148.93 182.67,148.93 180.67,148.93 179.67,148.93 178.67,146.93 177.67,144.93 175.67,144.93 173.67,142.93 172.67,142.93 171.67,141.93 170.67,139.93 169.67,138.93 167.67,138.93 165.67,136.93 164.67,135.93 163.67,134.93 162.67,133.93 162.67,132.93 161.67,130.93 160.67,129.93 160.67,128.93 158.67,128.93 157.67,126.93 156.67,125.93 155.67,123.93 155.67,122.93 154.67,120.93 154.67,120.93 153.67,119.93 153.67,118.93 153.67,116.93 151.67,115.93 151.67,113.93 151.67,112.93 151.67,112.93 150.67,111.93 150.67,110.93 150.67,108.93 150.67,107.93 149.67,106.93 149.67,104.93 149.67,104.93 149.67,102.93 149.67,100.93 149.67,99.93 149.67,98.93 149.67,96.93 149.67,96.93 149.67,95.93 149.67,93.93 149.67,92.93 149.67,91.93 149.67,90.93 149.67,89.93 150.67,87.93 151.67,86.93 152.67,85.93 152.67,84.93 153.67,83.93 153.67,82.93 154.67,81.93 154.67,80.93 155.67,80.93 156.67,78.93 157.67,77.93 159.67,75.93 159.67,74.93 161.67,72.93 162.67,72.93 162.67,72.93 163.67,71.93 164.67,71.93 165.67,70.93 167.67,70.93 168.67,69.93 170.67,68.93 171.67,68.93 171.67,67.93 172.67,67.93 173.67,66.93 174.67,66.93 176.67,65.93 177.67,65.93 177.67,64.93 178.67,64.93 179.67,64.93 180.67,64.93 181.67,64.93 182.67,63.93 184.67,63.93 185.67,63.93 186.67,62.93 186.67,62.93 188.67,62.93 189.67,61.93 191.67,61.93 193.67,61.93 194.67,61.93 195.67,61.93 196.67,60.93 198.67,60.93 201.67,60.93 202.67,60.93 203.67,60.93 204.67,60.93 206.67,60.93 207.67,60.93 209.67,60.93 210.67,60.93 211.67,60.93 212.67,60.93 214.67,60.93 215.67,60.93 217.67,60.93 218.67,60.93 218.67,60.93 219.67,60.93 220.67,60.93 222.67,60.93 223.67,60.93 225.67,60.93 226.67,61.93 227.67,62.93 228.67,62.93 229.67,62.93 230.67,63.93 231.67,63.93 232.67,64.93 234.67,64.93 235.67,66.93 236.67,67.93 237.67,68.93 238.67,69.93 238.67,70.93 240.67,71.93 241.67,71.93 241.67,72.93 241.67,73.93 242.67,73.93 242.67,74.93 243.67,76.93 244.67,78.93 245.67,79.93 246.67,80.93 246.67,81.93 247.67,82.93 247.67,83.93 248.67,85.93 248.67,86.93 250.67,87.93 250.67,88.93 251.67,90.93 251.67,91.93 251.67,93.93 251.67,95.93 252.67,95.93 252.67,96.93 253.67,97.93 254.67,100.93 255.67,102.93 255.67,104.93 256.67,105.93 256.67,107.93 256.67,110.93 257.67,111.93 258.67,112.93 258.67,114.93 259.67,115.93 259.67,117.93 260.67,120.93 261.67,120.93 262.67,122.93 262.67,124.93 262.67,126.93 263.67,127.93 264.67,128.93 264.67,130.93 265.67,130.93 266.67,132.93 266.67,134.93 267.67,136.93 268.67,136.93 268.67,136.93 268.67,138.93 269.67,138.93 269.67,139.93 270.67,140.93 271.67,141.93 272.67,142.93 272.67,143.93 274.67,144.93 274.67,145.93 276.67,145.93 276.67,146.93 277.67,147.93 278.67,147.93 279.67,148.93 279.67,149.93 280.67,149.93 281.67,149.93 282.67,149.93 282.67,149.93 283.67,149.93 284.67,149.93 285.67,149.93 286.67,149.93 287.67,149.93 288.67,149.93 289.67,149.93 290.67,149.93 290.67,149.93 290.67,148.93 291.67,148.93 292.67,148.93 292.67,147.93 293.67,146.93 294.67,145.93 295.67,145.93 295.67,144.93 296.67,143.93 297.67,143.93 297.67,142.93 297.67,141.93 298.67,141.93 298.67,140.93 298.67,139.93 299.67,138.93 299.67,137.93 299.67,136.93 300.67,136.93 301.67,135.93 302.67,134.93 302.67,133.93 302.67,132.93 302.67,131.93 302.67,130.93 303.67,130.93 304.67,128.93 305.67,128.93 305.67,127.93 305.67,126.93 305.67,125.93 306.67,124.93 306.67,123.93 306.67,122.93 306.67,121.93 307.67,120.93 307.67,119.93 307.67,117.93 308.67,115.93 309.67,114.93 309.67,113.93 310.67,112.93 310.67,111.93 310.67,110.93 310.67,109.93 310.67,108.93 310.67,107.93 311.67,106.93 311.67,105.93 312.67,104.93 312.67,103.93 313.67,103.93 313.67,102.93 313.67,100.93 313.67,99.93 314.67,97.93 314.67,96.93 314.67,96.93 315.67,95.93 315.67,94.93 316.67,93.93 317.67,92.93 318.67,91.93 318.67,90.93 319.67,90.93 320.67,90.93 320.67,89.93 321.67,89.93 322.67,89.93 322.67,89.93 322.67,88.93 323.67,88.93 324.67,88.93 325.67,88.93 326.67,88.93 327.67,88.93 328.67,88.93 329.67,88.93 330.67,88.93 330.67,88.93 331.67,88.93 331.67,88.93 332.67,88.93 332.67,89.93 333.67,89.93 333.67,90.93 333.67,91.93 334.67,92.93 335.67,92.93 335.67,93.93 336.67,93.93 336.67,94.93 337.67,96.93 338.67,96.93 338.67,98.93 339.67,98.93 339.67,99.93 340.67,99.93 340.67,100.93 340.67,102.93 341.67,102.93 341.67,103.93 342.67,104.93 343.67,104.93 343.67,105.93 344.67,106.93 344.67,107.93 345.67,108.93 346.67,110.93 346.67,111.93 346.67,112.93 347.67,112.93 347.67,113.93 348.67,114.93 349.67,114.93 349.67,116.93 350.67,117.93 351.67,118.93 351.67,119.93 352.67,120.93 353.67,120.93 353.67,120.93 354.67,120.93 354.67,121.93 354.67,121.93 354.67,122.93 354.67,123.93 355.67,123.93 356.67,123.93 357.67,124.93 357.67,125.93 358.67,126.93 359.67,126.93 361.67,127.93 362.67,128.93 362.67,128.93 362.67,128.93 363.67,128.93 364.67,128.93 365.67,129.93 366.67,129.93 367.67,129.93 368.67,130.93 369.67,130.93 370.67,130.93 370.67,130.93 371.67,130.93 372.67,130.93 373.67,130.93 375.67,130.93 376.67,130.93 377.67,130.93 378.67,130.93 378.67,129.93 380.67,129.93 381.67,129.93 382.67,129.93 383.67,128.93 384.67,128.93 385.67,128.93 386.67,128.93 386.67,127.93 387.67,127.93 388.67,127.93 389.67,126.93 390.67,126.93 391.67,125.93 392.67,124.93 393.67,124.93 394.67,123.93 394.67,122.93 396.67,121.93 397.67,120.93 398.67,120.93 399.67,120.93 400.67,119.93 401.67,119.93 402.67,118.93 404.67,117.93 405.67,116.93 406.67,115.93 408.67,115.93 409.67,114.93 409.67,113.93 410.67,112.93 411.67,112.93 412.67,112.93 412.67,111.93 414.67,110.93 415.67,109.93 416.67,109.93 417.67,108.93 418.67,108.93 418.67,108.93 419.67,107.93 419.67,106.93 420.67,105.93 421.67,105.93 422.67,105.93 423.67,104.93 424.67,104.93 425.67,104.93 426.67,103.93 426.67,103.93 427.67,103.93 428.67,104.93 428.67,104.93 428.67,105.93 428.67,106.93 428.67,107.93 428.67,108.93 428.67,109.93 428.67,110.93 428.67,111.93 428.67,112.93 429.67,112.93 429.67,112.93 429.67,113.93 430.67,113.93 430.67,114.93 430.67,115.93 431.67,116.93 431.67,117.93 431.67,118.93 432.67,118.93 433.67,120.93 433.67,120.93 434.67,120.93 434.67,121.93 434.67,122.93 434.67,123.93 435.67,123.93 435.67,124.93 436.67,124.93 436.67,125.93 436.67,126.93 437.67,126.93 437.67,127.93 438.67,127.93 439.67,128.93 439.67,128.93 439.67,129.93 440.67,129.93 441.67,129.93 442.67,129.93 442.67,130.93 442.67,131.93 443.67,132.93 444.67,132.93 445.67,132.93 446.67,132.93 447.67,132.93 448.67,132.93 449.67,131.93 450.67,131.93 450.67,131.93 451.67,130.93 452.67,130.93 452.67,129.93 452.67,128.93 453.67,128.93 454.67,128.93 454.67,128.93 454.67,127.93 454.67,126.93 455.67,126.93 456.67,126.93 457.67,125.93 457.67,124.93 458.67,123.93 458.67,122.93 458.67,121.93 459.67,121.93 459.67,120.93 459.67,120.93 460.67,120.93 461.67,120.93 461.67,119.93 461.67,118.93 462.67,117.93 463.67,117.93 463.67,116.93 464.67,115.93 465.67,114.93 466.67,113.93 466.67,113.93 466.67,112.93 467.67,112.93 467.67,112.93 468.67,112.93 468.67,111.93 469.67,111.93 470.67,111.93 470.67,110.93 470.67,109.93 471.67,109.93 472.67,109.93 473.67,109.93 473.67,108.93 474.67,108.93 474.67,108.93 475.67,108.93 476.67,108.93 477.67,108.93 478.67,108.93 479.67,108.93 480.67,108.93 481.67,107.93 481.67,106.93 482.67,106.93 482.67,106.93 483.67,106.93 483.67,105.93 484.67,104.93 485.67,104.93 485.67,104.93 486.67,104.93 487.67,103.93 488.67,102.93 489.67,101.93 490.67,101.93 490.67,100.93 490.67,99.93 491.67,99.93 491.67,98.93 492.67,98.93 492.67,97.93 493.67,97.93 493.67,96.93 494.67,96.93 494.67,96.93 495.67,95.93 497.67,95.93 498.67,95.93 498.67,95.93 499.67,95.93 499.67,96.93 499.67,96.93 500.67,96.93 500.67,97.93 500.67,98.93 501.67,98.93 501.67,99.93 502.67,100.93 502.67,101.93 503.67,101.93 503.67,102.93 503.67,103.93 504.67,103.93 504.67,104.93 504.67,104.93 505.67,105.93 506.67,105.93 506.67,106.93 506.67,107.93 506.67,108.93 506.67,109.93 507.67,110.93 508.67,110.93 508.67,111.93 508.67,112.93 509.67,112.93 509.67,112.93 510.67,112.93 510.67,113.93 510.67,114.93 511.67,114.93 512.67,114.93 513.67,114.93 514.67,115.93 514.67,115.93 514.67,116.93 516.67,116.93 517.67,117.93 518.67,117.93 520.67,117.93 522.67,118.93 522.67,118.93 524.67,118.93 525.67,119.93 527.67,119.93 529.67,120.93 530.67,120.93 532.67,120.93 534.67,120.93 535.67,120.93 537.67,120.93 538.67,120.93 540.67,120.93 542.67,120.93 544.67,120.93 546.67,120.93 547.67,120.93 548.67,120.93 550.67,120.93 553.67,120.93 554.67,120.93 555.67,120.93 556.67,119.93 560.67,117.93 562.67,117.93 564.67,115.93 566.67,114.93 568.67,114.93 570.67,113.93 572.67,113.93 575.67,112.93 577.67,112.93 578.67,112.93 579.67,110.93 581.67,110.93 582.67,109.93 584.67,109.93 586.67,107.93 588.67,106.93 589.67,106.93 590.67,105.93 591.67,104.93 593.67,104.93 593.67,104.93 594.67,103.93 595.67,102.93 596.67,102.93 597.67,102.93 597.67,101.93 599.67,100.93 600.67,99.93 600.67,98.93 601.67,97.93 602.67,96.93 602.67,96.93 602.67,96.93 602.67,95.93 602.67,94.93 602.67,93.93 602.67,91.93 602.67,90.93 602.67,89.93 602.67,88.93 601.67,88.93 601.67,86.93 601.67,85.93 600.67,84.93 599.67,84.93 599.67,83.93 599.67,82.93 599.67,81.93 597.67,80.93 596.67,80.93 596.67,79.93 595.67,79.93 594.67,78.93 594.67,77.93 594.67,76.93"/>
			<polyline points="546.67,48.93 545.67,48.93 544.67,48.93 543.67,48.93 542.67,48.93 541.67,48.93 540.67,48.93 539.67,49.93 538.67,49.93 538.67,49.93 538.67,50.93 537.67,50.93 536.67,50.93 536.67,51.93 535.67,51.93 534.67,52.93 533.67,53.93 533.67,54.93 532.67,54.93 532.67,55.93 532.67,56.93 533.67,56.93 534.67,56.93 535.67,56.93 536.67,56.93 537.67,55.93 538.67,55.93 538.67,55.93 539.67,55.93 540.67,54.93 541.67,54.93 541.67,53.93 541.67,52.93 542.67,52.93 543.67,52.93 544.67,52.93 544.67,51.93 545.67,50.93 546.67,50.93 546.67,49.93 546.67,48.93 547.67,48.93 547.67,48.93 548.67,47.93 548.67,46.93 548.67,45.93 548.67,44.93 548.67,43.93 548.67,42.93 548.67,41.93 548.67,40.93 548.67,40.93"/>
		</g>
	</g>
</svg>