<?xml version="1.0"?>
<!DOCTYPE svg PUBLIC "-//W3C//DTD SVG 1.1//EN" "http://www.w3.org/Graphics/SVG/1.1/DTD/svg11.dtd">
<svg xmlns="http://www.w3.org/2000/svg" width="15cm" height="15cm">
	<g fill="#fff">
		<rect x="0" y="0" width="720" height="184"/>
		<g fill="none" stroke="#000" stroke-width="2">
			<polyline points="157.67,55.93 157.67,56.93 150.67,74.93 147.67,96.93 146.67,110.93 146.67,115.93 146.67,116.93 145.67,116.93 143.67,118.93 140.67,118.93 139.67,118.93 139.67,117.93 138.67,109.93 137.67,93.93 138.67,79.93 142.67,65.93 156.67,54.93 170.67,47.93 183.67,41.93 190.67,39.93 192.67,38.93 203.67,54.93 218.67,76.93 224.67,92.93 225.67,107.93 219.67,119.93 197.67,129.93 181.67,136.93 166.67,139.93 147.67,138.93 136.67,130.93 129.67,120.93 125.67,106.93 126.67,96.93 140.67,88.93 154.67,80.93 169.67,73.93 177.67,70.93 178.67,70.93 184.67,72.93 210.67,92.93 242.67,112.93 271.67,124.93 290.67,127.93 298.67,126.93 301.67,119.93 301.67,107.93 301.67,98.93 301.67,95.93 301.67,96.93 302.67,96.93 303.67,96.93 308.67,93.93 314.67,90.93 317.67,88.93 318.67,88.93 317.67,88.93 315.67,91.93 322.67,106.93 329.67,112.93 337.67,118.93 346.67,120.93 350.67,120.93 353.67,119.93 356.67,114.93 361.67,110.93 364.67,107.93 367.67,106.93 372.67,113.93 376.67,116.93 377.67,116.93 378.67,116.93 387.67,110.93 409.67,92.93 431.67,79.93 443.67,71.93 446.67,70.93"/>
			<polyline points="411.67,41.93 411.67,40.93 411.67,40.93"/>
		</g>
	</g>
</svg>