<?xml version="1.0"?>
<!DOCTYPE svg PUBLIC "-//W3C//DTD SVG 1.1//EN" "http://www.w3.org/Graphics/SVG/1.1/DTD/svg11.dtd">
<svg xmlns="http://www.w3.org/2000/svg" width="15cm" height="15cm">
	<g fill="#fff">
		<rect x="0" y="0" width="720" height="184"/>
		<g fill="none" stroke="#000" stroke-width="2">
			<polyline points="218.67,24.93 218.67,25.93 218.67,26.93 218.67,26.93 218.67,27.93 218.67,28.93 217.67,29.93 217.67,30.93 217.67,31.93 217.67,32.93 217.67,32.93 216.67,33.93 216.67,34.93 215.67,34.93 215.67,35.93 215.67,36.93 214.67,37.93 214.67,39.93 214.67,40.93 212.67,40.93 212.67,41.93 211.67,42.93 211.67,43.93 211.67,44.93 210.67,45.93 210.67,46.93 209.67,47.93 209.67,48.93 209.67,48.93 208.67,50.93 207.67,51.93 206.67,52.93 206.67,54.93 205.67,54.93 204.67,55.93 203.67,56.93 203.67,57.93 202.67,58.93 201.67,60.93 200.67,62.93 198.67,62.93 198.67,64.93 197.67,64.93 195.67,65.93 194.67,67.93 194.67,68.93 192.67,71.93 191.67,72.93 190.67,72.93 189.67,73.93 187.67,74.93 186.67,76.93 186.67,76.93 185.67,79.93 184.67,79.93 182.67,80.93 181.67,82.93 180.67,83.93 178.67,84.93 178.67,85.93 177.67,86.93 176.67,88.93 174.67,88.93 174.67,90.93 172.67,92.93 171.67,92.93 170.67,93.93 170.67,94.93 170.67,95.93 169.67,96.93 169.67,96.93 168.67,96.93 167.67,98.93 166.67,99.93 164.67,100.93 164.67,101.93 163.67,103.93 162.67,103.93 162.67,104.93 162.67,104.93 161.67,105.93 161.67,106.93 160.67,106.93 160.67,107.93 158.67,109.93 157.67,110.93 157.67,111.93 156.67,111.93 155.67,112.93 155.67,112.93 154.67,113.93 154.67,114.93 154.67,114.93 154.67,115.93 153.67,115.93 152.67,116.93 151.67,116.93 151.67,117.93 150.67,117.93 149.67,117.93 148.67,117.93 147.67,118.93 146.67,118.93 146.67,118.93 145.67,118.93 143.67,118.93 142.67,118.93 140.67,118.93 138.67,118.93"/>
			<polyline points="101.67,70.93 105.67,69.93 106.67,69.93 106.67,69.93 108.67,68.93 109.67,67.93 111.67,65.93 114.67,65.93 115.67,65.93 117.67,64.93 119.67,63.93 121.67,63.93 122.67,63.93 124.67,62.93 128.67,62.93 130.67,60.93 131.67,59.93 134.67,58.93 137.67,57.93 139.67,57.93 141.67,57.93 143.67,56.93 146.67,56.93 147.67,55.93 150.67,54.93 152.67,53.93 155.67,52.93 157.67,52.93 160.67,51.93 162.67,50.93 165.67,49.93 167.67,48.93 169.67,48.93 171.67,48.93 174.67,48.93 175.67,47.93 178.67,46.93 181.67,45.93 185.67,45.93 186.67,45.93 188.67,44.93 192.67,43.93 194.67,42.93 196.67,42.93 199.67,41.93 202.67,41.93 203.67,40.93 205.67,40.93 208.67,40.93 210.67,39.93 212.67,39.93 213.67,39.93 214.67,39.93 218.67,39.93 219.67,38.93 222.67,37.93 224.67,36.93 226.67,36.93 227.67,35.93 228.67,34.93 231.67,34.93 232.67,34.93 234.67,34.93 234.67,34.93 235.67,34.93 236.67,34.93 239.67,33.93 240.67,33.93 241.67,33.93 242.67,33.93 242.67,33.93 243.67,33.93 244.67,33.93 245.67,33.93 246.67,33.93 246.67,32.93 247.67,32.93 248.67,32.93 249.67,32.93 248.67,32.93 247.67,32.93 246.67,33.93 245.67,33.93 245.67,34.93 245.67,35.93 243.67,35.93 242.67,35.93 241.67,35.93 240.67,36.93 240.67,37.93 239.67,37.93"/>
			<polyline points="74.67,93.93 75.67,93.93 76.67,93.93 76.67,92.93 77.67,91.93 78.67,91.93 78.67,90.93 79.67,90.93 80.67,90.93 81.67,90.93 82.67,89.93 82.67,89.93 83.67,88.93 84.67,88.93 85.67,88.93 87.67,87.93 88.67,87.93 89.67,87.93 90.67,87.93 90.67,86.93 90.67,85.93 91.67,85.93 92.67,84.93 94.67,84.93 95.67,84.93 97.67,83.93 98.67,82.93 99.67,81.93 100.67,81.93 101.67,81.93 103.67,80.93 104.67,80.93 106.67,80.93 107.67,80.93 109.67,80.93 110.67,80.93 111.67,80.93 112.67,79.93 114.67,78.93 116.67,77.93 117.67,76.93 119.67,76.93 120.67,76.93 122.67,76.93 122.67,76.93 124.67,76.93 126.67,74.93 129.67,74.93 130.67,72.93 131.67,72.93 134.67,72.93 136.67,72.93 137.67,72.93 139.67,72.93 141.67,72.93 143.67,72.93 145.67,71.93 147.67,71.93 148.67,70.93 150.67,70.93 154.67,69.93 154.67,69.93 157.67,69.93 161.67,68.93 163.67,68.93 163.67,67.93 166.67,67.93 168.67,67.93 169.67,64.93 171.67,64.93 173.67,64.93 174.67,64.93 177.67,64.93 178.67,64.93 179.67,64.93 181.67,64.93 182.67,64.93 183.67,64.93 184.67,64.93 186.67,64.93 186.67,64.93 187.67,64.93 188.67,64.93 189.67,64.93 190.67,64.93 191.67,64.93 192.67,64.93 193.67,64.93 194.67,64.93 194.67,64.93 196.67,63.93 197.67,63.93 198.67,63.93 199.67,63.93 200.67,63.93 201.67,63.93 202.67,63.93 202.67,63.93 203.67,63.93 203.67,64.93 203.67,64.93 203.67,65.93 202.67,66.93 202.67,66.93 202.67,67.93 201.67,68.93 200.67,69.93 199.67,71.93 198.67,71.93 198.67,72.93 198.67,72.93 197.67,73.93 196.67,74.93 196.67,75.93 195.67,76.93 195.67,77.93 194.67,78.93 194.67,79.93 193.67,80.93 193.67,81.93 193.67,82.93 192.67,83.93 191.67,84.93 191.67,86.93 190.67,86.93 190.67,87.93 189.67,88.93 188.67,88.93 188.67,89.93 188.67,90.93 187.67,92.93 187.67,93.93 186.67,93.93 186.67,94.93 186.67,96.93 186.67,96.93 186.67,98.93 186.67,98.93 186.67,99.93 186.67,100.93 186.67,101.93 186.67,102.93 186.67,103.93 186.67,104.93 186.67,104.93 186.67,105.93 186.67,106.93 186.67,107.93 186.67,108.93 186.67,109.93 186.67,110.93 187.67,110.93 187.67,111.93 188.67,111.93 189.67,111.93 189.67,112.93 190.67,112.93 191.67,112.93 192.67,112.93 193.67,112.93 194.67,112.93 194.67,112.93 195.67,112.93 196.67,112.93 198.67,111.93 198.67,110.93 200.67,109.93 201.67,109.93 202.67,107.93 203.67,107.93 203.67,106.93 204.67,106.93 205.67,105.93 206.67,104.93 207.67,104.93 208.67,103.93 209.67,103.93 209.67,101.93 210.67,101.93 210.67,100.93 210.67,100.93 211.67,98.93 212.67,98.93 213.67,97.93 214.67,96.93 214.67,96.93 216.67,95.93 218.67,94.93 218.67,93.93 218.67,92.93 219.67,92.93 220.67,91.93 221.67,90.93 221.67,89.93 223.67,88.93 224.67,88.93 224.67,87.93 226.67,86.93 226.67,85.93 227.67,84.93 227.67,83.93 229.67,82.93 230.67,82.93 230.67,81.93 230.67,80.93 231.67,80.93 232.67,80.93 233.67,79.93 234.67,78.93 234.67,78.93 234.67,77.93 234.67,76.93 235.67,76.93 236.67,75.93 236.67,76.93 236.67,77.93 235.67,77.93 235.67,78.93 234.67,78.93 234.67,79.93 234.67,80.93 234.67,80.93 234.67,81.93 234.67,82.93 234.67,83.93 234.67,84.93 234.67,85.93 234.67,86.93 234.67,87.93 234.67,88.93 234.67,88.93 234.67,89.93 234.67,90.93 234.67,91.93 234.67,92.93 234.67,93.93 234.67,94.93 234.67,95.93 235.67,95.93 236.67,95.93 237.67,95.93 238.67,95.93 239.67,95.93 240.67,95.93 241.67,95.93 241.67,94.93 242.67,93.93 242.67,93.93 243.67,93.93 244.67,93.93 244.67,92.93 245.67,92.93 245.67,91.93 246.67,91.93 247.67,91.93 248.67,91.93 248.67,90.93 249.67,90.93 250.67,89.93 250.67,88.93 251.67,88.93 252.67,88.93 253.67,88.93 254.67,88.93 254.67,87.93 255.67,87.93 256.67,87.93 257.67,86.93 258.67,85.93 258.67,85.93 259.67,84.93 260.67,84.93 261.67,84.93 261.67,83.93 262.67,83.93 262.67,82.93 263.67,82.93 263.67,83.93 263.67,84.93 263.67,85.93 263.67,86.93 263.67,87.93 263.67,88.93 262.67,88.93 262.67,89.93 262.67,90.93 261.67,91.93 261.67,92.93 261.67,93.93 261.67,94.93 261.67,95.93 260.67,96.93 260.67,96.93 260.67,97.93 260.67,98.93 260.67,99.93 260.67,100.93 260.67,101.93 260.67,102.93 260.67,103.93 260.67,104.93 260.67,104.93 261.67,104.93 261.67,105.93 262.67,105.93 262.67,106.93 263.67,106.93 263.67,107.93 264.67,107.93 265.67,107.93 266.67,107.93 266.67,107.93 267.67,107.93 268.67,107.93 269.67,107.93 270.67,106.93 271.67,106.93 272.67,106.93 272.67,105.93 273.67,105.93 274.67,105.93 274.67,104.93 274.67,104.93 275.67,104.93 276.67,104.93 277.67,103.93 278.67,103.93 278.67,102.93 279.67,102.93 280.67,102.93 280.67,101.93 281.67,101.93 282.67,100.93 282.67,100.93 283.67,100.93 284.67,100.93 284.67,99.93 286.67,98.93 287.67,97.93 289.67,97.93 290.67,97.93 290.67,97.93 291.67,97.93 291.67,98.93 291.67,99.93 291.67,100.93 291.67,101.93 291.67,102.93 292.67,102.93 292.67,103.93 292.67,104.93 292.67,104.93 293.67,104.93 293.67,105.93 294.67,106.93 294.67,107.93 294.67,108.93 294.67,109.93 295.67,110.93 296.67,110.93 296.67,111.93 297.67,112.93 298.67,112.93 298.67,112.93 298.67,112.93 299.67,112.93 300.67,113.93 301.67,113.93 301.67,114.93 302.67,114.93 303.67,114.93 304.67,114.93 305.67,114.93 306.67,115.93 306.67,115.93 307.67,116.93 308.67,116.93 309.67,116.93 311.67,116.93 312.67,116.93 313.67,116.93 314.67,116.93 315.67,116.93 316.67,116.93 317.67,116.93 319.67,116.93 320.67,116.93 322.67,116.93 322.67,116.93 324.67,116.93 325.67,116.93 326.67,116.93 328.67,116.93 330.67,116.93 330.67,116.93 332.67,116.93 333.67,116.93 335.67,116.93 337.67,116.93 338.67,116.93 338.67,116.93 339.67,116.93 341.67,116.93 343.67,116.93 345.67,116.93 347.67,116.93 348.67,116.93 350.67,116.93 352.67,117.93 353.67,117.93 355.67,117.93 357.67,117.93 359.67,117.93 361.67,117.93 363.67,117.93 364.67,117.93 366.67,117.93 369.67,117.93 370.67,117.93 372.67,117.93 376.67,117.93 377.67,117.93 378.67,117.93 379.67,117.93 381.67,119.93 384.67,119.93 386.67,120.93 386.67,120.93 387.67,120.93 388.67,120.93 390.67,120.93 391.67,120.93 392.67,120.93 393.67,120.93 394.67,120.93 394.67,120.93 395.67,120.93 396.67,122.93 397.67,123.93 398.67,123.93 398.67,124.93 399.67,125.93 399.67,126.93 399.67,127.93 400.67,128.93 401.67,128.93 402.67,129.93 402.67,130.93 402.67,131.93 402.67,131.93 402.67,132.93 403.67,132.93 404.67,132.93 405.67,132.93 405.67,133.93 405.67,134.93 406.67,134.93 407.67,134.93 408.67,134.93 409.67,134.93 410.67,134.93 410.67,133.93 410.67,133.93 411.67,133.93 412.67,133.93 413.67,133.93 414.67,133.93 415.67,133.93 416.67,133.93 416.67,132.93 417.67,131.93 418.67,131.93 418.67,130.93 419.67,130.93 420.67,130.93 422.67,130.93 423.67,130.93 424.67,129.93 425.67,128.93 426.67,128.93 426.67,128.93 427.67,128.93 429.67,128.93 430.67,127.93 432.67,126.93 433.67,125.93 434.67,125.93 436.67,124.93 438.67,123.93 439.67,123.93 440.67,122.93 442.67,121.93 443.67,121.93 444.67,121.93 446.67,120.93 447.67,120.93 449.67,119.93 450.67,118.93 451.67,118.93 452.67,117.93 454.67,117.93 455.67,117.93 457.67,117.93 458.67,116.93 459.67,116.93 461.67,115.93 462.67,114.93 463.67,114.93 464.67,114.93 465.67,113.93 466.67,113.93 468.67,112.93 469.67,112.93 471.67,112.93 472.67,111.93 473.67,110.93 474.67,110.93 475.67,110.93 476.67,109.93 477.67,109.93 478.67,109.93 480.67,108.93 482.67,107.93 484.67,106.93 486.67,106.93 487.67,105.93 489.67,104.93 490.67,104.93 490.67,104.93 492.67,104.93 493.67,104.93 494.67,103.93 495.67,102.93 497.67,102.93 498.67,101.93 498.67,101.93 499.67,100.93 501.67,99.93 502.67,99.93 502.67,98.93 504.67,98.93 505.67,97.93 506.67,97.93 506.67,97.93 507.67,96.93 508.67,96.93 509.67,96.93 510.67,96.93 512.67,96.93 512.67,95.93 513.67,95.93 514.67,95.93 514.67,95.93 515.67,94.93 516.67,94.93 517.67,93.93 518.67,92.93 519.67,92.93 520.67,92.93 521.67,92.93 522.67,92.93 522.67,91.93 523.67,90.93 525.67,89.93 526.67,89.93 527.67,89.93 528.67,89.93 529.67,88.93 530.67,88.93 530.67,88.93 530.67,88.93 531.67,87.93 532.67,87.93 533.67,87.93 534.67,87.93 535.67,85.93 536.67,85.93 537.67,84.93 537.67,83.93 538.67,82.93 538.67,82.93 539.67,82.93 539.67,81.93 539.67,80.93 540.67,80.93 541.67,80.93 541.67,80.93 542.67,79.93 542.67,78.93 543.67,78.93 544.67,77.93 545.67,76.93 546.67,76.93 546.67,75.93 546.67,74.93 546.67,74.93 546.67,73.93 547.67,73.93 547.67,72.93 547.67,72.93 548.67,72.93 548.67,71.93 549.67,71.93 550.67,70.93 550.67,69.93 551.67,69.93 551.67,68.93 550.67,68.93 549.67,68.93 548.67,68.93 547.67,68.93 546.67,68.93 545.67,68.93 544.67,68.93 543.67,68.93 542.67,68.93 541.67,68.93 540.67,68.93 538.67,68.93 538.67,68.93 537.67,69.93 536.67,69.93 534.67,69.93 534.67,70.93 532.67,70.93 531.67,70.93 530.67,71.93 530.67,71.93 529.67,72.93 528.67,72.93 527.67,72.93 526.67,72.93 526.67,72.93 525.67,73.93 524.67,73.93 523.67,74.93 523.67,75.93 523.67,76.93 522.67,76.93 522.67,77.93 522.67,78.93 522.67,80.93 521.67,81.93 521.67,83.93 520.67,84.93 520.67,85.93 520.67,86.93 519.67,87.93 519.67,88.93 519.67,89.93 519.67,91.93 518.67,92.93 518.67,94.93 518.67,95.93 518.67,96.93 518.67,96.93 517.67,97.93 517.67,98.93 517.67,100.93 516.67,102.93 516.67,103.93 516.67,104.93 516.67,104.93 516.67,105.93 516.67,107.93 516.67,108.93 516.67,110.93 516.67,111.93 516.67,112.93 516.67,113.93 516.67,115.93 516.67,116.93 516.67,117.93 516.67,119.93 516.67,120.93 516.67,120.93 516.67,121.93 516.67,122.93 516.67,123.93 516.67,124.93 517.67,125.93 518.67,125.93 519.67,125.93 520.67,125.93 520.67,126.93 521.67,126.93 522.67,126.93 522.67,126.93 524.67,126.93 525.67,126.93 526.67,126.93 528.67,126.93 529.67,126.93 530.67,126.93 530.67,126.93 531.67,126.93 532.67,126.93 533.67,125.93 536.67,124.93 537.67,123.93 538.67,123.93 539.67,123.93 540.67,122.93 542.67,122.93 543.67,121.93 544.67,120.93 546.67,120.93 547.67,119.93 548.67,119.93 551.67,119.93 553.67,117.93 554.67,117.93 555.67,116.93 557.67,116.93 558.67,113.93 560.67,112.93 562.67,112.93 564.67,112.93 566.67,112.93 568.67,110.93 570.67,109.93 571.67,108.93 574.67,108.93 576.67,106.93 578.67,105.93 579.67,105.93 581.67,104.93 583.67,103.93 586.67,102.93 586.67,101.93 588.67,101.93 590.67,100.93 592.67,99.93 593.67,99.93 595.67,98.93 597.67,97.93 598.67,97.93 600.67,96.93 602.67,96.93 603.67,96.93 604.67,94.93 607.67,94.93 608.67,94.93 610.67,93.93 611.67,91.93 612.67,91.93 613.67,91.93 616.67,90.93 618.67,89.93 619.67,89.93 620.67,88.93 622.67,88.93 624.67,87.93 625.67,87.93 626.67,87.93 627.67,86.93 628.67,86.93 631.67,86.93 633.67,85.93 634.67,85.93 634.67,85.93 635.67,84.93 637.67,83.93 639.67,82.93 640.67,82.93 641.67,82.93 642.67,81.93 644.67,81.93 645.67,81.93 645.67,80.93 646.67,80.93 647.67,80.93 649.67,80.93 650.67,80.93 650.67,80.93 651.67,80.93 652.67,80.93"/>
		</g>
	</g>
</svg>