<?xml version="1.0"?>
<!DOCTYPE svg PUBLIC "-//W3C//DTD SVG 1.1//EN" "http://www.w3.org/Graphics/SVG/1.1/DTD/svg11.dtd">
<svg xmlns="http://www.w3.org/2000/svg" width="15cm" height="15cm">
	<g fill="#fff">
		<rect x="0" y="0" width="720" height="184"/>
		<g fill="none" stroke="#000" stroke-width="2">
			<polyline points="241.67,44.93 241.67,45.93 240.67,45.93 239.67,46.93 239.67,47.93 238.67,47.93 238.67,48.93 238.67,48.93 237.67,49.93 237.67,50.93 237.67,51.93 236.67,52.93 236.67,53.93 236.67,54.93 235.67,56.93 235.67,56.93 234.67,56.93 234.67,57.93 234.67,58.93 234.67,59.93 234.67,61.93 233.67,63.93 232.67,64.93 231.67,64.93 231.67,65.93 231.67,67.93 230.67,68.93 229.67,69.93 228.67,71.93 228.67,73.93 227.67,73.93 226.67,75.93 226.67,77.93 225.67,78.93 225.67,79.93 225.67,80.93 224.67,80.93 223.67,82.93 222.67,84.93 222.67,86.93 221.67,87.93 220.67,87.93 219.67,89.93 219.67,91.93 218.67,92.93 218.67,92.93 217.67,94.93 217.67,96.93 217.67,97.93 216.67,98.93 215.67,98.93 214.67,101.93 214.67,102.93 214.67,104.93 213.67,104.93 212.67,104.93 212.67,104.93 212.67,105.93 212.67,106.93 211.67,106.93 211.67,107.93 211.67,108.93 211.67,109.93 211.67,110.93 210.67,110.93 210.67,110.93 210.67,111.93 210.67,112.93 209.67,112.93 209.67,113.93 209.67,114.93 207.67,116.93 207.67,117.93 206.67,119.93 206.67,120.93 206.67,120.93 204.67,121.93 204.67,122.93 203.67,123.93 203.67,124.93 202.67,125.93 202.67,126.93 202.67,126.93 201.67,127.93 201.67,128.93 201.67,128.93 200.67,128.93 199.67,130.93 198.67,130.93 198.67,132.93 196.67,133.93 196.67,134.93 195.67,134.93 195.67,135.93 195.67,136.93 195.67,136.93 194.67,136.93 194.67,136.93 193.67,136.93 193.67,136.93 191.67,135.93 191.67,134.93 191.67,133.93 190.67,133.93 190.67,132.93 190.67,131.93 189.67,131.93 189.67,130.93 189.67,129.93 188.67,129.93 188.67,128.93 187.67,128.93 187.67,127.93 187.67,126.93 186.67,125.93 186.67,124.93 186.67,122.93 185.67,120.93 184.67,120.93 184.67,119.93 183.67,118.93 183.67,117.93 182.67,116.93 182.67,115.93 182.67,114.93 182.67,113.93 182.67,112.93 182.67,112.93 181.67,111.93 181.67,110.93 180.67,110.93 180.67,109.93 180.67,107.93 180.67,106.93 180.67,105.93 179.67,105.93 179.67,104.93 179.67,103.93 178.67,103.93 178.67,101.93 178.67,100.93 178.67,100.93 178.67,98.93 178.67,97.93 178.67,96.93 178.67,96.93 178.67,95.93 178.67,94.93 178.67,93.93 177.67,92.93 177.67,90.93 177.67,89.93 177.67,88.93 176.67,86.93 176.67,85.93 176.67,84.93 176.67,83.93 176.67,82.93 176.67,81.93 176.67,80.93 176.67,80.93 176.67,79.93 176.67,78.93 178.67,77.93 178.67,76.93 178.67,76.93 178.67,75.93 179.67,75.93 180.67,74.93 180.67,73.93 181.67,73.93 182.67,72.93 183.67,72.93 184.67,72.93 187.67,70.93 189.67,69.93 190.67,68.93 193.67,67.93 194.67,66.93 195.67,65.93 196.67,64.93 197.67,64.93 198.67,64.93 199.67,64.93 200.67,63.93 201.67,62.93 202.67,62.93 203.67,61.93 204.67,61.93 205.67,60.93 207.67,59.93 208.67,59.93 209.67,59.93 210.67,58.93 210.67,57.93 212.67,57.93 214.67,56.93 215.67,56.93 217.67,56.93 218.67,55.93 219.67,55.93 221.67,54.93 223.67,53.93 224.67,53.93 226.67,52.93 228.67,52.93 230.67,51.93 232.67,51.93 234.67,50.93 235.67,50.93 237.67,49.93 239.67,49.93 241.67,48.93 242.67,48.93 243.67,48.93 244.67,48.93 246.67,48.93 247.67,48.93 248.67,48.93 250.67,48.93 250.67,48.93 252.67,48.93 253.67,48.93 254.67,48.93 256.67,48.93 258.67,48.93 259.67,48.93 260.67,48.93 261.67,48.93 264.67,48.93 265.67,48.93 267.67,48.93 269.67,48.93 272.67,48.93 273.67,48.93 274.67,49.93 274.67,49.93 275.67,49.93 276.67,50.93 277.67,51.93 279.67,51.93 280.67,51.93 280.67,52.93 282.67,53.93 282.67,54.93 282.67,54.93 282.67,55.93 284.67,56.93 285.67,57.93 285.67,58.93 286.67,59.93 286.67,61.93 287.67,61.93 287.67,62.93 287.67,63.93 288.67,64.93 288.67,65.93 288.67,66.93 289.67,67.93 289.67,71.93 289.67,72.93 289.67,73.93 289.67,74.93 289.67,75.93 289.67,76.93 289.67,78.93 289.67,79.93 289.67,80.93 289.67,81.93 289.67,82.93 289.67,84.93 289.67,86.93 289.67,87.93 289.67,88.93 289.67,90.93 289.67,92.93 288.67,94.93 288.67,96.93 287.67,97.93 287.67,99.93 286.67,99.93 286.67,102.93 286.67,103.93 286.67,104.93 285.67,105.93 284.67,105.93 283.67,107.93 283.67,110.93 282.67,111.93 282.67,112.93 281.67,112.93 281.67,116.93 279.67,117.93 275.67,122.93 275.67,124.93 274.67,125.93 274.67,126.93 274.67,127.93 272.67,128.93 272.67,128.93 271.67,130.93 269.67,131.93 268.67,132.93 267.67,134.93 266.67,136.93 265.67,136.93 263.67,138.93 263.67,139.93 262.67,140.93 260.67,143.93 258.67,144.93 257.67,145.93 255.67,146.93 254.67,148.93 252.67,149.93 250.67,151.93 250.67,152.93 249.67,152.93 248.67,152.93 246.67,153.93 245.67,154.93 243.67,155.93 242.67,156.93 242.67,156.93 241.67,157.93 240.67,158.93 239.67,158.93 235.67,159.93 234.67,160.93 233.67,160.93 232.67,160.93 230.67,160.93 229.67,161.93 228.67,161.93 227.67,161.93 226.67,161.93 224.67,161.93 223.67,161.93 221.67,161.93 218.67,161.93 218.67,161.93 216.67,161.93 213.67,161.93 212.67,161.93 209.67,161.93 208.67,161.93 206.67,161.93 203.67,161.93 202.67,161.93 200.67,161.93 197.67,161.93 196.67,161.93 194.67,160.93 191.67,160.93 189.67,160.93 185.67,157.93 180.67,156.93 178.67,155.93 174.67,153.93 172.67,152.93 170.67,152.93 168.67,150.93 165.67,148.93 162.67,145.93 160.67,144.93 159.67,144.93 158.67,143.93 156.67,141.93 155.67,140.93 155.67,139.93 154.67,138.93 154.67,137.93 154.67,136.93 154.67,136.93 153.67,135.93 153.67,134.93 153.67,133.93 153.67,132.93 153.67,131.93 153.67,130.93 153.67,128.93 153.67,128.93 153.67,127.93 153.67,126.93 154.67,125.93 154.67,124.93 154.67,123.93 155.67,122.93 156.67,121.93 157.67,120.93 159.67,119.93 160.67,118.93 162.67,117.93 162.67,116.93 162.67,116.93 163.67,116.93 164.67,115.93 165.67,114.93 166.67,114.93 167.67,113.93 169.67,112.93 170.67,111.93 170.67,111.93 172.67,111.93 172.67,110.93 174.67,109.93 175.67,108.93 176.67,107.93 178.67,106.93 178.67,105.93 179.67,105.93 179.67,104.93 180.67,104.93 182.67,104.93 183.67,104.93 185.67,103.93 186.67,102.93 187.67,102.93 187.67,101.93 189.67,101.93 191.67,101.93 191.67,100.93 193.67,100.93 194.67,99.93 196.67,99.93 197.67,98.93 198.67,98.93 200.67,98.93 201.67,98.93 202.67,98.93 203.67,98.93 206.67,98.93 207.67,98.93 208.67,98.93 210.67,98.93 211.67,98.93 212.67,98.93 214.67,98.93 215.67,98.93 217.67,98.93 218.67,98.93 219.67,98.93 221.67,98.93 223.67,98.93 224.67,98.93 226.67,98.93 227.67,98.93 228.67,98.93 229.67,98.93 230.67,98.93 231.67,98.93 232.67,98.93 233.67,98.93 234.67,98.93 234.67,98.93 237.67,99.93 238.67,99.93 240.67,99.93 241.67,100.93 242.67,102.93 242.67,102.93 243.67,102.93 244.67,102.93 244.67,103.93 245.67,104.93 245.67,104.93 246.67,104.93 247.67,104.93 247.67,105.93 247.67,106.93 248.67,106.93 248.67,107.93 249.67,107.93 249.67,108.93 249.67,109.93 250.67,110.93 250.67,111.93 251.67,111.93 251.67,112.93 251.67,113.93 252.67,113.93 253.67,115.93 253.67,116.93 254.67,116.93 254.67,117.93 255.67,118.93 256.67,118.93 256.67,119.93 257.67,119.93 257.67,120.93 258.67,121.93 259.67,123.93 261.67,124.93 263.67,125.93 264.67,126.93 265.67,127.93 266.67,128.93 266.67,128.93 268.67,129.93 269.67,130.93 269.67,131.93 270.67,131.93 272.67,132.93 273.67,133.93 274.67,134.93 274.67,134.93 275.67,134.93 275.67,135.93 277.67,136.93 279.67,136.93 281.67,137.93 281.67,138.93 282.67,138.93 282.67,139.93 283.67,139.93 284.67,139.93 285.67,140.93 286.67,140.93 287.67,141.93 288.67,141.93 289.67,141.93 290.67,141.93 290.67,141.93 291.67,141.93 292.67,140.93 293.67,140.93 294.67,139.93 294.67,138.93 294.67,137.93 295.67,137.93 296.67,136.93 296.67,136.93 296.67,135.93 297.67,134.93 297.67,133.93 298.67,133.93 298.67,130.93 299.67,130.93 299.67,128.93 301.67,128.93 301.67,128.93 301.67,127.93 302.67,126.93 303.67,124.93 303.67,123.93 304.67,123.93 304.67,122.93 305.67,120.93 306.67,119.93 306.67,118.93 306.67,117.93 307.67,117.93 307.67,116.93 308.67,115.93 308.67,114.93 309.67,114.93 310.67,113.93 310.67,112.93 310.67,112.93 311.67,111.93 311.67,110.93 312.67,110.93 313.67,110.93 313.67,109.93 313.67,108.93 312.67,108.93 311.67,108.93 311.67,109.93 311.67,110.93 311.67,111.93 311.67,112.93 311.67,113.93 311.67,114.93 311.67,115.93 311.67,117.93 311.67,118.93 311.67,119.93 311.67,120.93 311.67,120.93 311.67,121.93 311.67,122.93 311.67,123.93 311.67,124.93 311.67,126.93 311.67,127.93 311.67,128.93 312.67,128.93 313.67,128.93 313.67,129.93 313.67,130.93 313.67,131.93 314.67,131.93 314.67,132.93 314.67,132.93 315.67,132.93 316.67,132.93 317.67,132.93 318.67,132.93 319.67,132.93 320.67,131.93 322.67,130.93 322.67,129.93 323.67,128.93 323.67,128.93 324.67,128.93 324.67,127.93 325.67,126.93 325.67,125.93 326.67,124.93 330.67,119.93 330.67,118.93 330.67,118.93 330.67,117.93 331.67,116.93 332.67,116.93 332.67,115.93 332.67,114.93 333.67,113.93 333.67,112.93 333.67,112.93 334.67,112.93 334.67,111.93 334.67,110.93 333.67,111.93 332.67,111.93 331.67,111.93 330.67,111.93 330.67,112.93 330.67,112.93 330.67,113.93 330.67,113.93 329.67,113.93 329.67,114.93 329.67,115.93 328.67,116.93 328.67,117.93 327.67,118.93 327.67,119.93 327.67,120.93 327.67,120.93 327.67,121.93 327.67,122.93 328.67,122.93 328.67,123.93 328.67,124.93 329.67,124.93 330.67,124.93 330.67,124.93 331.67,124.93 332.67,124.93 333.67,124.93 334.67,124.93 335.67,124.93 336.67,124.93 337.67,124.93 337.67,123.93 338.67,123.93 338.67,121.93 338.67,120.93 339.67,120.93 339.67,120.93 339.67,119.93 340.67,119.93 341.67,119.93 341.67,118.93 341.67,117.93 341.67,116.93 341.67,115.93 341.67,114.93 342.67,114.93 342.67,113.93 342.67,112.93 343.67,112.93 343.67,111.93 343.67,110.93 343.67,111.93 343.67,112.93 343.67,112.93 343.67,113.93 343.67,114.93 343.67,115.93 343.67,116.93 343.67,117.93 343.67,118.93 343.67,119.93 344.67,120.93 344.67,120.93 344.67,121.93 345.67,122.93 345.67,123.93 345.67,124.93 346.67,124.93 346.67,125.93 346.67,125.93 346.67,126.93 346.67,127.93 347.67,127.93 348.67,127.93 349.67,127.93 350.67,127.93 351.67,127.93 351.67,126.93 352.67,126.93 352.67,125.93 353.67,125.93 353.67,124.93 354.67,124.93 354.67,123.93 354.67,122.93 354.67,122.93 354.67,121.93 355.67,120.93 356.67,120.93 356.67,120.93 356.67,119.93 357.67,119.93 358.67,117.93 358.67,116.93 358.67,115.93 359.67,114.93 359.67,113.93 360.67,112.93 360.67,112.93 361.67,112.93 361.67,111.93 361.67,110.93 361.67,109.93 361.67,108.93 361.67,107.93 362.67,106.93 362.67,105.93 362.67,104.93 362.67,104.93 362.67,103.93 362.67,101.93 362.67,101.93 362.67,99.93 362.67,98.93 362.67,97.93 362.67,96.93 362.67,96.93 362.67,95.93 362.67,94.93 362.67,93.93 362.67,92.93 362.67,91.93 363.67,91.93 363.67,90.93 363.67,89.93 362.67,89.93 362.67,90.93 362.67,91.93 362.67,92.93 362.67,93.93 362.67,94.93 362.67,95.93 362.67,96.93 362.67,96.93 362.67,97.93 362.67,98.93 362.67,99.93 362.67,100.93 362.67,101.93 362.67,102.93 362.67,103.93 362.67,104.93 362.67,104.93 362.67,107.93 362.67,109.93 362.67,110.93 362.67,111.93 362.67,112.93 362.67,113.93 362.67,114.93 362.67,115.93 362.67,116.93 362.67,118.93 362.67,119.93 362.67,120.93 362.67,120.93 363.67,121.93 363.67,122.93 364.67,123.93 364.67,124.93 365.67,125.93 365.67,126.93 365.67,127.93 365.67,128.93 366.67,128.93 366.67,129.93 367.67,129.93 367.67,130.93 367.67,131.93 368.67,132.93 369.67,133.93 370.67,134.93 370.67,135.93 370.67,135.93 370.67,136.93 371.67,136.93 372.67,136.93 373.67,136.93 374.67,136.93 374.67,135.93 374.67,134.93 375.67,133.93 375.67,132.93 375.67,130.93 376.67,130.93 376.67,129.93 376.67,128.93 376.67,128.93 376.67,127.93 376.67,126.93 376.67,125.93 376.67,124.93 376.67,123.93 376.67,122.93 376.67,121.93 376.67,120.93 376.67,120.93 376.67,119.93 376.67,118.93 376.67,117.93 376.67,116.93 376.67,115.93 376.67,114.93 376.67,113.93 376.67,112.93 376.67,112.93"/>
			<polyline points="377.67,77.93 377.67,76.93 376.67,76.93 376.67,77.93 375.67,77.93 375.67,78.93 375.67,79.93 374.67,79.93"/>
		</g>
	</g>
</svg>