<?xml version="1.0"?>
<!DOCTYPE svg PUBLIC "-//W3C//DTD SVG 1.1//EN" "http://www.w3.org/Graphics/SVG/1.1/DTD/svg11.dtd">
<svg xmlns="http://www.w3.org/2000/svg" width="15cm" height="15cm">
	<g fill="#fff">
		<rect x="0" y="0" width="720" height="184"/>
		<g fill="none" stroke="#000" stroke-width="2">
			<polyline points="179.67,87.93 179.67,88.93 178.67,93.93 165.67,110.93 144.67,134.93 121.67,160.93 105.67,172.93 95.67,176.93 93.67,176.93 92.67,175.93 90.67,143.93 99.67,119.93 114.67,93.93 130.67,73.93 140.67,60.93 148.67,51.93"/>
			<polyline points="148.67,51.93 148.67,51.93 149.67,51.93 155.67,73.93 164.67,99.93 178.67,126.93 198.67,148.93 218.67,156.93 234.67,152.93 245.67,143.93 246.67,131.93 246.67,128.93"/>
			<polyline points="230.67,120.93 211.67,120.93 184.67,127.93 146.67,137.93 116.67,146.93 106.67,150.93 106.67,150.93 108.67,147.93 122.67,141.93 149.67,134.93 182.67,130.93 203.67,126.93 216.67,120.93 220.67,118.93 220.67,117.93 218.67,118.93 210.67,128.93 210.67,138.93 211.67,144.93 212.67,144.93 219.67,140.93 232.67,125.93 243.67,108.93 244.67,105.93 244.67,109.93 250.67,126.93 253.67,131.93 255.67,131.93 255.67,132.93 255.67,130.93 259.67,128.93 261.67,128.93 263.67,132.93 268.67,142.93 271.67,145.93 272.67,145.93 273.67,145.93 276.67,138.93 282.67,133.93 286.67,130.93 287.67,130.93 289.67,132.93 291.67,137.93 295.67,144.93 295.67,145.93 297.67,144.93 300.67,137.93 306.67,128.93 311.67,117.93 315.67,107.93 318.67,102.93 318.67,103.93 318.67,113.93 319.67,123.93 322.67,128.93 330.67,132.93 338.67,134.93 344.67,133.93 350.67,124.93 354.67,110.93 352.67,94.93 342.67,80.93 330.67,73.93 329.67,73.93 324.67,74.93 318.67,80.93 317.67,94.93 317.67,114.93 320.67,132.93 325.67,143.93 340.67,152.93 364.67,154.93 398.67,139.93 427.67,117.93 440.67,100.93 441.67,97.93 438.67,99.93 431.67,108.93 429.67,121.93 426.67,127.93 424.67,128.93"/>
		</g>
	</g>
</svg>