<?xml version="1.0"?>
<!DOCTYPE svg PUBLIC "-//W3C//DTD SVG 1.1//EN" "http://www.w3.org/Graphics/SVG/1.1/DTD/svg11.dtd">
<svg xmlns="http://www.w3.org/2000/svg" width="15cm" height="15cm">
	<g fill="#fff">
		<rect x="0" y="0" width="720" height="184"/>
		<g fill="none" stroke="#000" stroke-width="2">
			<polyline points="202.67,17.93 202.67,18.93 202.67,19.93 202.67,20.93 201.67,21.93 201.67,23.93 201.67,24.93 201.67,24.93 201.67,25.93 201.67,26.93 200.67,27.93 199.67,28.93 199.67,29.93 199.67,30.93 198.67,31.93 198.67,32.93 197.67,32.93 196.67,34.93 196.67,35.93 196.67,36.93 194.67,38.93 194.67,40.93 194.67,40.93 193.67,43.93 192.67,46.93 190.67,48.93 189.67,48.93 189.67,50.93 188.67,51.93 187.67,53.93 186.67,54.93 186.67,55.93 186.67,56.93 185.67,58.93 184.67,60.93 182.67,61.93 181.67,63.93 181.67,64.93 181.67,65.93 181.67,67.93 180.67,69.93 179.67,70.93 178.67,72.93 178.67,74.93 177.67,76.93 175.67,76.93 175.67,80.93 175.67,82.93 174.67,83.93 172.67,85.93 171.67,87.93 171.67,88.93 170.67,89.93 170.67,90.93 170.67,92.93 170.67,94.93 169.67,96.93 169.67,96.93 168.67,96.93 168.67,98.93 167.67,100.93 165.67,102.93 164.67,102.93 164.67,104.93 163.67,105.93 163.67,106.93 162.67,108.93 162.67,109.93 162.67,110.93 161.67,111.93 161.67,112.93 161.67,112.93 160.67,113.93 160.67,114.93 159.67,115.93 159.67,116.93 159.67,117.93 159.67,118.93 159.67,119.93 158.67,119.93 158.67,120.93 157.67,120.93 157.67,121.93 157.67,122.93 156.67,122.93 156.67,123.93 156.67,124.93 156.67,125.93 156.67,126.93 156.67,127.93 156.67,128.93 155.67,128.93 154.67,128.93 154.67,129.93 154.67,130.93 154.67,131.93 154.67,132.93 154.67,133.93 153.67,134.93 153.67,135.93 152.67,136.93 152.67,136.93 151.67,137.93 151.67,138.93 150.67,138.93 150.67,139.93"/>
			<polyline points="150.67,139.93 150.67,139.93"/>
			<polyline points="142.67,102.93 141.67,102.93 141.67,101.93 141.67,100.93 141.67,99.93 141.67,98.93 141.67,97.93 141.67,96.93 141.67,96.93 141.67,95.93 141.67,94.93 141.67,93.93 141.67,92.93 141.67,91.93 141.67,90.93 141.67,89.93 141.67,88.93 141.67,88.93 141.67,87.93 142.67,84.93 143.67,83.93 143.67,82.93 143.67,81.93 144.67,80.93 145.67,80.93 145.67,78.93 146.67,77.93 147.67,76.93 149.67,74.93 150.67,73.93 152.67,72.93 153.67,72.93 154.67,71.93 156.67,69.93 158.67,68.93 159.67,67.93 161.67,65.93 163.67,64.93 165.67,63.93 167.67,62.93 169.67,61.93 171.67,60.93 173.67,59.93 175.67,58.93 178.67,57.93 180.67,56.93 183.67,55.93 186.67,54.93 186.67,51.93 190.67,50.93 193.67,49.93 196.67,48.93 199.67,47.93 202.67,45.93 204.67,45.93 206.67,43.93 210.67,43.93 212.67,40.93 215.67,40.93 218.67,39.93 218.67,36.93 219.67,36.93 223.67,35.93 225.67,34.93 228.67,33.93 230.67,32.93 233.67,32.93 234.67,30.93 235.67,30.93 237.67,29.93 240.67,28.93 242.67,27.93 243.67,26.93 244.67,26.93 245.67,26.93 246.67,26.93 247.67,26.93 248.67,25.93 249.67,25.93 250.67,24.93 250.67,24.93 251.67,24.93 252.67,24.93 253.67,24.93 254.67,24.93 255.67,24.93 256.67,24.93 256.67,24.93 256.67,25.93 256.67,26.93 256.67,27.93 256.67,28.93 256.67,29.93 256.67,31.93 256.67,32.93 255.67,33.93 255.67,35.93 254.67,35.93 254.67,37.93 254.67,39.93 254.67,40.93 253.67,41.93 252.67,42.93 252.67,44.93 251.67,44.93 251.67,47.93 251.67,48.93 251.67,50.93 251.67,52.93 250.67,54.93 250.67,55.93 248.67,56.93 247.67,58.93 247.67,59.93 246.67,62.93 245.67,63.93 245.67,64.93 244.67,66.93 244.67,68.93 243.67,70.93 241.67,71.93 241.67,73.93 240.67,75.93 238.67,78.93 237.67,80.93 236.67,81.93 235.67,83.93 234.67,86.93 233.67,88.93 231.67,89.93 231.67,90.93 230.67,93.93 227.67,97.93 226.67,98.93 224.67,101.93 223.67,102.93 221.67,104.93 219.67,105.93 218.67,106.93 217.67,109.93 216.67,110.93 214.67,112.93 212.67,114.93 210.67,115.93 208.67,117.93 203.67,122.93 202.67,123.93 199.67,124.93 198.67,126.93 196.67,128.93 194.67,128.93 192.67,129.93 191.67,129.93 186.67,132.93 183.67,135.93 181.67,136.93 173.67,139.93 171.67,140.93 167.67,142.93 164.67,142.93 162.67,143.93 161.67,144.93 147.67,148.93 146.67,148.93 144.67,148.93 142.67,149.93 140.67,150.93 138.67,150.93 135.67,150.93 134.67,151.93 132.67,151.93 124.67,152.93 122.67,152.93 122.67,152.93 120.67,152.93 116.67,152.93 115.67,152.93 114.67,152.93 113.67,151.93 112.67,151.93 110.67,151.93 108.67,150.93 107.67,150.93 106.67,149.93 104.67,147.93 102.67,147.93 100.67,146.93 99.67,145.93 97.67,143.93 95.67,141.93 94.67,140.93 92.67,140.93 90.67,139.93 90.67,137.93 89.67,136.93 88.67,136.93 86.67,135.93 85.67,134.93 83.67,132.93 82.67,131.93"/>
			<polyline points="82.67,117.93 82.67,115.93 82.67,114.93 82.67,113.93 82.67,112.93 83.67,112.93 84.67,111.93 84.67,110.93 84.67,109.93 85.67,108.93 86.67,108.93 86.67,107.93 88.67,106.93 89.67,105.93 90.67,104.93 91.67,104.93 91.67,103.93 92.67,103.93 93.67,103.93 94.67,103.93 95.67,102.93 96.67,102.93 97.67,102.93 98.67,101.93 98.67,100.93 99.67,100.93 100.67,100.93 101.67,100.93 102.67,100.93 103.67,100.93 104.67,100.93 105.67,100.93 106.67,99.93 107.67,99.93 108.67,99.93 110.67,99.93 111.67,99.93 112.67,99.93 113.67,99.93 114.67,99.93 114.67,99.93 115.67,99.93 116.67,99.93 118.67,99.93 119.67,99.93 121.67,99.93 122.67,99.93 124.67,100.93 126.67,100.93 126.67,101.93 129.67,101.93 129.67,102.93 131.67,103.93 132.67,103.93 135.67,104.93 136.67,104.93 138.67,104.93 139.67,105.93 140.67,107.93 143.67,107.93 144.67,107.93 146.67,108.93 147.67,110.93 149.67,110.93 150.67,111.93 152.67,112.93 154.67,112.93 155.67,112.93 157.67,113.93 159.67,114.93 162.67,117.93 164.67,117.93 168.67,119.93 170.67,119.93 170.67,120.93 172.67,120.93 175.67,120.93 176.67,121.93 178.67,122.93 180.67,122.93 183.67,123.93 185.67,124.93 187.67,125.93 189.67,126.93 191.67,126.93 193.67,127.93 195.67,128.93 196.67,128.93 199.67,128.93 202.67,128.93 203.67,128.93 206.67,129.93 207.67,129.93 210.67,129.93 212.67,129.93 214.67,129.93 217.67,129.93 218.67,129.93 220.67,130.93 223.67,130.93 225.67,130.93 227.67,130.93 230.67,131.93 232.67,131.93 234.67,131.93 237.67,132.93 238.67,132.93 241.67,133.93 243.67,133.93 246.67,134.93 247.67,134.93 250.67,134.93 250.67,134.93 251.67,134.93 255.67,135.93 258.67,135.93 260.67,135.93 261.67,136.93 263.67,136.93 265.67,136.93 266.67,136.93 267.67,136.93 268.67,136.93 270.67,136.93 271.67,136.93 272.67,136.93 274.67,136.93 274.67,136.93 276.67,136.93 277.67,136.93 278.67,136.93 279.67,136.93 280.67,137.93 281.67,137.93 282.67,137.93 282.67,137.93 283.67,137.93 284.67,137.93 283.67,137.93 282.67,137.93 282.67,136.93 282.67,136.93 282.67,136.93 281.67,136.93 281.67,135.93 281.67,134.93 281.67,133.93 281.67,132.93 281.67,131.93 281.67,130.93 281.67,129.93 281.67,128.93 280.67,128.93 280.67,128.93 280.67,127.93 280.67,126.93 279.67,126.93 278.67,126.93 277.67,126.93 276.67,127.93 275.67,128.93 274.67,128.93 274.67,128.93 274.67,129.93 274.67,129.93 273.67,130.93 272.67,131.93 272.67,132.93 271.67,133.93 270.67,134.93 270.67,135.93 270.67,136.93 270.67,136.93 269.67,136.93 269.67,137.93 269.67,138.93 268.67,138.93 268.67,139.93 268.67,140.93 268.67,141.93 268.67,142.93 267.67,143.93 267.67,144.93 267.67,144.93 267.67,145.93 267.67,146.93 267.67,147.93 267.67,148.93 268.67,148.93 269.67,148.93 270.67,147.93 270.67,146.93 271.67,146.93 271.67,145.93 271.67,144.93 272.67,143.93 273.67,142.93 274.67,141.93 274.67,140.93 274.67,139.93 274.67,138.93 275.67,137.93 275.67,136.93 275.67,136.93 276.67,135.93 277.67,134.93 277.67,133.93 278.67,133.93 278.67,132.93 278.67,131.93 278.67,130.93 279.67,129.93 279.67,128.93 280.67,128.93 280.67,128.93 280.67,127.93 280.67,126.93 281.67,126.93 281.67,125.93 281.67,124.93 282.67,123.93 282.67,122.93 282.67,121.93 282.67,120.93 282.67,120.93 282.67,120.93 282.67,120.93 282.67,121.93 282.67,121.93 282.67,123.93 281.67,123.93 281.67,124.93 281.67,125.93 281.67,126.93 281.67,127.93 282.67,127.93 282.67,127.93 282.67,128.93 283.67,128.93 284.67,128.93 285.67,127.93 286.67,127.93 287.67,126.93 288.67,126.93 289.67,126.93 289.67,125.93 289.67,124.93 290.67,124.93 290.67,124.93 290.67,123.93 291.67,123.93 291.67,122.93 291.67,121.93 291.67,122.93 291.67,123.93 291.67,124.93 291.67,125.93 291.67,126.93 291.67,127.93 291.67,128.93 291.67,128.93 291.67,129.93 291.67,130.93 291.67,131.93 291.67,132.93 291.67,133.93 291.67,134.93 291.67,135.93 291.67,136.93 291.67,136.93 292.67,136.93 293.67,137.93 294.67,137.93 295.67,137.93 296.67,137.93 297.67,137.93 298.67,137.93 298.67,136.93 298.67,136.93 299.67,135.93 300.67,134.93 301.67,133.93 302.67,133.93 302.67,132.93 303.67,130.93 304.67,130.93 305.67,130.93 305.67,129.93 305.67,128.93 306.67,128.93 306.67,127.93 306.67,126.93 307.67,125.93 307.67,124.93 308.67,123.93 309.67,123.93 309.67,122.93 310.67,121.93 310.67,120.93 311.67,120.93 311.67,120.93 311.67,119.93 312.67,118.93 312.67,117.93 313.67,116.93 314.67,115.93 314.67,113.93 314.67,112.93 314.67,112.93 314.67,111.93 315.67,109.93 315.67,108.93 316.67,107.93 316.67,106.93 316.67,105.93 316.67,104.93 316.67,104.93 317.67,103.93 317.67,102.93 317.67,101.93 317.67,100.93 317.67,99.93 317.67,98.93 316.67,97.93 315.67,97.93 314.67,97.93 314.67,97.93 313.67,97.93 312.67,97.93 311.67,97.93 310.67,97.93 309.67,98.93 308.67,99.93 308.67,100.93 307.67,101.93 306.67,101.93 306.67,102.93 306.67,103.93 306.67,104.93 306.67,104.93 306.67,105.93 305.67,107.93 305.67,108.93 305.67,109.93 304.67,110.93 304.67,112.93 304.67,112.93 304.67,114.93 304.67,115.93 304.67,117.93 304.67,118.93 304.67,119.93 304.67,120.93 304.67,120.93 304.67,121.93 304.67,122.93 304.67,123.93 304.67,124.93 304.67,125.93 305.67,127.93 305.67,128.93 306.67,128.93 306.67,128.93 306.67,130.93 306.67,131.93 306.67,132.93 307.67,133.93 308.67,133.93 308.67,134.93 308.67,136.93 309.67,136.93 310.67,136.93 310.67,137.93 311.67,137.93 312.67,138.93 313.67,140.93 314.67,141.93 314.67,142.93 314.67,143.93 316.67,144.93 317.67,145.93 318.67,145.93 318.67,146.93 319.67,148.93 320.67,148.93 321.67,150.93 322.67,151.93 322.67,151.93 322.67,152.93 322.67,152.93 323.67,152.93 323.67,153.93 324.67,153.93 324.67,154.93 325.67,154.93 326.67,155.93 326.67,156.93 327.67,156.93 327.67,157.93 328.67,158.93 329.67,158.93 330.67,158.93 329.67,158.93 328.67,158.93 327.67,158.93 326.67,158.93 325.67,158.93 324.67,158.93 323.67,158.93 322.67,158.93 322.67,158.93 322.67,157.93 321.67,157.93 321.67,156.93 321.67,155.93 321.67,154.93 321.67,152.93 321.67,150.93 321.67,149.93 321.67,147.93 321.67,145.93 321.67,144.93 321.67,144.93 321.67,143.93 321.67,142.93 321.67,141.93 321.67,140.93 321.67,139.93 321.67,138.93 321.67,137.93 321.67,136.93 321.67,136.93 321.67,135.93 321.67,134.93 321.67,133.93 321.67,132.93 321.67,131.93 321.67,130.93 321.67,128.93 321.67,128.93 321.67,126.93 321.67,125.93 322.67,124.93 322.67,123.93 322.67,122.93 322.67,121.93 322.67,120.93 322.67,120.93 322.67,119.93 322.67,118.93 322.67,117.93 323.67,117.93 324.67,117.93 324.67,116.93 324.67,115.93 324.67,114.93 325.67,114.93 325.67,113.93 326.67,113.93 327.67,113.93 327.67,112.93 328.67,112.93 329.67,112.93 330.67,113.93 330.67,113.93 331.67,114.93 332.67,114.93 332.67,115.93 333.67,116.93 334.67,116.93 335.67,116.93 336.67,118.93 336.67,119.93 337.67,119.93 338.67,119.93 338.67,120.93 338.67,121.93 339.67,121.93 340.67,121.93 341.67,122.93 342.67,122.93 342.67,123.93 343.67,124.93 345.67,124.93 345.67,125.93 346.67,125.93 346.67,127.93 346.67,127.93 347.67,127.93 348.67,127.93 348.67,128.93 350.67,128.93 351.67,128.93 351.67,128.93 352.67,128.93 353.67,128.93 354.67,128.93 354.67,128.93 355.67,128.93 356.67,128.93 357.67,128.93 357.67,128.93 358.67,128.93 358.67,127.93 359.67,127.93 359.67,126.93 360.67,125.93 361.67,124.93 362.67,123.93 362.67,122.93 362.67,121.93 362.67,121.93 363.67,120.93 363.67,119.93 363.67,118.93 363.67,116.93 363.67,115.93 363.67,113.93 363.67,112.93 363.67,112.93 363.67,111.93 363.67,110.93 363.67,109.93 363.67,108.93 363.67,107.93 363.67,106.93 363.67,105.93 363.67,104.93 363.67,104.93 362.67,104.93 362.67,103.93 362.67,104.93 362.67,104.93 362.67,104.93 362.67,105.93 361.67,106.93 361.67,108.93 360.67,108.93 360.67,109.93 360.67,110.93 360.67,112.93 360.67,112.93 359.67,113.93 359.67,114.93 359.67,115.93 359.67,117.93 358.67,118.93 358.67,119.93 357.67,120.93 357.67,121.93 357.67,122.93 357.67,124.93 357.67,125.93 357.67,127.93 356.67,128.93 356.67,128.93 356.67,129.93 356.67,131.93 356.67,133.93 356.67,135.93 356.67,136.93 356.67,137.93 356.67,138.93 356.67,139.93 356.67,140.93 356.67,141.93 356.67,143.93 356.67,144.93 356.67,144.93 356.67,145.93 356.67,146.93 356.67,147.93 356.67,148.93 356.67,149.93 356.67,150.93 356.67,151.93 356.67,152.93 356.67,152.93 356.67,153.93 356.67,154.93 356.67,155.93 356.67,157.93 356.67,160.93 356.67,160.93 356.67,161.93 356.67,163.93 356.67,164.93 356.67,165.93 356.67,166.93 356.67,167.93 356.67,168.93 356.67,168.93 356.67,169.93 356.67,170.93 356.67,172.93 356.67,173.93 356.67,174.93 355.67,174.93 355.67,175.93 355.67,176.93 353.67,178.93 353.67,179.93 354.67,179.93 354.67,179.93 354.67,178.93 354.67,177.93 354.67,176.93 354.67,176.93 354.67,175.93 354.67,173.93 354.67,171.93 354.67,170.93 354.67,168.93 354.67,166.93 354.67,165.93 354.67,163.93 354.67,162.93 354.67,161.93 354.67,160.93 354.67,159.93 354.67,158.93 354.67,156.93 354.67,154.93 354.67,152.93 354.67,151.93 354.67,149.93 354.67,148.93 354.67,145.93 354.67,144.93 354.67,144.93 354.67,142.93 354.67,140.93 354.67,138.93 354.67,137.93 354.67,136.93 354.67,135.93 354.67,133.93 355.67,132.93 355.67,131.93 355.67,130.93 355.67,129.93 356.67,128.93 356.67,128.93 357.67,127.93 357.67,126.93 357.67,125.93 358.67,124.93 358.67,123.93 359.67,122.93 360.67,122.93 361.67,122.93 361.67,121.93 362.67,120.93 362.67,120.93 362.67,120.93 363.67,120.93 364.67,120.93 365.67,120.93 366.67,120.93 366.67,119.93 367.67,119.93 368.67,119.93 368.67,118.93 370.67,118.93 370.67,118.93 372.67,118.93 373.67,118.93 375.67,118.93 376.67,118.93 378.67,118.93 378.67,118.93 379.67,118.93 381.67,118.93 384.67,118.93 385.67,118.93 386.67,118.93 387.67,118.93 390.67,118.93 392.67,118.93 394.67,118.93 395.67,118.93 397.67,118.93 399.67,118.93 401.67,118.93 402.67,118.93 404.67,118.93 406.67,118.93 408.67,118.93 410.67,118.93 412.67,118.93 414.67,118.93 417.67,118.93 418.67,118.93 420.67,118.93 423.67,118.93 426.67,118.93 427.67,118.93 428.67,118.93 430.67,118.93 433.67,118.93 434.67,118.93 437.67,118.93 440.67,118.93 442.67,118.93 443.67,118.93 446.67,118.93 449.67,118.93 450.67,118.93 452.67,118.93 457.67,118.93 459.67,118.93 461.67,118.93 464.67,118.93 465.67,118.93 467.67,118.93 469.67,118.93 471.67,118.93 474.67,118.93 474.67,118.93 476.67,118.93 477.67,118.93 479.67,118.93 480.67,118.93 482.67,118.93 482.67,118.93 483.67,118.93 484.67,118.93 485.67,118.93 486.67,118.93 487.67,118.93 488.67,118.93 489.67,118.93 489.67,117.93 488.67,117.93 488.67,116.93 487.67,116.93 486.67,116.93 485.67,116.93 484.67,116.93 482.67,116.93 482.67,116.93 481.67,116.93 480.67,116.93 479.67,117.93 478.67,117.93 477.67,117.93 476.67,117.93 475.67,117.93 474.67,118.93 474.67,119.93 473.67,119.93 472.67,119.93 471.67,119.93 470.67,119.93 469.67,119.93 468.67,119.93 468.67,120.93 467.67,120.93 466.67,120.93 466.67,121.93 466.67,121.93 465.67,121.93 465.67,122.93 464.67,122.93"/>
		</g>
	</g>
</svg>