<?xml version="1.0"?>
<!DOCTYPE svg PUBLIC "-//W3C//DTD SVG 1.1//EN" "http://www.w3.org/Graphics/SVG/1.1/DTD/svg11.dtd">
<svg xmlns="http://www.w3.org/2000/svg" width="15cm" height="15cm">
	<g fill="#fff">
		<rect x="0" y="0" width="720" height="184"/>
		<g fill="none" stroke="#000" stroke-width="2">
			<polyline points="175.67,67.93 175.67,68.93 170.67,72.93 156.67,82.93 143.67,112.93 131.67,140.93 128.67,151.93 127.67,154.93 127.67,153.93 129.67,151.93 139.67,128.93 150.67,106.93 165.67,86.93 176.67,70.93 180.67,63.93 182.67,61.93 182.67,62.93 181.67,64.93 178.67,79.93 180.67,95.93 184.67,105.93 186.67,109.93 192.67,106.93 202.67,100.93 214.67,93.93 228.67,75.93 233.67,69.93 234.67,68.93 231.67,70.93 222.67,76.93 210.67,97.93 209.67,119.93 210.67,128.93 212.67,129.93 224.67,123.93 235.67,116.93 253.67,103.93 266.67,81.93 269.67,78.93 265.67,80.93 259.67,83.93 253.67,88.93 246.67,93.93 246.67,107.93 246.67,115.93 246.67,116.93 247.67,116.93 251.67,114.93 263.67,107.93 274.67,96.93 283.67,80.93 287.67,78.93 288.67,78.93 284.67,86.93 284.67,114.93 285.67,133.93 288.67,144.93 290.67,147.93 293.67,146.93 306.67,139.93 321.67,118.93 338.67,92.93 350.67,64.93 354.67,56.93 354.67,55.93 354.67,56.93 349.67,59.93 347.67,74.93 347.67,98.93 348.67,116.93 351.67,122.93 352.67,122.93 356.67,120.93 365.67,109.93 377.67,88.93 385.67,72.93 392.67,63.93 394.67,63.93 394.67,70.93 392.67,91.93 390.67,105.93 390.67,109.93 395.67,107.93 414.67,96.93 439.67,78.93 460.67,64.93 471.67,59.93 471.67,60.93 474.67,65.93 479.67,75.93 487.67,84.93 505.67,91.93 534.67,96.93 562.67,96.93 570.67,96.93"/>
		</g>
	</g>
</svg>