<?xml version="1.0"?>
<!DOCTYPE svg PUBLIC "-//W3C//DTD SVG 1.1//EN" "http://www.w3.org/Graphics/SVG/1.1/DTD/svg11.dtd">
<svg xmlns="http://www.w3.org/2000/svg" width="15cm" height="15cm">
	<g fill="#fff">
		<rect x="0" y="0" width="720" height="184"/>
		<g fill="none" stroke="#000" stroke-width="2">
			<polyline points="252.67,13.93 251.67,13.93 247.67,17.93 241.67,32.93 232.67,57.93 220.67,84.93 210.67,105.93 203.67,116.93 198.67,124.93 193.67,128.93 192.67,128.93 191.67,115.93 191.67,89.93 197.67,62.93 208.67,41.93 224.67,29.93 238.67,23.93 247.67,19.93 250.67,20.93 256.67,28.93 261.67,42.93 264.67,54.93 258.67,65.93 243.67,77.93 226.67,85.93 217.67,89.93 217.67,90.93 218.67,89.93 219.67,88.93 236.67,80.93 245.67,77.93 248.67,76.93 252.67,80.93 268.67,96.93 279.67,102.93 285.67,104.93 290.67,103.93 296.67,91.93 297.67,80.93 293.67,72.93 291.67,69.93 287.67,69.93 282.67,72.93 275.67,76.93 270.67,87.93 269.67,93.93 270.67,95.93 277.67,96.93 288.67,91.93 295.67,88.93 300.67,84.93 305.67,80.93 307.67,79.93 306.67,80.93 306.67,87.93 307.67,93.93 310.67,94.93 314.67,95.93 322.67,92.93 332.67,86.93 344.67,74.93 351.67,64.93 354.67,58.93 354.67,58.93 353.67,58.93 351.67,62.93 351.67,72.93 354.67,85.93 355.67,91.93 357.67,94.93 358.67,94.93 359.67,94.93 362.67,93.93 366.67,90.93 372.67,88.93 374.67,87.93 373.67,92.93 374.67,98.93 376.67,100.93 376.67,101.93 377.67,101.93 382.67,97.93 387.67,91.93 391.67,86.93 392.67,84.93 392.67,85.93 391.67,93.93 393.67,102.93 394.67,104.93 395.67,104.93 401.67,104.93 405.67,100.93 411.67,94.93 413.67,92.93 413.67,94.93 415.67,101.93 416.67,104.93 418.67,104.93 425.67,103.93 445.67,96.93 468.67,88.93 484.67,84.93 489.67,82.93 487.67,83.93 480.67,87.93"/>
		</g>
	</g>
</svg>