<?xml version="1.0"?>
<!DOCTYPE svg PUBLIC "-//W3C//DTD SVG 1.1//EN" "http://www.w3.org/Graphics/SVG/1.1/DTD/svg11.dtd">
<svg xmlns="http://www.w3.org/2000/svg" width="15cm" height="15cm">
	<g fill="#fff">
		<rect x="0" y="0" width="720" height="184"/>
		<g fill="none" stroke="#000" stroke-width="2">
			<polyline points="297.67,38.93 296.67,38.93 296.67,40.93 295.67,45.93 290.67,59.93 277.67,84.93 261.67,146.93 246.67,181.93 228.67,222.93 212.67,246.93 194.67,265.93 194.67,265.93 186.67,270.93 180.67,272.93 177.67,272.93 173.67,271.93 169.67,262.93 169.67,253.93 167.67,239.93 170.67,217.93 177.67,196.93 187.67,176.93 204.67,129.93 239.67,95.93 264.67,77.93 282.67,70.93 282.67,70.93 298.67,67.93 314.67,69.93 327.67,76.93 335.67,82.93 339.67,88.93 343.67,89.93 344.67,92.93 345.67,94.93 346.67,95.93 346.67,94.93 345.67,94.93 344.67,95.93 340.67,95.93 337.67,96.93 324.67,99.93 311.67,101.93 297.67,104.93 287.67,106.93 281.67,106.93 277.67,105.93 276.67,104.93 276.67,101.93 276.67,99.93 277.67,97.93 278.67,97.93 281.67,96.93 289.67,97.93 298.67,100.93 306.67,106.93 314.67,119.93 319.67,124.93 321.67,125.93 321.67,121.93 321.67,118.93 321.67,112.93 321.67,105.93 318.67,98.93 317.67,96.93 319.67,96.93 323.67,98.93 326.67,98.93 329.67,99.93 330.67,99.93 332.67,99.93 333.67,97.93 334.67,97.93 335.67,98.93 336.67,99.93 337.67,101.93 338.67,103.93 340.67,104.93 341.67,104.93 341.67,104.93 341.67,104.93 342.67,104.93 343.67,104.93 343.67,105.93 343.67,107.93 345.67,109.93 346.67,110.93 346.67,110.93 347.67,110.93 348.67,109.93 349.67,107.93 349.67,104.93 349.67,103.93 349.67,101.93 349.67,100.93 347.67,100.93 346.67,101.93 346.67,103.93 346.67,105.93 346.67,107.93 346.67,110.93 346.67,109.93 346.67,105.93 346.67,104.93 346.67,101.93 346.67,100.93 347.67,100.93 348.67,100.93 349.67,101.93 353.67,103.93 355.67,105.93 358.67,109.93 362.67,116.93 362.67,118.93 362.67,119.93 361.67,120.93 358.67,120.93 357.67,120.93 356.67,118.93 358.67,112.93 360.67,104.93 369.67,93.93 386.67,75.93 410.67,44.93 423.67,32.93 433.67,26.93 435.67,24.93 435.67,24.93"/>
		</g>
	</g>
</svg>