<?xml version="1.0"?>
<!DOCTYPE svg PUBLIC "-//W3C//DTD SVG 1.1//EN" "http://www.w3.org/Graphics/SVG/1.1/DTD/svg11.dtd">
<svg xmlns="http://www.w3.org/2000/svg" width="15cm" height="15cm">
	<g fill="#fff">
		<rect x="0" y="0" width="720" height="184"/>
		<g fill="none" stroke="#000" stroke-width="2">
			<polyline points="280,93.7 280,92.7 280,91.7 282,90.7 285,86.7 290,81.7 294,77.7 299,69.7 305,63.7 310,58.7 317,52.7 322,46.7 327,40.7 329,39.7 327,42.7 322,47.7 313,58.7 299,75.7 292,85.7 284,99.7 281,107.7 279,112.7 279,115.7 279,116.7 280,116.7 283,116.7 288,114.7 297,110.7 304,108.7 310,103.7 314,103.7 315,103.7 315,104.7 312,107.7 303,112.7 289,120.7 277,122.7 272,122.7 265,122.7 263,121.7 261,118.7 261,115.7 261,109.7 263,103.7 266,98.7 270,94.7 278,91.7 286,91.7 299,98.7 312,101.7 326,108.7 335,113.7 341,115.7 341,113.7 341,111.7 340,108.7 340,101.7 341,101.7 342,102.7 345,104.7 347,105.7 349,105.7 351,105.7 352,105.7 353,104.7 357,96.7 362,85.7 365,83.7 368,82.7 370,82.7 373,83.7 376,86.7 381,95.7 383,99.7 384,102.7 384,103.7 382,103.7 381,103.7 381,102.7 381,101.7 381,102.7 383,104.7 385,105.7 388,106.7 390,106.7 391,106.7 392,106.7 392,103.7 392,100.7 389,93.7 385,80.7 379,72.7 371,61.7 364,54.7 360,55.7 358,60.7 358,64.7 358,70.7 358,79.7 358,87.7 359,93.7 364,100.7 368,104.7 375,104.7 382,104.7 395,105.7 417,101.7 457,79.7 486,52.7 493,47.7 496,44.7 496,41.7 494,40.7"/>
		</g>
	</g>
</svg>