<?xml version="1.0"?>
<!DOCTYPE svg PUBLIC "-//W3C//DTD SVG 1.1//EN" "http://www.w3.org/Graphics/SVG/1.1/DTD/svg11.dtd">
<svg xmlns="http://www.w3.org/2000/svg" width="15cm" height="15cm">
	<g fill="#fff">
		<rect x="0" y="0" width="720" height="184"/>
		<g fill="none" stroke="#000" stroke-width="2">
			<polyline points="269.67,66.93 269.67,65.93 269.67,64.93 264.67,57.93 257.67,46.93 240.67,24.93 236.67,19.93 234.67,18.93 232.67,18.93 227.67,24.93 225.67,29.93 219.67,46.93 220.67,61.93 226.67,70.93 233.67,83.93 245.67,97.93 253.67,105.93 269.67,104.93 275.67,101.93 280.67,93.93 282.67,89.93 286.67,68.93 286.67,59.93 283.67,55.93 282.67,50.93 272.67,42.93 267.67,42.93 261.67,42.93 253.67,44.93 247.67,51.93 247.67,55.93 247.67,58.93 248.67,64.93 261.67,84.93 268.67,91.93 274.67,95.93 276.67,95.93 277.67,94.93 277.67,91.93 277.67,90.93 278.67,86.93 277.67,79.93 275.67,73.93 274.67,72.93 273.67,71.93 274.67,72.93 275.67,77.93 279.67,82.93 282.67,87.93 284.67,88.93 289.67,90.93 290.67,88.93 290.67,85.93 290.67,83.93 290.67,81.93 290.67,79.93 290.67,76.93 290.67,77.93 290.67,79.93 290.67,81.93 293.67,90.93 296.67,91.93 298.67,90.93 298.67,86.93 299.67,83.93 300.67,81.93 300.67,80.93 300.67,80.93 301.67,81.93 302.67,85.93 305.67,104.93 307.67,107.93 307.67,108.93 307.67,107.93 307.67,105.93 307.67,101.93 306.67,100.93 306.67,101.93 308.67,106.93 316.67,110.93 322.67,112.93 327.67,114.93 331.67,113.93 331.67,110.93 331.67,106.93 330.67,101.93 321.67,83.93 312.67,72.93 303.67,58.93 292.67,45.93 290.67,42.93 289.67,42.93 294.67,63.93 297.67,73.93 301.67,80.93 304.67,86.93 311.67,96.93 315.67,96.93 328.67,92.93 353.67,91.93 418.67,74.93 444.67,70.93 454.67,67.93 457.67,65.93"/>
		</g>
	</g>
</svg>