<?xml version="1.0"?>
<!DOCTYPE svg PUBLIC "-//W3C//DTD SVG 1.1//EN" "http://www.w3.org/Graphics/SVG/1.1/DTD/svg11.dtd">
<svg xmlns="http://www.w3.org/2000/svg" width="15cm" height="15cm">
	<g fill="#fff">
		<rect x="0" y="0" width="720" height="184"/>
		<g fill="none" stroke="#000" stroke-width="2">
			<polyline points="214,38.93 214,39.93 214,40.93 214,41.93 214,43.93 214,47.93 214,57.93 212,68.93 211,81.93 204,105.93 203,121.93 201,133.93 199,144.93 195,160.93 193,166.93 193,170.93 191,174.93 191,175.93 190,174.93 190,172.93 189,171.93 189,168.93 188,161.93 188,154.93 188,143.93 188,128.93 188,114.93 188,98.93 188,88.93 188,72.93 189,66.93 192,60.93 194,58.93 197,55.93 198,54.93 200,54.93 204,54.93 209,54.93 217,60.93 225,66.93 236,72.93 244,80.93 252,88.93 259,93.93 262,97.93 268,104.93 269,109.93 270,110.93 270,112.93 271,114.93 271,115.93 269,115.93 266,115.93 260,117.93 251,121.93 239,125.93 217,129.93 199,135.93 180,143.93 165,143.93 159,142.93 156,140.93 155,138.93 155,136.93 156,133.93 158,131.93 161,128.93 164,126.93 176,119.93 197,102.93 236,84.93 279,76.93 303,71.93 312,70.93 318,69.93 326,72.93 329,72.93 329,74.93 329,75.93 328,77.93 325,77.93 321,77.93 316,77.93 311,77.93 308,76.93 307,76.93 304,75.93 303,75.93 301,78.93 299,84.93 299,87.93 299,91.93 299,94.93 302,98.93 303,100.93 306,101.93 310,103.93 316,103.93 320,103.93 324,102.93 328,101.93 331,99.93 331,97.93 332,96.93 332,94.93 332,92.93 330,91.93 328,91.93 324,90.93 321,90.93 318,90.93 316,91.93 316,94.93 316,96.93 316,96.93 316,100.93 316,103.93 317,105.93 320,108.93 324,111.93 325,112.93 327,112.93 329,112.93 329,111.93 330,109.93 330,108.93 331,105.93 331,103.93 332,101.93 332,100.93 333,100.93 333,102.93 335,102.93 337,103.93 339,104.93 340,104.93 341,104.93 342,104.93 342,102.93 344,102.93 345,102.93 347,103.93 348,104.93 349,104.93 350,104.93 351,104.93 352,104.93 352,102.93 353,102.93 355,103.93 356,104.93 357,109.93 357,111.93 357,115.93 357,121.93 356,127.93 354,129.93 351,132.93 348,132.93 348,131.93 348,130.93 348,128.93 348,126.93 349,122.93 356,106.93 369,90.93 394,72.93 406,64.93 417,59.93 429,56.93 436,54.93 439,54.93 440,53.93 440,55.93"/>
		</g>
	</g>
</svg>