<?xml version="1.0"?>
<!DOCTYPE svg PUBLIC "-//W3C//DTD SVG 1.1//EN" "http://www.w3.org/Graphics/SVG/1.1/DTD/svg11.dtd">
<svg xmlns="http://www.w3.org/2000/svg" width="15cm" height="15cm">
	<g fill="#fff">
		<rect x="0" y="0" width="720" height="184"/>
		<g fill="none" stroke="#000" stroke-width="2">
			<polyline points="192.67,32.93 191.67,32.93"/>
			<polyline points="125.67,136.93 125.67,138.93"/>
			<polyline points="212.67,32.93 213.67,32.93 213.67,33.93 212.67,33.93 212.67,34.93 211.67,34.93 210.67,35.93 210.67,36.93 210.67,37.93 210.67,38.93 210.67,39.93 210.67,40.93 210.67,40.93 210.67,41.93 210.67,42.93 210.67,43.93 210.67,44.93 210.67,45.93 210.67,46.93 210.67,47.93"/>
			<polyline points="190.67,131.93 190.67,133.93"/>
			<polyline points="222.67,40.93 222.67,42.93"/>
			<polyline points="217.67,112.93 217.67,113.93 217.67,114.93 217.67,115.93 217.67,116.93 216.67,116.93 216.67,117.93 216.67,118.93 216.67,119.93 216.67,120.93 216.67,120.93 216.67,121.93 216.67,122.93 216.67,123.93 216.67,124.93 216.67,125.93"/>
			<polyline points="193.67,59.93 194.67,59.93 194.67,59.93 195.67,59.93 195.67,58.93 196.67,58.93 196.67,59.93 196.67,60.93 196.67,61.93 195.67,62.93 195.67,63.93 195.67,64.93 195.67,65.93 194.67,66.93"/>
			<polyline points="145.67,120.93 142.67,120.93 140.67,123.93 139.67,124.93 137.67,125.93 134.67,128.93 131.67,128.93 130.67,130.93 128.67,132.93 126.67,133.93 123.67,136.93 122.67,136.93 121.67,136.93 119.67,138.93 117.67,138.93 116.67,139.93 114.67,140.93 113.67,142.93 112.67,142.93 111.67,143.93 109.67,143.93 108.67,144.93 107.67,144.93 106.67,145.93 106.67,145.93 105.67,145.93 104.67,145.93 104.67,146.93 103.67,146.93 101.67,147.93 100.67,148.93 99.67,148.93 98.67,148.93 98.67,148.93 97.67,148.93 96.67,149.93 95.67,149.93 94.67,149.93 93.67,149.93 92.67,149.93 91.67,149.93 91.67,148.93 91.67,147.93 91.67,146.93 91.67,145.93 91.67,144.93 91.67,143.93 91.67,142.93 92.67,141.93 92.67,139.93 93.67,138.93 93.67,137.93 93.67,136.93"/>
			<polyline points="98.67,126.93 99.67,126.93 100.67,124.93 102.67,123.93 102.67,122.93 104.67,120.93 105.67,120.93 106.67,119.93 106.67,117.93 107.67,116.93 109.67,114.93 111.67,113.93 111.67,113.93 113.67,112.93 114.67,112.93 115.67,111.93 116.67,110.93 119.67,109.93 120.67,108.93 122.67,107.93 123.67,106.93 124.67,104.93 126.67,104.93 129.67,103.93 130.67,102.93 131.67,101.93 133.67,99.93 135.67,99.93 137.67,98.93 138.67,97.93 140.67,97.93 141.67,96.93 144.67,95.93 145.67,94.93 146.67,94.93 148.67,93.93 150.67,92.93 150.67,91.93 151.67,91.93 153.67,89.93 154.67,89.93 156.67,89.93 158.67,88.93 161.67,87.93 162.67,87.93 163.67,86.93 166.67,85.93 167.67,84.93 169.67,83.93 171.67,83.93 173.67,83.93 175.67,82.93 178.67,80.93 181.67,80.93 183.67,80.93 185.67,80.93 186.67,79.93 188.67,79.93 190.67,78.93 191.67,77.93 194.67,77.93 194.67,76.93 196.67,76.93 197.67,76.93 199.67,76.93 201.67,76.93 202.67,76.93 203.67,76.93 204.67,76.93 206.67,76.93 208.67,76.93 210.67,76.93 210.67,76.93 211.67,76.93 213.67,76.93 214.67,76.93 216.67,76.93 217.67,76.93 218.67,76.93 219.67,76.93 220.67,76.93 221.67,76.93 222.67,76.93 223.67,76.93 223.67,77.93 224.67,77.93 225.67,77.93 226.67,77.93 226.67,78.93 227.67,79.93 228.67,80.93 228.67,80.93 229.67,80.93 229.67,81.93 229.67,82.93 229.67,83.93 230.67,84.93 230.67,85.93 230.67,86.93 230.67,87.93 230.67,88.93 230.67,88.93 230.67,89.93 230.67,90.93 229.67,90.93 229.67,91.93 228.67,91.93 228.67,92.93 227.67,92.93 227.67,93.93 226.67,93.93 226.67,94.93 226.67,95.93 226.67,95.93 225.67,96.93 224.67,96.93 223.67,96.93 222.67,96.93 221.67,97.93 220.67,97.93 219.67,97.93 219.67,98.93 218.67,99.93 217.67,99.93 216.67,100.93 215.67,100.93 214.67,100.93 213.67,101.93 211.67,102.93 210.67,102.93 209.67,102.93 209.67,103.93 207.67,104.93 206.67,104.93 204.67,104.93 203.67,105.93 202.67,105.93 202.67,106.93 201.67,106.93 200.67,106.93 199.67,107.93 198.67,107.93 197.67,107.93 197.67,108.93 196.67,108.93 195.67,108.93 194.67,109.93 194.67,110.93 193.67,110.93 192.67,110.93 191.67,111.93 190.67,111.93 190.67,112.93 189.67,112.93 190.67,112.93 191.67,112.93 192.67,112.93 193.67,112.93 193.67,111.93 194.67,111.93 195.67,110.93 196.67,110.93 198.67,110.93 201.67,110.93 202.67,110.93 203.67,110.93 206.67,110.93 210.67,110.93 211.67,109.93 214.67,108.93 218.67,108.93 219.67,107.93 221.67,107.93 222.67,107.93 224.67,107.93 226.67,106.93 230.67,106.93 233.67,106.93 234.67,104.93 237.67,104.93 241.67,104.93 243.67,104.93 245.67,104.93 249.67,103.93 251.67,103.93 253.67,103.93 256.67,102.93 259.67,101.93 262.67,101.93 264.67,101.93 267.67,100.93 271.67,100.93 274.67,99.93 275.67,98.93 278.67,97.93 282.67,97.93 284.67,96.93 288.67,96.93 290.67,95.93 293.67,95.93 297.67,94.93 300.67,94.93 302.67,93.93 307.67,92.93 310.67,91.93 313.67,91.93 316.67,90.93 320.67,89.93 323.67,88.93 325.67,88.93 329.67,88.93 331.67,88.93 334.67,87.93 336.67,87.93 339.67,86.93 342.67,86.93 349.67,84.93 352.67,84.93 354.67,84.93 358.67,83.93 361.67,83.93 362.67,83.93 365.67,82.93 369.67,82.93 370.67,82.93 372.67,82.93 375.67,81.93 376.67,81.93 378.67,81.93 379.67,81.93 380.67,81.93 382.67,80.93 383.67,80.93 384.67,80.93 386.67,80.93 386.67,80.93 386.67,80.93 388.67,80.93 389.67,80.93 390.67,80.93 391.67,80.93 390.67,80.93 390.67,81.93 390.67,82.93 391.67,82.93 391.67,83.93 392.67,84.93 393.67,84.93 394.67,85.93 395.67,85.93 396.67,86.93 398.67,87.93 400.67,87.93 402.67,88.93 403.67,88.93 406.67,88.93 409.67,89.93 410.67,89.93 413.67,90.93 416.67,91.93 418.67,91.93 418.67,92.93 421.67,92.93 424.67,92.93 427.67,93.93 431.67,93.93 434.67,94.93 437.67,94.93 441.67,95.93 444.67,95.93 450.67,95.93 454.67,95.93 458.67,95.93 462.67,95.93 466.67,95.93 468.67,95.93 472.67,95.93 476.67,95.93 481.67,95.93 482.67,95.93 485.67,95.93 489.67,95.93 492.67,95.93 496.67,95.93 498.67,95.93 502.67,95.93 506.67,95.93 510.67,95.93 512.67,94.93 515.67,94.93 519.67,94.93 522.67,94.93 526.67,94.93 528.67,94.93 531.67,93.93 535.67,93.93 538.67,93.93 540.67,92.93 542.67,91.93 546.67,91.93 549.67,91.93 551.67,91.93 554.67,91.93 556.67,90.93 558.67,90.93 561.67,90.93 562.67,90.93 564.67,90.93 567.67,89.93 569.67,89.93 570.67,89.93 572.67,89.93 573.67,88.93 574.67,88.93 576.67,88.93 577.67,88.93 578.67,88.93 579.67,88.93 580.67,87.93 581.67,87.93 583.67,87.93 584.67,87.93 585.67,86.93 586.67,86.93 586.67,86.93 587.67,85.93 587.67,84.93 588.67,84.93 589.67,84.93 589.67,83.93 588.67,83.93 588.67,84.93 587.67,84.93 586.67,85.93 586.67,85.93 586.67,86.93 585.67,86.93 584.67,86.93 583.67,87.93 582.67,87.93 582.67,88.93 581.67,88.93 580.67,88.93 579.67,88.93 579.67,88.93 578.67,88.93 578.67,89.93 577.67,90.93 576.67,90.93 575.67,90.93 575.67,91.93 574.67,91.93 573.67,92.93 572.67,92.93 571.67,93.93 570.67,93.93 570.67,94.93 570.67,95.93 570.67,96.93 569.67,96.93 569.67,96.93 568.67,96.93 567.67,96.93 567.67,97.93 567.67,98.93 566.67,98.93 566.67,99.93 565.67,99.93 564.67,99.93 564.67,100.93 564.67,101.93 563.67,101.93 562.67,101.93 562.67,101.93 562.67,102.93 562.67,103.93 562.67,104.93 561.67,104.93 560.67,104.93 560.67,104.93 561.67,104.93 562.67,104.93 562.67,104.93 563.67,104.93 564.67,104.93 565.67,104.93 565.67,103.93 566.67,103.93 567.67,103.93 568.67,103.93 568.67,102.93 569.67,102.93 570.67,102.93 570.67,101.93 570.67,100.93 570.67,101.93 570.67,101.93 569.67,101.93 569.67,102.93 568.67,102.93 567.67,102.93 567.67,103.93 566.67,103.93 566.67,104.93 565.67,104.93 564.67,104.93 563.67,104.93 562.67,104.93 562.67,104.93 562.67,105.93 561.67,105.93 560.67,105.93 559.67,106.93 558.67,106.93 558.67,107.93 557.67,107.93 556.67,107.93 555.67,107.93 555.67,108.93 555.67,109.93 555.67,110.93 554.67,110.93 554.67,111.93 554.67,111.93 554.67,112.93 553.67,112.93 552.67,112.93 551.67,112.93 551.67,112.93 550.67,112.93 550.67,113.93 550.67,114.93 549.67,114.93 549.67,115.93 549.67,116.93 548.67,116.93 547.67,117.93 547.67,118.93 546.67,119.93 546.67,120.93 546.67,120.93 546.67,120.93 546.67,121.93 545.67,121.93 545.67,122.93 545.67,123.93 544.67,123.93 543.67,124.93 542.67,125.93 541.67,126.93 540.67,126.93 540.67,127.93 539.67,128.93 538.67,128.93 538.67,128.93 538.67,128.93 538.67,129.93 537.67,129.93 536.67,129.93 536.67,130.93 535.67,130.93 534.67,130.93 534.67,131.93 533.67,131.93 533.67,132.93 532.67,132.93 531.67,132.93 530.67,132.93 530.67,133.93 530.67,133.93 529.67,134.93 528.67,134.93 527.67,134.93 527.67,135.93 526.67,135.93 525.67,135.93 524.67,136.93 523.67,136.93 522.67,136.93 522.67,136.93 521.67,136.93 520.67,136.93 518.67,136.93 517.67,136.93 516.67,136.93 515.67,136.93 514.67,136.93 514.67,136.93 513.67,136.93 512.67,136.93 509.67,136.93 508.67,136.93 507.67,136.93 506.67,137.93 505.67,137.93 504.67,137.93 503.67,137.93 502.67,137.93 501.67,137.93 500.67,137.93 499.67,137.93 498.67,137.93 498.67,137.93 497.67,137.93 496.67,137.93 494.67,137.93 493.67,137.93 492.67,137.93 491.67,137.93 490.67,137.93 490.67,137.93 489.67,137.93 488.67,137.93 487.67,137.93 486.67,137.93 485.67,137.93 484.67,137.93 483.67,137.93 483.67,136.93 482.67,136.93 482.67,136.93 482.67,136.93 481.67,136.93 481.67,135.93 480.67,134.93 480.67,133.93 479.67,133.93 479.67,132.93 479.67,131.93 479.67,130.93 479.67,129.93 479.67,128.93 480.67,128.93 481.67,128.93 482.67,128.93 482.67,128.93 483.67,128.93 484.67,128.93 485.67,128.93 486.67,128.93 487.67,128.93 487.67,128.93 488.67,128.93 489.67,128.93 489.67,127.93 490.67,127.93 490.67,127.93 491.67,127.93 492.67,127.93 493.67,127.93 494.67,126.93 495.67,126.93 496.67,126.93 497.67,126.93 498.67,126.93 498.67,126.93 499.67,125.93 500.67,125.93 501.67,125.93 502.67,125.93 503.67,125.93 504.67,125.93 505.67,125.93 506.67,125.93 506.67,125.93 507.67,125.93 508.67,125.93 509.67,125.93 510.67,125.93 511.67,125.93 512.67,125.93 513.67,125.93 514.67,125.93 514.67,125.93 515.67,125.93 516.67,125.93 517.67,125.93 518.67,126.93 519.67,126.93 520.67,126.93 521.67,126.93 522.67,126.93 522.67,127.93"/>
		</g>
	</g>
</svg>