<?xml version="1.0"?>
<!DOCTYPE svg PUBLIC "-//W3C//DTD SVG 1.1//EN" "http://www.w3.org/Graphics/SVG/1.1/DTD/svg11.dtd">
<svg xmlns="http://www.w3.org/2000/svg" width="15cm" height="15cm">
	<g fill="#fff">
		<rect x="0" y="0" width="720" height="184"/>
		<g fill="none" stroke="#000" stroke-width="2">
			<polyline points="289.67,37.93 288.67,37.93 287.67,37.93 286.67,37.93 285.67,38.93 284.67,39.93 283.67,39.93 283.67,40.93 282.67,40.93 282.67,40.93 280.67,40.93 280.67,41.93 279.67,41.93 277.67,42.93 275.67,43.93 274.67,44.93 274.67,44.93 272.67,46.93 270.67,46.93 269.67,47.93 268.67,47.93 266.67,48.93 266.67,49.93 265.67,49.93 263.67,50.93 261.67,51.93 260.67,52.93 258.67,53.93 257.67,55.93 255.67,56.93 253.67,56.93 251.67,57.93 250.67,58.93 249.67,59.93 247.67,60.93 244.67,62.93 242.67,64.93 241.67,65.93 240.67,66.93 238.67,67.93 236.67,69.93 234.67,69.93 233.67,72.93 232.67,72.93 230.67,74.93 228.67,75.93 227.67,77.93 226.67,79.93 225.67,80.93 223.67,83.93 222.67,84.93 219.67,86.93 218.67,88.93 218.67,89.93 217.67,90.93 216.67,92.93 215.67,93.93 214.67,95.93 214.67,96.93 213.67,96.93 212.67,97.93 212.67,98.93 211.67,99.93 210.67,100.93 210.67,101.93 210.67,102.93 210.67,103.93 210.67,104.93 209.67,104.93 209.67,104.93 209.67,105.93 209.67,106.93 209.67,107.93 209.67,108.93 209.67,109.93 209.67,110.93 209.67,111.93 209.67,112.93 209.67,113.93 209.67,114.93 209.67,115.93 210.67,116.93 210.67,117.93 210.67,118.93 211.67,119.93 212.67,120.93 213.67,120.93 214.67,121.93 215.67,122.93 216.67,122.93 217.67,123.93 218.67,124.93 219.67,125.93 220.67,126.93 222.67,126.93 224.67,128.93 225.67,128.93 226.67,128.93 228.67,128.93 232.67,130.93 233.67,130.93 235.67,131.93 238.67,131.93 239.67,132.93 241.67,132.93 243.67,133.93 244.67,134.93 247.67,134.93 248.67,134.93 250.67,134.93 252.67,134.93 254.67,134.93 256.67,135.93 258.67,135.93 260.67,136.93 262.67,136.93 265.67,136.93 267.67,136.93 268.67,136.93 271.67,136.93 273.67,136.93 274.67,136.93 274.67,137.93 278.67,137.93 279.67,137.93 282.67,137.93 284.67,137.93 285.67,137.93 288.67,137.93 290.67,137.93 291.67,137.93 294.67,137.93 296.67,137.93 298.67,137.93 301.67,137.93 304.67,136.93 306.67,136.93 308.67,136.93 311.67,135.93 313.67,134.93 314.67,134.93 317.67,133.93 318.67,133.93 321.67,132.93 322.67,131.93 325.67,131.93 326.67,130.93 328.67,129.93 330.67,128.93 330.67,128.93 332.67,128.93 334.67,127.93 335.67,126.93 337.67,126.93 338.67,125.93 338.67,125.93 339.67,124.93 341.67,123.93 342.67,122.93 344.67,122.93 346.67,122.93 346.67,121.93 347.67,120.93 349.67,120.93 351.67,120.93 352.67,119.93 352.67,118.93 354.67,118.93 354.67,117.93 355.67,116.93 356.67,115.93 357.67,115.93 358.67,115.93 360.67,113.93 361.67,112.93 361.67,112.93 362.67,111.93 364.67,110.93 364.67,109.93 365.67,108.93 366.67,106.93 367.67,105.93 367.67,104.93 368.67,104.93 369.67,103.93 370.67,101.93 370.67,100.93 370.67,99.93 370.67,99.93 370.67,98.93 370.67,97.93 371.67,96.93 371.67,96.93 372.67,96.93 372.67,95.93 372.67,94.93 372.67,93.93 371.67,93.93 371.67,92.93 370.67,92.93 370.67,92.93 369.67,92.93 368.67,92.93 367.67,92.93 366.67,92.93 365.67,92.93 364.67,92.93 363.67,92.93 362.67,92.93 361.67,92.93 360.67,92.93 359.67,92.93 359.67,93.93 357.67,93.93 356.67,94.93 355.67,95.93 354.67,95.93 354.67,96.93 353.67,96.93 352.67,96.93 351.67,96.93 350.67,97.93 349.67,97.93 347.67,98.93 346.67,99.93 345.67,100.93 343.67,101.93 342.67,101.93 341.67,102.93 339.67,103.93 338.67,104.93 337.67,104.93 335.67,104.93 334.67,105.93 332.67,107.93 330.67,108.93 329.67,108.93 328.67,109.93 326.67,110.93 325.67,110.93 323.67,111.93 322.67,112.93 320.67,113.93 320.67,114.93 317.67,114.93 316.67,114.93 314.67,115.93 313.67,116.93 311.67,117.93 310.67,118.93 308.67,118.93 306.67,120.93 305.67,120.93 304.67,120.93 302.67,120.93 299.67,123.93 298.67,124.93 298.67,125.93 295.67,126.93 293.67,126.93 292.67,127.93 291.67,127.93 290.67,128.93 289.67,128.93 287.67,129.93 286.67,129.93 284.67,130.93 282.67,131.93 282.67,132.93 281.67,132.93 280.67,132.93 279.67,133.93 276.67,135.93 274.67,135.93 274.67,136.93 272.67,137.93 271.67,137.93 269.67,137.93 268.67,138.93 266.67,140.93 265.67,140.93 264.67,141.93 263.67,141.93 262.67,141.93 260.67,141.93 259.67,142.93 258.67,143.93 258.67,143.93 257.67,143.93 256.67,143.93 256.67,144.93 255.67,144.93 254.67,144.93 254.67,144.93 254.67,145.93 253.67,145.93"/>
			<polyline points="322.67,110.93 322.67,111.93 322.67,111.93 322.67,112.93 321.67,112.93 320.67,112.93 320.67,112.93 319.67,112.93 318.67,113.93 318.67,114.93 317.67,114.93 316.67,114.93 316.67,115.93 316.67,116.93 315.67,116.93 315.67,115.93 316.67,115.93 317.67,115.93 318.67,114.93 319.67,114.93 319.67,113.93 320.67,113.93 321.67,112.93 322.67,112.93 322.67,112.93 323.67,112.93 323.67,112.93 324.67,112.93 325.67,111.93 326.67,111.93 327.67,110.93 328.67,110.93 329.67,109.93 330.67,109.93 330.67,109.93 331.67,109.93 331.67,108.93 332.67,108.93 332.67,109.93 333.67,109.93 334.67,109.93 335.67,109.93 336.67,109.93 337.67,109.93 338.67,109.93 338.67,109.93 339.67,109.93 340.67,109.93 341.67,109.93 342.67,109.93 342.67,108.93 343.67,108.93 343.67,107.93 344.67,107.93 345.67,107.93 346.67,106.93 346.67,106.93 347.67,106.93 348.67,105.93 349.67,105.93 350.67,105.93 350.67,104.93 350.67,105.93 350.67,106.93 350.67,107.93 350.67,108.93 351.67,108.93 352.67,109.93 352.67,110.93 353.67,110.93 353.67,111.93 354.67,111.93 354.67,111.93 355.67,111.93 356.67,111.93 357.67,110.93 358.67,110.93 359.67,109.93 360.67,109.93 361.67,109.93 361.67,108.93 362.67,107.93 362.67,107.93 362.67,106.93 363.67,106.93 364.67,106.93 364.67,105.93 365.67,105.93 364.67,105.93 363.67,106.93 363.67,107.93 362.67,107.93 362.67,107.93 362.67,108.93 362.67,109.93 361.67,109.93 361.67,110.93 360.67,111.93 360.67,112.93 360.67,112.93 360.67,113.93 360.67,114.93 360.67,115.93 360.67,116.93 360.67,118.93 360.67,119.93 360.67,120.93 360.67,120.93 360.67,121.93 360.67,122.93 360.67,123.93 360.67,124.93 360.67,125.93 361.67,125.93 362.67,125.93 362.67,125.93 362.67,124.93 363.67,124.93 364.67,124.93 365.67,123.93 366.67,122.93 367.67,122.93 368.67,121.93 369.67,120.93 370.67,120.93 370.67,120.93 370.67,119.93 371.67,118.93 372.67,117.93 372.67,116.93 372.67,115.93 373.67,115.93 374.67,114.93 374.67,113.93 375.67,112.93 376.67,112.93 377.67,112.93 377.67,111.93 378.67,111.93 378.67,111.93 378.67,110.93 379.67,109.93 380.67,109.93 380.67,108.93 381.67,108.93 382.67,108.93 383.67,107.93 384.67,107.93 384.67,106.93 385.67,106.93 386.67,106.93 386.67,105.93 387.67,105.93 387.67,104.93 388.67,104.93 389.67,104.93 389.67,104.93 390.67,104.93 391.67,104.93 392.67,104.93 393.67,104.93 394.67,104.93 394.67,104.93 394.67,105.93 394.67,106.93 394.67,107.93 394.67,108.93 394.67,109.93 394.67,110.93 394.67,111.93 394.67,112.93 394.67,111.93 394.67,111.93 395.67,111.93 396.67,111.93 396.67,110.93 397.67,110.93 398.67,110.93 398.67,109.93 399.67,109.93 400.67,108.93 401.67,108.93 402.67,108.93 402.67,108.93 402.67,107.93 403.67,107.93 404.67,107.93 405.67,106.93 406.67,106.93 407.67,106.93 408.67,105.93 409.67,105.93 410.67,104.93 410.67,104.93 411.67,104.93 412.67,104.93 414.67,104.93 416.67,104.93 417.67,104.93 418.67,104.93 418.67,104.93 419.67,104.93 420.67,104.93 421.67,104.93 422.67,105.93 423.67,105.93 424.67,105.93 425.67,105.93 426.67,105.93 426.67,106.93 426.67,106.93 427.67,106.93 427.67,107.93 428.67,108.93 428.67,109.93 429.67,109.93 429.67,110.93 430.67,110.93 430.67,111.93 430.67,112.93 431.67,112.93 432.67,112.93 432.67,113.93 432.67,114.93 433.67,114.93 433.67,115.93 433.67,116.93 434.67,117.93 434.67,118.93 434.67,119.93 434.67,120.93 435.67,120.93 435.67,121.93 436.67,121.93 436.67,122.93 437.67,123.93 437.67,124.93 437.67,125.93 437.67,126.93 438.67,126.93 438.67,127.93 439.67,127.93 439.67,128.93 439.67,128.93 439.67,129.93 439.67,130.93 439.67,131.93 439.67,132.93 439.67,133.93 438.67,134.93 438.67,135.93 437.67,135.93 435.67,136.93 434.67,136.93 434.67,136.93 433.67,137.93 432.67,137.93 431.67,137.93 431.67,138.93 430.67,138.93 429.67,138.93 429.67,139.93 428.67,139.93 427.67,139.93 426.67,140.93 426.67,140.93 426.67,141.93 425.67,141.93 424.67,141.93 424.67,142.93 423.67,142.93 424.67,141.93 424.67,140.93 425.67,140.93 425.67,139.93 426.67,138.93 426.67,137.93 426.67,136.93 427.67,135.93 427.67,134.93 428.67,133.93 428.67,132.93 429.67,131.93 429.67,129.93 430.67,128.93 431.67,128.93 431.67,126.93 432.67,126.93 432.67,124.93 433.67,122.93 434.67,122.93 434.67,120.93 435.67,119.93 436.67,118.93 436.67,117.93 436.67,115.93 437.67,114.93 439.67,112.93 440.67,111.93 440.67,110.93 441.67,108.93 441.67,106.93 442.67,104.93 443.67,104.93 444.67,102.93 446.67,100.93 447.67,98.93 448.67,96.93 450.67,92.93 452.67,90.93 452.67,88.93 453.67,87.93 454.67,86.93 456.67,84.93 457.67,82.93 458.67,81.93 458.67,80.93 459.67,78.93 460.67,77.93 461.67,77.93 462.67,75.93 462.67,74.93 463.67,74.93 465.67,72.93 465.67,71.93 466.67,71.93 468.67,69.93 469.67,68.93 470.67,67.93 472.67,65.93 473.67,64.93 474.67,63.93 474.67,62.93 475.67,61.93 477.67,61.93 478.67,60.93 481.67,58.93 481.67,57.93 482.67,56.93 483.67,56.93 485.67,56.93 486.67,56.93 487.67,55.93 488.67,54.93 490.67,54.93 491.67,53.93 492.67,53.93 493.67,53.93 494.67,53.93 495.67,52.93 496.67,51.93 497.67,51.93 498.67,51.93 498.67,50.93 499.67,50.93 500.67,50.93 500.67,49.93 502.67,49.93"/>
		</g>
	</g>
</svg>