<?xml version="1.0"?>
<!DOCTYPE svg PUBLIC "-//W3C//DTD SVG 1.1//EN" "http://www.w3.org/Graphics/SVG/1.1/DTD/svg11.dtd">
<svg xmlns="http://www.w3.org/2000/svg" width="15cm" height="15cm">
	<g fill="#fff">
		<rect x="0" y="0" width="720" height="184"/>
		<g fill="none" stroke="#000" stroke-width="2">
			<polyline points="234.67,60.93 234.67,59.93 233.67,59.93 233.67,60.93 232.67,61.93 232.67,62.93 232.67,64.93 234.67,67.93 234.67,74.93 234.67,88.93 235.67,97.93 235.67,99.93 235.67,103.93 236.67,106.93 236.67,105.93 236.67,104.93 236.67,101.93 236.67,93.93 236.67,87.93 236.67,75.93 239.67,60.93 240.67,56.93 241.67,53.93 242.67,52.93 243.67,52.93 247.67,53.93 249.67,55.93 252.67,57.93 256.67,63.93 257.67,64.93 258.67,66.93 260.67,67.93 260.67,66.93 260.67,64.93 260.67,64.93 260.67,62.93 260.67,61.93 262.67,62.93 266.67,64.93 270.67,70.93 272.67,73.93 275.67,77.93 276.67,79.93 278.67,79.93 279.67,79.93 279.67,77.93 279.67,73.93 279.67,72.93 279.67,70.93 279.67,69.93 278.67,69.93 277.67,69.93 277.67,71.93 277.67,72.93 282.67,73.93 285.67,73.93 289.67,73.93 292.67,72.93 295.67,70.93 296.67,65.93 296.67,64.93 296.67,63.93 295.67,62.93 293.67,61.93 291.67,61.93 284.67,64.93 280.67,67.93 279.67,69.93 279.67,70.93 279.67,74.93 280.67,74.93 281.67,74.93 282.67,74.93 287.67,74.93 289.67,72.93 290.67,70.93 294.67,64.93 296.67,59.93 297.67,59.93 298.67,59.93 299.67,62.93 302.67,66.93 306.67,79.93 308.67,93.93 308.67,97.93 308.67,102.93 307.67,104.93 302.67,116.93 288.67,127.93 281.67,128.93 272.67,128.93 256.67,128.93 235.67,107.93 233.67,87.93 237.67,55.93 242.67,40.93 259.67,20.93 267.67,17.93 282.67,17.93 303.67,19.93 364.67,56.93 378.67,62.93 386.67,68.93 385.67,68.93 384.67,67.93 379.67,66.93 362.67,65.93 353.67,65.93 345.67,68.93 340.67,72.93 339.67,75.93 339.67,77.93 339.67,79.93 342.67,80.93 343.67,80.93 344.67,78.93 346.67,74.93 347.67,72.93 348.67,70.93 349.67,70.93 353.67,69.93 354.67,69.93 357.67,69.93 359.67,69.93 363.67,67.93 364.67,66.93 368.67,65.93 381.67,68.93 381.67,70.93"/>
		</g>
	</g>
</svg>