<?xml version="1.0"?>
<!DOCTYPE svg PUBLIC "-//W3C//DTD SVG 1.1//EN" "http://www.w3.org/Graphics/SVG/1.1/DTD/svg11.dtd">
<svg xmlns="http://www.w3.org/2000/svg" width="15cm" height="15cm">
	<g fill="#fff">
		<rect x="0" y="0" width="720" height="184"/>
		<g fill="none" stroke="#000" stroke-width="2">
			<polyline points="87.67,132.93 90.67,130.93 95.67,128.93 106.67,123.93 123.67,113.93 142.67,104.93 153.67,96.93 169.67,89.93 184.67,80.93 199.67,73.93 212.67,67.93 225.67,64.93 239.67,61.93 253.67,56.93 263.67,54.93 267.67,54.93 274.67,54.93 277.67,54.93 279.67,54.93 283.67,54.93 285.67,54.93 290.67,55.93 295.67,57.93 299.67,58.93 301.67,59.93 302.67,60.93 302.67,62.93 302.67,67.93 300.67,72.93 295.67,78.93 284.67,85.93 269.67,91.93 250.67,96.93 229.67,99.93 213.67,99.93 195.67,99.93 178.67,99.93 168.67,99.93 158.67,95.93 153.67,91.93 151.67,88.93 150.67,87.93 149.67,82.93 149.67,80.93 150.67,77.93 154.67,75.93 162.67,74.93 167.67,74.93 169.67,74.93 171.67,75.93 174.67,90.93 177.67,107.93 179.67,129.93 183.67,149.93 184.67,163.93 185.67,168.93 186.67,170.93 187.67,170.93 193.67,167.93 209.67,157.93 217.67,152.93 237.67,139.93 248.67,129.93 249.67,128.93 248.67,130.93 246.67,134.93 244.67,136.93 243.67,136.93 244.67,136.93 250.67,136.93 257.67,134.93 257.67,133.93 259.67,131.93 259.67,132.93 259.67,141.93 259.67,147.93 259.67,152.93 263.67,155.93 282.67,151.93 302.67,136.93 318.67,123.93 324.67,116.93 324.67,118.93 322.67,133.93 321.67,145.93 321.67,150.93 322.67,150.93 326.67,149.93 329.67,145.93 330.67,144.93 330.67,143.93"/>
		</g>
	</g>
</svg>