<?xml version="1.0"?>
<!DOCTYPE svg PUBLIC "-//W3C//DTD SVG 1.1//EN" "http://www.w3.org/Graphics/SVG/1.1/DTD/svg11.dtd">
<svg xmlns="http://www.w3.org/2000/svg" width="15cm" height="15cm">
	<g fill="#fff">
		<rect x="0" y="0" width="720" height="184"/>
		<g fill="none" stroke="#000" stroke-width="2">
			<polyline points="208,140.7 208,139.7 208,135.7 210,124.7 220,101.7 227,88.7 240,69.7 250,52.7 250,53.7 248,57.7 241,69.7 233,85.7 229,95.7 227,110.7 223,127.7 223,130.7 226,132.7 238,131.7 253,125.7 278,115.7 338,92.7 353,92.7 370,93.7 379,104.7 379,112.7 372,118.7 361,125.7 354,126.7 353,125.7 353,124.7 353,117.7 371,89.7 390,75.7 411,66.7 445,58.7 466,58.7 479,63.7 479,66.7 474,71.7 465,87.7 458,95.7 439,108.7 403,122.7 385,122.7 343,115.7 300,90.7 233,51.7 180,40.7 121,29.7 115,27.7 113,26.7 112,24.7 112,23.7 112,22.7 110,21.7 107,24.7 103,27.7 96,35.7 89,49.7 85,61.7"/>
		</g>
	</g>
</svg>