<?xml version="1.0"?>
<!DOCTYPE svg PUBLIC "-//W3C//DTD SVG 1.1//EN" "http://www.w3.org/Graphics/SVG/1.1/DTD/svg11.dtd">
<svg xmlns="http://www.w3.org/2000/svg" width="15cm" height="15cm">
	<g fill="#fff">
		<rect x="0" y="0" width="720" height="184"/>
		<g fill="none" stroke="#000" stroke-width="2">
			<polyline points="215,104.7 215,106.7 216,105.7 221,97.7 233,78.7 242,62.7 255,43.7 255,44.7 260,51.7 265,61.7 269,77.7 280,107.7 284,122.7 286,129.7 290,133.7 291,133.7 294,131.7 303,126.7 323,115.7 333,111.7 348,98.7 358,97.7 390,108.7 408,114.7 414,120.7 414,121.7 416,121.7 423,117.7 434,110.7 442,107.7 455,101.7 462,97.7 466,95.7 469,94.7 468,95.7 464,99.7 453,109.7"/>
		</g>
	</g>
</svg>