<?xml version="1.0"?>
<!DOCTYPE svg PUBLIC "-//W3C//DTD SVG 1.1//EN" "http://www.w3.org/Graphics/SVG/1.1/DTD/svg11.dtd">
<svg xmlns="http://www.w3.org/2000/svg" width="15cm" height="15cm">
	<g fill="#fff">
		<rect x="0" y="0" width="720" height="184"/>
		<g fill="none" stroke="#000" stroke-width="2">
			<polyline points="255,108.7 254,107.7 254,106.7 254,97.7 259,77.7 268,61.7 279,48.7 285,42.7 286,41.7 285,42.7 277,51.7 266,60.7 258,70.7 249,85.7 243,100.7 246,100.7 253,100.7 307,100.7 345,115.7 392,143.7 390,170.7 372,172.7 336,174.7 290,166.7 155,102.7 99,72.7 82,61.7 77,58.7 79,57.7 85,57.7 98,60.7 123,70.7 200,119.7 252,164.7 295,186.7 317,186.7 323,180.7 327,173.7 330,159.7 331,146.7 336,137.7 338,135.7 342,132.7 357,129.7 370,131.7 389,133.7 401,139.7 410,141.7 426,145.7 436,152.7 442,153.7 450,143.7 452,138.7 451,131.7 447,122.7 432,78.7 432,76.7 451,87.7 477,107.7 498,129.7 523,153.7 531,159.7 531,155.7 531,143.7 524,121.7 524,114.7 526,101.7 527,98.7 529,95.7"/>
		</g>
	</g>
</svg>