<?xml version="1.0"?>
<!DOCTYPE svg PUBLIC "-//W3C//DTD SVG 1.1//EN" "http://www.w3.org/Graphics/SVG/1.1/DTD/svg11.dtd">
<svg xmlns="http://www.w3.org/2000/svg" width="15cm" height="15cm">
	<g fill="#fff">
		<rect x="0" y="0" width="720" height="184"/>
		<g fill="none" stroke="#000" stroke-width="2">
			<polyline points="93.67,137.93 93.67,136.93 98.67,132.93 113.67,126.93 131.67,118.93 155.67,111.93 177.67,105.93 195.67,100.93 211.67,96.93 221.67,92.93 223.67,92.93 230.67,90.93 236.67,90.93 244.67,89.93 255.67,88.93 274.67,86.93 297.67,84.93 319.67,84.93 341.67,84.93 362.67,84.93 376.67,84.93 382.67,84.93 389.67,84.93 395.67,85.93 397.67,86.93 398.67,87.93 399.67,88.93 399.67,88.93 399.67,92.93 399.67,96.93 393.67,104.93 384.67,112.93 380.67,114.93 368.67,120.93 352.67,121.93 333.67,121.93 315.67,121.93 298.67,121.93 281.67,121.93 263.67,120.93 247.67,117.93 233.67,112.93 221.67,107.93 214.67,103.93 206.67,97.93 202.67,95.93 202.67,93.93 201.67,93.93 201.67,92.93 201.67,91.93 201.67,90.93 202.67,90.93 202.67,94.93 200.67,105.93 196.67,116.93 195.67,127.93 194.67,136.93 194.67,142.93 197.67,146.93 206.67,150.93 224.67,150.93 254.67,150.93 293.67,144.93 325.67,138.93 339.67,134.93 342.67,134.93 341.67,134.93 338.67,135.93 327.67,142.93 316.67,152.93 309.67,158.93 309.67,159.93 309.67,162.93 309.67,174.93 312.67,182.93 314.67,186.93 319.67,187.93 327.67,184.93 337.67,171.93 342.67,161.93 343.67,160.93 343.67,161.93 343.67,182.93 343.67,193.93 355.67,216.93 367.67,217.93 381.67,206.93 386.67,198.93 394.67,182.93 395.67,179.93 394.67,188.93 393.67,194.93 393.67,195.93 394.67,192.93 397.67,186.93 397.67,183.93 399.67,178.93 399.67,176.93 399.67,175.93"/>
		</g>
	</g>
</svg>