<?xml version="1.0"?>
<!DOCTYPE svg PUBLIC "-//W3C//DTD SVG 1.1//EN" "http://www.w3.org/Graphics/SVG/1.1/DTD/svg11.dtd">
<svg xmlns="http://www.w3.org/2000/svg" width="15cm" height="15cm">
	<g fill="#fff">
		<rect x="0" y="0" width="720" height="184"/>
		<g fill="none" stroke="#000" stroke-width="2">
			<polyline points="222.67,22.93 222.67,24.93 222.67,27.93 222.67,33.93 222.67,47.93 219.67,64.93 215.67,97.93 213.67,106.93 211.67,108.93 210.67,112.93 209.67,112.93 208.67,115.93 206.67,121.93 206.67,129.93 205.67,128.93 204.67,128.93 204.67,132.93 204.67,138.93 204.67,146.93 204.67,155.93 206.67,160.93 206.67,161.93 206.67,160.93 206.67,160.93"/>
			<polyline points="198.67,88.93 198.67,85.93 199.67,85.93 200.67,74.93 202.67,72.93 207.67,65.93 218.67,59.93 237.67,46.93 250.67,41.93 264.67,44.93 285.67,56.93 289.67,61.93 291.67,64.93 293.67,72.93 290.67,103.93 284.67,112.93 277.67,119.93 266.67,127.93 252.67,133.93 232.67,135.93 221.67,127.93 213.67,123.93 210.67,116.93 210.67,117.93 210.67,112.93 212.67,111.93 218.67,98.93 241.67,80.93 256.67,84.93 275.67,89.93 314.67,114.93 322.67,122.93 330.67,127.93 330.67,125.93 330.67,121.93 332.67,121.93 338.67,118.93 340.67,99.93 342.67,92.93 341.67,89.93 340.67,87.93 337.67,84.93 321.67,81.93 316.67,81.93 314.67,82.93 314.67,82.93 314.67,88.93 314.67,90.93 315.67,92.93 322.67,99.93 327.67,101.93 332.67,101.93 336.67,101.93 338.67,101.93 342.67,97.93 343.67,90.93 343.67,88.93 342.67,88.93 340.67,87.93 339.67,87.93 337.67,87.93 333.67,87.93 330.67,89.93 330.67,91.93 330.67,97.93 332.67,96.93 336.67,104.93 340.67,99.93 345.67,103.93 351.67,101.93 353.67,89.93 354.67,89.93 354.67,81.93 354.67,82.93 354.67,84.93 356.67,87.93 357.67,88.93 357.67,87.93 357.67,86.93 357.67,87.93 359.67,87.93 363.67,86.93 368.67,90.93 370.67,98.93 371.67,101.93 371.67,102.93 371.67,101.93 370.67,91.93 369.67,88.93 368.67,82.93 367.67,80.93 367.67,77.93 369.67,79.93 374.67,85.93 374.67,91.93 375.67,93.93 375.67,96.93 375.67,93.93 375.67,88.93 376.67,88.93 380.67,85.93 387.67,72.93 391.67,72.93 394.67,72.93 394.67,72.93 394.67,72.93 394.67,72.93"/>
			<polyline points="408.67,64.93 407.67,63.93 407.67,64.93 407.67,65.93 407.67,68.93 407.67,69.93 410.67,70.93 410.67,70.93 412.67,66.93 414.67,67.93 415.67,67.93 416.67,64.93 415.67,63.93 414.67,63.93 413.67,63.93 411.67,63.93 410.67,64.93 410.67,63.93"/>
		</g>
	</g>
</svg>