<?xml version="1.0"?>
<!DOCTYPE svg PUBLIC "-//W3C//DTD SVG 1.1//EN" "http://www.w3.org/Graphics/SVG/1.1/DTD/svg11.dtd">
<svg xmlns="http://www.w3.org/2000/svg" width="15cm" height="15cm">
	<g fill="#fff">
		<rect x="0" y="0" width="720" height="184"/>
		<g fill="none" stroke="#000" stroke-width="2">
			<polyline points="277,45.1 277,47.1 277,48.1 277,50.1 277,51.1 277,60.1 277,82.1 277,90.1 277,106.1 277,114.1 277,118.1 277,123.1 276,124.1"/>
			<polyline points="304,62.1 304,60.1 303,59.1 303,60.1 303,65.1 302,70.1 300,77.1 296,85.1 285,106.1 279,116.1 275,121.1 272,124.1 271,127.1 270,126.1 270,124.1 270,123.1 270,120.1 271,119.1 271,118.1 272,116.1 274,112.1 278,110.1 281,109.1 283,109.1 287,109.1 295,110.1 300,109.1 304,108.1 309,106.1 321,100.1 323,98.1 324,97.1 327,96.1 328,93.1 328,92.1 328,91.1 328,89.1 328,88.1 327,88.1 325,88.1 324,88.1 320,88.1 320,89.1 320,91.1 320,92.1 320,93.1 321,93.1 322,94.1 323,94.1 324,94.1 325,92.1 325,91.1 325,89.1 325,87.1 325,84.1 325,86.1 325,88.1 326,88.1 330,91.1 333,93.1 334,93.1 337,92.1 338,92.1 338,90.1 338,89.1 339,89.1 340,90.1 342,91.1 345,94.1 348,96.1 354,98.1 356,98.1 356,96.1 356,96.1 356,95.1 354,92.1 351,88.1 348,85.1 346,83.1 346,80.1 345,79.1 345,80.1 345,81.1 345,83.1 348,87.1 350,89.1 353,91.1 356,92.1 357,93.1 357,92.1 357,91.1 357,89.1 357,86.1 357,84.1 354,80.1 353,76.1 352,73.1 349,71.1 348,70.1 350,70.1 353,73.1 358,80.1 368,97.1 370,100.1 371,104.1 372,108.1 372,109.1 372,108.1 368,107.1 367,104.1 364,101.1 362,98.1 360,93.1 359,85.1 361,70.1 364,68.1 366,66.1 368,66.1 372,67.1 374,68.1 375,70.1 376,72.1 379,83.1 377,91.1 375,94.1 373,95.1 372,95.1 371,92.1 371,90.1 372,84.1 376,78.1 381,74.1 388,70.1 392,67.1 397,64.1 404,64.1 408,62.1 409,62.1 412,62.1 413,62.1 414,62.1 416,63.1"/>
		</g>
	</g>
</svg>