<?xml version="1.0"?>
<!DOCTYPE svg PUBLIC "-//W3C//DTD SVG 1.1//EN" "http://www.w3.org/Graphics/SVG/1.1/DTD/svg11.dtd">
<svg xmlns="http://www.w3.org/2000/svg" width="15cm" height="15cm">
	<g fill="#fff">
		<rect x="0" y="0" width="720" height="184"/>
		<g fill="none" stroke="#000" stroke-width="2">
			<polyline points="211,33.1 211,34.1 211,36.1 211,40.1 211,52.1 212,71.1 212,81.1 212,109.1 212,120.1 212,125.1 212,130.1 211,134.1 210,134.1 208,132.1 208,127.1 206,118.1 202,103.1 201,86.1 201,71.1 204,59.1 208,40.1 211,32.1 214,28.1 217,27.1 220,25.1 225,27.1 235,28.1 244,39.1 253,50.1 263,68.1 269,80.1 275,87.1 278,94.1 283,99.1 284,100.1 281,100.1 272,99.1 263,93.1 253,92.1 241,92.1 227,90.1 216,90.1 205,93.1 200,96.1 197,97.1 199,98.1 204,98.1 216,97.1 226,94.1 238,93.1 245,90.1 247,88.1 248,84.1 247,82.1 245,80.1 244,79.1 243,76.1 243,76.1 246,79.1 252,84.1 258,88.1 261,92.1 264,92.1 267,92.1 268,92.1 268,92.1 269,92.1 271,85.1 271,81.1 271,77.1 271,72.1 271,68.1 276,73.1 278,76.1 286,85.1 292,92.1 298,96.1 303,100.1 306,100.1 308,102.1 309,100.1 309,98.1 309,95.1 309,90.1 308,84.1 305,78.1 301,67.1 300,65.1 300,64.1 301,67.1 304,80.1 310,91.1 316,98.1 320,105.1 324,107.1 325,109.1 326,108.1 328,108.1 328,105.1 329,96.1 328,89.1 324,80.1 320,67.1 318,64.1 316,64.1 316,64.1 316,68.1 316,78.1 316,84.1 319,91.1 322,96.1 322,96.1 324,96.1 327,93.1 328,88.1 329,83.1 330,80.1 330,80.1 332,80.1 335,80.1 339,81.1 347,92.1 352,96.1 358,105.1 360,109.1 360,117.1 359,124.1 356,125.1 353,128.1 348,129.1 340,128.1 334,123.1 330,116.1 325,96.1 328,77.1 332,64.1 343,33.1 356,16.1 368,7.1 384,-3.9 393,-4.9 399,-8.9 407,-3.9 409,-4.9"/>
		</g>
	</g>
</svg>