<?xml version="1.0"?>
<!DOCTYPE svg PUBLIC "-//W3C//DTD SVG 1.1//EN" "http://www.w3.org/Graphics/SVG/1.1/DTD/svg11.dtd">
<svg xmlns="http://www.w3.org/2000/svg" width="15cm" height="15cm">
	<g fill="#fff">
		<rect x="0" y="0" width="720" height="184"/>
		<g fill="none" stroke="#000" stroke-width="2">
			<polyline points="181,14.7 181,15.7 181,16.7 181,17.7 181,18.7 181,20.7 180,20.7 180,22.7 180,23.7 179,23.7 179,24.7 178,29.7 177,30.7 176,32.7 176,33.7 176,36.7 175,38.7 175,40.7 174,42.7 172,45.7 171,47.7 171,49.7 171,51.7 169,53.7 169,57.7 168,60.7 167,62.7 166,64.7 165,68.7 165,69.7 164,71.7 163,75.7 161,77.7 161,78.7 161,81.7 161,84.7 160,89.7 155,112.7 154,114.7 154,117.7 153,121.7 153,122.7 152,126.7 151,129.7 151,131.7 151,133.7 151,138.7 150,140.7 150,143.7 148,144.7 148,145.7 148,147.7 148,152.7 148,153.7 147,155.7 147,157.7 146,158.7 146,159.7 146,160.7 146,161.7 146,162.7 145,163.7 145,164.7 145,165.7 145,166.7 145,168.7 145,170.7 145,171.7 145,172.7 145,173.7 145,175.7 145,176.7 145,177.7 145,178.7 145,179.7 145,180.7 144,180.7 143,180.7 143,181.7 143,182.7 143,181.7 143,179.7 143,178.7 144,178.7 144,177.7 144,175.7 144,173.7 145,171.7 146,169.7 147,169.7 147,167.7 147,165.7 148,164.7"/>
			<polyline points="176,28.7 177,29.7 177,30.7 177,31.7 178,32.7 179,33.7 179,34.7 180,36.7 181,37.7 181,39.7 182,40.7 182,41.7 183,42.7 184,43.7 184,44.7 184,46.7 185,47.7 185,48.7 186,49.7 186,50.7 187,52.7 187,53.7 187,55.7 188,56.7 189,56.7 190,59.7 190,62.7 191,65.7 192,65.7 193,66.7 194,68.7 194,69.7 194,70.7 194,71.7 195,73.7 196,74.7 197,75.7 197,76.7 198,77.7 198,79.7 198,80.7 198,81.7 199,82.7 200,83.7 201,84.7 201,85.7 201,86.7 202,87.7 203,88.7 204,89.7 204,91.7 205,92.7 206,95.7 207,98.7 208,98.7 209,99.7 209,101.7 209,102.7 210,104.7 211,104.7 212,105.7 212,106.7 212,107.7 212,108.7 212,109.7 213,109.7 213,110.7 214,111.7 214,112.7 215,114.7 215,115.7 216,116.7 216,117.7"/>
			<polyline points="113,113.7 114,113.7 115,113.7 116,112.7 116,111.7 117,111.7 118,111.7 119,111.7 121,111.7 122,111.7 123,110.7 124,110.7 125,109.7 126,109.7 127,109.7 130,109.7 131,108.7 133,108.7 133,107.7 135,107.7 137,106.7 139,106.7 141,106.7 142,105.7 143,104.7 144,103.7 145,103.7 147,102.7 148,102.7 151,102.7 154,101.7 157,100.7 158,99.7 160,99.7 160,98.7 162,98.7 162,97.7 164,97.7 166,97.7 169,95.7 170,94.7 172,94.7 173,94.7 175,93.7 176,92.7 177,92.7 178,91.7 179,91.7 180,91.7 181,91.7 182,90.7 183,90.7 183,89.7 184,88.7 185,88.7 186,88.7 189,88.7 190,85.7 191,85.7 192,85.7 194,85.7 194,84.7 195,84.7 196,83.7 197,83.7 198,82.7 199,81.7 200,81.7 201,81.7 202,80.7 203,80.7 204,80.7 204,79.7 205,79.7 206,79.7 207,79.7"/>
			<polyline points="242,75.7 241,75.7 241,76.7 240,77.7 239,77.7 239,78.7 239,79.7 238,80.7 237,81.7 237,82.7 236,84.7 235,85.7 235,87.7 234,88.7 234,89.7 234,90.7 233,91.7 233,92.7 232,93.7 232,94.7 232,96.7 231,97.7 231,98.7 230,99.7 230,100.7 230,101.7 229,102.7 229,104.7 229,105.7 228,107.7 227,109.7 226,110.7 226,111.7 226,112.7 225,113.7 225,114.7 225,116.7 225,117.7 224,119.7 223,121.7 223,122.7 223,123.7 223,125.7 222,129.7 222,130.7 222,131.7 222,133.7 222,134.7 222,135.7 222,137.7 222,138.7 222,139.7 222,140.7 222,141.7 223,141.7 224,141.7 224,140.7 225,139.7 226,139.7 226,138.7 227,137.7 228,137.7 229,137.7 230,136.7 232,133.7 233,133.7 235,132.7 236,131.7 237,130.7 239,130.7 239,129.7 240,127.7 241,127.7 242,125.7 243,124.7 243,123.7 245,121.7 246,120.7 246,119.7 247,118.7 248,116.7 249,115.7 249,114.7 250,112.7 251,112.7 251,110.7 251,109.7 252,108.7 252,107.7 253,106.7 254,105.7 254,104.7 254,103.7 254,102.7 255,101.7 255,100.7 256,99.7 256,97.7 256,96.7 256,95.7 256,94.7 256,93.7 256,92.7 257,91.7 257,90.7 257,89.7 257,90.7 257,91.7 257,92.7 257,93.7 257,94.7 258,94.7 258,95.7 258,96.7 259,97.7 259,99.7 259,100.7 259,101.7 261,103.7 261,104.7 261,105.7 261,106.7 262,106.7 262,107.7 262,108.7 263,109.7 264,110.7 264,111.7 264,112.7 265,113.7 265,114.7 266,114.7 266,115.7 267,117.7 267,118.7 268,119.7 269,120.7 269,121.7 269,122.7 270,123.7 271,124.7 271,125.7 271,126.7 272,127.7 272,128.7 273,128.7 273,129.7 274,131.7 274,132.7 274,133.7 274,134.7 275,135.7 275,136.7 275,137.7 276,138.7 276,139.7 276,141.7 276,142.7 276,143.7 276,144.7 276,145.7 275,146.7 274,147.7 274,149.7 273,149.7 273,150.7 272,151.7 271,152.7 271,153.7 270,153.7 270,154.7 269,155.7 268,156.7 266,157.7 266,158.7 265,158.7 265,159.7 264,159.7 263,159.7 263,160.7 262,160.7 262,161.7 261,161.7 261,160.7 261,159.7 261,158.7 261,157.7 261,156.7 261,155.7 260,154.7 260,153.7 260,152.7 260,151.7 260,150.7 260,149.7 259,146.7 259,145.7 259,144.7 259,143.7 259,142.7 259,141.7 259,140.7 260,138.7 260,135.7 260,134.7 260,132.7 260,130.7 260,129.7 260,128.7 260,127.7 261,126.7 261,124.7 261,122.7 262,122.7 262,120.7 263,119.7 263,118.7 263,117.7 263,116.7 264,114.7 265,113.7 266,110.7 267,108.7 268,107.7 268,106.7 269,105.7 270,104.7 271,102.7 272,101.7 273,99.7 274,98.7 275,97.7 275,96.7 276,96.7 277,96.7 277,94.7 278,94.7 279,93.7 280,93.7 280,92.7 280,91.7 282,91.7 283,90.7 283,89.7 284,89.7 285,89.7 285,88.7 286,88.7 287,88.7 288,88.7 289,88.7 289,89.7 289,90.7 290,90.7 290,92.7 290,93.7 291,93.7 292,93.7 292,95.7 292,96.7 292,97.7 293,97.7 293,98.7 295,99.7 295,100.7 295,101.7 295,102.7 296,102.7 297,102.7 297,103.7 298,103.7 299,103.7 299,104.7 299,103.7 299,102.7 299,101.7 299,100.7 299,99.7 299,98.7 299,97.7 299,96.7 299,95.7 299,94.7 299,93.7"/>
			<polyline points="301,78.7 301,79.7 301,80.7 300,81.7 300,82.7 300,83.7 300,84.7 300,85.7 300,86.7 300,87.7 300,88.7 300,89.7 300,90.7 300,91.7 300,92.7 300,93.7 300,95.7 300,96.7 300,97.7 301,97.7 301,98.7 302,100.7 302,101.7 302,102.7 302,103.7 302,104.7 302,105.7 303,105.7 304,106.7 304,107.7 305,107.7 305,108.7 305,109.7 305,110.7 305,111.7 306,111.7 306,112.7 307,112.7 307,113.7 308,113.7 308,114.7 309,114.7 310,114.7 310,113.7 311,113.7 311,112.7 311,111.7 311,110.7 312,110.7 312,107.7 312,106.7 312,105.7 313,104.7 313,103.7 313,101.7 314,100.7 314,98.7 314,97.7 314,96.7 314,95.7 314,94.7 314,93.7 314,92.7 314,91.7 314,90.7 314,89.7 314,88.7 314,87.7 314,86.7 314,85.7 314,84.7 314,83.7 314,82.7 314,81.7 314,80.7 314,81.7 314,82.7 314,83.7 314,84.7 314,85.7 314,86.7 314,87.7 314,88.7 314,89.7 314,90.7 314,91.7 314,92.7 315,93.7 315,94.7 316,95.7 317,95.7 317,96.7 317,97.7 318,97.7 318,98.7 319,98.7 320,99.7 321,100.7 322,100.7 323,100.7 324,100.7 325,100.7 326,100.7 327,99.7 328,98.7 329,98.7 329,97.7 329,96.7 330,96.7 331,95.7 332,94.7 332,93.7 333,92.7 333,91.7 334,91.7 334,90.7 334,89.7 334,88.7 335,88.7 336,87.7 336,86.7 337,86.7 337,85.7 337,84.7 338,83.7 339,82.7 339,81.7 339,80.7 339,81.7 339,82.7 339,83.7 339,84.7 339,85.7 339,86.7 339,87.7 339,89.7 339,90.7 339,91.7 339,92.7 339,93.7 339,94.7 340,94.7 340,95.7 341,96.7 341,97.7 342,97.7 342,98.7 343,98.7 343,99.7 344,100.7 345,100.7 346,100.7 346,101.7 347,101.7 349,102.7 350,102.7 351,102.7 352,102.7 354,102.7 357,103.7 359,103.7 360,103.7 362,103.7 365,103.7 366,103.7 369,103.7 371,103.7 373,103.7 376,103.7 378,104.7 380,104.7 381,104.7 383,104.7 386,104.7 389,104.7 391,104.7 394,104.7 398,104.7 399,104.7 402,104.7 406,104.7 410,104.7 413,104.7 416,104.7 419,104.7 425,104.7 428,104.7 437,103.7 440,103.7 442,103.7 445,102.7 449,102.7 452,102.7 454,102.7 457,102.7 461,102.7 464,102.7 466,102.7 469,102.7 472,102.7 477,102.7 480,102.7 485,102.7 487,102.7 489,102.7 491,102.7 492,102.7 494,103.7 496,104.7 497,104.7 498,104.7 500,104.7 503,104.7 503,105.7 504,105.7 505,105.7 506,106.7 506,107.7 507,107.7 508,108.7 508,109.7 509,110.7 509,112.7 509,113.7 509,115.7 509,116.7 509,118.7 509,119.7 509,120.7 509,122.7 509,124.7 509,126.7 508,127.7 508,129.7 508,130.7 507,132.7 507,133.7 506,135.7 506,136.7 505,137.7 504,140.7 503,143.7 503,144.7 502,145.7 501,147.7 501,149.7 500,150.7 500,151.7 499,153.7 498,154.7 497,156.7 497,157.7 496,157.7 496,159.7 495,159.7 494,160.7 493,161.7 493,162.7 491,163.7 491,164.7 490,164.7 489,164.7 488,164.7 487,164.7 486,164.7 486,163.7 486,162.7 485,162.7 485,161.7 484,161.7 483,161.7 483,160.7 482,159.7 481,158.7 480,158.7 480,157.7 479,156.7 478,156.7 477,155.7 476,153.7 475,153.7 475,152.7 474,152.7 473,151.7 473,149.7 470,148.7 470,147.7 469,146.7 468,146.7 468,145.7 468,144.7 468,143.7 468,142.7 467,141.7 466,140.7 465,139.7 465,138.7 465,137.7 465,136.7 465,135.7 465,133.7 465,131.7 465,130.7 465,129.7 466,128.7 467,127.7 467,126.7 467,125.7 467,124.7 468,123.7 469,122.7 470,120.7 471,119.7 472,119.7 472,117.7 473,117.7 474,116.7 475,114.7 476,113.7 477,111.7 478,110.7 480,108.7 481,107.7 482,106.7 483,106.7 483,105.7 485,103.7 486,102.7 487,101.7 487,100.7 489,99.7 490,98.7 493,96.7 495,94.7 496,93.7 497,92.7 497,91.7 498,91.7 499,91.7 499,90.7 501,89.7 503,88.7 506,86.7 508,86.7 509,85.7 511,85.7 511,84.7 512,84.7 513,84.7 514,83.7 515,83.7 516,82.7 517,82.7 519,82.7 520,81.7 522,80.7 524,79.7 525,79.7 526,78.7 527,78.7 528,78.7 529,78.7 530,78.7 530,77.7 531,77.7 532,76.7 532,77.7 531,77.7 531,78.7 530,79.7 529,80.7 528,81.7 526,84.7 525,84.7 525,85.7 523,86.7"/>
		</g>
	</g>
</svg>