<?xml version="1.0"?>
<!DOCTYPE svg PUBLIC "-//W3C//DTD SVG 1.1//EN" "http://www.w3.org/Graphics/SVG/1.1/DTD/svg11.dtd">
<svg xmlns="http://www.w3.org/2000/svg" width="15cm" height="15cm">
	<g fill="#fff">
		<rect x="0" y="0" width="720" height="184"/>
		<g fill="none" stroke="#000" stroke-width="2">
			<polyline points="260,37.7 260,38.7 259,38.7 259,39.7 258,40.7 258,41.7 258,42.7 257,43.7 256,45.7 255,46.7 255,48.7 255,50.7 254,50.7 253,51.7 253,53.7 252,55.7 251,56.7 250,57.7 250,59.7 249,61.7 248,63.7 248,64.7 247,66.7 246,68.7 245,68.7 245,70.7 243,71.7 243,72.7 242,74.7 242,76.7 240,78.7 239,80.7 239,82.7 238,84.7 236,85.7 235,87.7 234,89.7 233,91.7 232,92.7 232,94.7 230,96.7 227,98.7 224,98.7 222,99.7 222,101.7 220,103.7 220,106.7 218,107.7 218,109.7 216,110.7 216,113.7 215,114.7 214,117.7 212,119.7 212,121.7 210,122.7 209,124.7 208,126.7 208,127.7 206,129.7 205,131.7 205,133.7 204,135.7 203,136.7 202,138.7 201,140.7 200,141.7 199,142.7 198,143.7 198,144.7 197,144.7 197,146.7 197,147.7 196,147.7 195,148.7 194,149.7 194,150.7 194,151.7 193,151.7 192,152.7 192,153.7 192,154.7 191,154.7 190,155.7 189,155.7 189,156.7 189,157.7 189,156.7 189,155.7 189,153.7 189,152.7 189,150.7 189,149.7 190,149.7 190,148.7 191,146.7 191,145.7 192,143.7 193,142.7 193,140.7 194,140.7 194,138.7 194,137.7 195,137.7 195,136.7 196,135.7 197,134.7 197,132.7 197,131.7 197,130.7 198,128.7 199,127.7 199,126.7 200,123.7 201,121.7 201,120.7 202,118.7 202,116.7 202,115.7 203,113.7 204,111.7 206,109.7 206,108.7 207,106.7 207,105.7 207,104.7 208,102.7 208,100.7 209,99.7 210,97.7 211,95.7 211,94.7 212,92.7 213,90.7 213,89.7 215,88.7 215,86.7 215,84.7 216,83.7 218,81.7 218,79.7 218,78.7 219,75.7 220,75.7 220,74.7 221,72.7 221,70.7 222,69.7 223,69.7 224,66.7 224,65.7 224,64.7 226,63.7 227,62.7 227,61.7 227,60.7 228,59.7 229,59.7 230,58.7 230,57.7 230,56.7 231,55.7 231,54.7 232,54.7 232,53.7 232,52.7 233,51.7 233,50.7 234,49.7 235,49.7 236,48.7 236,47.7 237,47.7 238,47.7 239,48.7 239,49.7 239,50.7 240,51.7 241,53.7 241,54.7 242,55.7 242,56.7 242,58.7 243,58.7 243,59.7 244,61.7 245,63.7 245,65.7 245,66.7 246,67.7 247,69.7 247,70.7 249,72.7 249,74.7 250,76.7 250,77.7 252,80.7 253,82.7 253,84.7 254,85.7 255,87.7 257,89.7 258,92.7 259,93.7 259,95.7 259,97.7 259,100.7 259,104.7 261,105.7 261,107.7 263,109.7 264,111.7 268,116.7 270,117.7 272,119.7 273,121.7 275,123.7 277,125.7 279,126.7 282,132.7 285,135.7 286,137.7 287,139.7 288,141.7 289,143.7 291,144.7 292,146.7 292,147.7 294,150.7 295,151.7 297,153.7 298,154.7 297,154.7 297,155.7 298,156.7 298,157.7 300,157.7 300,158.7 302,158.7 302,160.7 303,160.7 305,161.7 305,162.7 306,162.7 307,162.7 308,163.7 308,164.7 309,164.7 310,164.7 310,163.7 309,162.7 309,161.7 309,160.7 308,159.7 307,159.7 307,158.7 307,157.7 307,156.7 306,156.7 306,155.7 305,154.7 304,153.7 303,152.7 302,151.7 301,150.7 300,150.7 299,150.7 298,150.7 298,148.7 297,147.7 296,147.7 295,146.7 294,146.7 293,145.7 292,144.7 290,144.7 289,144.7 288,143.7 291,145.7 291,146.7 292,146.7 292,147.7 293,148.7 294,148.7 294,149.7 294,150.7 294,151.7"/>
			<polyline points="208,137.7 209,137.7 210,137.7 211,136.7 212,136.7 214,136.7 215,136.7 216,136.7 218,135.7 220,135.7 221,135.7 224,135.7 225,134.7 227,134.7 228,134.7 229,134.7 232,132.7 234,132.7 235,132.7 237,132.7 238,132.7 240,131.7 242,131.7 244,129.7 247,129.7 249,128.7 251,127.7 253,127.7 255,127.7 256,127.7 258,127.7 260,126.7 262,126.7 265,126.7 267,124.7 268,124.7 270,124.7 272,122.7 275,122.7 277,121.7 277,120.7 282,120.7 283,120.7 283,119.7 285,119.7 287,117.7 289,117.7 292,117.7 293,117.7 294,116.7 296,116.7 298,115.7 298,114.7 299,112.7 300,111.7 300,110.7 300,109.7 300,108.7 300,107.7 300,106.7 303,106.7 304,106.7 304,105.7 306,104.7 307,104.7 307,103.7 306,103.7 305,103.7 304,103.7"/>
			<polyline points="320,86.7 319,86.7 318,86.7 317,86.7 316,86.7 315,86.7 314,86.7 313,86.7 312,87.7 311,87.7 310,87.7 309,87.7 309,88.7 308,88.7 307,89.7 306,89.7 305,90.7 304,90.7 303,91.7 301,92.7 300,93.7 299,93.7 298,95.7 297,96.7 296,96.7 295,97.7 294,99.7 293,100.7 292,101.7 292,102.7 290,103.7 290,104.7 288,105.7 288,106.7 287,107.7 287,108.7 287,110.7 286,110.7 285,112.7 285,113.7 285,115.7 284,116.7 284,118.7 284,119.7 285,120.7 285,122.7 286,123.7 286,124.7 286,125.7 286,126.7 286,127.7 286,128.7 285,128.7 285,129.7 285,130.7 285,131.7 285,132.7 285,134.7 286,134.7 286,135.7 290,137.7 289,137.7 289,136.7 293,138.7 295,138.7 294,135.7 295,135.7 295,134.7 296,134.7 298,134.7 297,131.7 298,131.7 298,128.7 297,127.7 296,127.7 296,124.7 295,122.7 295,121.7 295,119.7 292,116.7 290,113.7 286,109.7 286,108.7 286,107.7 286,104.7 286,103.7 288,103.7 291,103.7 292,103.7 294,103.7 295,103.7 295,102.7 297,102.7 297,101.7 300,101.7 300,100.7 300,99.7 300,97.7 303,97.7 304,97.7 303,95.7 300,93.7 300,92.7 300,91.7 300,90.7 300,89.7 300,88.7 300,87.7 300,86.7 301,86.7 301,85.7 301,84.7 301,83.7 301,82.7 301,81.7 300,81.7 300,80.7 299,80.7 298,80.7 297,80.7 296,80.7 295,80.7 294,80.7 293,81.7 292,81.7 291,81.7 291,82.7 290,82.7 289,82.7 288,82.7 287,83.7 287,84.7 286,84.7 285,84.7 284,85.7 283,86.7 282,87.7 282,88.7 281,89.7 280,90.7 280,91.7 279,92.7 278,92.7 277,93.7 277,94.7 277,95.7 277,96.7 277,97.7 277,98.7 277,100.7 277,101.7 277,102.7 277,103.7 277,104.7 277,105.7 278,105.7 278,106.7 279,106.7 279,107.7 280,107.7 280,108.7 281,109.7 281,110.7 282,110.7 283,110.7 284,110.7 284,111.7 285,111.7 286,111.7 287,111.7 288,111.7 289,111.7 290,111.7 291,111.7 292,111.7 293,111.7 294,111.7 296,111.7 297,111.7 298,111.7 299,111.7 300,111.7 301,111.7 302,110.7 303,110.7 305,109.7 306,109.7 307,108.7 309,107.7 311,107.7 314,107.7 314,106.7 316,105.7 317,105.7 319,104.7 320,103.7 320,102.7 322,102.7 322,101.7 323,100.7 324,99.7 325,99.7 326,98.7 327,97.7 328,96.7 329,96.7 330,95.7 330,94.7 331,94.7 332,94.7 333,93.7 333,92.7 334,91.7 335,91.7 335,90.7 336,90.7 336,89.7 337,89.7 338,89.7 338,88.7 338,89.7 338,90.7 338,91.7 338,92.7 338,93.7 338,96.7 337,96.7 337,99.7 337,100.7 337,102.7 337,103.7 337,104.7 337,105.7 337,106.7 337,107.7 337,108.7 337,109.7 337,110.7 337,111.7 337,112.7 337,113.7 337,114.7 337,115.7 337,116.7 337,118.7 337,119.7 338,119.7 338,120.7 338,121.7 338,122.7 339,122.7 339,123.7 340,124.7 341,124.7 342,124.7 343,124.7 344,124.7 345,123.7 345,122.7 346,121.7 346,120.7 347,119.7 347,118.7 348,117.7 348,116.7 349,115.7 349,114.7 350,113.7 350,112.7 350,111.7 351,110.7 351,108.7 351,107.7 351,106.7 352,105.7 353,104.7 353,103.7 353,101.7 353,100.7 353,98.7 354,98.7 354,96.7 354,95.7 355,94.7 355,92.7 356,91.7 356,90.7 356,89.7 356,88.7 357,87.7 358,87.7 358,86.7 358,85.7 358,84.7 359,83.7 359,82.7 359,81.7 360,81.7 360,80.7 360,79.7 361,79.7 361,80.7 361,81.7 362,82.7 362,83.7 363,83.7 363,84.7 363,86.7 364,87.7 364,88.7 364,89.7 364,91.7 365,92.7 366,93.7 367,94.7 367,95.7 367,96.7 368,96.7 368,97.7 369,97.7 369,98.7 370,99.7 371,99.7 372,99.7 373,99.7 374,99.7 375,99.7 376,99.7 377,99.7 377,98.7 378,98.7 379,98.7 380,97.7 381,96.7 381,95.7 382,95.7 382,94.7 383,94.7 384,94.7 384,93.7 385,93.7 386,93.7 387,93.7 388,93.7 389,93.7 390,93.7 391,93.7 392,93.7 392,94.7 393,94.7 394,95.7 394,96.7 394,97.7 395,97.7 395,98.7 395,99.7 396,99.7 396,100.7 396,101.7 396,102.7 397,102.7 397,103.7 397,104.7 398,104.7 399,104.7 400,104.7 401,104.7 402,104.7 403,104.7 404,103.7 405,103.7 406,102.7 406,101.7 406,100.7 407,100.7 408,100.7 408,99.7 408,98.7 409,98.7 410,97.7 411,96.7 411,95.7 412,94.7 413,92.7 414,92.7 414,90.7 415,89.7 416,89.7 416,88.7 417,87.7 418,87.7 418,86.7 419,85.7 420,84.7 420,83.7 420,82.7 420,81.7 421,79.7 422,79.7 422,78.7 421,78.7 420,78.7 419,80.7 418,80.7 418,81.7 417,81.7 417,83.7 417,84.7 416,86.7 415,87.7 415,88.7 415,89.7 415,90.7 414,90.7 414,92.7 414,93.7 413,95.7 412,96.7 412,98.7 412,99.7 412,100.7 412,101.7 412,102.7 412,103.7 412,104.7 412,105.7 412,106.7 412,108.7 412,109.7 412,110.7 412,111.7 412,112.7 412,113.7 412,114.7 412,115.7 412,116.7 412,117.7 412,118.7 412,119.7 412,120.7 413,120.7 415,120.7 416,120.7 417,120.7 418,119.7 419,118.7 420,118.7 422,118.7 422,117.7 423,116.7 423,115.7 424,115.7 426,115.7 426,114.7 427,114.7 428,113.7 429,112.7 430,112.7 431,112.7 432,111.7 434,110.7 435,109.7 436,109.7 438,109.7 439,109.7 439,108.7 441,107.7 443,107.7 446,107.7 449,107.7 451,106.7 453,106.7 455,106.7 457,106.7 461,106.7 463,106.7 465,106.7 469,106.7 473,106.7 477,106.7 479,106.7 482,106.7 485,106.7 487,106.7 490,106.7 493,106.7 495,106.7 498,106.7 501,107.7 502,107.7 505,107.7 508,107.7 509,107.7 512,108.7 514,109.7 515,109.7 518,111.7 519,111.7 521,112.7 523,112.7 525,112.7 527,112.7 529,112.7 531,114.7 532,114.7 534,115.7 535,116.7 537,117.7 538,117.7 539,118.7 541,118.7 542,120.7 543,121.7 544,121.7 544,122.7 545,123.7 546,124.7 547,125.7 547,126.7 548,126.7 548,127.7 548,128.7 548,129.7 548,128.7 548,127.7 547,126.7 546,125.7 546,124.7 545,124.7 545,123.7 544,122.7 543,122.7 543,121.7 542,120.7 541,120.7 541,119.7 541,118.7 540,118.7 539,117.7 538,117.7 537,117.7 536,117.7 535,117.7 534,116.7 533,116.7 532,116.7 531,116.7 529,116.7 527,116.7 526,116.7 525,116.7 524,116.7 522,116.7 519,116.7"/>
		</g>
	</g>
</svg>